<svg xmlns="http://www.w3.org/2000/svg" xmlns:xlink="http://www.w3.org/1999/xlink" width="40" zoomAndPan="magnify" viewBox="0 0 30 30.000001" height="40" preserveAspectRatio="xMidYMid meet" version="1.0"><defs><clipPath id="f69b51f320"><path d="M 0.484375 0 L 29.515625 0 L 29.515625 29.03125 L 0.484375 29.03125 Z M 0.484375 0 " clip-rule="nonzero"/></clipPath><clipPath id="bd64dcad9a"><path d="M 4.070312 3.625 L 25.84375 3.625 L 25.84375 25.398438 L 4.070312 25.398438 Z M 4.070312 3.625 " clip-rule="nonzero"/></clipPath></defs><g clip-path="url(#f69b51f320)"><path fill="#ffffff" d="M 0.484375 0 L 29.515625 0 L 29.515625 29.03125 L 0.484375 29.03125 Z M 0.484375 0 " fill-opacity="1" fill-rule="nonzero"/><path fill="#ffffff" d="M 0.484375 0 L 29.515625 0 L 29.515625 29.03125 L 0.484375 29.03125 Z M 0.484375 0 " fill-opacity="1" fill-rule="nonzero"/></g><g clip-path="url(#bd64dcad9a)"><path fill="#ffffff" d="M 25.050781 21.050781 L 20.839844 16.839844 C 20.765625 16.765625 20.765625 16.640625 20.839844 16.566406 L 22.847656 14.558594 C 23.292969 14.113281 23.464844 13.460938 23.292969 12.851562 C 23.121094 12.246094 22.632812 11.777344 22.019531 11.632812 L 16.558594 10.332031 C 16.488281 10.3125 16.433594 10.261719 16.417969 10.191406 C 16.398438 10.117188 16.421875 10.046875 16.476562 10 L 17.464844 9.140625 C 18.25 8.464844 18.335938 7.277344 17.65625 6.492188 C 16.976562 5.710938 15.789062 5.625 15.007812 6.304688 L 14.316406 6.902344 C 14.226562 6.980469 14.132812 6.945312 14.105469 6.929688 C 14.078125 6.917969 13.988281 6.863281 13.996094 6.746094 L 14.058594 5.835938 C 14.125 4.800781 13.339844 3.90625 12.308594 3.839844 C 11.8125 3.804688 11.324219 3.96875 10.949219 4.300781 C 10.570312 4.628906 10.34375 5.089844 10.3125 5.589844 L 10.242188 6.632812 C 10.234375 6.753906 10.140625 6.792969 10.113281 6.804688 C 10.085938 6.8125 9.984375 6.839844 9.90625 6.75 L 9.242188 6.019531 C 8.90625 5.648438 8.445312 5.429688 7.945312 5.40625 C 7.441406 5.382812 6.960938 5.554688 6.589844 5.890625 C 5.824219 6.585938 5.765625 7.773438 6.460938 8.542969 L 7.011719 9.148438 C 7.089844 9.234375 7.054688 9.332031 7.042969 9.359375 C 7.027344 9.386719 6.976562 9.472656 6.859375 9.46875 L 6.265625 9.4375 C 5.761719 9.414062 5.285156 9.589844 4.914062 9.925781 C 4.542969 10.261719 4.324219 10.722656 4.300781 11.222656 C 4.25 12.257812 5.050781 13.140625 6.085938 13.191406 L 6.722656 13.222656 C 6.839844 13.226562 6.882812 13.316406 6.894531 13.347656 C 6.902344 13.375 6.929688 13.472656 6.84375 13.550781 L 6.28125 14.085938 C 5.863281 14.484375 5.652344 15.050781 5.707031 15.632812 C 5.738281 15.96875 5.859375 16.285156 6.058594 16.554688 C 6.40625 17.027344 6.941406 17.308594 7.527344 17.324219 C 8.023438 17.339844 8.503906 17.152344 8.867188 16.808594 C 8.867188 16.808594 9.761719 15.960938 10.328125 15.417969 C 10.402344 15.351562 10.484375 15.363281 10.515625 15.375 C 10.546875 15.382812 10.625 15.414062 10.648438 15.511719 L 12.089844 21.558594 C 12.234375 22.171875 12.703125 22.660156 13.308594 22.832031 C 13.917969 23.003906 14.570312 22.832031 15.015625 22.386719 L 16.898438 20.503906 C 16.972656 20.429688 17.09375 20.429688 17.171875 20.503906 L 21.382812 24.71875 C 21.710938 25.046875 22.148438 25.226562 22.613281 25.226562 C 23.078125 25.226562 23.519531 25.046875 23.847656 24.71875 L 25.050781 23.515625 C 25.730469 22.835938 25.730469 21.730469 25.050781 21.050781 Z M 25.050781 21.050781 " fill-opacity="1" fill-rule="nonzero"/><path fill="#000000" d="M 25.175781 20.925781 L 20.964844 16.714844 C 20.957031 16.707031 20.957031 16.695312 20.964844 16.691406 L 22.972656 14.683594 C 23.460938 14.191406 23.648438 13.472656 23.460938 12.804688 C 23.269531 12.136719 22.734375 11.621094 22.058594 11.460938 L 16.601562 10.160156 C 16.59375 10.160156 16.589844 10.15625 16.585938 10.148438 C 16.585938 10.140625 16.585938 10.136719 16.59375 10.132812 L 17.582031 9.273438 C 18.4375 8.535156 18.53125 7.234375 17.789062 6.378906 C 17.046875 5.523438 15.75 5.429688 14.894531 6.171875 L 14.195312 6.777344 C 14.195312 6.777344 14.1875 6.773438 14.183594 6.773438 C 14.171875 6.769531 14.171875 6.765625 14.171875 6.757812 L 14.234375 5.847656 C 14.308594 4.71875 13.449219 3.738281 12.320312 3.664062 C 11.773438 3.625 11.246094 3.804688 10.832031 4.167969 C 10.421875 4.53125 10.171875 5.03125 10.136719 5.574219 L 10.066406 6.621094 C 10.066406 6.628906 10.066406 6.632812 10.054688 6.636719 C 10.042969 6.640625 10.042969 6.636719 10.039062 6.632812 L 9.375 5.902344 C 9.003906 5.496094 8.5 5.257812 7.953125 5.230469 C 7.402344 5.203125 6.878906 5.390625 6.472656 5.757812 C 5.636719 6.519531 5.570312 7.820312 6.332031 8.660156 L 6.882812 9.265625 C 6.886719 9.269531 6.886719 9.273438 6.882812 9.285156 C 6.882812 9.285156 6.878906 9.292969 6.867188 9.292969 L 6.277344 9.265625 C 5.730469 9.238281 5.203125 9.425781 4.796875 9.792969 C 4.390625 10.164062 4.152344 10.667969 4.128906 11.214844 C 4.074219 12.347656 4.949219 13.3125 6.078125 13.367188 L 6.714844 13.394531 C 6.722656 13.394531 6.726562 13.398438 6.730469 13.40625 C 6.734375 13.417969 6.730469 13.421875 6.726562 13.425781 L 6.164062 13.957031 C 5.703125 14.394531 5.472656 15.011719 5.53125 15.648438 C 5.566406 16.015625 5.699219 16.363281 5.917969 16.660156 C 6.300781 17.175781 6.886719 17.484375 7.523438 17.5 C 8.070312 17.515625 8.589844 17.316406 8.988281 16.9375 C 8.988281 16.9375 9.882812 16.089844 10.453125 15.546875 C 10.457031 15.542969 10.460938 15.539062 10.46875 15.542969 C 10.476562 15.542969 10.476562 15.546875 10.480469 15.554688 L 11.917969 21.601562 C 12.082031 22.273438 12.59375 22.8125 13.261719 23 C 13.929688 23.191406 14.652344 23 15.140625 22.511719 L 17.023438 20.628906 C 17.03125 20.621094 17.039062 20.621094 17.046875 20.628906 L 21.257812 24.839844 C 21.621094 25.203125 22.101562 25.402344 22.613281 25.402344 C 23.128906 25.402344 23.609375 25.203125 23.972656 24.839844 L 25.175781 23.636719 C 25.921875 22.890625 25.921875 21.671875 25.175781 20.925781 Z M 24.925781 23.390625 L 23.722656 24.59375 C 23.429688 24.890625 23.035156 25.050781 22.617188 25.050781 C 22.195312 25.050781 21.804688 24.890625 21.507812 24.59375 L 17.296875 20.382812 C 17.222656 20.3125 17.128906 20.273438 17.035156 20.273438 C 16.941406 20.273438 16.847656 20.3125 16.777344 20.382812 L 14.894531 22.265625 C 14.492188 22.664062 13.902344 22.820312 13.359375 22.664062 C 12.8125 22.507812 12.390625 22.070312 12.261719 21.519531 L 10.820312 15.472656 C 10.789062 15.34375 10.695312 15.242188 10.566406 15.207031 C 10.441406 15.167969 10.304688 15.199219 10.210938 15.292969 C 9.640625 15.835938 8.746094 16.683594 8.746094 16.683594 C 8.417969 16.996094 7.984375 17.164062 7.53125 17.148438 C 7.003906 17.136719 6.515625 16.882812 6.199219 16.453125 C 6.019531 16.207031 5.910156 15.917969 5.882812 15.617188 C 5.832031 15.085938 6.023438 14.574219 6.40625 14.214844 L 6.96875 13.679688 C 7.097656 13.558594 7.101562 13.394531 7.058594 13.285156 C 7.019531 13.175781 6.910156 13.054688 6.734375 13.046875 L 6.09375 13.015625 C 5.160156 12.96875 4.433594 12.171875 4.476562 11.234375 C 4.5 10.777344 4.695312 10.359375 5.035156 10.054688 C 5.371094 9.75 5.804688 9.59375 6.261719 9.613281 L 6.851562 9.644531 C 7.035156 9.652344 7.152344 9.542969 7.199219 9.433594 C 7.253906 9.328125 7.261719 9.164062 7.140625 9.03125 L 6.59375 8.425781 C 5.960938 7.730469 6.015625 6.648438 6.710938 6.019531 C 7.046875 5.714844 7.480469 5.558594 7.9375 5.582031 C 8.390625 5.601562 8.808594 5.800781 9.113281 6.136719 L 9.777344 6.871094 C 9.898438 7 10.058594 7.007812 10.171875 6.96875 C 10.28125 6.929688 10.40625 6.824219 10.417969 6.648438 L 10.484375 5.601562 C 10.515625 5.148438 10.722656 4.730469 11.0625 4.433594 C 11.40625 4.132812 11.84375 3.984375 12.296875 4.011719 C 13.234375 4.074219 13.945312 4.886719 13.882812 5.824219 L 13.824219 6.734375 C 13.8125 6.914062 13.917969 7.035156 14.027344 7.085938 C 14.132812 7.140625 14.292969 7.152344 14.429688 7.035156 L 15.121094 6.4375 C 15.832031 5.820312 16.910156 5.898438 17.523438 6.609375 C 18.136719 7.316406 18.0625 8.394531 17.351562 9.007812 L 16.363281 9.867188 C 16.257812 9.957031 16.214844 10.097656 16.246094 10.230469 C 16.28125 10.367188 16.382812 10.46875 16.519531 10.5 L 21.976562 11.800781 C 22.53125 11.933594 22.96875 12.355469 23.121094 12.898438 C 23.277344 13.445312 23.125 14.035156 22.722656 14.433594 L 20.714844 16.441406 C 20.570312 16.585938 20.570312 16.820312 20.714844 16.964844 L 24.925781 21.175781 C 25.539062 21.785156 25.539062 22.78125 24.925781 23.390625 Z M 24.925781 23.390625 " fill-opacity="1" fill-rule="nonzero"/></g><path fill="#539b59" d="M 24.175781 21.84375 L 19.339844 17.007812 C 19.144531 16.808594 19.144531 16.488281 19.339844 16.289062 L 21.984375 13.648438 C 22.265625 13.367188 22.128906 12.886719 21.742188 12.792969 L 11.511719 10.355469 C 11.140625 10.269531 10.8125 10.601562 10.898438 10.96875 L 13.335938 21.199219 C 13.429688 21.585938 13.910156 21.722656 14.191406 21.441406 L 16.707031 18.925781 C 16.90625 18.726562 17.226562 18.726562 17.425781 18.925781 L 22.261719 23.761719 C 22.460938 23.957031 22.78125 23.957031 22.980469 23.761719 L 24.175781 22.5625 C 24.375 22.363281 24.375 22.042969 24.175781 21.84375 Z M 24.175781 21.84375 " fill-opacity="1" fill-rule="nonzero"/><path fill="#000000" d="M 24.382812 21.636719 L 19.546875 16.800781 C 19.507812 16.761719 19.484375 16.707031 19.484375 16.648438 C 19.484375 16.589844 19.507812 16.535156 19.546875 16.496094 L 22.191406 13.855469 C 22.398438 13.648438 22.472656 13.351562 22.394531 13.070312 C 22.3125 12.789062 22.09375 12.578125 21.808594 12.511719 L 11.578125 10.074219 C 11.304688 10.007812 11.023438 10.085938 10.828125 10.285156 C 10.628906 10.484375 10.550781 10.765625 10.613281 11.035156 L 13.050781 21.269531 C 13.117188 21.554688 13.328125 21.773438 13.613281 21.851562 C 13.894531 21.933594 14.1875 21.855469 14.394531 21.648438 L 16.910156 19.132812 C 16.996094 19.046875 17.132812 19.046875 17.21875 19.132812 L 22.054688 23.96875 C 22.210938 24.125 22.414062 24.203125 22.621094 24.203125 C 22.824219 24.203125 23.027344 24.125 23.183594 23.96875 L 24.382812 22.769531 C 24.695312 22.457031 24.695312 21.949219 24.382812 21.636719 Z M 23.96875 22.355469 L 22.773438 23.554688 C 22.6875 23.636719 22.550781 23.636719 22.46875 23.554688 L 17.632812 18.71875 C 17.476562 18.5625 17.269531 18.484375 17.066406 18.484375 C 16.859375 18.484375 16.65625 18.5625 16.5 18.71875 L 13.984375 21.234375 C 13.902344 21.316406 13.808594 21.300781 13.773438 21.289062 C 13.734375 21.28125 13.648438 21.242188 13.621094 21.132812 L 11.183594 10.902344 C 11.15625 10.796875 11.214844 10.726562 11.242188 10.699219 C 11.265625 10.671875 11.335938 10.617188 11.445312 10.640625 L 21.675781 13.078125 C 21.785156 13.105469 21.820312 13.191406 21.832031 13.230469 C 21.84375 13.265625 21.859375 13.359375 21.777344 13.441406 L 19.136719 16.082031 C 18.824219 16.394531 18.824219 16.902344 19.136719 17.214844 L 23.972656 22.050781 C 24.054688 22.136719 24.054688 22.273438 23.972656 22.355469 Z M 23.96875 22.355469 " fill-opacity="1" fill-rule="nonzero"/><path fill="#000000" d="M 10.351562 8.988281 L 8.402344 6.835938 C 8.160156 6.574219 7.757812 6.554688 7.492188 6.792969 C 7.230469 7.03125 7.210938 7.4375 7.449219 7.703125 L 9.398438 9.851562 C 9.636719 10.113281 10.042969 10.136719 10.304688 9.894531 C 10.570312 9.65625 10.589844 9.25 10.351562 8.988281 Z M 10.351562 8.988281 " fill-opacity="1" fill-rule="nonzero"/><path fill="#000000" d="M 12.277344 5.066406 C 11.925781 5.042969 11.617188 5.3125 11.59375 5.664062 L 11.40625 8.5 C 11.382812 8.851562 11.652344 9.160156 12.007812 9.183594 C 12.359375 9.207031 12.667969 8.9375 12.691406 8.582031 L 12.878906 5.75 C 12.902344 5.398438 12.632812 5.089844 12.277344 5.066406 Z M 12.277344 5.066406 " fill-opacity="1" fill-rule="nonzero"/><path fill="#000000" d="M 16.757812 7.289062 C 16.523438 7.019531 16.117188 6.992188 15.847656 7.222656 L 13.792969 9.003906 C 13.523438 9.238281 13.496094 9.644531 13.726562 9.914062 C 13.960938 10.179688 14.367188 10.210938 14.636719 9.976562 L 16.691406 8.195312 C 16.960938 7.964844 16.988281 7.558594 16.757812 7.289062 Z M 16.757812 7.289062 " fill-opacity="1" fill-rule="nonzero"/><path fill="#000000" d="M 8.957031 10.773438 L 6.289062 10.644531 C 5.933594 10.625 5.632812 10.898438 5.613281 11.253906 C 5.597656 11.609375 5.871094 11.910156 6.226562 11.929688 L 8.894531 12.058594 C 9.25 12.074219 9.550781 11.800781 9.566406 11.445312 C 9.585938 11.089844 9.3125 10.789062 8.957031 10.773438 Z M 8.957031 10.773438 " fill-opacity="1" fill-rule="nonzero"/><path fill="#000000" d="M 9.949219 13.21875 C 9.703125 12.960938 9.296875 12.949219 9.039062 13.195312 L 7.207031 14.933594 C 6.949219 15.179688 6.9375 15.585938 7.183594 15.84375 C 7.425781 16.101562 7.832031 16.109375 8.089844 15.867188 L 9.925781 14.125 C 10.183594 13.882812 10.195312 13.476562 9.949219 13.21875 Z M 9.949219 13.21875 " fill-opacity="1" fill-rule="nonzero"/></svg>