<svg xmlns="http://www.w3.org/2000/svg" xmlns:xlink="http://www.w3.org/1999/xlink" width="40" zoomAndPan="magnify" viewBox="0 0 30 30.000001" height="40" preserveAspectRatio="xMidYMid meet" version="1.0"><defs><clipPath id="8c1bad74bb"><path d="M 0.484375 0 L 29.515625 0 L 29.515625 29.03125 L 0.484375 29.03125 Z M 0.484375 0 " clip-rule="nonzero"/></clipPath><clipPath id="6dfd5c0018"><path d="M 5.386719 8 L 24.257812 8 L 24.257812 24.441406 L 5.386719 24.441406 Z M 5.386719 8 " clip-rule="nonzero"/></clipPath><clipPath id="bca3b5c4e2"><path d="M 11 7.75 L 19 7.75 L 19 16 L 11 16 Z M 11 7.75 " clip-rule="nonzero"/></clipPath></defs><g clip-path="url(#8c1bad74bb)"><path fill="#ffffff" d="M 0.484375 0 L 29.515625 0 L 29.515625 29.03125 L 0.484375 29.03125 Z M 0.484375 0 " fill-opacity="1" fill-rule="nonzero"/><path fill="#ffffff" d="M 0.484375 0 L 29.515625 0 L 29.515625 29.03125 L 0.484375 29.03125 Z M 0.484375 0 " fill-opacity="1" fill-rule="nonzero"/></g><g clip-path="url(#6dfd5c0018)"><path fill="#000000" d="M 23.984375 8.671875 L 19.1875 8.671875 C 19.035156 8.671875 18.914062 8.796875 18.914062 8.953125 C 18.914062 9.105469 19.035156 9.230469 19.1875 9.230469 L 23.714844 9.230469 L 23.714844 19.140625 L 5.929688 19.140625 L 5.929688 9.230469 L 10.496094 9.230469 C 10.648438 9.230469 10.769531 9.105469 10.769531 8.953125 C 10.769531 8.796875 10.648438 8.671875 10.496094 8.671875 L 5.660156 8.671875 C 5.507812 8.671875 5.386719 8.796875 5.386719 8.953125 L 5.386719 21.726562 C 5.386719 21.878906 5.507812 22.003906 5.660156 22.003906 L 12.886719 22.003906 L 12.890625 23.882812 L 12 23.882812 C 11.851562 23.882812 11.730469 24.007812 11.730469 24.164062 C 11.730469 24.316406 11.851562 24.441406 12 24.441406 L 17.726562 24.441406 C 17.878906 24.441406 18 24.316406 18 24.164062 C 18 24.007812 17.878906 23.882812 17.726562 23.882812 L 16.71875 23.882812 L 16.71875 22.003906 L 23.984375 22.003906 C 24.136719 22.003906 24.257812 21.882812 24.257812 21.726562 L 24.257812 8.953125 C 24.257812 8.796875 24.136719 8.671875 23.984375 8.671875 Z M 16.175781 22.003906 L 16.175781 23.882812 L 13.433594 23.882812 L 13.429688 22.003906 Z M 5.929688 21.449219 L 5.929688 19.695312 L 23.714844 19.695312 L 23.714844 21.449219 Z M 5.929688 21.449219 " fill-opacity="1" fill-rule="nonzero"/></g><path fill="#000000" d="M 15.199219 20.617188 C 15.199219 20.726562 15.164062 20.816406 15.089844 20.890625 C 15.015625 20.964844 14.925781 21.003906 14.824219 21.003906 C 14.71875 21.003906 14.628906 20.964844 14.554688 20.890625 C 14.480469 20.816406 14.445312 20.726562 14.445312 20.617188 C 14.445312 20.511719 14.480469 20.421875 14.554688 20.347656 C 14.628906 20.269531 14.71875 20.234375 14.824219 20.234375 C 14.925781 20.234375 15.015625 20.269531 15.089844 20.347656 C 15.164062 20.421875 15.199219 20.511719 15.199219 20.617188 Z M 15.199219 20.617188 " fill-opacity="1" fill-rule="nonzero"/><g clip-path="url(#bca3b5c4e2)"><path fill="#000000" d="M 11.132812 12.601562 C 11.289062 12.992188 11.289062 12.996094 11.449219 13.386719 L 12.5625 13.328125 C 12.746094 13.515625 12.839844 13.609375 13.023438 13.800781 L 12.964844 14.9375 C 13.347656 15.097656 13.351562 15.097656 13.734375 15.261719 L 14.480469 14.414062 C 14.738281 14.414062 14.871094 14.414062 15.132812 14.414062 L 15.878906 15.261719 C 16.261719 15.097656 16.261719 15.097656 16.644531 14.9375 L 16.585938 13.800781 C 16.773438 13.609375 16.863281 13.515625 17.050781 13.328125 L 18.160156 13.386719 C 18.320312 12.996094 18.320312 12.992188 18.480469 12.601562 L 17.652344 11.839844 C 17.652344 11.574219 17.652344 11.4375 17.652344 11.171875 L 18.480469 10.410156 C 18.320312 10.019531 18.320312 10.019531 18.160156 9.625 L 17.050781 9.683594 C 16.863281 9.496094 16.773438 9.402344 16.585938 9.214844 L 16.644531 8.074219 C 16.261719 7.914062 16.261719 7.914062 15.878906 7.75 L 15.132812 8.597656 C 14.871094 8.597656 14.738281 8.597656 14.480469 8.597656 L 13.734375 7.75 C 13.351562 7.914062 13.347656 7.914062 12.964844 8.074219 L 13.023438 9.214844 C 12.839844 9.402344 12.746094 9.496094 12.5625 9.683594 L 11.449219 9.625 C 11.289062 10.019531 11.289062 10.019531 11.132812 10.410156 L 11.960938 11.171875 C 11.960938 11.4375 11.960938 11.574219 11.960938 11.839844 Z M 14.804688 9.605469 C 15.832031 9.605469 16.664062 10.457031 16.664062 11.503906 C 16.664062 12.554688 15.832031 13.40625 14.804688 13.40625 C 13.777344 13.40625 12.949219 12.554688 12.949219 11.503906 C 12.949219 10.457031 13.777344 9.605469 14.804688 9.605469 Z M 14.804688 9.605469 " fill-opacity="1" fill-rule="nonzero"/></g><path fill="#000000" d="M 9.796875 17.238281 C 9.796875 17.675781 10.140625 18.03125 10.570312 18.03125 L 19.015625 18.03125 C 19.445312 18.03125 19.789062 17.675781 19.789062 17.238281 C 19.789062 16.800781 19.445312 16.449219 19.015625 16.449219 L 10.570312 16.449219 C 10.140625 16.449219 9.796875 16.800781 9.796875 17.238281 Z M 19.589844 17.238281 C 19.589844 17.5625 19.332031 17.824219 19.015625 17.824219 L 10.570312 17.824219 C 10.253906 17.824219 9.996094 17.5625 9.996094 17.238281 C 9.996094 16.914062 10.253906 16.652344 10.570312 16.652344 L 19.015625 16.652344 C 19.332031 16.652344 19.589844 16.914062 19.589844 17.238281 Z M 19.589844 17.238281 " fill-opacity="1" fill-rule="nonzero"/><path fill="#000000" d="M 10.28125 17.238281 C 10.28125 17.402344 10.410156 17.535156 10.570312 17.535156 L 15.191406 17.535156 C 15.351562 17.535156 15.480469 17.402344 15.480469 17.238281 C 15.480469 17.074219 15.351562 16.945312 15.191406 16.945312 L 10.570312 16.945312 C 10.410156 16.945312 10.28125 17.074219 10.28125 17.238281 Z M 10.28125 17.238281 " fill-opacity="1" fill-rule="nonzero"/></svg>