<svg xmlns="http://www.w3.org/2000/svg" xmlns:xlink="http://www.w3.org/1999/xlink" width="40" zoomAndPan="magnify" viewBox="0 0 30 30.000001" height="40" preserveAspectRatio="xMidYMid meet" version="1.0"><defs><clipPath id="130347ffe0"><path d="M 0.484375 0 L 29.515625 0 L 29.515625 29.03125 L 0.484375 29.03125 Z M 0.484375 0 " clip-rule="nonzero"/></clipPath><clipPath id="bc7a674af3"><path d="M 4.140625 6.082031 L 25.917969 6.082031 L 25.917969 22.777344 L 4.140625 22.777344 Z M 4.140625 6.082031 " clip-rule="nonzero"/></clipPath><clipPath id="21e613455f"><path d="M 19.238281 6.082031 L 26.496094 6.082031 L 26.496094 13.339844 L 19.238281 13.339844 Z M 19.238281 6.082031 " clip-rule="nonzero"/></clipPath></defs><g clip-path="url(#130347ffe0)"><path fill="#ffffff" d="M 0.484375 0 L 29.515625 0 L 29.515625 29.03125 L 0.484375 29.03125 Z M 0.484375 0 " fill-opacity="1" fill-rule="nonzero"/><path fill="#ffffff" d="M 0.484375 0 L 29.515625 0 L 29.515625 29.03125 L 0.484375 29.03125 Z M 0.484375 0 " fill-opacity="1" fill-rule="nonzero"/></g><path fill="#000000" d="M 18.988281 17.617188 C 19.210938 17.617188 19.390625 17.796875 19.390625 18.015625 C 19.390625 18.234375 19.210938 18.410156 18.988281 18.410156 L 14.777344 18.410156 C 14.554688 18.410156 14.375 18.234375 14.375 18.015625 C 14.375 17.796875 14.554688 17.617188 14.777344 17.617188 Z M 18.988281 17.617188 " fill-opacity="1" fill-rule="nonzero"/><path fill="#000000" d="M 9.671875 11.996094 C 9.832031 11.835938 10.078125 11.84375 10.238281 11.988281 L 13.101562 14.714844 C 13.34375 14.949219 13.34375 15.335938 13.101562 15.570312 L 10.238281 18.296875 C 10.082031 18.449219 9.828125 18.445312 9.671875 18.289062 C 9.519531 18.132812 9.523438 17.882812 9.683594 17.730469 L 12.394531 15.144531 L 9.683594 12.558594 C 9.53125 12.398438 9.515625 12.15625 9.671875 11.996094 Z M 9.671875 11.996094 " fill-opacity="1" fill-rule="nonzero"/><g clip-path="url(#bc7a674af3)"><path fill="#000000" d="M 21.894531 6.496094 C 22.105469 6.09375 22.695312 6.09375 22.90625 6.496094 C 23.371094 7.472656 24.027344 8.292969 24.972656 8.851562 L 25.578125 9.210938 C 25.917969 9.445312 25.917969 9.949219 25.578125 10.183594 L 24.972656 10.542969 C 24.695312 10.707031 24.4375 10.894531 24.203125 11.105469 C 24.203125 11.164062 24.207031 11.222656 24.207031 11.28125 L 24.207031 19.203125 C 24.207031 21.164062 22.5625 22.742188 20.59375 22.765625 L 7.753906 22.765625 C 5.757812 22.765625 4.144531 21.171875 4.140625 19.203125 L 4.140625 11.28125 C 4.140625 9.3125 5.757812 7.71875 7.753906 7.71875 L 20.59375 7.71875 C 20.773438 7.71875 20.949219 7.730469 21.121094 7.757812 C 21.445312 7.371094 21.679688 6.945312 21.894531 6.496094 Z M 7.753906 8.511719 C 6.203125 8.511719 4.945312 9.75 4.945312 11.28125 L 4.945312 19.203125 C 4.945312 20.734375 6.203125 21.972656 7.753906 21.972656 L 20.59375 21.972656 C 22.125 21.953125 23.402344 20.726562 23.402344 19.203125 L 23.402344 12 C 23.214844 12.269531 23.058594 12.558594 22.925781 12.859375 C 22.71875 13.289062 22.074219 13.320312 21.875 12.859375 C 21.449219 11.894531 20.734375 11.09375 19.828125 10.542969 L 19.261719 10.207031 C 18.871094 9.976562 18.871094 9.417969 19.261719 9.1875 L 19.828125 8.851562 C 20.003906 8.75 20.171875 8.632812 20.335938 8.511719 Z M 22.402344 7.285156 C 21.835938 8.335938 20.976562 9.097656 19.960938 9.699219 C 20.976562 10.300781 21.835938 11.0625 22.402344 12.109375 C 22.964844 11.0625 23.824219 10.300781 24.839844 9.699219 C 23.824219 9.097656 22.964844 8.335938 22.402344 7.285156 Z M 22.402344 7.285156 " fill-opacity="1" fill-rule="evenodd"/></g><g clip-path="url(#21e613455f)"><path fill="#76c554" d="M 26.609375 9.769531 C 23.847656 10.277344 23.433594 10.691406 22.925781 13.453125 C 22.414062 10.691406 22.003906 10.277344 19.238281 9.769531 C 22.003906 9.261719 22.414062 8.847656 22.925781 6.082031 C 23.433594 8.847656 23.847656 9.261719 26.609375 9.769531 Z M 26.609375 9.769531 " fill-opacity="1" fill-rule="nonzero"/></g></svg>