<svg xmlns="http://www.w3.org/2000/svg" width="103.74" height="21.462" viewBox="0 0 103.74 21.462">
  <g id="Group_6367" data-name="Group 6367" transform="translate(-1548.046 -9486.306)">
    <g id="icon_611cd56787a36" transform="translate(1548.046 9487.961)">
      <path id="Path_99" data-name="Path 99" d="M1.832,17.995a2.776,2.776,0,0,0,1.783,0,3.429,3.429,0,0,0,.746-.254A9.059,9.059,0,0,0,11.251,8.6,9,9,0,0,0,3.565.08,4.41,4.41,0,0,0,1.8.08,2.46,2.46,0,0,0,.01,2.672,2.432,2.432,0,0,0,2.455,4.889a4.091,4.091,0,0,1,3.37,6.105,3.99,3.99,0,0,1-3.4,2.081A2.4,2.4,0,0,0,.128,14.9a2.391,2.391,0,0,0,.91,2.611,3.165,3.165,0,0,0,.794.481Z" transform="translate(7.904 0.01)" fill="#26c682"/>
      <path id="Path_100" data-name="Path 100" d="M41.161,18.039h.96a5.152,5.152,0,0,0,1.305-.932q3.651-3.937,7.357-7.828c.27-.285.244-.431-.013-.7C48.294,6.027,45.838,3.458,43.367.9A2.44,2.44,0,0,0,40.2.435,2.974,2.974,0,0,0,39.1,2.014v.959a5.5,5.5,0,0,0,1.221,1.7c1.253,1.305,2.478,2.611,3.73,3.916.293.3.356.481.026.819-1.214,1.259-2.389,2.564-3.608,3.825A4.905,4.905,0,0,0,39.106,15.3v.96A4.715,4.715,0,0,0,41.161,18.039Z" transform="translate(-39.102 -0.034)" fill="#236bf8"/>
    </g>
    <path id="Path_30897" data-name="Path 30897" d="M-506.993-112.089a7.475,7.475,0,0,1-3.841-1,7.382,7.382,0,0,1-2.707-2.72,7.6,7.6,0,0,1-1-3.882,8.059,8.059,0,0,1,.916-3.869,7.092,7.092,0,0,1,2.5-2.707,6.584,6.584,0,0,1,3.582-1,6.681,6.681,0,0,1,2.98.67,6.715,6.715,0,0,1,2.3,1.818v-7.382a1.342,1.342,0,0,1,.4-1.012,1.379,1.379,0,0,1,1-.383,1.367,1.367,0,0,1,1.012.383,1.368,1.368,0,0,1,.383,1.012v12.467a7.6,7.6,0,0,1-1,3.882,7.414,7.414,0,0,1-2.693,2.72A7.4,7.4,0,0,1-506.993-112.089Zm0-2.461a4.667,4.667,0,0,0,2.488-.67,4.738,4.738,0,0,0,1.722-1.845,5.476,5.476,0,0,0,.629-2.625,5.375,5.375,0,0,0-.629-2.625,4.789,4.789,0,0,0-1.722-1.818,4.667,4.667,0,0,0-2.488-.67,4.687,4.687,0,0,0-2.474.67,4.859,4.859,0,0,0-1.75,1.818,5.283,5.283,0,0,0-.643,2.625,5.382,5.382,0,0,0,.643,2.625,4.8,4.8,0,0,0,1.75,1.845A4.687,4.687,0,0,0-506.993-114.549Zm19.22,2.461a7.729,7.729,0,0,1-3.91-.971,7.035,7.035,0,0,1-2.666-2.679,7.8,7.8,0,0,1-.971-3.923,7.86,7.86,0,0,1,.971-3.951,7.035,7.035,0,0,1,2.666-2.679,7.728,7.728,0,0,1,3.91-.971,7.673,7.673,0,0,1,3.882.971,7.035,7.035,0,0,1,2.666,2.679,7.86,7.86,0,0,1,.971,3.951,7.892,7.892,0,0,1-.957,3.923,6.937,6.937,0,0,1-2.652,2.679A7.729,7.729,0,0,1-487.773-112.089Zm0-2.461a4.793,4.793,0,0,0,2.515-.656,4.589,4.589,0,0,0,1.709-1.8,5.53,5.53,0,0,0,.615-2.652,5.611,5.611,0,0,0-.615-2.666,4.565,4.565,0,0,0-1.709-1.818,4.793,4.793,0,0,0-2.515-.656,4.793,4.793,0,0,0-2.515.656,4.662,4.662,0,0,0-1.722,1.818,5.512,5.512,0,0,0-.629,2.666,5.433,5.433,0,0,0,.629,2.652,4.687,4.687,0,0,0,1.722,1.8A4.793,4.793,0,0,0-487.773-114.549Zm17.115,2.351a4.48,4.48,0,0,1-2.461-.7,4.892,4.892,0,0,1-1.723-1.9,5.754,5.754,0,0,1-.629-2.707v-13.041a1.332,1.332,0,0,1,.383-.984,1.332,1.332,0,0,1,.984-.383,1.333,1.333,0,0,1,.984.383,1.333,1.333,0,0,1,.383.984V-117.5a2.805,2.805,0,0,0,.6,1.832,1.838,1.838,0,0,0,1.476.738h.93a1.076,1.076,0,0,1,.834.383,1.422,1.422,0,0,1,.342.984,1.232,1.232,0,0,1-.451.984,1.734,1.734,0,0,1-1.162.383Zm-6.07-12.057a1.316,1.316,0,0,1-.93-.328,1.07,1.07,0,0,1-.355-.82,1.133,1.133,0,0,1,.355-.875,1.316,1.316,0,0,1,.93-.328h6.316a1.316,1.316,0,0,1,.93.328,1.133,1.133,0,0,1,.355.875,1.07,1.07,0,0,1-.355.82,1.316,1.316,0,0,1-.93.328Zm13.26,12.057a1.33,1.33,0,0,1-1-.41,1.366,1.366,0,0,1-.4-.984v-13.479a7.649,7.649,0,0,1,.684-3.254,5.488,5.488,0,0,1,2.037-2.351,6.1,6.1,0,0,1,3.377-.875,10.068,10.068,0,0,1,1.34.1,10.461,10.461,0,0,1,1.476.314,3.256,3.256,0,0,1,1.285.588,1.167,1.167,0,0,1,.383.916.972.972,0,0,1-.4.916,1.71,1.71,0,0,1-1.271-.014,6.751,6.751,0,0,0-1.435-.26q-.67-.041-1.244-.041a3.315,3.315,0,0,0-2.488.984,3.718,3.718,0,0,0-.957,2.707v13.752a1.366,1.366,0,0,1-.4.984A1.33,1.33,0,0,1-463.467-112.2Zm-2.57-12.057a1.316,1.316,0,0,1-.93-.328,1.07,1.07,0,0,1-.355-.82,1.133,1.133,0,0,1,.355-.875,1.316,1.316,0,0,1,.93-.328h6.206a1.316,1.316,0,0,1,.93.328,1.133,1.133,0,0,1,.355.875,1.07,1.07,0,0,1-.355.82,1.316,1.316,0,0,1-.93.328Zm13.944,12.057a3.606,3.606,0,0,1-2.133-.656,4.356,4.356,0,0,1-1.449-1.791,6.211,6.211,0,0,1-.52-2.611v-14.928a1.333,1.333,0,0,1,.383-.984,1.332,1.332,0,0,1,.984-.383,1.332,1.332,0,0,1,.984.383,1.332,1.332,0,0,1,.383.984v14.928a3.273,3.273,0,0,0,.383,1.668,1.127,1.127,0,0,0,.984.656h.684a1.135,1.135,0,0,1,.889.383,1.422,1.422,0,0,1,.342.984,1.173,1.173,0,0,1-.519.984,2.2,2.2,0,0,1-1.34.383Zm10.608.109a7.728,7.728,0,0,1-3.91-.971,7.035,7.035,0,0,1-2.666-2.679,7.8,7.8,0,0,1-.971-3.923,7.86,7.86,0,0,1,.971-3.951,7.035,7.035,0,0,1,2.666-2.679,7.728,7.728,0,0,1,3.91-.971,7.673,7.673,0,0,1,3.882.971,7.035,7.035,0,0,1,2.666,2.679,7.86,7.86,0,0,1,.971,3.951,7.892,7.892,0,0,1-.957,3.923,6.937,6.937,0,0,1-2.652,2.679A7.729,7.729,0,0,1-441.485-112.089Zm0-2.461a4.793,4.793,0,0,0,2.515-.656,4.589,4.589,0,0,0,1.709-1.8,5.531,5.531,0,0,0,.615-2.652,5.612,5.612,0,0,0-.615-2.666,4.566,4.566,0,0,0-1.709-1.818,4.793,4.793,0,0,0-2.515-.656,4.793,4.793,0,0,0-2.515.656,4.662,4.662,0,0,0-1.722,1.818,5.512,5.512,0,0,0-.629,2.666,5.433,5.433,0,0,0,.629,2.652,4.687,4.687,0,0,0,1.722,1.8A4.793,4.793,0,0,0-441.485-114.549Z" transform="translate(2085.753 9619.856)" fill="#3a4355"/>
  </g>
</svg>
