<svg xmlns="http://www.w3.org/2000/svg" width="402.927" height="81.994" viewBox="0 0 402.927 81.994">
  <g id="Group_6506" data-name="Group 6506" transform="translate(-6759.542 -5166.818)">
    <g id="Group_6503" data-name="Group 6503" transform="translate(6759.542 5179.085)">
      <g id="Group_6498" data-name="Group 6498" transform="translate(0)">
        <g id="Group_6455" data-name="Group 6455" transform="translate(0 0)">
          <g id="Group_6454" data-name="Group 6454">
            <g id="Group_6453" data-name="Group 6453">
              <g id="Group_6452" data-name="Group 6452" transform="translate(34.863 4.514)">
                <path id="Path_30974" data-name="Path 30974" d="M369.765,383.266h30.349v30.349Z" transform="translate(-369.765 -383.266)" fill="#236bf9"/>
              </g>
              <circle id="Ellipse_528" data-name="Ellipse 528" cx="30.349" cy="30.349" r="30.349" transform="translate(0 59.896) rotate(-80.679)" fill="#236bf9"/>
            </g>
            <path id="Path_30975" data-name="Path 30975" d="M347.773,424.941l15.98-16.923,7.206,7.355,14.709-7.036-15.652,16.6-7.73-7.869Z" transform="translate(-331.857 -382.178)" fill="#fff"/>
          </g>
        </g>
      </g>
    </g>
    <path id="Path_31030" data-name="Path 31030" d="M-501.467-39.816a76.518,76.518,0,0,1-11.906-.9,42.247,42.247,0,0,1-9.061-2.265V-57.2a34.037,34.037,0,0,0,8.534,2.634,49.261,49.261,0,0,0,8.956.948,45.105,45.105,0,0,0,6.164-.263,1.618,1.618,0,0,0,1.528-1.738q0-1.264-1.633-2a42.853,42.853,0,0,0-5.321-1.791l-5.268-1.686q-7.27-2.634-10.431-5.9t-3.161-9.272q0-15.594,24.444-15.594a69.4,69.4,0,0,1,9.8.738,59.027,59.027,0,0,1,8.324,1.686v13.908a33.559,33.559,0,0,0-6.8-1.949,38.517,38.517,0,0,0-6.9-.685,41.808,41.808,0,0,0-6.48.369q-2.16.369-2.16,1.738a1.979,1.979,0,0,0,1.422,1.791,37.846,37.846,0,0,0,5,1.58l4.636,1.37a37.146,37.146,0,0,1,8.9,3.688,11.531,11.531,0,0,1,4.531,4.794,16.7,16.7,0,0,1,1.317,7.112,13.3,13.3,0,0,1-6.216,11.8Q-489.455-39.816-501.467-39.816Zm56.685,0q-13.486,0-21.547-6.691t-8.06-19.229q0-12.222,6.849-19.176t20.019-6.954q12.117,0,19.071,6.216t6.954,16.963v8.745h-34.664a9,9,0,0,0,5.215,5.637q3.951,1.738,11.01,1.738a51.573,51.573,0,0,0,8.587-.738,32.494,32.494,0,0,0,7.112-1.9v11.906Q-431.612-39.816-444.782-39.816Zm6.216-30.871v-1.791q0-6.743-8.324-6.743-4.952,0-7.112,2.107t-2.16,6.427Zm24.444-20.124h18.544l.527,3.793a26.821,26.821,0,0,1,7.8-3.477,35.127,35.127,0,0,1,9.8-1.37q9.377,0,13.7,4.636t4.32,14.329v32.03h-19.808V-70.9q0-3.372-1.528-4.847t-5.11-1.475a11.381,11.381,0,0,0-4.531,1,12.376,12.376,0,0,0-3.9,2.581V-40.87h-19.808Zm84.817,51q-11.168,0-17.227-5.795T-352.59-64.26a32.482,32.482,0,0,1,3.214-15.067,22.428,22.428,0,0,1,8.64-9.377,23.527,23.527,0,0,1,12.064-3.161,32.686,32.686,0,0,1,6.9.738,22.34,22.34,0,0,1,5.953,2.107v-22.864h19.808V-40.87h-17.174l-.948-3.9a24.167,24.167,0,0,1-6.8,3.688A25.457,25.457,0,0,1-329.3-39.816Zm5.69-14.329a11.018,11.018,0,0,0,7.8-3.056V-74.9a11.269,11.269,0,0,0-7.8-2.634,7.326,7.326,0,0,0-6.374,3.53q-2.371,3.53-2.371,9.851a17.054,17.054,0,0,0,.9,6.269,5.175,5.175,0,0,0,2.739,2.95A13.314,13.314,0,0,0-323.615-54.145Zm42.777-57.633h21.389v14.329h-21.389Zm1.58,35.4h-7.27l1.686-14.435h25.392V-40.87h-19.808Zm29.291-14.435h18.544l.527,3.793a26.821,26.821,0,0,1,7.8-3.477,35.128,35.128,0,0,1,9.8-1.37q9.377,0,13.7,4.636t4.32,14.329v32.03h-19.808V-70.9q0-3.372-1.528-4.847t-5.11-1.475a11.382,11.382,0,0,0-4.531,1,12.376,12.376,0,0,0-3.9,2.581V-40.87h-19.808Z" transform="translate(7357.753 5278.954)" fill="#413232"/>
    <path id="Path_31031" data-name="Path 31031" d="M-141.432-111.718h21.783v14.735h-21.783Z" transform="translate(7218.163 5278.536)" fill="#19e380"/>
  </g>
</svg>
