<?xml version="1.0" encoding="utf-8"?>
<!-- Svg Vector Icons : http://www.onlinewebfonts.com/icon -->
<!DOCTYPE svg PUBLIC "-//W3C//DTD SVG 1.1//EN" "http://www.w3.org/Graphics/SVG/1.1/DTD/svg11.dtd">
<svg version="1.1" xmlns="http://www.w3.org/2000/svg" xmlns:xlink="http://www.w3.org/1999/xlink" x="0px" y="0px" viewBox="0 0 256 256" enable-background="new 0 0 256 256" xml:space="preserve">
<metadata> Svg Vector Icons : http://www.onlinewebfonts.com/icon </metadata>
<g><g><g><path fill="#000000" d="M119,10.3c-0.7,0.1-3.4,0.4-5.8,0.7c-25.1,2.9-50,15.1-68.6,33.6c-20,19.9-31.7,45.5-34.3,74.7l-0.3,3.1l16.6-8.3l16.6-8.3l16.6,8.3c9.1,4.6,16.7,8.3,16.8,8.3c0.1,0,0.3-1.1,0.5-2.5c0.4-3.8,2.4-10.2,4.5-14.4c7.8-16.1,23.2-26.9,41-28.9l2.7-0.3l8.2-16.5l8.3-16.5l-8.3-16.6l-8.3-16.6l-2.4,0C121.5,10.2,119.8,10.3,119,10.3z M126.2,37.5c1.3,1.1,1.4,1.3,0.7,1.9c-0.6,0.6-0.8,0.6-1.6,0c-0.9-0.8-2.7-1-3.6-0.4c-1.7,1.2-2.1,5.8-0.6,8.2c0.7,1.2,1.2,1.5,2.5,1.5c1.8,0,2.7-0.9,2.5-2.4c-0.1-0.8-0.5-1.1-1.6-1.2c-1.2-0.1-1.5-0.4-1.5-1.1s0.3-0.9,1.8-0.9c1,0,2.1-0.1,2.5-0.3c0.5-0.2,0.7,0.4,0.9,2.7c0.3,2.7,0.2,3-0.8,3.9c-2.4,2.2-6.3,1.7-8.1-0.8c-1.2-1.7-1.8-5.1-1.3-7.5C118.9,36.9,123.1,35,126.2,37.5z M114.8,43.5c0.7,3.3,1.4,6.4,1.5,6.9c0.2,0.8,0,1-0.9,1.2c-1,0.2-1.6-0.3-4.5-3.6c-1.8-2.1-3.4-3.8-3.5-3.7c-0.1,0.1,0.2,2,0.7,4.3c0.9,4.1,0.8,4.7-0.7,4.8c-0.6,0-0.7-0.1-2.3-7.5c-1.1-5-1.2-6-0.6-6.4c1.2-0.7,1.6-0.5,4.8,3.3c1.7,2,3.2,3.6,3.4,3.5c0.1-0.1-0.1-1.8-0.6-3.7c-1-4.6-0.9-4.8,0.3-4.8C113.5,37.7,113.6,38.1,114.8,43.5z M102.4,47.5c2.2,6.5,2.2,7.2,0.5,7.3c-0.3,0-1.5-2.9-2.7-6.5c-1.8-5.3-2.1-6.6-1.6-6.9c0.4-0.2,0.9-0.4,1.1-0.4C100,40.9,101.2,43.9,102.4,47.5z M95.8,44c0,0.3-0.6,0.8-1.3,1.1l-1.3,0.6l2.3,5.1c2.5,5.6,2.6,6.1,1.5,6.5c-1,0.4-1.1,0.3-3.6-5.5L91,46.5l-1.5,0.6c-1.6,0.6-2.1,0.5-2.1-0.7c0-0.5,1.4-1.3,3.8-2.4C94.9,42.5,95.7,42.5,95.8,44z M85.2,47.5c0,0.1,0.1,0.5,0.3,0.9c0.1,0.5-0.5,1.1-1.8,1.9c-2.3,1.4-2.4,1.7-1.4,3.3c0.9,1.4,1.2,1.4,3.5,0c1.5-1,1.9-1.1,2.3-0.6c0.6,1,0.5,1.2-1.5,2.5c-1.1,0.7-2,1.3-2.1,1.3c-0.2,0.1,1.8,3.5,2,3.5c0.1,0,1.2-0.6,2.3-1.3c2.1-1.3,2.9-1.3,2.9,0.2c0,0.6-5.8,4.1-6.4,3.7c-0.3-0.2-6.3-10.1-6.9-11.4c-0.1-0.2,1.3-1.2,3-2.2C84.3,47.5,85.2,47.1,85.2,47.5z M75.5,55.5c0,1.2,0.1,3,0.3,4l0.3,1.7l4.1,1.2l4.1,1.2l-0.9,0.9c-0.9,0.9-1,0.9-3.6,0c-1.5-0.5-2.9-1-3.2-1.1c-1-0.3-0.6,1.4,0.6,3.3c1.2,1.8,1.2,1.9-0.4,2.7c-0.3,0.1-8.7-10.2-8.7-10.8c0-0.2,0.4-0.6,0.9-0.8c0.7-0.4,1.2-0.1,2.6,1.8c1,1.3,1.8,2.3,2,2.3c0.1,0,0-1.7-0.1-3.8c-0.3-3.2-0.2-3.8,0.5-4.3C75.3,53,75.5,53.2,75.5,55.5z M67.6,63.9c1.4,0.8,1.8,1.6,2.1,4.1c0.1,0.9,0.6,1.3,2.8,2c2.8,0.9,3,1.2,1.9,2.2c-0.6,0.5-1.2,0.5-3.5-0.2c-2.1-0.6-2.9-0.7-3.3-0.3s-0.1,1,1.2,2.4c1.7,1.7,1.7,1.9,1.1,2.6c-0.7,0.7-1,0.5-4.4-2.5c-2-1.8-4.3-4-5.1-4.8l-1.5-1.6l2.5-2.3C64.2,62.8,65.2,62.5,67.6,63.9z M61.1,75.7c3.5,1.2,6.5,2.3,6.8,2.5c0.9,0.8-0.7,1.9-2.3,1.6c-1.3-0.3-1.6-0.1-2.7,1.4c-1.1,1.4-1.2,1.8-0.8,2.4c1,1.4,1.1,1.8,0.4,2.8c-0.6,0.9-0.9,0.6-5.1-4.9c-4.4-5.7-4.5-5.8-3.7-6.9c0.4-0.6,0.8-1.1,0.9-1.1C54.7,73.6,57.6,74.6,61.1,75.7z M61.1,88.1c0.1,0.1,0,0.6-0.4,1.1c-0.5,0.9-0.6,0.9-4.6-1.1C53.9,87,51.9,86,51.7,86s1.3,1.7,3.3,3.7c2,2,3.5,3.8,3.3,4c-0.2,0.2-2.5,0-5.2-0.4c-2.7-0.4-4.8-0.6-4.8-0.5c0,0,1.9,1.1,4.1,2.2c2.3,1.2,4.1,2.3,4.1,2.4c0,0.2-0.2,0.6-0.5,1c-0.4,0.6-1.4,0.2-6.7-2.4l-6.2-3.1l0.7-1.4c0.4-0.8,0.9-1.4,1.1-1.4c0.4,0,5.7,0.8,7.7,1.2c1.3,0.2,1.1,0-2-3.1l-3.4-3.4l0.7-1.5l0.7-1.4l6.1,3C58.3,86.6,61.1,88.1,61.1,88.1z"/><path fill="#000000" d="M63.1,66.5L62,67.6l1.6,1.6l1.6,1.6l1.1-1c1.3-1.2,1.4-2.7,0.2-3.7C65.2,65,64.3,65.1,63.1,66.5z"/><path fill="#000000" d="M57.1,77.6c0.5,0.7,1.4,1.9,2,2.6l1.1,1.3l1.1-1.4c0.6-0.8,1-1.5,0.9-1.6c-0.2-0.2-5.5-2.1-5.8-2.1C56.2,76.4,56.5,76.9,57.1,77.6z"/><path fill="#000000" d="M141.8,26.6l8.3,16.6l-8.3,16.6c-4.6,9.1-8.3,16.7-8.3,16.8c0,0.1,1.1,0.3,2.5,0.5c3.9,0.5,10.2,2.4,14.8,4.7c15.1,7.5,25.6,21.7,28.2,38.6l0.7,4.9l16.5,8.3l16.5,8.2l16.6-8.3l16.7-8.3l-0.3-4.5c-2.1-29.3-14-55.6-34.3-76.1C194.8,28,174,17,150.3,12.1c-2.8-0.6-14.5-2-16.5-2.1C133.7,10.1,137.3,17.5,141.8,26.6z M187.7,58.2c1.1,0.7,2.5,2.9,2.5,3.8c0,1.1-1.7,0.7-2.5-0.6c-1.1-1.6-3.3-2.1-3.7-0.9c-0.2,0.4,0.1,1.7,0.7,3c1.3,3.1,1.2,4.4-0.4,6c-1.5,1.5-2.7,1.7-4.7,0.6c-2.8-1.4-4.3-4.9-2.3-5.4c0.6-0.1,1,0.1,1.2,0.9c0.6,2.6,3.5,3.8,4.4,2c0.4-0.7,0.3-1.4-0.5-3c-0.5-1.2-0.9-2.8-0.9-3.7C181.4,58,185,56.5,187.7,58.2z M196.9,67.7l1,1l-2.8,4.4c-1.5,2.5-3.3,5.3-3.9,6.2c-1.1,1.7-1.2,1.8-2,1c-0.8-0.8-0.9-0.9-0.1-2.1c0.7-1.2,0.7-1.3-0.6-2.9c-1.4-1.8-1.7-1.9-3.1-1.2c-0.8,0.4-1.1,0.3-1.9-0.5l-1-0.9l5.1-2.3c2.8-1.2,5.7-2.6,6.4-2.9C195.9,66.6,195.7,66.6,196.9,67.7z M203.5,76.4c0,0.2-4.4,3.3-9.3,6.4c-0.2,0.2,0.1,1.1,0.8,2.1c1.4,2,1.5,2.7,0.5,3.1c-0.5,0.1-1.3-0.6-2.5-2.5c-1-1.5-1.8-2.9-1.8-3.1c0-0.2,2.6-2.1,5.7-4.1c5-3.3,5.7-3.7,6.2-3C203.2,75.8,203.5,76.2,203.5,76.4z M211.2,91.1c-1,0.6-1.2,0.5-2.4-1.9c-0.6-1.3-1.3-2.3-1.4-2.3c-0.6,0-2.9,1.5-2.9,1.9c0,0.2,0.4,1.3,0.9,2.3c0.6,1,0.8,2,0.7,2.3c-0.6,1-1.7,0.4-2.6-1.6c-1.2-2.3-1.2-2.3-3.1-1.4c-1.7,0.9-1.7,1-0.4,3.7c0.9,1.8,0.9,2.2,0.4,2.5c-0.4,0.2-0.8,0.5-0.9,0.5c-0.1,0-1-1.6-2-3.5l-1.7-3.5L202,87l6.3-3.2l1.7,3.5C211.5,90,211.7,90.9,211.2,91.1z M213.3,96.2c1.4,1.1,2.3,3.6,1.9,5.2c-0.3,1.2-0.6,1.4-1.7,1c-0.4-0.2-0.6-0.7-0.5-1.6c0.3-1.8-0.6-3.4-1.9-3.2c-1.1,0.1-1.5,1.1-1.9,4.2c-0.4,2.6-2.1,4.1-4.5,3.9c-1.7-0.1-2.1-0.4-3-1.7c-1.4-2.1-1.3-5.8,0.1-5.8c0.8,0,0.9,0.3,1,1.9c0,2.1,0.8,3.4,2,3.4c1.2,0,1.7-0.9,2.1-3.7C207.6,95.7,210.5,94,213.3,96.2z"/><path fill="#000000" d="M191.6,70.9l-2.9,1.4l1.3,1.3l1.3,1.4l1-1.5c1.9-2.8,2.6-4,2.5-4C194.6,69.5,193.2,70.1,191.6,70.9z"/><path fill="#000000" d="M98.5,114.3c-2.9,1.1-5,2.6-6.3,4.6c-2.2,3.3-2.6,4.8-2.6,9.5c0,3.6,0.2,4.7,1.1,6.5c3.5,7.2,13,9.5,18.9,4.6l1.5-1.2l-1.7-1.9l-1.7-1.9l-1.7,1.2c-2.2,1.5-5.5,1.5-7.3,0.1c-4.2-3.3-3.9-12.9,0.4-15.6c1.8-1.1,4.7-1.1,6.6,0l1.5,0.9l1.7-1.9l1.7-1.9l-1.1-0.9C106.5,113.9,101.8,113,98.5,114.3z"/><path fill="#000000" d="M26.5,122.4L10,130.7l0.3,4.5c2.1,29.3,13.9,55.5,34.3,75.9c16.7,16.8,37.3,27.8,61.1,32.6c2.8,0.6,14.5,2,16.5,2.1c0.2,0-3.4-7.5-8-16.6l-8.3-16.6l8.3-16.6c4.6-9.2,8.2-16.7,8.1-16.8c-0.1,0-1.7-0.3-3.6-0.6c-11.4-1.8-23.5-8.9-30.8-18.2c-6.2-7.8-10.2-17.4-11.3-27.1l-0.3-2.7l-16.5-8.2c-9.1-4.6-16.6-8.3-16.6-8.2C43.1,114.2,35.6,117.9,26.5,122.4z M39.3,140.6c0.3,1.2,0.5,1.6,1.1,1.4c1.5-0.4,10.7-1.8,10.9-1.6c0.1,0.1,0.3,0.6,0.4,1.1c0.1,0.8-0.5,1-5.6,1.9c-3.2,0.6-5.8,1.1-5.9,1.1c-0.1,0,0,0.7,0.1,1.6c0.3,1.5,0.2,1.6-0.8,1.6c-1,0-1.2-0.3-1.7-3.9c-0.3-2.2-0.5-4.1-0.3-4.4C38.1,138.5,39.1,139,39.3,140.6z M53,147.5c0.4,1,0.2,1.4-1.6,3c-1.2,1.1-2.1,2.3-2.1,2.8c0,1.1,0.2,1.1,2.9,0.1c2.4-0.8,2.3-0.8,2.8,0.6c0.3,0.9-0.2,1.1-6.3,3c-3.6,1.1-6.7,2-6.8,2c-0.3,0-1.8-4.9-1.8-6.1c0-0.6,0.6-1.7,1.3-2.4c1.5-1.5,4.2-1.8,5.8-0.7c0.9,0.6,1.1,0.6,3-1.4c1.1-1.1,2.1-2,2.1-2C52.4,146.3,52.7,146.9,53,147.5z M57.4,160.3c3.1,3.1,1.7,7.1-3.3,9.5c-4,1.9-7.9,0.8-9-2.5c-1.4-4.1,2.9-8.5,8.5-8.5C55.5,158.8,56,159,57.4,160.3z M59,174l1.7,1.9l2.1-1.5c2-1.3,2.1-1.4,2.7-0.6c0.3,0.5,0.5,1,0.4,1.2c-0.2,0.4-11.1,7.7-11.4,7.7c-0.5,0-3.5-5.4-3.5-6.4c0-0.6,0.6-1.7,1.6-2.7C54.9,171.4,56.7,171.5,59,174z M66.1,183l1.7,1.7l1.7-1.7c1.7-1.7,3.2-1.9,3.2-0.5c0,0.7-9.3,9.5-10.1,9.5c-0.2,0-1.3-1.1-2.3-2.3c-2.1-2.6-2.4-4.6-1.1-6.2C61.4,180.8,63.8,180.7,66.1,183z M78,186.8c2.3,1.6,3.2,4.1,2.1,6.2c-0.6,1-6.4,8.1-6.6,8.1c-0.6,0-1.6-0.6-1.6-1.1c0-0.3,1.5-2.3,3.2-4.3c3.3-4,3.8-5.2,2.4-6.6c-1.3-1.5-2.7-1-5.1,1.8c-4.9,5.8-4.9,5.8-5.8,5.1c-0.9-0.6-0.8-0.8,2.2-4.4C73.7,185.7,75.1,184.9,78,186.8z M87.8,193.8c0.8,0.5,1.8,1.6,2.2,2.3c0.6,1.2,0.6,1.3-0.2,1.8c-1.2,0.6-1.4,0.6-1.4-0.1c0-0.9-1.9-2.7-3-2.7c-0.6,0-1.3,0.3-1.6,0.7c-0.5,0.6-0.4,1.2,0.9,3.4c0.8,1.5,1.5,3.2,1.5,3.9c0,1.7-1.9,3.5-3.9,3.5c-2.9,0-6.5-4.2-4-4.7c0.5-0.1,1.1,0.3,1.6,1.1c0.6,0.9,1.2,1.3,2.2,1.3c1.9,0,2.1-1.1,0.5-3.9c-1.7-3-1.8-4.8-0.2-6.4C83.8,192.6,85.6,192.5,87.8,193.8z"/><path fill="#000000" d="M43.1,152c-0.6,0.5-0.7,1-0.5,2.3c0.4,1.9,0.5,1.9,3.1,1.2c1.6-0.5,1.8-0.6,1.5-1.7C46.6,151.4,44.9,150.7,43.1,152z"/><path fill="#000000" d="M50.1,162c-3,1.6-4,4.1-2.2,5.8c1.3,1.2,4.6,0.7,6.8-1c2-1.6,2.5-2.9,1.8-4.3C55.7,160.9,52.5,160.7,50.1,162z"/><path fill="#000000" d="M54.4,175.2c-1.2,0.9-1.3,2-0.1,3.5l0.9,1.1l1.9-1.3c1.9-1.2,1.9-1.3,1.1-2.3C56.5,174.2,56,174.1,54.4,175.2z"/><path fill="#000000" d="M61.6,184.5c-1.1,1.2-1,2.5,0.3,3.7l1.1,1l1.6-1.6l1.6-1.6l-1.1-1.2C63.6,183.4,62.6,183.3,61.6,184.5z"/><path fill="#000000" d="M115.1,127.9v13.8h3h3l0-1.5c0-0.8,0.1-3,0.1-4.9l0-3.5l1.7-0.1l1.7-0.1l2.7,5.1l2.6,5.1h3.5c2.5,0,3.4-0.1,3.2-0.6c-0.1-0.3-1.5-2.7-3-5.4l-2.8-4.8l1.6-1.3c2.2-1.8,2.9-3.5,2.9-6.8c0-3.2-0.7-4.9-2.7-6.6c-1.9-1.6-5.1-2.2-11.8-2.2h-5.8V127.9z M127.7,119.7c1.4,0.7,1.7,1.3,1.7,3.2c0,2.4-1.5,3.6-5,4l-2.8,0.3v-4v-4h2.6C125.5,119.2,127.1,119.4,127.7,119.7z"/><path fill="#000000" d="M141.1,114.7c-0.1,0.3-0.2,6.4-0.1,13.7l0.1,13.1l2.9,0.1l2.9,0.1l-0.3-8.7c-0.2-4.7-0.4-9.2-0.6-9.8c-0.2-0.6,0.8,1.7,2.2,5.3c3.9,10.2,4.2,10.8,5.5,10.8c1,0,1.3-0.6,3.5-6.1c1.3-3.3,2.7-7.1,3.1-8.3c0.4-1.2,0.8-2.1,0.9-2c0.1,0.1,0,2.5-0.3,5.4c-0.2,2.9-0.4,7-0.3,9.2l0.1,3.9l2.9,0.1l2.9,0.1v-13.9v-13.9l-3.3,0.1l-3.3,0.1l-3,8.4c-1.7,4.8-3.1,8.1-3.3,7.8c-0.2-0.3-1.6-4.2-3.2-8.6l-2.9-7.9h-3.2C142.4,114.1,141.3,114.3,141.1,114.7z"/><path fill="#000000" d="M178.7,137c-0.3,1.9-1.1,5.1-1.7,7c-6.3,18.7-22,31.9-41.4,34.9l-4.9,0.7l-8.3,16.5l-8.2,16.5l8.3,16.6l8.3,16.7l4.5-0.3c21-1.5,40.9-8.2,57.6-19.3c29.6-19.8,48.6-50.9,52.3-86c0.4-3.4,0.7-6.4,0.7-6.6c0-0.2-7.5,3.4-16.6,8l-16.6,8.3l-16.6-8.3c-9.1-4.6-16.6-8.3-16.7-8.3C179.3,133.5,179,135,178.7,137z M205.3,162.2c3.3,1.7,6,3.1,6,3.2c0,0.6-3.3,6.7-3.6,6.7c-0.2,0-0.6-0.2-0.9-0.4c-0.5-0.3-0.4-0.8,0.6-2.7l1.2-2.3l-1.3-0.7c-1.9-1-2-0.9-3.2,1.4c-1.1,2.2-1.3,2.3-2.3,1.7c-0.5-0.3-0.4-0.8,0.6-2.7l1.2-2.3l-2.8-1.3c-1.5-0.7-2.7-1.4-2.7-1.5c0-0.4,1-2,1.2-2C199.3,159.2,202.1,160.6,205.3,162.2z M200.4,171.3c3.1,2.1,5.7,3.8,5.8,3.9c0.4,0.3-3.9,6.2-4.4,6.2c-1.2,0-1.1-1.3,0.2-3.2l1.3-1.9l-1.3-1.1c-0.8-0.6-1.5-1.1-1.6-1.1c-0.1,0-0.8,0.9-1.5,2.1c-1.4,2.2-1.6,2.3-2.6,1.7c-0.6-0.4-0.6-0.6,0.1-1.6c2.4-3.8,2.3-3.3,0.6-4.4c-0.9-0.6-1.7-1-1.8-1s-0.7,0.7-1.2,1.5c-0.5,0.8-1.1,1.8-1.3,2.1c-0.4,0.6-1.9,0.3-1.9-0.4c0-0.5,3.7-6.4,4-6.4C194.7,167.5,197.3,169.2,200.4,171.3z M194.4,179.8c2.9,2.4,5.2,4.6,5.3,4.7c0,0.1-1,1.5-2.3,3c-2.2,2.4-2.6,2.7-3.2,2.1c-0.6-0.6-0.6-0.8,0.9-2.6c1.8-2.2,1.7-2.8-0.4-3.9c-0.7-0.4-1.1-0.2-2.5,1.4c-1.5,1.7-1.7,1.8-2.3,1.2c-0.6-0.6-0.6-0.9,1-2.7l1.6-2l-1.6-1.3l-1.6-1.3l-1.8,2c-1.6,1.7-1.8,1.9-2.5,1.3c-0.6-0.6-0.4-1,1.7-3.5c1.3-1.6,2.4-2.9,2.5-2.9C189.1,175.3,191.5,177.3,194.4,179.8z M187.4,187.6c2.4,2.7,4.3,5.2,4.3,5.5c0,0.7-3.6,3.7-4.9,4.1c-1.8,0.6-4.1-0.2-6.2-2.1c-3.7-3.5-3.9-6.6-0.4-10.2c1.2-1.2,2.3-2.2,2.4-2.2C183,182.7,185,184.9,187.4,187.6z M177.7,195.9c1.9,3,3.5,5.6,3.6,5.9c0.1,0.6-5,3.9-6.2,3.9c-0.5,0-1.5-0.5-2.2-1c-1-0.8-1.2-1.3-1.1-2.8c0.1-1.6,0-1.8-0.8-1.8c-2.2,0-4.1-3.2-3.1-5.3c0.5-1.1,4.9-4.3,5.8-4.3C174.1,190.6,175.8,193,177.7,195.9z M166.9,202.3c0.4,3,0.9,6.1,1,6.7c0.2,1,0,1.3-1.1,1.8c-1.4,0.6-0.8,1.2-8.5-7.4c-2.7-3-2.7-3-1.6-3.5c0.9-0.4,1.2-0.3,2.1,0.6l1,1.1l2.1-1c1.9-0.9,2-1.1,1.9-2.5c-0.1-1.1,0-1.6,0.8-1.9C165.8,195.6,166,195.9,166.9,202.3z M154.6,202.5c2.9,1.7,4.4,6.5,3.2,9.8c-1.2,3.2-4.2,4.4-7.2,2.8c-1.3-0.7-1.4-0.7-0.6-1.6c0.7-0.8,0.8-0.8,2-0.1c1.2,0.7,1.4,0.7,2.4,0c2-1.3,2-5.1,0-8.1c-1.5-2.3-4.6-2.1-5.4,0.3c-0.2,0.6-0.6,0.8-1.2,0.6c-1.1-0.3-1.2-0.7-0.2-2.5C148.8,201.5,151.9,200.9,154.6,202.5z M145.5,209.7c0.5,3.3,1.1,6.4,1.2,7c0.2,0.9,0,1.1-0.9,1.1c-1.3,0-1.3-0.1-1.9-3.7l-0.4-2.5l-1.7,3.5c-1.2,2.5-1.9,3.6-2.7,3.8c-0.6,0.1-1.2,0.2-1.2,0.1c-0.1-0.1,0.6-1.8,1.5-3.7l1.7-3.6l-2.8-2.8c-3-3-3.4-3.9-1.7-3.9c0.8,0,1.8,0.8,3.4,2.6c2.1,2.4,2.3,2.5,2.6,1.6c0.2-0.6,0.2-1.9,0-3c-0.2-1.8-0.2-2,0.8-2.2c0.6-0.1,1.1-0.1,1.2-0.1C144.5,203.7,145,206.4,145.5,209.7z"/><path fill="#000000" d="M181,187.1c-0.6,0.7-1,1.6-1,2.1c0,2.4,3.3,5.9,5.5,5.9c0.7,0,1.8-0.5,2.5-1.1l1.2-1l-3.1-3.5c-1.7-1.9-3.3-3.5-3.6-3.5C182.2,185.9,181.5,186.5,181,187.1z"/><path fill="#000000" d="M171.3,194.6c-1.6,1.3-1.6,1.3-0.8,2.5c0.9,1.4,1.9,1.5,3.6,0.4l1.3-0.8l-1.2-1.7c-0.6-0.9-1.2-1.7-1.2-1.7C172.9,193.3,172.2,193.9,171.3,194.6z"/><path fill="#000000" d="M174.6,199.6c-1.3,0.9-1.3,2-0.2,3c1.1,1,1.3,1,2.9-0.2l1.3-1l-1-1.3C176.6,198.6,176.1,198.6,174.6,199.6z"/><path fill="#000000" d="M162.6,202.5l-1.5,0.8l2.3,2.5l2.2,2.5l-0.5-3.1c-0.3-1.7-0.6-3.2-0.7-3.3C164.2,201.8,163.5,202,162.6,202.5z"/></g></g></g>
</svg>