<?xml version="1.0" ?><svg data-name="Livello 1" id="Livello_1" viewBox="0 0 66 66" xmlns="http://www.w3.org/2000/svg"><defs><style>.cls-1,.cls-2{fill:none;stroke:#fff;stroke-linejoin:round;stroke-width:2px;}.cls-1{stroke-linecap:round;}</style></defs><title/><path d="M1,34A32,32,0,1,0,33,2,32,32,0,0,0,1,34Z"/><g data-name="Shopping Basket" id="Shopping_Basket"><line class="cls-1" x1="36.03" x2="45.36" y1="18" y2="27.6"/><line class="cls-1" x1="29.97" x2="20.64" y1="18" y2="27.6"/><line class="cls-1" x1="33" x2="33" y1="40.4" y2="43.6"/><line class="cls-1" x1="39.18" x2="39.18" y1="40.4" y2="43.6"/><line class="cls-1" x1="26.82" x2="26.82" y1="40.4" y2="43.6"/><path class="cls-1" d="M16,33.79v-6a0.22,0.22,0,0,1,.23-0.21H49.77a0.22,0.22,0,0,1,.23.21v6a0.22,0.22,0,0,1-.23.21H16.23A0.22,0.22,0,0,1,16,33.79Z"/><path class="cls-2" d="M46.91,34L44.07,48.71A1.56,1.56,0,0,1,42.55,50H23.45a1.56,1.56,0,0,1-1.52-1.29L19.09,34"/></g></svg>