<?xml version="1.0" ?><svg height="512" preserveAspectRatio="xMidYMid" viewBox="0 0 512 512" width="512" xmlns="http://www.w3.org/2000/svg" xmlns:xlink="http://www.w3.org/1999/xlink"><defs><style>
      .cls-1 {
        fill: #000;
        fill-rule: evenodd;
      }
    </style></defs><path class="cls-1" d="M256.000,512.000 C114.615,512.000 0.000,397.385 0.000,256.000 C0.000,114.615 114.615,0.000 256.000,0.000 C397.385,0.000 512.000,114.615 512.000,256.000 C512.000,397.385 397.385,512.000 256.000,512.000 ZM338.097,159.477 C334.067,151.890 328.188,145.695 320.536,140.977 C312.692,136.187 303.481,132.852 292.809,130.906 C282.137,128.984 269.617,128.000 255.243,128.000 L188.637,128.000 C181.758,128.000 174.899,133.360 173.351,139.969 L128.313,332.695 C126.766,339.305 131.110,344.703 137.957,344.703 L169.942,344.703 C176.820,344.703 183.695,339.320 185.199,332.711 L196.168,285.977 C197.716,279.415 204.548,274.008 211.422,274.008 L220.547,274.008 C259.527,274.008 289.876,266.125 311.590,250.297 C333.305,234.508 344.172,213.718 344.172,187.922 C344.172,176.562 342.160,167.117 338.097,159.477 ZM377.942,198.774 C373.907,191.180 368.027,184.992 360.363,180.274 C359.548,179.782 358.875,179.586 358.027,179.125 C362.075,186.774 364.086,196.227 364.086,207.586 C364.086,233.359 353.219,254.172 331.519,269.961 C309.789,285.766 279.442,293.656 240.461,293.656 L231.336,293.656 C224.477,293.656 217.614,299.047 216.083,305.641 L205.129,352.360 C203.594,358.969 196.734,364.367 189.872,364.367 L169.899,364.367 L168.114,372.000 C166.563,378.594 170.910,384.000 177.758,384.000 L209.742,384.000 C216.602,384.000 223.481,378.610 224.985,372.000 L235.953,325.266 C237.500,318.703 244.344,313.305 251.207,313.305 L260.332,313.305 C299.313,313.305 329.660,305.414 351.376,289.594 C373.117,273.813 384.000,253.023 384.000,227.219 C384.000,215.859 381.992,206.407 377.942,198.774 ZM269.187,222.484 C259.571,229.406 246.207,232.899 228.941,232.899 L221.024,232.899 C214.149,232.899 209.817,227.484 211.332,220.890 L220.950,179.977 C222.496,173.384 229.359,167.992 236.187,167.992 L246.668,167.992 C258.859,167.992 268.114,170.047 274.305,174.125 C280.512,178.172 283.625,184.407 283.625,192.875 C283.625,205.664 278.785,215.547 269.187,222.484 Z"/></svg>