<svg xmlns="http://www.w3.org/2000/svg" xmlns:xlink="http://www.w3.org/1999/xlink" width="40" zoomAndPan="magnify" viewBox="0 0 30 30.000001" height="40" preserveAspectRatio="xMidYMid meet" version="1.0"><defs><clipPath id="a123f52b50"><path d="M 0.484375 0 L 29.515625 0 L 29.515625 29.03125 L 0.484375 29.03125 Z M 0.484375 0 " clip-rule="nonzero"/></clipPath><clipPath id="5e2c2f9fac"><path d="M 2.914062 12 L 25 12 L 25 24.535156 L 2.914062 24.535156 Z M 2.914062 12 " clip-rule="nonzero"/></clipPath><clipPath id="ea9cbb37b0"><path d="M 5 4.214844 L 26.867188 4.214844 L 26.867188 17 L 5 17 Z M 5 4.214844 " clip-rule="nonzero"/></clipPath></defs><g clip-path="url(#a123f52b50)"><path fill="#ffffff" d="M 0.484375 0 L 29.515625 0 L 29.515625 29.03125 L 0.484375 29.03125 Z M 0.484375 0 " fill-opacity="1" fill-rule="nonzero"/><path fill="#ffffff" d="M 0.484375 0 L 29.515625 0 L 29.515625 29.03125 L 0.484375 29.03125 Z M 0.484375 0 " fill-opacity="1" fill-rule="nonzero"/></g><g clip-path="url(#5e2c2f9fac)"><path fill="#36383e" d="M 15.007812 24.769531 C 9.695312 24.769531 5.332031 20.785156 4.796875 15.570312 L 4.304688 16.445312 C 4.203125 16.621094 4.046875 16.742188 3.847656 16.78125 C 3.648438 16.839844 3.449219 16.800781 3.292969 16.703125 C 2.933594 16.503906 2.816406 16.046875 3.015625 15.691406 L 4.839844 12.539062 C 4.976562 12.320312 5.214844 12.160156 5.472656 12.160156 C 5.730469 12.160156 5.988281 12.300781 6.105469 12.539062 L 7.929688 15.691406 C 8.03125 15.871094 8.050781 16.066406 8.011719 16.246094 C 7.949219 16.445312 7.832031 16.601562 7.671875 16.703125 C 7.496094 16.800781 7.296875 16.820312 7.117188 16.78125 C 6.921875 16.722656 6.761719 16.601562 6.664062 16.445312 L 6.324219 15.871094 C 6.980469 20.09375 10.648438 23.285156 15.007812 23.285156 C 18.636719 23.285156 21.949219 21.003906 23.234375 17.59375 C 23.375 17.21875 23.8125 17.019531 24.1875 17.15625 C 24.566406 17.296875 24.761719 17.734375 24.625 18.109375 C 23.117188 22.09375 19.25 24.769531 15.007812 24.769531 Z M 4.957031 14.71875 C 4.976562 14.71875 4.996094 14.71875 4.996094 14.71875 C 5.078125 14.738281 5.136719 14.820312 5.15625 14.898438 C 5.375 20.210938 9.695312 24.355469 15.007812 24.355469 C 19.09375 24.355469 22.800781 21.796875 24.246094 17.972656 C 24.285156 17.890625 24.265625 17.792969 24.246094 17.714844 C 24.207031 17.632812 24.148438 17.574219 24.050781 17.535156 C 23.871094 17.476562 23.671875 17.554688 23.613281 17.734375 C 22.265625 21.28125 18.816406 23.679688 15.007812 23.679688 C 10.113281 23.679688 6.085938 19.855469 5.828125 14.976562 C 5.828125 14.878906 5.890625 14.796875 5.96875 14.777344 C 6.046875 14.757812 6.148438 14.796875 6.1875 14.878906 L 6.980469 16.265625 C 7.019531 16.34375 7.097656 16.40625 7.175781 16.425781 C 7.257812 16.445312 7.355469 16.445312 7.433594 16.382812 C 7.515625 16.34375 7.574219 16.265625 7.59375 16.1875 C 7.613281 16.105469 7.613281 16.007812 7.554688 15.929688 L 5.730469 12.777344 C 5.671875 12.675781 5.550781 12.597656 5.433594 12.597656 C 5.3125 12.597656 5.195312 12.65625 5.136719 12.777344 L 3.351562 15.910156 C 3.3125 15.988281 3.292969 16.085938 3.332031 16.167969 C 3.351562 16.246094 3.410156 16.324219 3.488281 16.363281 C 3.570312 16.40625 3.667969 16.425781 3.746094 16.40625 C 3.828125 16.382812 3.90625 16.324219 3.945312 16.246094 L 4.777344 14.820312 C 4.820312 14.757812 4.878906 14.71875 4.957031 14.71875 Z M 4.957031 14.71875 " fill-opacity="1" fill-rule="nonzero"/></g><g clip-path="url(#ea9cbb37b0)"><path fill="#36383e" d="M 24.542969 16.820312 C 24.285156 16.820312 24.027344 16.683594 23.910156 16.445312 L 22.085938 13.292969 C 21.988281 13.113281 21.949219 12.914062 22.007812 12.738281 C 22.066406 12.539062 22.183594 12.378906 22.34375 12.28125 C 22.523438 12.183594 22.722656 12.160156 22.898438 12.203125 C 23.097656 12.261719 23.257812 12.378906 23.355469 12.539062 L 23.691406 13.113281 C 23.039062 8.910156 19.371094 5.71875 15.007812 5.71875 C 11.378906 5.71875 8.070312 8 6.78125 11.410156 C 6.703125 11.585938 6.582031 11.746094 6.382812 11.824219 C 6.207031 11.902344 6.007812 11.902344 5.808594 11.84375 C 5.433594 11.707031 5.234375 11.269531 5.375 10.894531 C 6.878906 6.929688 10.726562 4.25 14.988281 4.25 C 20.300781 4.25 24.664062 8.238281 25.199219 13.449219 L 25.695312 12.578125 C 25.792969 12.398438 25.953125 12.28125 26.152344 12.242188 C 26.347656 12.183594 26.546875 12.222656 26.707031 12.320312 C 27.0625 12.519531 27.179688 12.976562 26.984375 13.332031 L 25.160156 16.484375 C 25.058594 16.683594 24.800781 16.820312 24.542969 16.820312 Z M 22.722656 12.578125 C 22.660156 12.578125 22.601562 12.597656 22.542969 12.617188 C 22.464844 12.65625 22.402344 12.738281 22.382812 12.816406 C 22.363281 12.894531 22.363281 12.996094 22.421875 13.074219 L 24.246094 16.226562 C 24.308594 16.324219 24.425781 16.40625 24.542969 16.40625 C 24.664062 16.40625 24.78125 16.34375 24.84375 16.226562 L 26.664062 13.074219 C 26.707031 12.996094 26.726562 12.894531 26.707031 12.816406 C 26.6875 12.738281 26.625 12.65625 26.546875 12.617188 C 26.46875 12.578125 26.367188 12.558594 26.289062 12.578125 C 26.210938 12.597656 26.128906 12.65625 26.089844 12.738281 L 25.257812 14.164062 C 25.21875 14.242188 25.121094 14.285156 25.039062 14.261719 C 24.960938 14.242188 24.902344 14.164062 24.882812 14.085938 C 24.644531 8.792969 20.320312 4.628906 15.007812 4.628906 C 10.925781 4.628906 7.21875 7.1875 5.769531 11.011719 C 5.730469 11.089844 5.75 11.191406 5.769531 11.269531 C 5.808594 11.347656 5.871094 11.410156 5.96875 11.449219 C 6.046875 11.488281 6.148438 11.46875 6.226562 11.449219 C 6.304688 11.410156 6.363281 11.347656 6.40625 11.25 C 7.753906 7.703125 11.203125 5.300781 15.007812 5.300781 C 19.90625 5.300781 23.929688 9.128906 24.1875 14.003906 C 24.1875 14.105469 24.128906 14.183594 24.050781 14.203125 C 23.96875 14.222656 23.871094 14.183594 23.832031 14.105469 L 23.039062 12.71875 C 23 12.636719 22.917969 12.578125 22.839844 12.558594 C 22.78125 12.578125 22.742188 12.578125 22.722656 12.578125 Z M 22.722656 12.578125 " fill-opacity="1" fill-rule="nonzero"/></g><path fill="#76c554" d="M 13.898438 12.835938 C 13.820312 13.210938 13.660156 13.550781 13.421875 13.847656 C 13.34375 13.945312 13.265625 14.027344 13.164062 14.105469 C 13.144531 14.125 13.125 14.144531 13.105469 14.164062 C 13.027344 14.242188 12.925781 14.304688 12.828125 14.363281 L 12.828125 14.820312 C 13.046875 14.71875 13.246094 14.582031 13.421875 14.421875 C 13.441406 14.402344 13.480469 14.363281 13.503906 14.34375 C 13.601562 14.242188 13.699219 14.144531 13.78125 14.046875 C 14.039062 13.707031 14.234375 13.292969 14.296875 12.855469 L 13.898438 12.855469 Z M 14.234375 11.625 L 13.820312 11.625 C 13.917969 11.863281 13.957031 12.121094 13.957031 12.398438 C 13.957031 12.417969 13.957031 12.417969 13.957031 12.441406 L 14.355469 12.441406 L 14.355469 12.398438 C 14.355469 12.121094 14.296875 11.863281 14.234375 11.625 Z M 14.234375 11.625 C 14.195312 11.488281 14.136719 11.347656 14.078125 11.230469 C 13.640625 10.359375 12.75 9.742188 11.699219 9.742188 C 10.230469 9.742188 9.042969 10.933594 9.042969 12.398438 C 9.042969 12.914062 9.179688 13.410156 9.457031 13.828125 C 9.535156 13.945312 9.617188 14.066406 9.714844 14.164062 C 9.792969 14.242188 9.875 14.324219 9.953125 14.402344 C 10.132812 14.5625 10.328125 14.679688 10.527344 14.796875 C 10.667969 14.878906 10.824219 14.917969 10.984375 14.976562 C 11.203125 15.035156 11.441406 15.078125 11.699219 15.078125 C 11.957031 15.078125 12.195312 15.035156 12.429688 14.976562 C 12.570312 14.9375 12.707031 14.898438 12.828125 14.820312 C 13.046875 14.71875 13.246094 14.582031 13.421875 14.421875 C 13.441406 14.402344 13.480469 14.363281 13.503906 14.34375 C 13.601562 14.242188 13.699219 14.144531 13.78125 14.046875 C 14.039062 13.707031 14.234375 13.292969 14.296875 12.855469 C 14.316406 12.738281 14.335938 12.597656 14.335938 12.460938 L 14.335938 12.417969 C 14.355469 12.121094 14.296875 11.863281 14.234375 11.625 Z M 13.898438 12.835938 C 13.820312 13.210938 13.660156 13.550781 13.421875 13.847656 C 13.34375 13.945312 13.265625 14.027344 13.164062 14.105469 C 13.144531 14.125 13.125 14.144531 13.105469 14.164062 C 13.027344 14.242188 12.925781 14.304688 12.828125 14.363281 C 12.707031 14.441406 12.570312 14.5 12.429688 14.539062 C 12.195312 14.621094 11.957031 14.660156 11.699219 14.660156 C 11.460938 14.660156 11.222656 14.621094 10.984375 14.539062 C 10.945312 14.519531 10.90625 14.519531 10.863281 14.5 C 10.726562 14.441406 10.609375 14.382812 10.488281 14.304688 C 10.449219 14.285156 10.429688 14.261719 10.390625 14.242188 C 10.328125 14.203125 10.269531 14.144531 10.210938 14.105469 C 10.191406 14.085938 10.171875 14.066406 10.152344 14.046875 C 10.03125 13.945312 9.933594 13.828125 9.855469 13.707031 C 9.578125 13.332031 9.4375 12.875 9.4375 12.398438 C 9.4375 11.152344 10.449219 10.140625 11.699219 10.140625 C 12.511719 10.140625 13.222656 10.574219 13.621094 11.230469 C 13.699219 11.347656 13.757812 11.488281 13.820312 11.625 C 13.917969 11.863281 13.957031 12.121094 13.957031 12.398438 C 13.957031 12.417969 13.957031 12.417969 13.957031 12.441406 C 13.9375 12.578125 13.9375 12.71875 13.898438 12.835938 Z M 13.898438 12.835938 C 13.820312 13.210938 13.660156 13.550781 13.421875 13.847656 C 13.34375 13.945312 13.265625 14.027344 13.164062 14.105469 C 13.144531 14.125 13.125 14.144531 13.105469 14.164062 C 13.027344 14.242188 12.925781 14.304688 12.828125 14.363281 L 12.828125 14.820312 C 13.046875 14.71875 13.246094 14.582031 13.421875 14.421875 C 13.441406 14.402344 13.480469 14.363281 13.503906 14.34375 C 13.601562 14.242188 13.699219 14.144531 13.78125 14.046875 C 14.039062 13.707031 14.234375 13.292969 14.296875 12.855469 L 13.898438 12.855469 Z M 13.898438 12.835938 " fill-opacity="1" fill-rule="nonzero"/><path fill="#36383e" d="M 11.699219 12.597656 C 11.699219 12.597656 11.679688 12.597656 11.679688 12.597656 L 11.660156 12.597656 C 11.261719 12.558594 10.964844 12.242188 10.984375 11.902344 C 11.003906 11.585938 11.300781 11.347656 11.679688 11.328125 C 11.71875 11.328125 11.757812 11.328125 11.796875 11.328125 C 12.09375 11.347656 12.332031 11.507812 12.453125 11.746094 C 12.492188 11.84375 12.453125 11.964844 12.351562 12.003906 C 12.253906 12.042969 12.132812 12.003906 12.09375 11.902344 C 12.054688 11.824219 11.9375 11.726562 11.777344 11.726562 C 11.757812 11.726562 11.738281 11.726562 11.71875 11.726562 C 11.558594 11.726562 11.421875 11.824219 11.402344 11.945312 C 11.402344 12.0625 11.539062 12.183594 11.71875 12.222656 L 11.757812 12.222656 C 11.855469 12.242188 11.9375 12.339844 11.9375 12.441406 C 11.875 12.539062 11.796875 12.597656 11.699219 12.597656 Z M 11.699219 12.597656 " fill-opacity="1" fill-rule="nonzero"/><path fill="#36383e" d="M 11.660156 13.570312 C 11.636719 13.570312 11.617188 13.570312 11.597656 13.570312 C 11.300781 13.550781 11.042969 13.371094 10.945312 13.132812 C 10.90625 13.035156 10.945312 12.914062 11.042969 12.875 C 11.144531 12.835938 11.261719 12.875 11.300781 12.976562 C 11.339844 13.09375 11.480469 13.171875 11.617188 13.171875 C 11.71875 13.171875 11.816406 13.152344 11.894531 13.09375 C 11.957031 13.054688 11.996094 12.976562 12.015625 12.914062 C 12.035156 12.757812 11.875 12.617188 11.679688 12.597656 C 11.558594 12.597656 11.480469 12.5 11.5 12.378906 C 11.5 12.261719 11.597656 12.183594 11.71875 12.203125 C 12.132812 12.242188 12.453125 12.558594 12.429688 12.933594 C 12.410156 13.113281 12.3125 13.292969 12.152344 13.410156 C 12.015625 13.511719 11.835938 13.570312 11.660156 13.570312 Z M 11.660156 13.570312 " fill-opacity="1" fill-rule="nonzero"/><path fill="#36383e" d="M 11.875 13.371094 L 11.875 13.847656 C 11.875 13.867188 11.875 13.886719 11.875 13.90625 C 11.855469 13.984375 11.777344 14.046875 11.679688 14.046875 C 11.617188 14.046875 11.578125 14.027344 11.539062 13.984375 C 11.5 13.945312 11.480469 13.90625 11.480469 13.847656 L 11.480469 13.371094 C 11.480469 13.273438 11.558594 13.171875 11.660156 13.171875 C 11.660156 13.171875 11.679688 13.171875 11.679688 13.171875 C 11.796875 13.171875 11.875 13.273438 11.875 13.371094 Z M 11.875 13.371094 " fill-opacity="1" fill-rule="nonzero"/><path fill="#36383e" d="M 11.679688 11.726562 C 11.558594 11.726562 11.480469 11.648438 11.480469 11.527344 L 11.480469 10.953125 C 11.480469 10.832031 11.558594 10.753906 11.679688 10.753906 C 11.796875 10.753906 11.875 10.832031 11.875 10.953125 L 11.875 11.527344 C 11.875 11.625 11.777344 11.726562 11.679688 11.726562 Z M 11.679688 11.726562 " fill-opacity="1" fill-rule="nonzero"/><path fill="#76c554" d="M 11.9375 18.625 L 11.816406 18.148438 L 11.71875 17.773438 L 10.984375 14.976562 L 10.886719 14.582031 L 10.863281 14.5 C 10.726562 14.441406 10.609375 14.382812 10.488281 14.304688 C 10.449219 14.285156 10.429688 14.261719 10.390625 14.242188 L 10.449219 14.480469 L 10.527344 14.796875 L 11.378906 18.070312 L 11.5 18.546875 L 10.429688 18.824219 L 9.257812 14.285156 L 9.714844 14.164062 L 10.152344 14.046875 C 10.03125 13.945312 9.933594 13.828125 9.855469 13.707031 L 9.457031 13.828125 L 8.960938 13.964844 C 8.863281 13.984375 8.804688 14.105469 8.824219 14.203125 L 10.09375 19.121094 C 10.113281 19.21875 10.191406 19.277344 10.289062 19.277344 C 10.308594 19.277344 10.328125 19.277344 10.351562 19.277344 L 11.816406 18.902344 C 11.875 18.882812 11.914062 18.863281 11.9375 18.804688 C 11.9375 18.722656 11.957031 18.664062 11.9375 18.625 Z M 11.9375 18.625 " fill-opacity="1" fill-rule="nonzero"/><path fill="#76c554" d="M 13.382812 14.261719 C 13.304688 14.222656 13.203125 14.183594 13.105469 14.164062 C 13.125 14.144531 13.144531 14.125 13.164062 14.105469 C 13.265625 14.027344 13.34375 13.945312 13.421875 13.847656 C 13.460938 13.867188 13.523438 13.886719 13.5625 13.90625 L 13.800781 14.027344 L 15.625 14.917969 C 15.722656 14.957031 15.761719 15.078125 15.703125 15.175781 C 15.644531 15.273438 15.542969 15.3125 15.445312 15.273438 L 13.523438 14.324219 Z M 13.382812 14.261719 " fill-opacity="1" fill-rule="nonzero"/><path fill="#76c554" d="M 21.132812 17.15625 C 21.035156 17.355469 20.855469 17.515625 20.640625 17.613281 L 17.109375 18.902344 C 16.933594 18.960938 16.753906 19 16.554688 19 C 16.417969 19 16.257812 18.980469 16.117188 18.941406 L 12.53125 17.949219 L 11.777344 18.148438 L 11.578125 18.207031 C 11.519531 18.226562 11.480469 18.207031 11.421875 18.1875 C 11.378906 18.167969 11.339844 18.128906 11.320312 18.070312 L 10.46875 14.796875 L 10.449219 14.480469 C 10.429688 14.421875 10.449219 14.382812 10.46875 14.324219 C 10.46875 14.324219 10.46875 14.304688 10.488281 14.304688 C 10.609375 14.382812 10.746094 14.441406 10.863281 14.5 C 10.90625 14.519531 10.945312 14.519531 10.984375 14.539062 L 10.886719 14.5625 L 10.984375 14.957031 L 11.71875 17.753906 L 12.511719 17.554688 C 12.550781 17.554688 12.570312 17.554688 12.609375 17.554688 L 16.238281 18.566406 C 16.476562 18.625 16.734375 18.625 16.972656 18.527344 L 20.5 17.238281 C 20.738281 17.15625 20.855469 16.878906 20.777344 16.640625 C 20.738281 16.523438 20.660156 16.425781 20.539062 16.382812 C 20.421875 16.324219 20.300781 16.324219 20.183594 16.363281 L 17.191406 17.476562 C 17.191406 17.476562 17.167969 17.476562 17.167969 17.476562 C 17.167969 17.476562 17.148438 17.476562 17.148438 17.476562 C 17.148438 17.476562 17.128906 17.476562 17.109375 17.476562 C 17.089844 17.476562 17.070312 17.476562 17.03125 17.457031 L 17.011719 17.457031 C 16.972656 17.433594 16.933594 17.394531 16.910156 17.335938 C 16.871094 17.238281 16.933594 17.117188 17.03125 17.078125 L 17.089844 17.058594 L 19.09375 16.324219 L 20.023438 15.988281 C 20.242188 15.910156 20.480469 15.929688 20.679688 16.007812 C 20.878906 16.105469 21.054688 16.285156 21.132812 16.503906 C 21.234375 16.722656 21.214844 16.960938 21.132812 17.15625 Z M 21.132812 17.15625 " fill-opacity="1" fill-rule="nonzero"/><path fill="#76c554" d="M 17.40625 16.34375 C 17.40625 16.382812 17.40625 16.425781 17.40625 16.445312 C 17.386719 16.683594 17.25 16.898438 17.050781 17.039062 C 17.03125 17.058594 17.011719 17.078125 16.992188 17.078125 C 16.851562 17.15625 16.695312 17.199219 16.554688 17.199219 C 16.457031 17.199219 16.355469 17.179688 16.257812 17.136719 L 15.523438 16.878906 L 14.789062 16.582031 C 14.691406 16.542969 14.652344 16.445312 14.671875 16.34375 C 14.671875 16.34375 14.671875 16.34375 14.671875 16.324219 C 14.710938 16.226562 14.832031 16.167969 14.929688 16.207031 L 15.246094 16.324219 L 15.664062 16.484375 L 16.375 16.761719 C 16.515625 16.800781 16.652344 16.800781 16.773438 16.722656 C 16.890625 16.640625 16.972656 16.523438 16.992188 16.382812 C 16.992188 16.363281 16.992188 16.34375 16.992188 16.324219 C 16.992188 16.167969 16.890625 16.007812 16.753906 15.929688 C 16.753906 15.929688 16.734375 15.910156 16.734375 15.910156 L 15.40625 15.253906 C 15.304688 15.214844 15.265625 15.097656 15.304688 14.996094 C 15.347656 14.898438 15.464844 14.859375 15.5625 14.898438 L 16.890625 15.550781 C 17.050781 15.632812 17.191406 15.769531 17.269531 15.929688 C 17.386719 16.066406 17.40625 16.207031 17.40625 16.34375 Z M 17.40625 16.34375 " fill-opacity="1" fill-rule="nonzero"/><path fill="#76c554" d="M 17.109375 17.476562 C 17.089844 17.476562 17.070312 17.476562 17.03125 17.457031 L 15.523438 16.859375 C 15.425781 16.820312 15.367188 16.703125 15.40625 16.601562 C 15.445312 16.503906 15.5625 16.445312 15.664062 16.484375 L 17.167969 17.078125 C 17.269531 17.117188 17.328125 17.238281 17.289062 17.335938 C 17.269531 17.433594 17.191406 17.476562 17.109375 17.476562 Z M 17.109375 17.476562 " fill-opacity="1" fill-rule="nonzero"/><path fill="#76c554" d="M 20.105469 11.230469 L 13.621094 11.230469 C 13.699219 11.347656 13.757812 11.488281 13.820312 11.625 L 20.105469 11.625 C 20.300781 11.625 20.441406 11.785156 20.441406 11.964844 L 20.441406 15.589844 C 20.441406 15.789062 20.28125 15.929688 20.105469 15.929688 L 16.792969 15.929688 C 16.933594 16.007812 17.03125 16.167969 17.03125 16.324219 L 20.105469 16.324219 C 20.363281 16.324219 20.578125 16.207031 20.71875 16.007812 C 20.796875 15.890625 20.855469 15.75 20.855469 15.589844 L 20.855469 11.964844 C 20.835938 11.566406 20.5 11.230469 20.105469 11.230469 Z M 20.105469 11.230469 " fill-opacity="1" fill-rule="nonzero"/><path fill="#76c554" d="M 20.105469 11.230469 L 13.621094 11.230469 C 13.699219 11.347656 13.757812 11.488281 13.820312 11.625 L 20.105469 11.625 C 20.300781 11.625 20.441406 11.785156 20.441406 11.964844 L 20.441406 12.441406 L 13.9375 12.441406 C 13.9375 12.578125 13.917969 12.71875 13.898438 12.835938 L 20.640625 12.835938 C 20.738281 12.835938 20.835938 12.738281 20.835938 12.636719 L 20.835938 11.964844 C 20.835938 11.566406 20.5 11.230469 20.105469 11.230469 Z M 20.105469 11.230469 " fill-opacity="1" fill-rule="nonzero"/><path fill="#36383e" d="M 19.371094 15.730469 L 18.558594 15.730469 C 18.300781 15.730469 18.082031 15.511719 18.082031 15.253906 L 18.082031 15.035156 C 18.082031 14.777344 18.300781 14.5625 18.558594 14.5625 L 19.371094 14.5625 C 19.628906 14.5625 19.847656 14.777344 19.847656 15.035156 L 19.847656 15.253906 C 19.828125 15.511719 19.628906 15.730469 19.371094 15.730469 Z M 18.539062 14.957031 C 18.496094 14.957031 18.457031 14.996094 18.457031 15.035156 L 18.457031 15.253906 C 18.457031 15.292969 18.496094 15.335938 18.539062 15.335938 L 19.371094 15.335938 C 19.410156 15.335938 19.449219 15.292969 19.449219 15.253906 L 19.449219 15.035156 C 19.449219 14.996094 19.410156 14.957031 19.371094 14.957031 Z M 18.539062 14.957031 " fill-opacity="1" fill-rule="nonzero"/></svg>