<svg xmlns="http://www.w3.org/2000/svg" xmlns:xlink="http://www.w3.org/1999/xlink" width="40" zoomAndPan="magnify" viewBox="0 0 30 30.000001" height="40" preserveAspectRatio="xMidYMid meet" version="1.0"><defs><clipPath id="ed6b784b2f"><path d="M 0.484375 0 L 29.515625 0 L 29.515625 29.03125 L 0.484375 29.03125 Z M 0.484375 0 " clip-rule="nonzero"/></clipPath><clipPath id="c5b4863d49"><path d="M 6.289062 6.976562 L 13 6.976562 L 13 14 L 6.289062 14 Z M 6.289062 6.976562 " clip-rule="nonzero"/></clipPath><clipPath id="5ffe9faf1c"><path d="M 17 18 L 23.710938 18 L 23.710938 24.394531 L 17 24.394531 Z M 17 18 " clip-rule="nonzero"/></clipPath></defs><g clip-path="url(#ed6b784b2f)"><path fill="#ffffff" d="M 0.484375 0 L 29.515625 0 L 29.515625 29.03125 L 0.484375 29.03125 Z M 0.484375 0 " fill-opacity="1" fill-rule="nonzero"/><path fill="#ffffff" d="M 0.484375 0 L 29.515625 0 L 29.515625 29.03125 L 0.484375 29.03125 Z M 0.484375 0 " fill-opacity="1" fill-rule="nonzero"/></g><path fill="#1c0d3c" d="M 17.105469 13.273438 C 17.269531 13.273438 17.40625 13.40625 17.40625 13.574219 L 17.40625 17.773438 C 17.40625 17.9375 17.269531 18.074219 17.105469 18.074219 L 12.90625 18.074219 C 12.742188 18.074219 12.605469 17.9375 12.605469 17.773438 L 12.605469 13.574219 C 12.605469 13.40625 12.742188 13.273438 12.90625 13.273438 Z M 13.207031 17.472656 L 16.804688 17.472656 L 16.804688 13.875 L 13.207031 13.875 Z M 13.207031 17.472656 " fill-opacity="1" fill-rule="nonzero"/><path fill="#1c0d3c" d="M 20.351562 10.929688 C 20.351562 10.761719 20.484375 10.628906 20.652344 10.628906 C 20.816406 10.628906 20.949219 10.761719 20.949219 10.929688 L 20.949219 15.671875 C 20.949219 15.839844 20.816406 15.972656 20.652344 15.972656 L 17.105469 15.972656 C 16.941406 15.972656 16.804688 15.839844 16.804688 15.671875 C 16.804688 15.507812 16.941406 15.375 17.105469 15.375 L 20.351562 15.375 Z M 20.351562 10.929688 " fill-opacity="1" fill-rule="nonzero"/><path fill="#1c0d3c" d="M 19.75 9.730469 C 19.917969 9.730469 20.050781 9.863281 20.050781 10.027344 C 20.050781 10.195312 19.917969 10.328125 19.75 10.328125 L 12.101562 10.328125 C 11.9375 10.328125 11.800781 10.195312 11.800781 10.027344 C 11.800781 9.863281 11.9375 9.730469 12.101562 9.730469 Z M 19.75 9.730469 " fill-opacity="1" fill-rule="nonzero"/><path fill="#1c0d3c" d="M 17.898438 21.019531 C 18.0625 21.019531 18.195312 21.152344 18.195312 21.320312 C 18.195312 21.484375 18.0625 21.617188 17.898438 21.617188 L 10.25 21.617188 C 10.082031 21.617188 9.949219 21.484375 9.949219 21.320312 C 9.949219 21.152344 10.082031 21.019531 10.25 21.019531 Z M 17.898438 21.019531 " fill-opacity="1" fill-rule="nonzero"/><path fill="#1c0d3c" d="M 9.050781 20.417969 L 9.050781 15.644531 C 9.066406 15.492188 9.195312 15.375 9.347656 15.375 L 12.90625 15.375 C 13.070312 15.375 13.207031 15.507812 13.207031 15.671875 C 13.207031 15.839844 13.070312 15.972656 12.90625 15.972656 L 9.648438 15.972656 L 9.648438 20.449219 C 9.632812 20.601562 9.503906 20.71875 9.347656 20.71875 C 9.195312 20.71875 9.066406 20.601562 9.050781 20.449219 Z M 9.050781 20.417969 " fill-opacity="1" fill-rule="nonzero"/><path fill="#1c0d3c" d="M 21.25 10.027344 C 21.25 9.695312 20.980469 9.429688 20.652344 9.429688 C 20.320312 9.429688 20.050781 9.695312 20.050781 10.027344 C 20.050781 10.359375 20.320312 10.628906 20.652344 10.628906 C 20.980469 10.628906 21.25 10.359375 21.25 10.027344 Z M 21.851562 10.027344 C 21.851562 10.691406 21.3125 11.226562 20.652344 11.226562 C 19.988281 11.226562 19.449219 10.691406 19.449219 10.027344 C 19.449219 9.367188 19.988281 8.828125 20.652344 8.828125 C 21.3125 8.828125 21.851562 9.367188 21.851562 10.027344 Z M 21.851562 10.027344 " fill-opacity="1" fill-rule="nonzero"/><path fill="#1c0d3c" d="M 9.949219 21.320312 C 9.949219 20.988281 9.679688 20.71875 9.347656 20.71875 C 9.015625 20.71875 8.75 20.988281 8.75 21.320312 C 8.75 21.648438 9.015625 21.917969 9.347656 21.917969 C 9.679688 21.917969 9.949219 21.648438 9.949219 21.320312 Z M 10.546875 21.320312 C 10.546875 21.980469 10.011719 22.519531 9.347656 22.519531 C 8.6875 22.519531 8.148438 21.980469 8.148438 21.320312 C 8.148438 20.65625 8.6875 20.117188 9.347656 20.117188 C 10.011719 20.117188 10.546875 20.65625 10.546875 21.320312 Z M 10.546875 21.320312 " fill-opacity="1" fill-rule="nonzero"/><g clip-path="url(#c5b4863d49)"><path fill="#76c554" d="M 9.867188 6.976562 C 10.03125 6.976562 10.167969 7.109375 10.167969 7.273438 L 10.167969 7.871094 C 10.210938 7.886719 10.253906 7.90625 10.296875 7.925781 L 10.738281 7.484375 C 10.792969 7.4375 10.859375 7.414062 10.929688 7.414062 C 11.007812 7.414062 11.085938 7.445312 11.140625 7.503906 L 11.875 8.234375 C 11.929688 8.292969 11.960938 8.367188 11.960938 8.449219 C 11.960938 8.527344 11.929688 8.601562 11.875 8.660156 L 11.453125 9.082031 C 11.472656 9.125 11.488281 9.167969 11.507812 9.210938 L 12.101562 9.210938 C 12.265625 9.210938 12.402344 9.34375 12.402344 9.511719 L 12.402344 10.546875 C 12.402344 10.710938 12.265625 10.847656 12.101562 10.847656 L 11.507812 10.847656 C 11.488281 10.890625 11.472656 10.933594 11.453125 10.976562 L 11.875 11.398438 C 11.992188 11.511719 11.992188 11.703125 11.875 11.820312 L 11.140625 12.554688 C 11.085938 12.609375 11.007812 12.640625 10.929688 12.640625 C 10.851562 12.640625 10.773438 12.609375 10.71875 12.554688 L 10.296875 12.132812 C 10.253906 12.152344 10.210938 12.167969 10.167969 12.183594 L 10.167969 12.78125 C 10.167969 12.945312 10.03125 13.082031 9.867188 13.082031 L 8.832031 13.082031 C 8.664062 13.082031 8.53125 12.945312 8.53125 12.78125 L 8.53125 12.183594 C 8.488281 12.167969 8.445312 12.152344 8.402344 12.132812 L 7.980469 12.554688 C 7.863281 12.671875 7.671875 12.671875 7.554688 12.554688 L 6.824219 11.820312 C 6.765625 11.765625 6.734375 11.6875 6.734375 11.609375 C 6.734375 11.527344 6.765625 11.453125 6.824219 11.398438 L 7.246094 10.976562 C 7.226562 10.933594 7.207031 10.890625 7.191406 10.847656 L 6.597656 10.847656 C 6.429688 10.847656 6.296875 10.710938 6.296875 10.546875 L 6.296875 9.511719 C 6.296875 9.34375 6.429688 9.210938 6.597656 9.210938 L 7.191406 9.210938 C 7.207031 9.167969 7.226562 9.125 7.246094 9.082031 L 6.824219 8.660156 C 6.707031 8.542969 6.707031 8.351562 6.824219 8.234375 L 7.554688 7.503906 L 7.578125 7.484375 C 7.632812 7.4375 7.699219 7.414062 7.769531 7.414062 C 7.847656 7.414062 7.921875 7.445312 7.980469 7.503906 L 8.402344 7.925781 C 8.445312 7.90625 8.488281 7.886719 8.53125 7.871094 L 8.53125 7.273438 C 8.53125 7.109375 8.664062 6.976562 8.832031 6.976562 Z M 9.132812 8.089844 C 9.132812 8.222656 9.039062 8.34375 8.910156 8.378906 C 8.761719 8.417969 8.625 8.476562 8.492188 8.550781 C 8.375 8.617188 8.226562 8.597656 8.132812 8.503906 L 7.769531 8.140625 L 7.460938 8.445312 L 7.824219 8.8125 C 7.917969 8.90625 7.9375 9.054688 7.871094 9.171875 C 7.796875 9.304688 7.738281 9.441406 7.699219 9.585938 C 7.664062 9.71875 7.546875 9.808594 7.410156 9.808594 L 6.894531 9.808594 L 6.894531 10.246094 L 7.410156 10.246094 L 7.460938 10.25 C 7.574219 10.269531 7.667969 10.355469 7.699219 10.46875 C 7.738281 10.613281 7.796875 10.753906 7.871094 10.882812 C 7.9375 11 7.917969 11.148438 7.824219 11.246094 L 7.460938 11.609375 L 7.769531 11.917969 L 8.167969 11.519531 C 8.265625 11.453125 8.390625 11.445312 8.492188 11.503906 C 8.625 11.582031 8.761719 11.640625 8.910156 11.675781 C 9.039062 11.710938 9.132812 11.832031 9.132812 11.96875 L 9.132812 12.480469 L 9.566406 12.480469 L 9.566406 11.96875 C 9.566406 11.832031 9.65625 11.710938 9.789062 11.675781 C 9.933594 11.640625 10.074219 11.582031 10.203125 11.507812 L 10.25 11.484375 C 10.359375 11.445312 10.480469 11.46875 10.566406 11.554688 L 10.929688 11.917969 L 11.238281 11.609375 L 10.875 11.246094 C 10.777344 11.148438 10.757812 11 10.828125 10.882812 C 10.902344 10.753906 10.960938 10.613281 11 10.46875 L 11.015625 10.421875 C 11.0625 10.316406 11.167969 10.246094 11.289062 10.246094 L 11.800781 10.246094 L 11.800781 9.808594 L 11.289062 9.808594 C 11.152344 9.808594 11.035156 9.71875 11 9.585938 C 10.960938 9.441406 10.902344 9.304688 10.828125 9.171875 C 10.757812 9.054688 10.777344 8.90625 10.875 8.8125 L 11.238281 8.445312 L 10.929688 8.140625 L 10.566406 8.503906 C 10.46875 8.597656 10.320312 8.617188 10.203125 8.550781 C 10.074219 8.476562 9.933594 8.417969 9.789062 8.378906 C 9.65625 8.34375 9.566406 8.222656 9.566406 8.089844 L 9.566406 7.574219 L 9.132812 7.574219 Z M 9.132812 8.089844 " fill-opacity="1" fill-rule="nonzero"/></g><path fill="#76c554" d="M 9.101562 8.777344 C 9.347656 8.730469 9.601562 8.753906 9.835938 8.851562 C 10.070312 8.949219 10.269531 9.109375 10.40625 9.320312 C 10.546875 9.53125 10.621094 9.777344 10.621094 10.027344 C 10.621094 10.367188 10.488281 10.691406 10.25 10.929688 C 10.011719 11.167969 9.6875 11.300781 9.347656 11.300781 C 9.097656 11.300781 8.851562 11.226562 8.640625 11.085938 C 8.429688 10.949219 8.269531 10.75 8.171875 10.515625 C 8.074219 10.28125 8.050781 10.027344 8.097656 9.78125 C 8.148438 9.53125 8.269531 9.304688 8.449219 9.128906 C 8.625 8.949219 8.851562 8.828125 9.101562 8.777344 Z M 9.605469 9.40625 C 9.484375 9.355469 9.347656 9.339844 9.21875 9.367188 C 9.085938 9.394531 8.964844 9.457031 8.871094 9.550781 C 8.777344 9.644531 8.714844 9.765625 8.6875 9.898438 C 8.660156 10.027344 8.675781 10.164062 8.726562 10.285156 C 8.777344 10.410156 8.863281 10.515625 8.972656 10.589844 C 9.085938 10.664062 9.214844 10.703125 9.347656 10.703125 C 9.527344 10.703125 9.699219 10.628906 9.824219 10.503906 C 9.953125 10.378906 10.023438 10.207031 10.023438 10.027344 L 10.019531 9.976562 C 10.011719 9.863281 9.972656 9.75 9.910156 9.652344 C 9.835938 9.542969 9.730469 9.457031 9.605469 9.40625 Z M 9.605469 9.40625 " fill-opacity="1" fill-rule="nonzero"/><g clip-path="url(#5ffe9faf1c)"><path fill="#76c554" d="M 21.167969 18.265625 C 21.335938 18.265625 21.46875 18.398438 21.46875 18.566406 L 21.46875 19.160156 C 21.511719 19.175781 21.554688 19.195312 21.597656 19.214844 L 22.019531 18.792969 L 22.042969 18.773438 C 22.09375 18.730469 22.164062 18.707031 22.230469 18.707031 C 22.3125 18.707031 22.386719 18.738281 22.445312 18.792969 L 23.175781 19.527344 C 23.292969 19.644531 23.292969 19.832031 23.175781 19.949219 L 22.753906 20.371094 C 22.773438 20.414062 22.792969 20.457031 22.808594 20.5 L 23.402344 20.5 C 23.570312 20.5 23.703125 20.636719 23.703125 20.800781 L 23.703125 21.835938 C 23.703125 22.003906 23.570312 22.136719 23.402344 22.136719 L 22.808594 22.136719 C 22.792969 22.179688 22.773438 22.222656 22.753906 22.265625 L 23.175781 22.6875 C 23.292969 22.804688 23.292969 22.992188 23.175781 23.109375 L 22.445312 23.84375 C 22.386719 23.898438 22.3125 23.929688 22.230469 23.929688 C 22.152344 23.929688 22.074219 23.898438 22.019531 23.84375 L 21.597656 23.421875 C 21.554688 23.441406 21.511719 23.460938 21.46875 23.476562 L 21.46875 24.070312 C 21.46875 24.238281 21.335938 24.371094 21.167969 24.371094 L 20.132812 24.371094 C 19.96875 24.371094 19.832031 24.238281 19.832031 24.070312 L 19.832031 23.476562 C 19.789062 23.460938 19.746094 23.441406 19.703125 23.421875 L 19.28125 23.84375 C 19.226562 23.898438 19.148438 23.929688 19.070312 23.929688 C 18.992188 23.929688 18.914062 23.898438 18.859375 23.84375 L 18.125 23.109375 C 18.007812 22.992188 18.007812 22.804688 18.125 22.6875 L 18.546875 22.265625 C 18.527344 22.222656 18.511719 22.179688 18.492188 22.136719 L 17.898438 22.136719 C 17.730469 22.136719 17.597656 22.003906 17.597656 21.835938 L 17.597656 20.800781 C 17.597656 20.636719 17.730469 20.5 17.898438 20.5 L 18.492188 20.5 C 18.511719 20.457031 18.527344 20.414062 18.546875 20.371094 L 18.125 19.949219 C 18.007812 19.832031 18.007812 19.644531 18.125 19.527344 L 18.878906 18.773438 C 18.933594 18.730469 19 18.707031 19.070312 18.707031 C 19.148438 18.707031 19.226562 18.738281 19.28125 18.792969 L 19.703125 19.214844 C 19.746094 19.195312 19.789062 19.175781 19.832031 19.160156 L 19.832031 18.566406 C 19.832031 18.398438 19.96875 18.265625 20.132812 18.265625 Z M 20.433594 19.378906 C 20.433594 19.515625 20.339844 19.632812 20.210938 19.667969 C 20.066406 19.707031 19.925781 19.765625 19.796875 19.839844 C 19.679688 19.910156 19.53125 19.890625 19.433594 19.792969 L 19.070312 19.429688 L 18.761719 19.738281 L 19.125 20.101562 C 19.222656 20.199219 19.242188 20.347656 19.171875 20.464844 C 19.097656 20.59375 19.039062 20.734375 19 20.878906 C 18.964844 21.007812 18.847656 21.101562 18.710938 21.101562 L 18.199219 21.101562 L 18.199219 21.535156 L 18.710938 21.535156 L 18.761719 21.539062 C 18.875 21.558594 18.96875 21.644531 19 21.757812 C 19.039062 21.902344 19.097656 22.042969 19.171875 22.171875 C 19.242188 22.289062 19.222656 22.441406 19.125 22.535156 L 18.761719 22.898438 L 19.070312 23.207031 L 19.433594 22.84375 L 19.472656 22.8125 C 19.566406 22.746094 19.695312 22.738281 19.796875 22.796875 C 19.925781 22.871094 20.066406 22.929688 20.210938 22.96875 C 20.339844 23.003906 20.433594 23.121094 20.433594 23.257812 L 20.433594 23.773438 L 20.867188 23.773438 L 20.867188 23.257812 C 20.867188 23.121094 20.960938 23.003906 21.089844 22.96875 C 21.238281 22.929688 21.375 22.871094 21.503906 22.796875 L 21.550781 22.773438 C 21.660156 22.734375 21.785156 22.757812 21.867188 22.84375 L 22.230469 23.207031 L 22.539062 22.898438 L 22.175781 22.535156 C 22.082031 22.441406 22.0625 22.289062 22.128906 22.171875 C 22.203125 22.042969 22.261719 21.902344 22.300781 21.757812 C 22.335938 21.628906 22.453125 21.535156 22.589844 21.535156 L 23.105469 21.535156 L 23.105469 21.101562 L 22.589844 21.101562 C 22.453125 21.101562 22.335938 21.007812 22.300781 20.878906 C 22.261719 20.734375 22.203125 20.59375 22.128906 20.464844 C 22.0625 20.347656 22.078125 20.199219 22.175781 20.101562 L 22.539062 19.738281 L 22.230469 19.429688 L 21.867188 19.792969 C 21.773438 19.890625 21.625 19.910156 21.503906 19.839844 C 21.375 19.765625 21.238281 19.707031 21.089844 19.667969 C 20.960938 19.632812 20.867188 19.515625 20.867188 19.378906 L 20.867188 18.867188 L 20.433594 18.867188 Z M 20.433594 19.378906 " fill-opacity="1" fill-rule="nonzero"/></g><path fill="#76c554" d="M 20.402344 20.070312 C 20.648438 20.019531 20.90625 20.046875 21.136719 20.140625 C 21.371094 20.238281 21.570312 20.402344 21.710938 20.609375 C 21.851562 20.820312 21.925781 21.066406 21.925781 21.320312 C 21.925781 21.65625 21.789062 21.980469 21.550781 22.21875 C 21.3125 22.457031 20.988281 22.59375 20.652344 22.59375 C 20.398438 22.59375 20.152344 22.519531 19.941406 22.378906 C 19.734375 22.238281 19.570312 22.039062 19.472656 21.804688 C 19.378906 21.574219 19.351562 21.316406 19.402344 21.070312 C 19.449219 20.824219 19.570312 20.597656 19.75 20.417969 C 19.929688 20.238281 20.15625 20.117188 20.402344 20.070312 Z M 20.910156 20.695312 C 20.785156 20.644531 20.648438 20.632812 20.519531 20.65625 C 20.386719 20.683594 20.269531 20.746094 20.175781 20.84375 C 20.078125 20.9375 20.015625 21.054688 19.988281 21.1875 C 19.964844 21.316406 19.976562 21.453125 20.027344 21.578125 C 20.078125 21.699219 20.164062 21.804688 20.277344 21.878906 C 20.386719 21.953125 20.515625 21.992188 20.652344 21.992188 C 20.828125 21.992188 21 21.921875 21.128906 21.796875 C 21.253906 21.667969 21.324219 21.496094 21.324219 21.320312 L 21.324219 21.269531 C 21.3125 21.152344 21.277344 21.042969 21.210938 20.945312 C 21.136719 20.832031 21.03125 20.746094 20.910156 20.695312 Z M 20.910156 20.695312 " fill-opacity="1" fill-rule="nonzero"/></svg>