<svg xmlns="http://www.w3.org/2000/svg" xmlns:xlink="http://www.w3.org/1999/xlink" width="40" zoomAndPan="magnify" viewBox="0 0 30 30.000001" height="40" preserveAspectRatio="xMidYMid meet" version="1.0"><defs><clipPath id="e4adceccb4"><path d="M 0.484375 0 L 29.515625 0 L 29.515625 29.03125 L 0.484375 29.03125 Z M 0.484375 0 " clip-rule="nonzero"/></clipPath><clipPath id="935f07965d"><path d="M 14 3.773438 L 26.03125 3.773438 L 26.03125 16 L 14 16 Z M 14 3.773438 " clip-rule="nonzero"/></clipPath><clipPath id="de5399f6ad"><path d="M 4.257812 13 L 17 13 L 17 25.546875 L 4.257812 25.546875 Z M 4.257812 13 " clip-rule="nonzero"/></clipPath><clipPath id="37b2a6e796"><path d="M 4.257812 10 L 6 10 L 6 13 L 4.257812 13 Z M 4.257812 10 " clip-rule="nonzero"/></clipPath><clipPath id="dde06eb5b4"><path d="M 17 24 L 20 24 L 20 25.546875 L 17 25.546875 Z M 17 24 " clip-rule="nonzero"/></clipPath></defs><g clip-path="url(#e4adceccb4)"><path fill="#ffffff" d="M 0.484375 0 L 29.515625 0 L 29.515625 29.03125 L 0.484375 29.03125 Z M 0.484375 0 " fill-opacity="1" fill-rule="nonzero"/><path fill="#ffffff" d="M 0.484375 0 L 29.515625 0 L 29.515625 29.03125 L 0.484375 29.03125 Z M 0.484375 0 " fill-opacity="1" fill-rule="nonzero"/></g><path fill="#231f20" d="M 11.386719 5.230469 C 11.429688 5.238281 11.472656 5.238281 11.519531 5.230469 C 11.84375 5.101562 12.179688 4.992188 12.519531 4.898438 C 12.632812 4.882812 12.71875 4.824219 12.777344 4.726562 C 12.835938 4.628906 12.847656 4.523438 12.8125 4.417969 C 12.761719 4.234375 12.640625 4.140625 12.449219 4.136719 L 12.355469 4.136719 C 11.988281 4.234375 11.632812 4.351562 11.277344 4.492188 C 11.089844 4.566406 11.015625 4.707031 11.054688 4.90625 C 11.089844 5.105469 11.210938 5.207031 11.414062 5.210938 Z M 11.386719 5.230469 " fill-opacity="1" fill-rule="nonzero"/><path fill="#231f20" d="M 15.558594 17.03125 L 15.558594 15.046875 L 18.554688 15.046875 C 18.660156 15.050781 18.75 15.011719 18.824219 14.941406 C 18.898438 14.867188 18.933594 14.777344 18.929688 14.671875 L 18.929688 12.300781 C 18.933594 12.199219 18.898438 12.109375 18.824219 12.035156 C 18.75 11.960938 18.660156 11.925781 18.554688 11.925781 L 15.183594 11.925781 C 15.082031 11.925781 14.992188 11.964844 14.917969 12.035156 C 14.847656 12.109375 14.808594 12.199219 14.808594 12.300781 L 14.808594 17.015625 C 14.808594 17.117188 14.847656 17.207031 14.917969 17.28125 C 14.992188 17.355469 15.082031 17.390625 15.183594 17.390625 C 15.289062 17.390625 15.378906 17.355469 15.449219 17.28125 C 15.523438 17.207031 15.558594 17.117188 15.558594 17.015625 Z M 18.1875 12.695312 L 18.1875 14.296875 L 15.558594 14.296875 L 15.558594 12.695312 Z M 18.1875 12.695312 " fill-opacity="1" fill-rule="nonzero"/><g clip-path="url(#935f07965d)"><path fill="#231f20" d="M 15.183594 3.773438 C 14.980469 3.773438 14.769531 3.773438 14.566406 3.773438 C 14.460938 3.78125 14.378906 3.820312 14.308594 3.898438 C 14.238281 3.972656 14.207031 4.0625 14.210938 4.167969 C 14.21875 4.265625 14.257812 4.351562 14.328125 4.417969 C 14.402344 4.488281 14.488281 4.523438 14.589844 4.523438 L 15.183594 4.523438 C 15.851562 4.527344 16.507812 4.59375 17.160156 4.722656 C 17.8125 4.855469 18.449219 5.050781 19.0625 5.304688 C 19.675781 5.5625 20.261719 5.875 20.8125 6.242188 C 21.367188 6.613281 21.878906 7.035156 22.347656 7.507812 C 22.820312 7.976562 23.238281 8.488281 23.609375 9.042969 C 23.976562 9.59375 24.289062 10.179688 24.546875 10.792969 C 24.800781 11.410156 24.992188 12.042969 25.125 12.695312 C 25.253906 13.347656 25.320312 14.007812 25.320312 14.671875 C 25.320312 14.867188 25.320312 15.054688 25.320312 15.242188 C 25.316406 15.34375 25.347656 15.433594 25.417969 15.507812 C 25.484375 15.585938 25.570312 15.628906 25.675781 15.632812 C 25.773438 15.632812 25.855469 15.597656 25.929688 15.53125 C 26 15.460938 26.039062 15.378906 26.042969 15.28125 C 26.042969 15.078125 26.042969 14.871094 26.042969 14.660156 C 26.042969 13.949219 25.972656 13.242188 25.832031 12.542969 C 25.691406 11.84375 25.484375 11.164062 25.210938 10.503906 C 24.9375 9.847656 24.605469 9.21875 24.207031 8.625 C 23.8125 8.035156 23.363281 7.484375 22.859375 6.980469 C 22.355469 6.472656 21.808594 6.023438 21.214844 5.625 C 20.621094 5.226562 19.996094 4.890625 19.339844 4.617188 C 18.679688 4.34375 18.003906 4.132812 17.304688 3.992188 C 16.605469 3.851562 15.898438 3.777344 15.183594 3.773438 Z M 15.183594 3.773438 " fill-opacity="1" fill-rule="nonzero"/></g><path fill="#231f20" d="M 24.71875 13.53125 C 24.71875 13.320312 24.640625 13.136719 24.492188 12.988281 C 24.34375 12.839844 24.164062 12.765625 23.953125 12.761719 L 22.304688 12.761719 C 22.140625 12.160156 21.90625 11.59375 21.59375 11.058594 C 21.585938 11.046875 21.585938 11.035156 21.59375 11.023438 L 22.757812 9.886719 C 22.90625 9.734375 22.984375 9.554688 22.984375 9.34375 C 22.984375 9.128906 22.90625 8.949219 22.757812 8.800781 L 21.121094 7.128906 C 20.964844 6.96875 20.773438 6.890625 20.550781 6.902344 C 20.328125 6.894531 20.140625 6.972656 19.984375 7.128906 L 18.847656 8.265625 L 18.8125 8.265625 C 18.273438 7.957031 17.703125 7.722656 17.105469 7.554688 L 17.105469 5.910156 C 17.109375 5.695312 17.03125 5.511719 16.878906 5.363281 C 16.726562 5.210938 16.542969 5.136719 16.328125 5.136719 L 14.054688 5.136719 C 13.839844 5.140625 13.660156 5.214844 13.511719 5.367188 C 13.359375 5.519531 13.285156 5.699219 13.285156 5.910156 L 13.285156 7.554688 C 12.6875 7.71875 12.121094 7.957031 11.582031 8.265625 L 11.507812 8.265625 L 10.371094 7.128906 C 10.214844 6.96875 10.023438 6.890625 9.800781 6.902344 C 9.589844 6.902344 9.410156 6.976562 9.261719 7.121094 L 7.636719 8.742188 C 7.488281 8.894531 7.414062 9.074219 7.414062 9.285156 C 7.414062 9.496094 7.488281 9.679688 7.636719 9.828125 L 8.800781 10.964844 C 8.800781 10.964844 8.800781 10.964844 8.800781 11 C 8.492188 11.539062 8.253906 12.105469 8.089844 12.707031 L 6.425781 12.707031 C 6.199219 12.707031 6.011719 12.785156 5.859375 12.949219 C 5.707031 13.113281 5.636719 13.304688 5.652344 13.53125 L 5.652344 15.804688 C 5.652344 16.015625 5.726562 16.199219 5.878906 16.347656 C 6.027344 16.5 6.210938 16.574219 6.425781 16.570312 L 8.066406 16.570312 C 8.234375 17.167969 8.46875 17.738281 8.777344 18.277344 C 8.777344 18.277344 8.777344 18.277344 8.777344 18.3125 L 7.613281 19.449219 C 7.464844 19.601562 7.390625 19.78125 7.390625 19.992188 C 7.390625 20.207031 7.464844 20.386719 7.613281 20.539062 L 9.234375 22.15625 C 9.382812 22.300781 9.5625 22.375 9.773438 22.371094 C 9.992188 22.382812 10.183594 22.308594 10.339844 22.15625 L 11.476562 20.988281 L 11.511719 20.988281 C 12.050781 21.300781 12.617188 21.539062 13.21875 21.699219 L 13.21875 23.347656 C 13.21875 23.558594 13.292969 23.738281 13.445312 23.890625 C 13.59375 24.039062 13.773438 24.113281 13.984375 24.117188 L 16.257812 24.117188 C 16.472656 24.117188 16.652344 24.039062 16.800781 23.890625 C 16.953125 23.742188 17.027344 23.558594 17.027344 23.347656 L 17.027344 21.699219 C 17.625 21.539062 18.195312 21.300781 18.734375 20.988281 L 18.765625 20.988281 L 19.902344 22.15625 C 20.058594 22.296875 20.238281 22.371094 20.449219 22.371094 C 20.660156 22.371094 20.84375 22.296875 20.996094 22.15625 L 22.609375 20.539062 C 22.761719 20.390625 22.835938 20.207031 22.835938 19.992188 C 22.835938 19.78125 22.761719 19.597656 22.609375 19.449219 L 21.445312 18.3125 C 21.4375 18.300781 21.4375 18.289062 21.445312 18.277344 C 21.757812 17.738281 21.992188 17.171875 22.15625 16.570312 L 23.804688 16.570312 C 24.015625 16.570312 24.195312 16.496094 24.347656 16.347656 C 24.496094 16.195312 24.570312 16.015625 24.570312 15.804688 Z M 11.910156 8.9375 C 12.394531 8.667969 12.90625 8.460938 13.445312 8.324219 C 13.613281 8.277344 13.75 8.183594 13.855469 8.046875 C 13.960938 7.90625 14.011719 7.75 14.015625 7.578125 L 14.015625 5.910156 L 16.289062 5.910156 L 16.289062 7.554688 C 16.289062 7.730469 16.339844 7.886719 16.445312 8.023438 C 16.550781 8.160156 16.6875 8.253906 16.855469 8.300781 C 17.394531 8.445312 17.90625 8.660156 18.390625 8.9375 C 18.542969 9.027344 18.707031 9.058594 18.882812 9.039062 C 19.054688 9.015625 19.207031 8.941406 19.328125 8.816406 L 20.496094 7.679688 L 22.109375 9.292969 L 22.109375 9.324219 L 20.945312 10.460938 C 20.820312 10.585938 20.75 10.734375 20.726562 10.90625 C 20.703125 11.078125 20.738281 11.242188 20.824219 11.390625 C 21.105469 11.875 21.316406 12.386719 21.460938 12.925781 C 21.507812 13.09375 21.601562 13.230469 21.738281 13.335938 C 21.878906 13.441406 22.03125 13.492188 22.207031 13.496094 L 23.855469 13.496094 L 23.855469 15.769531 L 22.207031 15.769531 C 22.03125 15.769531 21.875 15.824219 21.738281 15.929688 C 21.601562 16.035156 21.507812 16.171875 21.460938 16.339844 C 21.316406 16.878906 21.105469 17.390625 20.824219 17.875 C 20.738281 18.023438 20.703125 18.1875 20.726562 18.363281 C 20.746094 18.535156 20.820312 18.6875 20.945312 18.8125 L 22.109375 19.976562 L 22.109375 20.003906 L 20.496094 21.621094 L 19.328125 20.453125 C 19.171875 20.296875 18.984375 20.222656 18.761719 20.234375 C 18.621094 20.234375 18.492188 20.269531 18.367188 20.335938 C 17.886719 20.613281 17.375 20.828125 16.832031 20.972656 C 16.667969 21.019531 16.53125 21.109375 16.425781 21.25 C 16.320312 21.386719 16.265625 21.542969 16.265625 21.714844 L 16.265625 23.367188 L 13.992188 23.367188 L 13.992188 21.714844 C 13.988281 21.542969 13.933594 21.390625 13.828125 21.253906 C 13.722656 21.117188 13.589844 21.023438 13.421875 20.976562 C 12.882812 20.828125 12.367188 20.617188 11.882812 20.335938 C 11.761719 20.265625 11.628906 20.234375 11.488281 20.234375 C 11.265625 20.222656 11.078125 20.296875 10.921875 20.453125 L 9.785156 21.621094 L 8.167969 20.078125 L 8.167969 20.050781 L 9.304688 18.886719 C 9.429688 18.761719 9.503906 18.609375 9.523438 18.4375 C 9.546875 18.261719 9.515625 18.097656 9.425781 17.949219 C 9.164062 17.460938 8.96875 16.949219 8.835938 16.414062 C 8.789062 16.246094 8.695312 16.109375 8.558594 16.003906 C 8.417969 15.898438 8.265625 15.84375 8.089844 15.84375 L 6.425781 15.84375 L 6.425781 13.570312 L 8.066406 13.570312 C 8.242188 13.570312 8.398438 13.515625 8.535156 13.410156 C 8.671875 13.304688 8.765625 13.167969 8.8125 13 C 8.960938 12.460938 9.171875 11.949219 9.449219 11.464844 C 9.535156 11.316406 9.570312 11.152344 9.546875 10.980469 C 9.523438 10.804688 9.453125 10.65625 9.328125 10.535156 L 8.191406 9.398438 C 8.191406 9.398438 8.191406 9.398438 8.191406 9.367188 L 9.785156 7.65625 L 9.8125 7.65625 L 10.949219 8.792969 C 11.074219 8.917969 11.222656 8.992188 11.394531 9.015625 C 11.570312 9.035156 11.730469 9.003906 11.882812 8.914062 Z M 11.910156 8.9375 " fill-opacity="1" fill-rule="nonzero"/><g clip-path="url(#de5399f6ad)"><path fill="#231f20" d="M 15.78125 24.808594 C 15.589844 24.808594 15.398438 24.808594 15.214844 24.808594 C 14.546875 24.808594 13.886719 24.746094 13.230469 24.617188 C 12.578125 24.488281 11.941406 24.296875 11.328125 24.042969 C 10.710938 23.789062 10.125 23.476562 9.570312 23.105469 C 9.015625 22.738281 8.5 22.316406 8.027344 21.847656 C 7.554688 21.375 7.132812 20.863281 6.761719 20.308594 C 6.390625 19.757812 6.078125 19.171875 5.820312 18.554688 C 5.5625 17.941406 5.367188 17.308594 5.238281 16.652344 C 5.105469 16 5.039062 15.339844 5.035156 14.671875 C 5.035156 14.480469 5.035156 14.285156 5.035156 14.105469 C 5.046875 14 5.015625 13.910156 4.945312 13.832031 C 4.875 13.753906 4.789062 13.710938 4.683594 13.707031 C 4.585938 13.707031 4.5 13.742188 4.429688 13.808594 C 4.355469 13.878906 4.316406 13.960938 4.308594 14.058594 C 4.308594 14.261719 4.308594 14.472656 4.308594 14.679688 C 4.308594 15.390625 4.382812 16.101562 4.519531 16.800781 C 4.660156 17.5 4.867188 18.179688 5.140625 18.839844 C 5.414062 19.5 5.75 20.125 6.148438 20.722656 C 6.542969 21.316406 6.992188 21.863281 7.5 22.371094 C 8.003906 22.875 8.550781 23.328125 9.144531 23.722656 C 9.738281 24.121094 10.363281 24.457031 11.023438 24.734375 C 11.683594 25.007812 12.363281 25.214844 13.0625 25.355469 C 13.761719 25.496094 14.472656 25.570312 15.183594 25.570312 C 15.394531 25.570312 15.601562 25.570312 15.804688 25.570312 C 15.898438 25.558594 15.976562 25.519531 16.039062 25.445312 C 16.101562 25.375 16.132812 25.292969 16.132812 25.199219 C 16.132812 25.105469 16.101562 25.019531 16.039062 24.949219 C 15.976562 24.878906 15.898438 24.839844 15.804688 24.828125 Z M 15.78125 24.808594 " fill-opacity="1" fill-rule="nonzero"/></g><g clip-path="url(#37b2a6e796)"><path fill="#231f20" d="M 4.929688 12.300781 C 4.960938 12.308594 4.992188 12.308594 5.027344 12.300781 C 5.21875 12.300781 5.339844 12.210938 5.390625 12.023438 C 5.480469 11.683594 5.589844 11.351562 5.714844 11.023438 C 5.753906 10.925781 5.75 10.832031 5.710938 10.738281 C 5.667969 10.640625 5.597656 10.578125 5.503906 10.539062 C 5.460938 10.523438 5.414062 10.511719 5.367188 10.511719 C 5.195312 10.511719 5.082031 10.59375 5.019531 10.75 C 4.882812 11.105469 4.765625 11.464844 4.667969 11.832031 C 4.632812 11.933594 4.640625 12.03125 4.695312 12.125 C 4.746094 12.21875 4.824219 12.277344 4.929688 12.300781 Z M 4.929688 12.300781 " fill-opacity="1" fill-rule="nonzero"/></g><path fill="#231f20" d="M 8.554688 6.871094 C 8.644531 6.871094 8.722656 6.84375 8.789062 6.789062 C 9.0625 6.570312 9.359375 6.359375 9.640625 6.167969 C 9.730469 6.113281 9.785156 6.035156 9.804688 5.933594 C 9.828125 5.832031 9.8125 5.738281 9.753906 5.648438 C 9.679688 5.535156 9.574219 5.476562 9.4375 5.480469 C 9.363281 5.480469 9.292969 5.5 9.234375 5.542969 C 8.917969 5.746094 8.613281 5.96875 8.316406 6.207031 C 8.238281 6.273438 8.191406 6.359375 8.183594 6.460938 C 8.171875 6.566406 8.199219 6.65625 8.265625 6.734375 C 8.339844 6.828125 8.4375 6.875 8.554688 6.871094 Z M 8.554688 6.871094 " fill-opacity="1" fill-rule="nonzero"/><path fill="#231f20" d="M 6.164062 9.242188 C 6.226562 9.285156 6.292969 9.304688 6.367188 9.304688 C 6.5 9.304688 6.605469 9.246094 6.679688 9.136719 C 6.871094 8.839844 7.078125 8.554688 7.300781 8.28125 C 7.367188 8.203125 7.394531 8.109375 7.382812 8.007812 C 7.375 7.902344 7.328125 7.820312 7.25 7.753906 C 7.179688 7.699219 7.097656 7.667969 7.007812 7.667969 C 6.890625 7.667969 6.792969 7.71875 6.71875 7.8125 C 6.480469 8.105469 6.257812 8.410156 6.050781 8.726562 C 5.992188 8.8125 5.976562 8.90625 6 9.007812 C 6.019531 9.109375 6.074219 9.1875 6.164062 9.242188 Z M 6.164062 9.242188 " fill-opacity="1" fill-rule="nonzero"/><path fill="#231f20" d="M 13.261719 17.15625 C 13.320312 17.324219 13.4375 17.410156 13.617188 17.40625 C 13.65625 17.414062 13.699219 17.414062 13.742188 17.40625 C 13.835938 17.371094 13.90625 17.308594 13.949219 17.214844 C 13.996094 17.121094 14 17.027344 13.96875 16.929688 L 12.261719 12.214844 C 12.207031 12.046875 12.089844 11.964844 11.910156 11.964844 C 11.734375 11.964844 11.613281 12.046875 11.558594 12.214844 L 9.851562 16.929688 C 9.816406 17.027344 9.820312 17.121094 9.863281 17.214844 C 9.90625 17.308594 9.976562 17.371094 10.074219 17.40625 C 10.117188 17.414062 10.160156 17.414062 10.203125 17.40625 C 10.382812 17.40625 10.5 17.324219 10.558594 17.15625 L 11 15.90625 L 12.8125 15.90625 Z M 11.308594 15.144531 L 11.925781 13.4375 L 12.546875 15.144531 Z M 11.308594 15.144531 " fill-opacity="1" fill-rule="nonzero"/><path fill="#231f20" d="M 20.132812 17.417969 C 20.234375 17.417969 20.320312 17.378906 20.394531 17.308594 C 20.46875 17.234375 20.503906 17.144531 20.507812 17.042969 L 20.507812 12.300781 C 20.507812 12.199219 20.46875 12.109375 20.394531 12.035156 C 20.324219 11.964844 20.234375 11.925781 20.132812 11.925781 C 20.027344 11.925781 19.9375 11.964844 19.867188 12.035156 C 19.792969 12.109375 19.753906 12.199219 19.753906 12.300781 L 19.753906 17.015625 C 19.75 17.125 19.78125 17.21875 19.855469 17.296875 C 19.929688 17.375 20.023438 17.417969 20.132812 17.417969 Z M 20.132812 17.417969 " fill-opacity="1" fill-rule="nonzero"/><path fill="#231f20" d="M 11.558594 11.351562 C 11.660156 11.351562 11.746094 11.316406 11.820312 11.246094 C 12.042969 11.023438 12.28125 10.828125 12.542969 10.65625 C 12.804688 10.484375 13.078125 10.339844 13.367188 10.222656 C 13.65625 10.105469 13.953125 10.015625 14.261719 9.953125 C 14.566406 9.894531 14.875 9.863281 15.1875 9.863281 C 15.5 9.863281 15.808594 9.894531 16.117188 9.953125 C 16.421875 10.015625 16.71875 10.105469 17.007812 10.222656 C 17.296875 10.339844 17.570312 10.484375 17.832031 10.65625 C 18.09375 10.828125 18.332031 11.023438 18.554688 11.246094 C 18.628906 11.316406 18.714844 11.355469 18.816406 11.351562 C 18.921875 11.351562 19.011719 11.3125 19.085938 11.238281 C 19.15625 11.164062 19.195312 11.078125 19.195312 10.972656 C 19.195312 10.871094 19.15625 10.785156 19.085938 10.710938 C 18.828125 10.457031 18.546875 10.230469 18.246094 10.035156 C 17.945312 9.835938 17.628906 9.667969 17.296875 9.53125 C 16.960938 9.394531 16.617188 9.292969 16.265625 9.222656 C 15.910156 9.152344 15.554688 9.117188 15.195312 9.117188 C 14.832031 9.117188 14.476562 9.152344 14.121094 9.222656 C 13.769531 9.292969 13.425781 9.394531 13.089844 9.53125 C 12.757812 9.667969 12.441406 9.835938 12.140625 10.035156 C 11.839844 10.230469 11.558594 10.457031 11.300781 10.710938 C 11.226562 10.78125 11.191406 10.871094 11.191406 10.972656 C 11.191406 11.078125 11.226562 11.167969 11.300781 11.238281 C 11.371094 11.308594 11.457031 11.347656 11.558594 11.351562 Z M 11.558594 11.351562 " fill-opacity="1" fill-rule="nonzero"/><g clip-path="url(#dde06eb5b4)"><path fill="#231f20" d="M 18.988281 24.117188 C 18.941406 24.109375 18.898438 24.109375 18.851562 24.117188 C 18.523438 24.242188 18.191406 24.351562 17.851562 24.445312 C 17.746094 24.457031 17.660156 24.503906 17.59375 24.585938 C 17.527344 24.667969 17.5 24.761719 17.511719 24.867188 C 17.523438 24.972656 17.566406 25.058594 17.648438 25.125 C 17.730469 25.191406 17.824219 25.21875 17.929688 25.207031 L 18.027344 25.207031 C 18.390625 25.105469 18.753906 24.984375 19.109375 24.855469 C 19.203125 24.816406 19.273438 24.75 19.3125 24.652344 C 19.351562 24.558594 19.355469 24.460938 19.316406 24.367188 C 19.261719 24.210938 19.152344 24.125 18.988281 24.117188 Z M 18.988281 24.117188 " fill-opacity="1" fill-rule="nonzero"/></g><path fill="#231f20" d="M 24.214844 20.109375 C 24.152344 20.066406 24.082031 20.042969 24.007812 20.046875 C 23.871094 20.042969 23.765625 20.097656 23.695312 20.214844 C 23.503906 20.503906 23.292969 20.785156 23.070312 21.070312 C 22.972656 21.191406 22.957031 21.320312 23.027344 21.464844 C 23.09375 21.605469 23.203125 21.675781 23.359375 21.675781 C 23.480469 21.675781 23.578125 21.628906 23.65625 21.539062 C 23.890625 21.246094 24.117188 20.9375 24.320312 20.625 C 24.378906 20.539062 24.394531 20.445312 24.375 20.34375 C 24.351562 20.242188 24.300781 20.164062 24.214844 20.109375 Z M 24.214844 20.109375 " fill-opacity="1" fill-rule="nonzero"/><path fill="#231f20" d="M 25.445312 17.070312 C 25.414062 17.066406 25.378906 17.066406 25.34375 17.070312 C 25.15625 17.070312 25.035156 17.160156 24.984375 17.34375 C 24.894531 17.6875 24.785156 18.019531 24.65625 18.351562 C 24.621094 18.449219 24.621094 18.542969 24.664062 18.636719 C 24.707031 18.730469 24.777344 18.796875 24.871094 18.835938 C 24.917969 18.84375 24.960938 18.84375 25.003906 18.835938 C 25.175781 18.835938 25.292969 18.757812 25.355469 18.59375 C 25.492188 18.242188 25.609375 17.886719 25.707031 17.519531 C 25.730469 17.421875 25.71875 17.332031 25.667969 17.242188 C 25.617188 17.15625 25.542969 17.097656 25.445312 17.070312 Z M 25.445312 17.070312 " fill-opacity="1" fill-rule="nonzero"/><path fill="#231f20" d="M 21.8125 22.472656 C 21.726562 22.472656 21.648438 22.5 21.582031 22.558594 C 21.308594 22.78125 21.023438 22.988281 20.726562 23.183594 C 20.640625 23.238281 20.589844 23.320312 20.566406 23.417969 C 20.546875 23.519531 20.5625 23.613281 20.621094 23.699219 C 20.695312 23.808594 20.800781 23.863281 20.933594 23.867188 C 21.007812 23.867188 21.074219 23.847656 21.136719 23.808594 C 21.449219 23.605469 21.757812 23.375 22.050781 23.136719 C 22.132812 23.074219 22.179688 22.992188 22.191406 22.886719 C 22.203125 22.785156 22.175781 22.695312 22.109375 22.613281 C 22.035156 22.519531 21.933594 22.472656 21.8125 22.472656 Z M 21.8125 22.472656 " fill-opacity="1" fill-rule="nonzero"/><path fill="#231f20" d="M 18.816406 17.988281 C 18.714844 17.984375 18.628906 18.019531 18.554688 18.089844 C 18.332031 18.308594 18.09375 18.503906 17.832031 18.675781 C 17.570312 18.847656 17.296875 18.992188 17.007812 19.113281 C 16.71875 19.230469 16.421875 19.320312 16.117188 19.378906 C 15.808594 19.441406 15.5 19.46875 15.1875 19.46875 C 14.875 19.46875 14.566406 19.441406 14.261719 19.378906 C 13.953125 19.320312 13.65625 19.230469 13.367188 19.113281 C 13.078125 18.992188 12.804688 18.847656 12.542969 18.675781 C 12.28125 18.503906 12.042969 18.308594 11.820312 18.089844 C 11.746094 18.019531 11.660156 17.984375 11.558594 17.980469 C 11.453125 17.984375 11.363281 18.019531 11.289062 18.09375 C 11.214844 18.167969 11.179688 18.253906 11.179688 18.359375 C 11.179688 18.464844 11.214844 18.550781 11.289062 18.625 C 11.546875 18.878906 11.824219 19.105469 12.125 19.300781 C 12.425781 19.5 12.746094 19.667969 13.078125 19.808594 C 13.414062 19.945312 13.757812 20.046875 14.109375 20.117188 C 14.464844 20.1875 14.820312 20.222656 15.183594 20.222656 C 15.542969 20.222656 15.898438 20.1875 16.253906 20.117188 C 16.609375 20.046875 16.953125 19.945312 17.285156 19.808594 C 17.621094 19.667969 17.9375 19.5 18.238281 19.300781 C 18.539062 19.105469 18.816406 18.878906 19.074219 18.625 C 19.195312 18.507812 19.222656 18.375 19.160156 18.21875 C 19.097656 18.0625 18.984375 17.988281 18.816406 17.988281 Z M 18.816406 17.988281 " fill-opacity="1" fill-rule="nonzero"/></svg>