<svg xmlns="http://www.w3.org/2000/svg" xmlns:xlink="http://www.w3.org/1999/xlink" width="40" zoomAndPan="magnify" viewBox="0 0 30 30.000001" height="40" preserveAspectRatio="xMidYMid meet" version="1.0"><defs><clipPath id="8a8a0b8aad"><path d="M 0.484375 0 L 29.515625 0 L 29.515625 29.03125 L 0.484375 29.03125 Z M 0.484375 0 " clip-rule="nonzero"/></clipPath><clipPath id="4d37b9ab94"><path d="M 9 17 L 13 17 L 13 21.867188 L 9 21.867188 Z M 9 17 " clip-rule="nonzero"/></clipPath><clipPath id="c269928d12"><path d="M 6.289062 13 L 12 13 L 12 18 L 6.289062 18 Z M 6.289062 13 " clip-rule="nonzero"/></clipPath><clipPath id="02e561765f"><path d="M 13 12 L 23.710938 12 L 23.710938 18 L 13 18 Z M 13 12 " clip-rule="nonzero"/></clipPath><clipPath id="a169221314"><path d="M 22 18 L 23.710938 18 L 23.710938 19 L 22 19 Z M 22 18 " clip-rule="nonzero"/></clipPath><clipPath id="8a705e33f8"><path d="M 21 19 L 23.710938 19 L 23.710938 21.867188 L 21 21.867188 Z M 21 19 " clip-rule="nonzero"/></clipPath><clipPath id="0877d787bc"><path d="M 6.289062 14 L 8 14 L 8 15 L 6.289062 15 Z M 6.289062 14 " clip-rule="nonzero"/></clipPath><clipPath id="6f4345c84d"><path d="M 15 9.53125 L 19 9.53125 L 19 12 L 15 12 Z M 15 9.53125 " clip-rule="nonzero"/></clipPath></defs><g clip-path="url(#8a8a0b8aad)"><path fill="#ffffff" d="M 0.484375 0 L 29.515625 0 L 29.515625 29.03125 L 0.484375 29.03125 Z M 0.484375 0 " fill-opacity="1" fill-rule="nonzero"/><path fill="#ffffff" d="M 0.484375 0 L 29.515625 0 L 29.515625 29.03125 L 0.484375 29.03125 Z M 0.484375 0 " fill-opacity="1" fill-rule="nonzero"/></g><g clip-path="url(#4d37b9ab94)"><path fill="#76c554" d="M 10.988281 21.046875 C 11.039062 21.03125 11.097656 21.027344 11.148438 21 C 11.253906 20.9375 11.269531 20.765625 11.175781 20.6875 C 11.269531 20.640625 11.363281 20.597656 11.457031 20.554688 C 11.320312 20.355469 11.445312 20.03125 11.683594 19.980469 C 11.742188 19.96875 11.804688 19.96875 11.855469 19.933594 C 12.007812 19.839844 11.902344 19.609375 11.933594 19.433594 C 11.960938 19.289062 12.082031 19.1875 12.179688 19.074219 C 12.273438 18.964844 12.347656 18.796875 12.261719 18.675781 C 12.1875 18.566406 12.027344 18.5625 11.898438 18.535156 C 11.765625 18.507812 11.617188 18.382812 11.679688 18.261719 C 11.535156 18.273438 11.390625 18.28125 11.242188 18.289062 C 11.160156 17.886719 10.742188 17.660156 10.371094 17.484375 C 10.234375 17.417969 10.089844 17.351562 9.941406 17.378906 C 9.691406 17.425781 9.566406 17.703125 9.484375 17.945312 C 9.382812 18.242188 9.285156 18.578125 9.425781 18.855469 C 9.546875 19.09375 9.8125 19.226562 9.953125 19.453125 C 10.121094 19.71875 10.085938 20.058594 10.085938 20.375 C 10.082031 20.761719 10.101562 21.828125 10.644531 21.855469 C 10.828125 21.867188 10.902344 21.824219 10.871094 21.683594 C 10.84375 21.550781 10.703125 21.507812 10.734375 21.335938 C 10.757812 21.203125 10.859375 21.085938 10.988281 21.046875 Z M 10.988281 21.046875 " fill-opacity="1" fill-rule="nonzero"/></g><g clip-path="url(#c269928d12)"><path fill="#76c554" d="M 7.128906 14.007812 C 6.988281 14.085938 6.875 14.214844 6.726562 14.277344 C 6.578125 14.339844 6.363281 14.300781 6.324219 14.144531 C 6.289062 14.011719 6.394531 13.890625 6.492188 13.800781 C 6.648438 13.648438 6.808594 13.496094 6.996094 13.394531 C 7.1875 13.289062 7.417969 13.238281 7.625 13.304688 C 7.867188 13.378906 8.078125 13.605469 8.328125 13.558594 C 8.519531 13.523438 8.671875 13.328125 8.871094 13.339844 C 9.011719 13.351562 9.117188 13.46875 9.242188 13.539062 C 9.691406 13.804688 10.273438 13.433594 10.777344 13.566406 C 10.761719 13.683594 10.636719 13.757812 10.523438 13.777344 C 10.40625 13.796875 10.285156 13.785156 10.171875 13.824219 C 10.0625 13.863281 9.960938 13.984375 10.003906 14.09375 C 9.925781 14.125 9.84375 14.160156 9.765625 14.191406 C 9.960938 14.269531 10.121094 14.433594 10.191406 14.632812 C 10.371094 14.386719 10.550781 14.140625 10.734375 13.890625 C 10.730469 14.003906 10.832031 14.09375 10.9375 14.121094 C 11.046875 14.148438 11.160156 14.121094 11.265625 14.097656 C 11.355469 14.269531 11.445312 14.445312 11.53125 14.617188 C 11.316406 14.691406 11.082031 14.71875 10.855469 14.691406 C 10.957031 14.730469 10.964844 14.882812 10.898438 14.972656 C 10.832031 15.058594 10.722656 15.097656 10.621094 15.144531 C 10.0625 15.386719 9.621094 15.886719 9.449219 16.472656 C 9.324219 16.449219 9.226562 16.328125 9.230469 16.199219 C 9.050781 16.128906 8.839844 16.164062 8.691406 16.28125 C 8.542969 16.402344 8.464844 16.601562 8.492188 16.789062 C 8.550781 16.839844 8.636719 16.789062 8.679688 16.730469 C 8.722656 16.667969 8.753906 16.589844 8.824219 16.5625 C 8.925781 16.523438 9.039062 16.632812 9.042969 16.742188 C 9.046875 16.851562 8.984375 16.949219 8.925781 17.042969 C 9.015625 17.058594 9.105469 17.074219 9.191406 17.089844 C 9.304688 17.28125 9.28125 17.542969 9.136719 17.714844 C 9.144531 17.570312 9.070312 17.425781 8.945312 17.351562 C 8.824219 17.273438 8.660156 17.273438 8.539062 17.347656 C 8.570312 17.253906 8.480469 17.160156 8.390625 17.132812 C 8.296875 17.101562 8.195312 17.105469 8.105469 17.070312 C 7.765625 16.925781 7.882812 16.367188 7.613281 16.113281 C 7.519531 16.027344 7.386719 15.984375 7.304688 15.882812 C 7.21875 15.777344 7.210938 15.621094 7.253906 15.488281 C 7.300781 15.359375 7.390625 15.246094 7.484375 15.144531 C 7.574219 15.050781 7.671875 14.960938 7.71875 14.839844 C 7.859375 14.5 7.582031 13.757812 7.128906 14.007812 Z M 7.128906 14.007812 " fill-opacity="1" fill-rule="nonzero"/></g><path fill="#76c554" d="M 12.4375 12.785156 C 12.265625 12.765625 12.082031 12.75 11.921875 12.820312 C 11.839844 12.855469 11.769531 12.914062 11.6875 12.953125 C 11.605469 12.992188 11.503906 13.011719 11.425781 12.96875 C 11.46875 13.0625 11.582031 13.109375 11.6875 13.125 C 11.789062 13.140625 11.902344 13.140625 11.996094 13.183594 C 12.121094 13.238281 12.210938 13.390625 12.160156 13.519531 C 12.128906 13.613281 12.03125 13.675781 12 13.773438 C 11.957031 13.914062 12.109375 14.078125 12.253906 14.039062 C 12.367188 14.011719 12.433594 13.894531 12.515625 13.8125 C 12.636719 13.6875 12.816406 13.621094 12.988281 13.632812 C 13.070312 13.640625 13.152344 13.664062 13.238281 13.660156 C 13.320312 13.652344 13.410156 13.605469 13.429688 13.527344 C 13.453125 13.4375 13.371094 13.382812 13.292969 13.390625 C 13.453125 13.292969 13.824219 13.066406 13.523438 12.871094 C 13.410156 12.796875 13.148438 12.839844 13.015625 12.828125 C 12.824219 12.816406 12.632812 12.800781 12.4375 12.785156 Z M 12.4375 12.785156 " fill-opacity="1" fill-rule="nonzero"/><path fill="#76c554" d="M 15.128906 19.542969 C 15.167969 19.679688 15.226562 19.8125 15.242188 19.953125 C 15.257812 20.097656 15.230469 20.253906 15.296875 20.382812 C 15.382812 20.539062 15.589844 20.597656 15.761719 20.5625 C 15.9375 20.53125 16.089844 20.425781 16.234375 20.320312 C 16.25 20.230469 16.269531 20.140625 16.285156 20.050781 C 16.335938 20.121094 16.457031 20.082031 16.492188 20 C 16.523438 19.921875 16.5 19.832031 16.476562 19.75 C 16.453125 19.667969 16.433594 19.574219 16.476562 19.5 C 16.5625 19.339844 16.859375 19.378906 16.914062 19.203125 C 16.957031 19.074219 16.820312 18.960938 16.765625 18.832031 C 16.6875 18.660156 16.769531 18.457031 16.894531 18.316406 C 17.019531 18.171875 17.183594 18.074219 17.3125 17.9375 C 17.445312 17.800781 17.542969 17.609375 17.488281 17.425781 C 17.359375 17.484375 17.214844 17.539062 17.078125 17.5 C 16.886719 17.445312 16.796875 17.230469 16.730469 17.039062 C 16.601562 16.652344 16.445312 16.226562 16.085938 16.03125 C 15.78125 15.863281 15.367188 15.921875 15.121094 16.167969 C 15.152344 15.992188 15.042969 15.8125 14.890625 15.726562 C 14.738281 15.636719 14.546875 15.632812 14.375 15.683594 C 13.953125 15.800781 13.667969 16.195312 13.476562 16.589844 C 13.355469 16.839844 13.257812 17.113281 13.296875 17.390625 C 13.339844 17.664062 13.566406 17.925781 13.84375 17.917969 C 14.082031 17.910156 14.324219 17.714844 14.539062 17.820312 C 14.6875 17.894531 14.734375 18.078125 14.78125 18.238281 C 14.847656 18.449219 15.054688 18.539062 15.101562 18.722656 C 15.128906 18.828125 15.058594 19.023438 15.066406 19.140625 C 15.070312 19.277344 15.089844 19.414062 15.128906 19.542969 Z M 15.128906 19.542969 " fill-opacity="1" fill-rule="nonzero"/><g clip-path="url(#02e561765f)"><path fill="#76c554" d="M 23.117188 13.644531 C 22.914062 13.496094 22.644531 13.472656 22.390625 13.453125 C 21.394531 13.382812 20.398438 13.308594 19.402344 13.234375 C 19.179688 13.027344 18.847656 12.941406 18.550781 13.015625 C 18.257812 13.089844 18.003906 13.316406 17.902344 13.605469 C 17.855469 13.460938 17.796875 13.304688 17.664062 13.238281 C 17.527344 13.171875 17.320312 13.296875 17.378906 13.4375 C 16.914062 13.570312 16.445312 13.707031 15.980469 13.839844 C 15.976562 13.769531 15.972656 13.699219 15.96875 13.625 C 16.109375 13.605469 16.253906 13.582031 16.394531 13.5625 C 15.820312 13.296875 15.070312 13.484375 14.691406 13.996094 C 14.855469 14.179688 15.0625 14.332031 15.289062 14.4375 C 15.246094 14.320312 15.203125 14.191406 15.230469 14.070312 C 15.261719 13.949219 15.402344 13.847656 15.511719 13.90625 C 15.488281 14.070312 15.539062 14.25 15.652344 14.371094 C 15.640625 14.507812 15.484375 14.582031 15.351562 14.585938 C 15.214844 14.589844 15.082031 14.546875 14.945312 14.5625 C 14.8125 14.578125 14.667969 14.683594 14.6875 14.816406 C 14.476562 14.742188 14.226562 14.984375 14.296875 15.199219 C 14.1875 15.132812 14.023438 15.191406 13.980469 15.308594 C 13.933594 15.425781 14.019531 15.574219 14.140625 15.601562 C 14.433594 15.65625 14.582031 15.144531 14.878906 15.171875 C 15.078125 15.1875 15.199219 15.445312 15.398438 15.441406 C 15.632812 15.4375 15.691406 15.101562 15.875 14.957031 C 16.003906 14.851562 16.195312 14.855469 16.347656 14.921875 C 16.5 14.988281 16.625 15.101562 16.746094 15.21875 C 16.6875 15.351562 16.496094 15.339844 16.351562 15.324219 C 16.207031 15.308594 16.003906 15.371094 16.019531 15.515625 C 16.035156 15.621094 16.152344 15.667969 16.242188 15.726562 C 16.378906 15.820312 16.453125 15.976562 16.523438 16.125 C 16.648438 16.386719 16.773438 16.648438 16.894531 16.90625 C 16.957031 17.035156 17.035156 17.179688 17.175781 17.199219 C 17.277344 17.214844 17.375 17.15625 17.460938 17.101562 C 17.667969 16.96875 17.894531 16.800781 17.902344 16.558594 C 17.773438 16.640625 17.605469 16.546875 17.5 16.4375 C 17.398438 16.324219 17.308594 16.183594 17.160156 16.140625 C 17.136719 16.105469 17.171875 16.058594 17.210938 16.046875 C 17.25 16.035156 17.292969 16.050781 17.332031 16.066406 C 17.539062 16.140625 17.746094 16.21875 17.953125 16.292969 C 18.335938 16.433594 18.773438 16.636719 18.855469 17.035156 C 18.882812 17.164062 18.867188 17.304688 18.921875 17.421875 C 18.976562 17.542969 19.148438 17.625 19.238281 17.527344 C 19.304688 17.453125 19.277344 17.335938 19.285156 17.238281 C 19.296875 17.054688 19.4375 16.910156 19.574219 16.785156 C 19.664062 16.699219 19.792969 16.609375 19.90625 16.664062 C 20.019531 16.71875 20.023438 16.878906 20.007812 17.007812 C 20.105469 17.011719 20.203125 17.015625 20.300781 17.019531 C 20.339844 17.097656 20.332031 17.191406 20.335938 17.277344 C 20.34375 17.367188 20.375 17.464844 20.457031 17.5 C 20.535156 17.53125 20.644531 17.425781 20.585938 17.359375 C 20.714844 17.433594 20.859375 17.515625 21.003906 17.476562 C 21.144531 17.441406 21.230469 17.222656 21.105469 17.144531 C 21.050781 17.109375 20.980469 17.117188 20.921875 17.085938 C 20.796875 17.019531 20.824219 16.816406 20.933594 16.726562 C 21.039062 16.636719 21.191406 16.621094 21.328125 16.59375 C 21.46875 16.570312 21.621094 16.511719 21.679688 16.382812 C 21.816406 16.085938 21.339844 15.765625 21.46875 15.464844 C 21.535156 15.320312 21.710938 15.269531 21.863281 15.214844 C 22.015625 15.164062 22.183594 15.050781 22.167969 14.894531 C 22.160156 14.769531 22.039062 14.683594 21.917969 14.644531 C 21.800781 14.605469 21.671875 14.59375 21.5625 14.53125 C 21.457031 14.46875 21.378906 14.324219 21.445312 14.214844 C 21.496094 14.132812 21.609375 14.113281 21.707031 14.101562 C 21.984375 14.070312 22.257812 14.039062 22.535156 14.007812 C 22.511719 14.109375 22.492188 14.210938 22.515625 14.3125 C 22.535156 14.410156 22.609375 14.507812 22.710938 14.519531 C 22.8125 14.53125 22.917969 14.425781 22.878906 14.332031 C 22.855469 14.265625 22.78125 14.234375 22.726562 14.191406 C 22.671875 14.144531 22.640625 14.050781 22.699219 14.011719 C 22.847656 13.925781 23.054688 13.988281 23.21875 13.855469 C 23.382812 13.726562 23.347656 13.5 23.117188 13.644531 Z M 23.117188 13.644531 " fill-opacity="1" fill-rule="nonzero"/></g><path fill="#76c554" d="M 20.566406 18.492188 C 20.601562 18.550781 20.640625 18.613281 20.695312 18.65625 C 20.753906 18.699219 20.835938 18.714844 20.894531 18.671875 C 20.960938 18.628906 20.972656 18.53125 20.941406 18.457031 C 20.90625 18.382812 20.839844 18.332031 20.773438 18.289062 C 20.703125 18.246094 20.632812 18.207031 20.582031 18.144531 C 20.53125 18.085938 20.375 17.835938 20.3125 18.027344 C 20.28125 18.125 20.515625 18.40625 20.566406 18.492188 Z M 20.566406 18.492188 " fill-opacity="1" fill-rule="nonzero"/><path fill="#76c554" d="M 21.160156 18.308594 C 21.148438 18.375 21.171875 18.449219 21.21875 18.5 C 21.257812 18.546875 21.3125 18.574219 21.371094 18.5625 C 21.464844 18.542969 21.519531 18.449219 21.550781 18.359375 C 21.703125 17.90625 21.222656 17.914062 21.160156 18.308594 Z M 21.160156 18.308594 " fill-opacity="1" fill-rule="nonzero"/><path fill="#76c554" d="M 20.566406 17.730469 C 20.515625 17.941406 20.679688 18.175781 20.894531 18.199219 C 20.925781 18.113281 20.890625 18.011719 20.828125 17.945312 C 20.765625 17.875 20.679688 17.835938 20.597656 17.792969 " fill-opacity="1" fill-rule="nonzero"/><g clip-path="url(#a169221314)"><path fill="#76c554" d="M 22.96875 18.6875 C 22.933594 18.644531 22.878906 18.625 22.828125 18.601562 C 22.6875 18.53125 22.566406 18.425781 22.480469 18.296875 C 22.605469 18.269531 22.738281 18.246094 22.855469 18.292969 C 22.96875 18.332031 23.273438 18.566406 23.273438 18.699219 C 23.269531 18.941406 23.050781 18.785156 22.96875 18.6875 Z M 22.96875 18.6875 " fill-opacity="1" fill-rule="nonzero"/></g><g clip-path="url(#8a705e33f8)"><path fill="#76c554" d="M 22.695312 19.0625 C 22.519531 19.042969 22.351562 19.144531 22.199219 19.242188 C 21.953125 19.402344 21.703125 19.5625 21.457031 19.722656 C 21.363281 19.78125 21.265625 19.84375 21.199219 19.933594 C 21.035156 20.148438 21.070312 20.453125 21.117188 20.71875 C 21.289062 20.839844 21.523438 20.722656 21.703125 20.613281 C 21.878906 20.503906 22.132812 20.40625 22.28125 20.554688 C 22.355469 20.628906 22.375 20.742188 22.40625 20.84375 C 22.433594 20.949219 22.492188 21.058594 22.59375 21.082031 C 22.75 21.121094 22.867188 20.945312 22.953125 20.808594 C 23.128906 20.542969 23.402344 20.34375 23.710938 20.261719 C 23.648438 20.28125 23.460938 19.179688 23.21875 19.164062 C 23.054688 19.152344 23.003906 19.441406 22.808594 19.394531 C 22.671875 19.363281 22.609375 19.171875 22.695312 19.0625 Z M 22.695312 19.0625 " fill-opacity="1" fill-rule="nonzero"/></g><path fill="#000000" d="M 10.769531 17.164062 C 10.753906 17.078125 10.738281 16.980469 10.722656 16.863281 C 10.71875 16.839844 10.695312 16.820312 10.667969 16.824219 C 10.644531 16.828125 10.628906 16.851562 10.628906 16.875 C 10.648438 16.996094 10.664062 17.09375 10.679688 17.183594 C 10.683594 17.203125 10.703125 17.21875 10.726562 17.21875 C 10.730469 17.21875 10.730469 17.21875 10.734375 17.21875 C 10.757812 17.214844 10.777344 17.191406 10.769531 17.164062 Z M 10.769531 17.164062 " fill-opacity="1" fill-rule="nonzero"/><path fill="#000000" d="M 10.21875 15.085938 C 10.203125 15.0625 10.171875 15.058594 10.152344 15.074219 C 10.132812 15.089844 10.128906 15.121094 10.144531 15.140625 C 10.199219 15.21875 10.253906 15.304688 10.296875 15.394531 C 10.304688 15.410156 10.324219 15.421875 10.339844 15.421875 C 10.347656 15.421875 10.351562 15.417969 10.359375 15.417969 C 10.382812 15.40625 10.390625 15.378906 10.382812 15.355469 C 10.332031 15.257812 10.277344 15.167969 10.21875 15.085938 Z M 10.21875 15.085938 " fill-opacity="1" fill-rule="nonzero"/><path fill="#000000" d="M 10.902344 17.671875 C 10.878906 17.605469 10.855469 17.535156 10.835938 17.460938 C 10.832031 17.4375 10.804688 17.421875 10.78125 17.429688 C 10.757812 17.4375 10.742188 17.460938 10.75 17.484375 C 10.769531 17.5625 10.789062 17.632812 10.8125 17.703125 C 10.824219 17.730469 10.832031 17.757812 10.84375 17.785156 C 10.851562 17.800781 10.867188 17.8125 10.886719 17.8125 C 10.894531 17.8125 10.898438 17.8125 10.902344 17.808594 C 10.925781 17.800781 10.9375 17.773438 10.929688 17.75 C 10.921875 17.722656 10.910156 17.699219 10.902344 17.671875 Z M 10.902344 17.671875 " fill-opacity="1" fill-rule="nonzero"/><path fill="#000000" d="M 11.058594 18.023438 C 11.046875 18 11.015625 17.992188 10.996094 18.003906 C 10.972656 18.019531 10.964844 18.046875 10.976562 18.070312 C 11.027344 18.160156 11.082031 18.25 11.144531 18.332031 C 11.152344 18.347656 11.164062 18.351562 11.179688 18.351562 C 11.191406 18.351562 11.199219 18.351562 11.207031 18.34375 C 11.226562 18.328125 11.234375 18.300781 11.21875 18.28125 C 11.160156 18.199219 11.105469 18.113281 11.058594 18.023438 Z M 11.058594 18.023438 " fill-opacity="1" fill-rule="nonzero"/><path fill="#000000" d="M 10.578125 15.949219 C 10.554688 15.835938 10.527344 15.738281 10.5 15.644531 C 10.488281 15.621094 10.464844 15.609375 10.441406 15.617188 C 10.414062 15.625 10.402344 15.648438 10.410156 15.675781 C 10.441406 15.765625 10.464844 15.859375 10.488281 15.96875 C 10.492188 15.988281 10.511719 16.003906 10.535156 16.003906 C 10.535156 16.003906 10.539062 16.003906 10.542969 16.003906 C 10.570312 15.996094 10.585938 15.972656 10.578125 15.949219 Z M 10.578125 15.949219 " fill-opacity="1" fill-rule="nonzero"/><path fill="#000000" d="M 10.640625 16.609375 C 10.664062 16.605469 10.683594 16.582031 10.679688 16.558594 C 10.667969 16.460938 10.652344 16.355469 10.636719 16.253906 C 10.632812 16.226562 10.609375 16.210938 10.582031 16.214844 C 10.558594 16.21875 10.539062 16.242188 10.542969 16.265625 C 10.5625 16.367188 10.574219 16.472656 10.589844 16.570312 C 10.589844 16.59375 10.613281 16.609375 10.632812 16.609375 C 10.636719 16.609375 10.636719 16.609375 10.640625 16.609375 Z M 10.640625 16.609375 " fill-opacity="1" fill-rule="nonzero"/><path fill="#000000" d="M 10.003906 14.851562 C 9.925781 14.78125 9.839844 14.71875 9.75 14.664062 C 9.726562 14.652344 9.699219 14.65625 9.6875 14.679688 C 9.671875 14.703125 9.679688 14.730469 9.703125 14.742188 C 9.789062 14.792969 9.871094 14.855469 9.941406 14.917969 C 9.953125 14.925781 9.960938 14.929688 9.972656 14.929688 C 9.988281 14.929688 10 14.925781 10.007812 14.914062 C 10.023438 14.898438 10.023438 14.867188 10.003906 14.851562 Z M 10.003906 14.851562 " fill-opacity="1" fill-rule="nonzero"/><path fill="#000000" d="M 13.433594 20.03125 C 13.421875 20.023438 13.410156 20.015625 13.398438 20.007812 C 13.332031 19.960938 13.261719 19.90625 13.199219 19.847656 C 13.179688 19.832031 13.152344 19.832031 13.132812 19.851562 C 13.117188 19.867188 13.117188 19.898438 13.136719 19.914062 C 13.203125 19.976562 13.273438 20.035156 13.347656 20.085938 C 13.359375 20.09375 13.371094 20.101562 13.382812 20.109375 C 13.390625 20.113281 13.402344 20.117188 13.410156 20.117188 C 13.425781 20.117188 13.441406 20.109375 13.449219 20.09375 C 13.460938 20.074219 13.457031 20.046875 13.433594 20.03125 Z M 13.433594 20.03125 " fill-opacity="1" fill-rule="nonzero"/><path fill="#000000" d="M 13.769531 16.988281 C 13.792969 16.976562 13.8125 16.964844 13.835938 16.953125 C 13.859375 16.945312 13.867188 16.917969 13.859375 16.894531 C 13.847656 16.871094 13.820312 16.859375 13.796875 16.871094 C 13.773438 16.882812 13.75 16.894531 13.726562 16.902344 C 13.65625 16.941406 13.585938 16.976562 13.519531 17.015625 C 13.5 17.03125 13.492188 17.058594 13.503906 17.082031 C 13.511719 17.09375 13.527344 17.101562 13.542969 17.101562 C 13.550781 17.101562 13.5625 17.101562 13.566406 17.097656 C 13.632812 17.058594 13.699219 17.019531 13.769531 16.988281 Z M 13.769531 16.988281 " fill-opacity="1" fill-rule="nonzero"/><path fill="#000000" d="M 11.625 18.726562 C 11.546875 18.660156 11.476562 18.589844 11.40625 18.515625 C 11.390625 18.496094 11.363281 18.496094 11.34375 18.511719 C 11.324219 18.53125 11.324219 18.558594 11.339844 18.578125 C 11.410156 18.652344 11.484375 18.726562 11.5625 18.796875 C 11.574219 18.804688 11.582031 18.808594 11.59375 18.808594 C 11.605469 18.808594 11.621094 18.800781 11.628906 18.792969 C 11.644531 18.773438 11.644531 18.742188 11.625 18.726562 Z M 11.625 18.726562 " fill-opacity="1" fill-rule="nonzero"/><path fill="#000000" d="M 12.828125 19.378906 C 12.816406 19.355469 12.785156 19.347656 12.765625 19.359375 C 12.742188 19.371094 12.734375 19.402344 12.746094 19.421875 C 12.796875 19.515625 12.855469 19.601562 12.921875 19.683594 C 12.929688 19.695312 12.945312 19.703125 12.957031 19.703125 C 12.96875 19.703125 12.976562 19.699219 12.988281 19.691406 C 13.007812 19.675781 13.011719 19.648438 12.996094 19.628906 C 12.933594 19.546875 12.875 19.464844 12.828125 19.378906 Z M 12.828125 19.378906 " fill-opacity="1" fill-rule="nonzero"/><path fill="#000000" d="M 12.125 19.0625 C 12.035156 19.019531 11.949219 18.964844 11.863281 18.910156 C 11.84375 18.894531 11.816406 18.902344 11.800781 18.921875 C 11.785156 18.945312 11.792969 18.972656 11.8125 18.988281 C 11.898438 19.046875 11.988281 19.097656 12.082031 19.144531 C 12.089844 19.148438 12.097656 19.152344 12.101562 19.152344 C 12.121094 19.152344 12.136719 19.140625 12.144531 19.125 C 12.15625 19.101562 12.148438 19.074219 12.125 19.0625 Z M 12.125 19.0625 " fill-opacity="1" fill-rule="nonzero"/><path fill="#000000" d="M 12.878906 17.621094 C 12.859375 17.609375 12.832031 17.613281 12.816406 17.632812 C 12.75 17.71875 12.695312 17.808594 12.652344 17.902344 C 12.640625 17.925781 12.652344 17.953125 12.675781 17.964844 C 12.679688 17.96875 12.6875 17.96875 12.695312 17.96875 C 12.710938 17.96875 12.726562 17.960938 12.734375 17.941406 C 12.777344 17.855469 12.828125 17.769531 12.890625 17.6875 C 12.90625 17.667969 12.902344 17.636719 12.878906 17.621094 Z M 12.878906 17.621094 " fill-opacity="1" fill-rule="nonzero"/><path fill="#000000" d="M 12.691406 19.269531 C 12.644531 19.257812 12.597656 19.246094 12.550781 19.234375 C 12.503906 19.21875 12.449219 19.203125 12.402344 19.183594 C 12.378906 19.175781 12.351562 19.1875 12.34375 19.210938 C 12.332031 19.234375 12.34375 19.261719 12.371094 19.269531 C 12.421875 19.289062 12.472656 19.308594 12.527344 19.324219 C 12.574219 19.335938 12.621094 19.347656 12.671875 19.359375 C 12.675781 19.359375 12.675781 19.359375 12.679688 19.359375 C 12.703125 19.359375 12.722656 19.34375 12.726562 19.324219 C 12.730469 19.300781 12.714844 19.273438 12.691406 19.269531 Z M 12.691406 19.269531 " fill-opacity="1" fill-rule="nonzero"/><path fill="#000000" d="M 20.582031 13.964844 C 20.589844 13.984375 20.605469 13.992188 20.625 13.992188 C 20.628906 13.992188 20.636719 13.992188 20.640625 13.988281 C 20.664062 13.980469 20.675781 13.953125 20.667969 13.929688 C 20.628906 13.835938 20.585938 13.738281 20.539062 13.644531 C 20.527344 13.625 20.5 13.613281 20.476562 13.625 C 20.453125 13.636719 20.445312 13.664062 20.457031 13.6875 C 20.5 13.777344 20.542969 13.871094 20.582031 13.964844 Z M 20.582031 13.964844 " fill-opacity="1" fill-rule="nonzero"/><path fill="#000000" d="M 15.34375 17.3125 C 15.351562 17.332031 15.367188 17.34375 15.386719 17.34375 C 15.390625 17.34375 15.398438 17.34375 15.402344 17.339844 C 15.425781 17.332031 15.4375 17.304688 15.429688 17.28125 C 15.390625 17.175781 15.339844 17.082031 15.273438 17.003906 C 15.253906 16.980469 15.226562 16.980469 15.207031 16.996094 C 15.1875 17.011719 15.183594 17.039062 15.199219 17.058594 C 15.261719 17.132812 15.308594 17.21875 15.34375 17.3125 Z M 15.34375 17.3125 " fill-opacity="1" fill-rule="nonzero"/><path fill="#000000" d="M 9.464844 14.527344 C 9.371094 14.492188 9.269531 14.460938 9.164062 14.4375 C 9.140625 14.433594 9.113281 14.449219 9.109375 14.472656 C 9.101562 14.496094 9.117188 14.523438 9.144531 14.527344 C 9.242188 14.550781 9.339844 14.578125 9.433594 14.613281 C 9.4375 14.617188 9.441406 14.617188 9.449219 14.617188 C 9.46875 14.617188 9.484375 14.605469 9.492188 14.585938 C 9.5 14.5625 9.488281 14.535156 9.464844 14.527344 Z M 9.464844 14.527344 " fill-opacity="1" fill-rule="nonzero"/><path fill="#000000" d="M 13.945312 19.269531 C 13.9375 19.246094 13.914062 19.230469 13.886719 19.238281 C 13.789062 19.261719 13.691406 19.285156 13.59375 19.296875 C 13.566406 19.300781 13.550781 19.324219 13.554688 19.351562 C 13.554688 19.375 13.578125 19.390625 13.597656 19.390625 C 13.601562 19.390625 13.601562 19.390625 13.605469 19.390625 C 13.707031 19.375 13.8125 19.351562 13.914062 19.324219 C 13.9375 19.320312 13.953125 19.292969 13.945312 19.269531 Z M 13.945312 19.269531 " fill-opacity="1" fill-rule="nonzero"/><path fill="#000000" d="M 20.8125 14.84375 C 20.824219 14.945312 20.832031 15.046875 20.832031 15.144531 C 20.832031 15.171875 20.855469 15.191406 20.878906 15.191406 C 20.90625 15.191406 20.925781 15.167969 20.925781 15.144531 C 20.921875 15.042969 20.914062 14.9375 20.902344 14.832031 C 20.898438 14.808594 20.878906 14.789062 20.851562 14.792969 C 20.828125 14.796875 20.808594 14.820312 20.8125 14.84375 Z M 20.8125 14.84375 " fill-opacity="1" fill-rule="nonzero"/><path fill="#000000" d="M 12.980469 19.40625 C 13.058594 19.414062 13.140625 19.417969 13.21875 19.417969 C 13.242188 19.417969 13.269531 19.417969 13.292969 19.417969 C 13.320312 19.417969 13.339844 19.394531 13.339844 19.371094 C 13.335938 19.34375 13.316406 19.324219 13.289062 19.324219 C 13.191406 19.328125 13.089844 19.324219 12.988281 19.316406 C 12.964844 19.3125 12.941406 19.332031 12.9375 19.355469 C 12.9375 19.382812 12.957031 19.40625 12.980469 19.40625 Z M 12.980469 19.40625 " fill-opacity="1" fill-rule="nonzero"/><path fill="#000000" d="M 20.761719 14.542969 C 20.765625 14.566406 20.785156 14.582031 20.804688 14.582031 C 20.808594 14.582031 20.8125 14.582031 20.816406 14.578125 C 20.839844 14.574219 20.855469 14.550781 20.851562 14.523438 C 20.828125 14.425781 20.800781 14.324219 20.773438 14.222656 C 20.765625 14.199219 20.738281 14.1875 20.714844 14.191406 C 20.691406 14.199219 20.675781 14.226562 20.683594 14.25 C 20.714844 14.347656 20.738281 14.445312 20.761719 14.542969 Z M 20.761719 14.542969 " fill-opacity="1" fill-rule="nonzero"/><path fill="#000000" d="M 13.054688 17.472656 C 13.066406 17.472656 13.078125 17.46875 13.085938 17.460938 C 13.15625 17.394531 13.234375 17.328125 13.316406 17.265625 C 13.335938 17.25 13.339844 17.21875 13.324219 17.199219 C 13.308594 17.179688 13.28125 17.175781 13.261719 17.191406 C 13.175781 17.253906 13.09375 17.324219 13.023438 17.394531 C 13.003906 17.414062 13.003906 17.441406 13.023438 17.460938 C 13.03125 17.46875 13.042969 17.472656 13.054688 17.472656 Z M 13.054688 17.472656 " fill-opacity="1" fill-rule="nonzero"/><path fill="#000000" d="M 8.230469 14.410156 C 8.128906 14.425781 8.027344 14.445312 7.921875 14.46875 C 7.898438 14.472656 7.882812 14.496094 7.886719 14.523438 C 7.894531 14.542969 7.910156 14.558594 7.933594 14.558594 C 7.9375 14.558594 7.941406 14.558594 7.941406 14.558594 C 8.046875 14.535156 8.144531 14.515625 8.242188 14.503906 C 8.265625 14.5 8.285156 14.476562 8.28125 14.449219 C 8.277344 14.425781 8.253906 14.40625 8.230469 14.410156 Z M 8.230469 14.410156 " fill-opacity="1" fill-rule="nonzero"/><path fill="#000000" d="M 7.621094 14.546875 C 7.527344 14.574219 7.433594 14.605469 7.328125 14.640625 C 7.300781 14.648438 7.289062 14.675781 7.296875 14.699219 C 7.304688 14.71875 7.324219 14.730469 7.339844 14.730469 C 7.347656 14.730469 7.351562 14.730469 7.355469 14.726562 C 7.460938 14.691406 7.554688 14.660156 7.648438 14.632812 C 7.671875 14.628906 7.6875 14.601562 7.679688 14.578125 C 7.671875 14.554688 7.644531 14.539062 7.621094 14.546875 Z M 7.621094 14.546875 " fill-opacity="1" fill-rule="nonzero"/><path fill="#000000" d="M 8.855469 14.390625 C 8.78125 14.382812 8.707031 14.382812 8.636719 14.382812 C 8.605469 14.382812 8.570312 14.382812 8.539062 14.382812 C 8.515625 14.382812 8.496094 14.40625 8.496094 14.429688 C 8.496094 14.457031 8.519531 14.476562 8.542969 14.476562 C 8.644531 14.472656 8.746094 14.472656 8.84375 14.480469 C 8.847656 14.480469 8.847656 14.480469 8.851562 14.480469 C 8.875 14.480469 8.894531 14.464844 8.894531 14.441406 C 8.898438 14.414062 8.878906 14.390625 8.851562 14.390625 Z M 8.855469 14.390625 " fill-opacity="1" fill-rule="nonzero"/><g clip-path="url(#0877d787bc)"><path fill="#000000" d="M 7.035156 14.746094 C 6.941406 14.78125 6.851562 14.816406 6.746094 14.855469 C 6.722656 14.863281 6.710938 14.890625 6.722656 14.914062 C 6.726562 14.933594 6.746094 14.945312 6.765625 14.945312 C 6.769531 14.945312 6.773438 14.941406 6.78125 14.941406 C 6.882812 14.902344 6.976562 14.867188 7.066406 14.832031 C 7.09375 14.824219 7.105469 14.796875 7.09375 14.773438 C 7.085938 14.75 7.058594 14.734375 7.035156 14.746094 Z M 7.035156 14.746094 " fill-opacity="1" fill-rule="nonzero"/></g><path fill="#000000" d="M 12.554688 18.5625 C 12.578125 18.5625 12.597656 18.542969 12.601562 18.519531 C 12.601562 18.417969 12.613281 18.320312 12.636719 18.222656 C 12.640625 18.199219 12.625 18.171875 12.601562 18.167969 C 12.578125 18.160156 12.550781 18.175781 12.546875 18.203125 C 12.523438 18.304688 12.507812 18.410156 12.507812 18.515625 C 12.507812 18.542969 12.527344 18.5625 12.554688 18.5625 Z M 12.554688 18.5625 " fill-opacity="1" fill-rule="nonzero"/><path fill="#000000" d="M 12.570312 18.777344 C 12.546875 18.78125 12.527344 18.808594 12.53125 18.832031 C 12.550781 18.933594 12.578125 19.035156 12.613281 19.136719 C 12.621094 19.15625 12.640625 19.167969 12.660156 19.167969 C 12.664062 19.167969 12.667969 19.167969 12.675781 19.164062 C 12.699219 19.15625 12.710938 19.128906 12.703125 19.105469 C 12.667969 19.011719 12.640625 18.914062 12.625 18.816406 C 12.621094 18.789062 12.59375 18.773438 12.570312 18.777344 Z M 12.570312 18.777344 " fill-opacity="1" fill-rule="nonzero"/><path fill="#000000" d="M 18.964844 18.476562 C 18.886719 18.539062 18.804688 18.601562 18.71875 18.664062 C 18.699219 18.679688 18.695312 18.707031 18.710938 18.730469 C 18.71875 18.742188 18.734375 18.746094 18.75 18.746094 C 18.757812 18.746094 18.765625 18.746094 18.777344 18.738281 C 18.859375 18.675781 18.941406 18.613281 19.019531 18.550781 C 19.042969 18.535156 19.042969 18.503906 19.027344 18.484375 C 19.011719 18.464844 18.984375 18.460938 18.964844 18.476562 Z M 18.964844 18.476562 " fill-opacity="1" fill-rule="nonzero"/><path fill="#000000" d="M 19.136719 12.007812 C 19.054688 11.945312 18.96875 11.886719 18.882812 11.828125 C 18.863281 11.8125 18.832031 11.816406 18.820312 11.839844 C 18.804688 11.859375 18.8125 11.890625 18.832031 11.902344 C 18.917969 11.960938 19 12.019531 19.078125 12.082031 C 19.089844 12.089844 19.097656 12.089844 19.109375 12.089844 C 19.121094 12.089844 19.136719 12.085938 19.144531 12.074219 C 19.160156 12.050781 19.15625 12.023438 19.136719 12.007812 Z M 19.136719 12.007812 " fill-opacity="1" fill-rule="nonzero"/><path fill="#000000" d="M 19.425781 18.078125 C 19.355469 18.144531 19.277344 18.214844 19.199219 18.28125 C 19.179688 18.300781 19.179688 18.328125 19.195312 18.347656 C 19.203125 18.359375 19.214844 18.363281 19.230469 18.363281 C 19.238281 18.363281 19.25 18.359375 19.257812 18.351562 C 19.339844 18.285156 19.417969 18.214844 19.488281 18.144531 C 19.507812 18.128906 19.507812 18.097656 19.492188 18.078125 C 19.472656 18.0625 19.445312 18.058594 19.425781 18.078125 Z M 19.425781 18.078125 " fill-opacity="1" fill-rule="nonzero"/><path fill="#000000" d="M 19.378906 12.203125 C 19.359375 12.183594 19.328125 12.1875 19.3125 12.207031 C 19.296875 12.226562 19.296875 12.253906 19.316406 12.273438 C 19.398438 12.339844 19.472656 12.40625 19.546875 12.476562 C 19.554688 12.484375 19.566406 12.488281 19.578125 12.488281 C 19.589844 12.488281 19.601562 12.484375 19.609375 12.472656 C 19.628906 12.457031 19.628906 12.425781 19.609375 12.410156 C 19.535156 12.339844 19.457031 12.269531 19.378906 12.203125 Z M 19.378906 12.203125 " fill-opacity="1" fill-rule="nonzero"/><path fill="#000000" d="M 18.625 11.65625 C 18.539062 11.605469 18.449219 11.550781 18.355469 11.5 C 18.335938 11.488281 18.304688 11.496094 18.292969 11.519531 C 18.28125 11.539062 18.289062 11.570312 18.3125 11.582031 C 18.402344 11.632812 18.488281 11.683594 18.574219 11.738281 C 18.582031 11.742188 18.589844 11.742188 18.597656 11.742188 C 18.613281 11.742188 18.628906 11.734375 18.636719 11.722656 C 18.652344 11.699219 18.644531 11.671875 18.625 11.660156 Z M 18.625 11.65625 " fill-opacity="1" fill-rule="nonzero"/><g clip-path="url(#6f4345c84d)"><path fill="#000000" d="M 18.082031 11.355469 C 18.050781 11.335938 18.015625 11.320312 17.984375 11.304688 C 17.988281 11.285156 17.984375 11.261719 17.964844 11.246094 L 17.898438 11.195312 L 18.371094 10.6875 L 18.203125 10.664062 L 17.714844 10.949219 L 17.121094 10.375 L 17.917969 9.710938 L 17.714844 9.554688 L 17.472656 9.671875 L 17.335938 9.5625 C 17.296875 9.53125 17.238281 9.539062 17.210938 9.578125 C 17.179688 9.617188 17.1875 9.675781 17.226562 9.703125 L 17.285156 9.75 L 17.125 9.828125 L 16.996094 9.726562 C 16.957031 9.699219 16.902344 9.707031 16.871094 9.746094 C 16.84375 9.785156 16.847656 9.839844 16.886719 9.867188 L 16.929688 9.898438 L 16.667969 10.011719 L 16.289062 9.742188 C 16.234375 9.703125 16.171875 9.679688 16.105469 9.667969 L 15.859375 9.632812 C 15.78125 9.621094 15.722656 9.695312 15.753906 9.765625 C 15.789062 9.84375 15.828125 9.933594 15.855469 9.996094 C 15.882812 10.058594 15.921875 10.109375 15.972656 10.152344 L 16.332031 10.449219 L 16.296875 10.730469 L 16.253906 10.699219 C 16.214844 10.667969 16.160156 10.675781 16.132812 10.714844 C 16.101562 10.753906 16.109375 10.808594 16.148438 10.839844 L 16.28125 10.9375 L 16.246094 11.113281 L 16.183594 11.066406 C 16.144531 11.039062 16.089844 11.046875 16.058594 11.085938 C 16.03125 11.125 16.039062 11.179688 16.078125 11.210938 L 16.21875 11.316406 L 16.171875 11.578125 L 16.375 11.734375 L 16.804688 10.789062 L 17.515625 11.214844 L 17.367188 11.757812 L 17.433594 11.914062 L 17.800781 11.324219 L 17.867188 11.375 C 17.882812 11.386719 17.90625 11.386719 17.925781 11.378906 C 17.964844 11.398438 18.003906 11.417969 18.042969 11.4375 C 18.046875 11.441406 18.054688 11.441406 18.0625 11.441406 C 18.078125 11.441406 18.09375 11.433594 18.105469 11.417969 C 18.117188 11.394531 18.105469 11.367188 18.082031 11.355469 Z M 18.082031 11.355469 " fill-opacity="1" fill-rule="nonzero"/></g><path fill="#000000" d="M 18.472656 18.84375 C 18.390625 18.898438 18.304688 18.957031 18.21875 19.015625 C 18.195312 19.027344 18.191406 19.058594 18.203125 19.078125 C 18.214844 19.09375 18.226562 19.097656 18.242188 19.097656 C 18.25 19.097656 18.261719 19.097656 18.269531 19.09375 C 18.355469 19.035156 18.441406 18.976562 18.523438 18.917969 C 18.546875 18.902344 18.550781 18.875 18.535156 18.855469 C 18.519531 18.832031 18.492188 18.828125 18.472656 18.84375 Z M 18.472656 18.84375 " fill-opacity="1" fill-rule="nonzero"/><path fill="#000000" d="M 19.914062 17.628906 C 19.894531 17.613281 19.863281 17.617188 19.847656 17.636719 C 19.816406 17.675781 19.78125 17.710938 19.746094 17.75 C 19.714844 17.789062 19.679688 17.824219 19.644531 17.863281 C 19.625 17.878906 19.625 17.910156 19.644531 17.925781 C 19.652344 17.9375 19.664062 17.941406 19.675781 17.941406 C 19.6875 17.941406 19.699219 17.933594 19.710938 17.925781 C 19.746094 17.886719 19.78125 17.851562 19.816406 17.8125 C 19.851562 17.773438 19.882812 17.734375 19.917969 17.695312 C 19.933594 17.675781 19.933594 17.648438 19.914062 17.628906 Z M 19.914062 17.628906 " fill-opacity="1" fill-rule="nonzero"/><path fill="#000000" d="M 20.777344 16.015625 C 20.75 16.007812 20.726562 16.019531 20.71875 16.046875 C 20.691406 16.140625 20.660156 16.238281 20.625 16.335938 C 20.617188 16.359375 20.628906 16.386719 20.652344 16.394531 C 20.660156 16.398438 20.664062 16.398438 20.667969 16.398438 C 20.6875 16.398438 20.707031 16.386719 20.710938 16.367188 C 20.75 16.269531 20.78125 16.167969 20.808594 16.070312 C 20.816406 16.046875 20.800781 16.019531 20.777344 16.015625 Z M 20.777344 16.015625 " fill-opacity="1" fill-rule="nonzero"/><path fill="#000000" d="M 20.875 15.40625 C 20.847656 15.40625 20.828125 15.425781 20.824219 15.449219 C 20.816406 15.550781 20.804688 15.648438 20.785156 15.75 C 20.78125 15.773438 20.796875 15.800781 20.824219 15.804688 C 20.828125 15.804688 20.828125 15.804688 20.832031 15.804688 C 20.855469 15.804688 20.875 15.789062 20.878906 15.765625 C 20.894531 15.664062 20.910156 15.558594 20.917969 15.457031 C 20.917969 15.429688 20.898438 15.410156 20.875 15.40625 Z M 20.875 15.40625 " fill-opacity="1" fill-rule="nonzero"/><path fill="#000000" d="M 20.570312 16.59375 C 20.546875 16.582031 20.519531 16.59375 20.507812 16.617188 C 20.464844 16.707031 20.421875 16.796875 20.371094 16.886719 C 20.359375 16.910156 20.367188 16.9375 20.386719 16.949219 C 20.394531 16.953125 20.402344 16.957031 20.410156 16.957031 C 20.425781 16.957031 20.441406 16.945312 20.449219 16.933594 C 20.5 16.839844 20.550781 16.746094 20.59375 16.65625 C 20.601562 16.632812 20.59375 16.605469 20.570312 16.59375 Z M 20.570312 16.59375 " fill-opacity="1" fill-rule="nonzero"/><path fill="#000000" d="M 20.03125 12.863281 C 19.96875 12.785156 19.898438 12.707031 19.828125 12.628906 C 19.808594 12.609375 19.78125 12.609375 19.761719 12.628906 C 19.742188 12.644531 19.742188 12.671875 19.761719 12.691406 C 19.828125 12.765625 19.898438 12.84375 19.960938 12.921875 C 19.96875 12.933594 19.984375 12.9375 19.996094 12.9375 C 20.007812 12.9375 20.015625 12.9375 20.027344 12.929688 C 20.046875 12.914062 20.046875 12.882812 20.03125 12.863281 Z M 20.03125 12.863281 " fill-opacity="1" fill-rule="nonzero"/><path fill="#000000" d="M 20.277344 17.132812 C 20.253906 17.121094 20.226562 17.125 20.210938 17.148438 C 20.15625 17.230469 20.097656 17.316406 20.039062 17.398438 C 20.023438 17.417969 20.027344 17.445312 20.046875 17.460938 C 20.054688 17.46875 20.066406 17.472656 20.074219 17.472656 C 20.089844 17.472656 20.101562 17.464844 20.113281 17.453125 C 20.175781 17.371094 20.234375 17.285156 20.289062 17.199219 C 20.304688 17.175781 20.296875 17.148438 20.277344 17.132812 Z M 20.277344 17.132812 " fill-opacity="1" fill-rule="nonzero"/><path fill="#000000" d="M 20.390625 13.371094 C 20.335938 13.285156 20.28125 13.195312 20.21875 13.113281 C 20.207031 13.089844 20.175781 13.085938 20.15625 13.101562 C 20.136719 13.117188 20.128906 13.144531 20.144531 13.164062 C 20.203125 13.246094 20.257812 13.332031 20.308594 13.421875 C 20.320312 13.433594 20.335938 13.441406 20.351562 13.441406 C 20.359375 13.441406 20.367188 13.441406 20.375 13.4375 C 20.394531 13.421875 20.402344 13.394531 20.390625 13.371094 Z M 20.390625 13.371094 " fill-opacity="1" fill-rule="nonzero"/><path fill="#000000" d="M 14.449219 16.730469 C 14.445312 16.707031 14.421875 16.6875 14.398438 16.691406 C 14.300781 16.703125 14.195312 16.722656 14.089844 16.757812 C 14.066406 16.765625 14.050781 16.789062 14.058594 16.816406 C 14.066406 16.835938 14.082031 16.847656 14.101562 16.847656 C 14.109375 16.847656 14.113281 16.847656 14.117188 16.84375 C 14.21875 16.8125 14.316406 16.792969 14.410156 16.78125 C 14.433594 16.777344 14.453125 16.753906 14.449219 16.730469 Z M 14.449219 16.730469 " fill-opacity="1" fill-rule="nonzero"/><path fill="#000000" d="M 14.980469 16.875 C 14.984375 16.878906 14.992188 16.882812 15 16.882812 C 15.015625 16.882812 15.035156 16.871094 15.042969 16.855469 C 15.054688 16.835938 15.046875 16.808594 15.023438 16.792969 C 14.929688 16.742188 14.828125 16.710938 14.71875 16.691406 C 14.691406 16.6875 14.667969 16.707031 14.664062 16.730469 C 14.660156 16.757812 14.679688 16.78125 14.703125 16.785156 C 14.804688 16.800781 14.894531 16.828125 14.980469 16.875 Z M 14.980469 16.875 " fill-opacity="1" fill-rule="nonzero"/><path fill="#000000" d="M 14.996094 18.71875 C 15.015625 18.703125 15.015625 18.671875 14.996094 18.65625 C 14.980469 18.636719 14.949219 18.636719 14.933594 18.652344 C 14.886719 18.699219 14.835938 18.742188 14.78125 18.785156 C 14.753906 18.808594 14.730469 18.828125 14.703125 18.847656 C 14.679688 18.863281 14.675781 18.890625 14.691406 18.914062 C 14.699219 18.925781 14.714844 18.929688 14.730469 18.929688 C 14.738281 18.929688 14.746094 18.929688 14.757812 18.921875 C 14.785156 18.902344 14.8125 18.878906 14.839844 18.859375 C 14.894531 18.8125 14.945312 18.769531 14.996094 18.71875 Z M 14.996094 18.71875 " fill-opacity="1" fill-rule="nonzero"/><path fill="#000000" d="M 15.179688 20.390625 C 15.078125 20.402344 14.976562 20.40625 14.875 20.410156 C 14.851562 20.410156 14.828125 20.429688 14.832031 20.457031 C 14.832031 20.480469 14.851562 20.503906 14.875 20.503906 C 14.878906 20.503906 14.878906 20.503906 14.878906 20.503906 C 14.980469 20.5 15.085938 20.492188 15.1875 20.480469 C 15.214844 20.480469 15.234375 20.457031 15.230469 20.429688 C 15.226562 20.40625 15.203125 20.386719 15.179688 20.390625 Z M 15.179688 20.390625 " fill-opacity="1" fill-rule="nonzero"/><path fill="#000000" d="M 14.574219 20.402344 C 14.472656 20.394531 14.371094 20.378906 14.273438 20.359375 C 14.246094 20.355469 14.222656 20.371094 14.21875 20.398438 C 14.214844 20.421875 14.230469 20.445312 14.253906 20.453125 C 14.355469 20.46875 14.460938 20.484375 14.566406 20.492188 C 14.566406 20.492188 14.566406 20.492188 14.570312 20.492188 C 14.59375 20.492188 14.613281 20.472656 14.613281 20.449219 C 14.617188 20.425781 14.597656 20.402344 14.574219 20.402344 Z M 14.574219 20.402344 " fill-opacity="1" fill-rule="nonzero"/><path fill="#000000" d="M 13.980469 20.289062 C 13.882812 20.257812 13.789062 20.21875 13.699219 20.179688 C 13.675781 20.167969 13.648438 20.175781 13.636719 20.199219 C 13.625 20.222656 13.636719 20.25 13.660156 20.261719 C 13.753906 20.304688 13.851562 20.34375 13.953125 20.375 C 13.957031 20.375 13.960938 20.378906 13.964844 20.378906 C 13.984375 20.378906 14.003906 20.363281 14.007812 20.34375 C 14.015625 20.320312 14.003906 20.292969 13.980469 20.289062 Z M 13.980469 20.289062 " fill-opacity="1" fill-rule="nonzero"/><path fill="#000000" d="M 14.511719 19.027344 C 14.496094 19.007812 14.46875 18.996094 14.445312 19.011719 C 14.359375 19.058594 14.269531 19.101562 14.175781 19.140625 C 14.152344 19.148438 14.140625 19.175781 14.148438 19.199219 C 14.15625 19.21875 14.171875 19.230469 14.191406 19.230469 C 14.199219 19.230469 14.203125 19.226562 14.210938 19.226562 C 14.304688 19.1875 14.402344 19.140625 14.492188 19.089844 C 14.515625 19.078125 14.523438 19.050781 14.511719 19.027344 Z M 14.511719 19.027344 " fill-opacity="1" fill-rule="nonzero"/><path fill="#000000" d="M 16.902344 19.804688 C 16.808594 19.851562 16.714844 19.898438 16.628906 19.941406 C 16.605469 19.953125 16.59375 19.980469 16.605469 20.003906 C 16.613281 20.019531 16.628906 20.027344 16.648438 20.027344 C 16.65625 20.027344 16.660156 20.027344 16.667969 20.023438 C 16.757812 19.980469 16.851562 19.933594 16.945312 19.886719 C 16.964844 19.875 16.976562 19.84375 16.964844 19.824219 C 16.953125 19.800781 16.921875 19.792969 16.902344 19.804688 Z M 16.902344 19.804688 " fill-opacity="1" fill-rule="nonzero"/><path fill="#000000" d="M 17.960938 19.179688 C 17.875 19.234375 17.792969 19.285156 17.699219 19.34375 C 17.675781 19.355469 17.667969 19.386719 17.683594 19.40625 C 17.691406 19.421875 17.707031 19.429688 17.722656 19.429688 C 17.730469 19.429688 17.738281 19.425781 17.746094 19.421875 C 17.839844 19.363281 17.925781 19.3125 18.007812 19.257812 C 18.03125 19.246094 18.035156 19.21875 18.023438 19.195312 C 18.007812 19.175781 17.980469 19.167969 17.960938 19.179688 Z M 17.960938 19.179688 " fill-opacity="1" fill-rule="nonzero"/><path fill="#000000" d="M 17.433594 19.503906 C 17.339844 19.558594 17.253906 19.609375 17.171875 19.65625 C 17.148438 19.667969 17.140625 19.695312 17.152344 19.71875 C 17.160156 19.734375 17.175781 19.742188 17.191406 19.742188 C 17.199219 19.742188 17.207031 19.742188 17.214844 19.738281 C 17.300781 19.6875 17.386719 19.636719 17.484375 19.582031 C 17.503906 19.570312 17.511719 19.539062 17.5 19.519531 C 17.484375 19.496094 17.457031 19.488281 17.433594 19.503906 Z M 17.433594 19.503906 " fill-opacity="1" fill-rule="nonzero"/><path fill="#000000" d="M 15.347656 18.152344 C 15.324219 18.140625 15.296875 18.152344 15.285156 18.175781 C 15.246094 18.261719 15.191406 18.347656 15.132812 18.429688 C 15.117188 18.449219 15.121094 18.476562 15.140625 18.492188 C 15.148438 18.5 15.160156 18.503906 15.167969 18.503906 C 15.183594 18.503906 15.195312 18.496094 15.207031 18.484375 C 15.269531 18.398438 15.324219 18.304688 15.371094 18.214844 C 15.382812 18.191406 15.371094 18.164062 15.347656 18.152344 Z M 15.347656 18.152344 " fill-opacity="1" fill-rule="nonzero"/><path fill="#000000" d="M 16.347656 20.066406 C 16.253906 20.109375 16.15625 20.144531 16.066406 20.179688 C 16.039062 20.1875 16.027344 20.210938 16.035156 20.238281 C 16.042969 20.253906 16.0625 20.269531 16.082031 20.269531 C 16.085938 20.269531 16.089844 20.265625 16.097656 20.265625 C 16.191406 20.230469 16.289062 20.195312 16.386719 20.152344 C 16.410156 20.140625 16.417969 20.117188 16.410156 20.089844 C 16.398438 20.066406 16.371094 20.058594 16.347656 20.066406 Z M 16.347656 20.066406 " fill-opacity="1" fill-rule="nonzero"/><path fill="#000000" d="M 15.472656 17.914062 C 15.476562 17.902344 15.480469 17.890625 15.480469 17.882812 C 15.492188 17.8125 15.5 17.746094 15.5 17.675781 C 15.5 17.648438 15.5 17.621094 15.496094 17.59375 C 15.496094 17.570312 15.472656 17.550781 15.449219 17.550781 C 15.421875 17.554688 15.402344 17.574219 15.40625 17.601562 C 15.40625 17.625 15.40625 17.652344 15.40625 17.675781 C 15.40625 17.738281 15.402344 17.800781 15.390625 17.863281 C 15.386719 17.875 15.386719 17.882812 15.382812 17.894531 C 15.378906 17.917969 15.394531 17.945312 15.417969 17.949219 C 15.421875 17.949219 15.425781 17.949219 15.429688 17.949219 C 15.449219 17.949219 15.46875 17.9375 15.472656 17.914062 Z M 15.472656 17.914062 " fill-opacity="1" fill-rule="nonzero"/><path fill="#000000" d="M 15.773438 20.269531 C 15.703125 20.292969 15.628906 20.308594 15.558594 20.328125 C 15.53125 20.332031 15.503906 20.335938 15.480469 20.34375 C 15.453125 20.347656 15.4375 20.371094 15.441406 20.398438 C 15.445312 20.417969 15.464844 20.433594 15.488281 20.433594 C 15.492188 20.433594 15.492188 20.433594 15.496094 20.433594 C 15.523438 20.429688 15.550781 20.421875 15.578125 20.417969 C 15.648438 20.398438 15.726562 20.378906 15.800781 20.359375 C 15.824219 20.351562 15.839844 20.328125 15.832031 20.300781 C 15.824219 20.277344 15.800781 20.265625 15.773438 20.269531 Z M 15.773438 20.269531 " fill-opacity="1" fill-rule="nonzero"/></svg>