<svg xmlns="http://www.w3.org/2000/svg" xmlns:xlink="http://www.w3.org/1999/xlink" width="40" zoomAndPan="magnify" viewBox="0 0 30 30.000001" height="40" preserveAspectRatio="xMidYMid meet" version="1.0"><defs><clipPath id="7db8b01463"><path d="M 0.484375 0 L 29.515625 0 L 29.515625 29.03125 L 0.484375 29.03125 Z M 0.484375 0 " clip-rule="nonzero"/></clipPath><clipPath id="33d25ffbc4"><path d="M 6.289062 6.535156 L 23.710938 6.535156 L 23.710938 22.503906 L 6.289062 22.503906 Z M 6.289062 6.535156 " clip-rule="nonzero"/></clipPath><clipPath id="48b2037347"><path d="M 9 15 L 23.710938 15 L 23.710938 22 L 9 22 Z M 9 15 " clip-rule="nonzero"/></clipPath><clipPath id="457e48195b"><path d="M 6.289062 16 L 11 16 L 11 22.503906 L 6.289062 22.503906 Z M 6.289062 16 " clip-rule="nonzero"/></clipPath></defs><g clip-path="url(#7db8b01463)"><path fill="#ffffff" d="M 0.484375 0 L 29.515625 0 L 29.515625 29.03125 L 0.484375 29.03125 Z M 0.484375 0 " fill-opacity="1" fill-rule="nonzero"/><path fill="#ffffff" d="M 0.484375 0 L 29.515625 0 L 29.515625 29.03125 L 0.484375 29.03125 Z M 0.484375 0 " fill-opacity="1" fill-rule="nonzero"/></g><g clip-path="url(#33d25ffbc4)"><path fill="#000000" d="M 18.429688 20.882812 L 18.421875 20.886719 C 18.019531 21.210938 17.578125 21.425781 17.097656 21.535156 C 16.621094 21.640625 16.113281 21.644531 15.570312 21.542969 C 15.558594 21.542969 15.550781 21.539062 15.539062 21.539062 C 15.042969 21.390625 14.574219 21.242188 13.980469 21.039062 C 13.410156 20.84375 12.714844 20.59375 11.757812 20.246094 L 11.109375 20.621094 L 11.34375 21.027344 C 11.394531 21.113281 11.363281 21.226562 11.273438 21.28125 L 9.222656 22.464844 C 9.132812 22.515625 9.019531 22.484375 8.96875 22.398438 L 6.328125 17.824219 C 6.277344 17.734375 6.304688 17.621094 6.394531 17.570312 C 6.398438 17.566406 6.402344 17.566406 6.40625 17.5625 L 8.449219 16.386719 C 8.535156 16.332031 8.648438 16.363281 8.703125 16.453125 L 8.9375 16.859375 L 10.453125 15.980469 L 10.460938 15.976562 C 10.886719 15.71875 11.339844 15.5625 11.820312 15.519531 C 12.246094 15.476562 12.691406 15.523438 13.152344 15.652344 L 13.160156 15.652344 L 16.40625 16.527344 C 16.664062 16.597656 16.871094 16.765625 16.996094 16.984375 C 17.121094 17.203125 17.164062 17.464844 17.097656 17.722656 L 17.097656 17.726562 C 17.035156 17.945312 16.90625 18.128906 16.734375 18.253906 L 17.109375 18.355469 L 22.171875 15.425781 L 22.175781 15.425781 C 22.582031 15.191406 22.976562 15.285156 23.265625 15.53125 C 23.375 15.621094 23.464844 15.730469 23.535156 15.855469 C 23.605469 15.976562 23.65625 16.109375 23.683594 16.246094 C 23.75 16.613281 23.640625 16.988281 23.261719 17.214844 Z M 14.933594 7.828125 C 14.855469 7.894531 14.738281 7.878906 14.671875 7.800781 C 14.609375 7.71875 14.621094 7.601562 14.699219 7.539062 C 15.53125 6.871094 16.542969 6.535156 17.550781 6.535156 C 18.410156 6.535156 19.265625 6.777344 20.011719 7.257812 L 19.996094 7.160156 C 19.976562 7.058594 20.042969 6.960938 20.144531 6.941406 C 20.242188 6.925781 20.339844 6.988281 20.359375 7.089844 L 20.46875 7.648438 C 20.488281 7.75 20.421875 7.847656 20.320312 7.867188 L 19.765625 8 C 19.667969 8.027344 19.566406 7.964844 19.542969 7.863281 C 19.519531 7.765625 19.578125 7.664062 19.679688 7.640625 L 19.851562 7.597656 C 19.15625 7.136719 18.355469 6.90625 17.550781 6.90625 C 16.621094 6.90625 15.695312 7.214844 14.933594 7.828125 Z M 20.167969 14.332031 C 19.40625 14.949219 18.480469 15.253906 17.550781 15.253906 C 16.746094 15.253906 15.945312 15.023438 15.25 14.5625 L 15.421875 14.523438 C 15.523438 14.496094 15.582031 14.398438 15.558594 14.296875 C 15.535156 14.199219 15.433594 14.136719 15.335938 14.160156 L 14.78125 14.296875 C 14.679688 14.3125 14.613281 14.410156 14.632812 14.511719 L 14.742188 15.070312 C 14.761719 15.171875 14.859375 15.238281 14.960938 15.21875 C 15.058594 15.199219 15.125 15.101562 15.105469 15 L 15.089844 14.902344 C 15.835938 15.386719 16.695312 15.628906 17.550781 15.628906 C 18.5625 15.628906 19.570312 15.292969 20.402344 14.621094 C 20.480469 14.558594 20.492188 14.441406 20.429688 14.363281 C 20.363281 14.28125 20.25 14.269531 20.167969 14.332031 Z M 20.804688 8.464844 C 20.738281 8.382812 20.75 8.265625 20.832031 8.203125 C 20.910156 8.136719 21.027344 8.152344 21.09375 8.230469 C 21.761719 9.0625 22.097656 10.070312 22.097656 11.082031 C 22.097656 11.9375 21.855469 12.796875 21.375 13.542969 L 21.472656 13.523438 C 21.570312 13.503906 21.667969 13.570312 21.6875 13.671875 C 21.707031 13.773438 21.640625 13.871094 21.539062 13.890625 L 20.984375 13.996094 C 20.882812 14.015625 20.785156 13.949219 20.765625 13.851562 L 20.765625 13.847656 L 20.628906 13.296875 C 20.605469 13.195312 20.667969 13.097656 20.765625 13.074219 C 20.867188 13.046875 20.96875 13.109375 20.992188 13.210938 L 21.035156 13.382812 C 21.496094 12.6875 21.722656 11.882812 21.722656 11.082031 C 21.722656 10.152344 21.417969 9.226562 20.804688 8.464844 Z M 14.300781 13.699219 C 14.363281 13.777344 14.351562 13.894531 14.269531 13.960938 C 14.191406 14.023438 14.074219 14.011719 14.007812 13.929688 C 13.339844 13.101562 13.003906 12.089844 13.003906 11.082031 C 13.003906 10.222656 13.246094 9.367188 13.730469 8.617188 L 13.632812 8.636719 C 13.53125 8.65625 13.433594 8.589844 13.414062 8.488281 C 13.394531 8.386719 13.460938 8.289062 13.5625 8.273438 L 14.117188 8.164062 C 14.21875 8.144531 14.316406 8.210938 14.335938 8.3125 L 14.472656 8.863281 C 14.496094 8.964844 14.433594 9.066406 14.335938 9.089844 C 14.234375 9.113281 14.132812 9.050781 14.109375 8.953125 L 14.066406 8.78125 C 13.609375 9.476562 13.378906 10.277344 13.378906 11.082031 C 13.378906 12.007812 13.683594 12.9375 14.300781 13.699219 Z M 20.605469 11.082031 C 20.605469 10.238281 20.265625 9.472656 19.710938 8.917969 C 19.160156 8.367188 18.394531 8.023438 17.550781 8.023438 C 16.707031 8.023438 15.941406 8.367188 15.390625 8.917969 C 14.835938 9.472656 14.496094 10.238281 14.496094 11.082031 C 14.496094 11.925781 14.835938 12.6875 15.390625 13.242188 C 15.941406 13.796875 16.707031 14.136719 17.550781 14.136719 C 18.394531 14.136719 19.160156 13.796875 19.710938 13.242188 C 20.265625 12.6875 20.605469 11.925781 20.605469 11.082031 Z M 20.605469 11.082031 " fill-opacity="1" fill-rule="evenodd"/></g><path fill="#76c554" d="M 18.023438 11.035156 C 18.296875 11.148438 18.421875 11.351562 18.429688 11.5625 C 18.433594 11.695312 18.390625 11.832031 18.308594 11.949219 C 18.230469 12.058594 18.121094 12.15625 17.984375 12.222656 C 17.910156 12.257812 17.828125 12.285156 17.738281 12.300781 L 17.738281 12.488281 C 17.738281 12.589844 17.652344 12.671875 17.550781 12.671875 C 17.449219 12.671875 17.363281 12.589844 17.363281 12.488281 L 17.363281 12.300781 C 17.171875 12.269531 16.960938 12.179688 16.746094 12.019531 C 16.664062 11.957031 16.648438 11.839844 16.710938 11.757812 C 16.773438 11.675781 16.886719 11.660156 16.96875 11.722656 C 17.183594 11.882812 17.382812 11.945312 17.550781 11.945312 L 17.554688 11.945312 C 17.65625 11.945312 17.746094 11.925781 17.820312 11.886719 C 17.898438 11.847656 17.960938 11.796875 18.003906 11.738281 C 18.039062 11.683594 18.058594 11.628906 18.058594 11.574219 C 18.054688 11.5 18 11.429688 17.882812 11.378906 L 17.875 11.375 C 17.792969 11.339844 17.699219 11.316406 17.601562 11.292969 C 17.457031 11.253906 17.3125 11.214844 17.183594 11.152344 C 17.003906 11.0625 16.886719 10.941406 16.820312 10.800781 C 16.746094 10.648438 16.742188 10.480469 16.808594 10.316406 C 16.84375 10.21875 16.898438 10.136719 16.960938 10.074219 C 17.070312 9.957031 17.210938 9.890625 17.363281 9.863281 L 17.363281 9.675781 C 17.363281 9.574219 17.449219 9.488281 17.550781 9.488281 C 17.652344 9.488281 17.738281 9.574219 17.738281 9.675781 L 17.738281 9.867188 C 17.804688 9.878906 17.871094 9.898438 17.933594 9.921875 C 18.058594 9.972656 18.171875 10.042969 18.261719 10.128906 C 18.335938 10.199219 18.335938 10.316406 18.265625 10.390625 C 18.191406 10.464844 18.074219 10.464844 18 10.394531 C 17.949219 10.34375 17.878906 10.300781 17.800781 10.269531 C 17.722656 10.242188 17.640625 10.222656 17.5625 10.21875 L 17.550781 10.222656 L 17.535156 10.21875 C 17.511719 10.21875 17.492188 10.222656 17.472656 10.222656 C 17.378906 10.234375 17.289062 10.269531 17.226562 10.332031 C 17.195312 10.363281 17.171875 10.402344 17.152344 10.449219 C 17.128906 10.515625 17.128906 10.585938 17.15625 10.644531 C 17.1875 10.707031 17.25 10.769531 17.351562 10.820312 C 17.445312 10.867188 17.570312 10.898438 17.695312 10.933594 C 17.804688 10.960938 17.917969 10.988281 18.011719 11.027344 Z M 15.65625 11.082031 C 15.65625 11.605469 15.867188 12.078125 16.210938 12.421875 C 16.554688 12.761719 17.027344 12.976562 17.550781 12.976562 C 18.074219 12.976562 18.546875 12.761719 18.890625 12.421875 C 19.234375 12.078125 19.445312 11.605469 19.445312 11.082031 C 19.445312 10.558594 19.234375 10.085938 18.890625 9.742188 C 18.546875 9.398438 18.074219 9.1875 17.550781 9.1875 C 17.027344 9.1875 16.554688 9.398438 16.210938 9.742188 C 15.867188 10.085938 15.65625 10.558594 15.65625 11.082031 Z M 15.65625 11.082031 " fill-opacity="1" fill-rule="evenodd"/><path fill="#ffffff" d="M 19.820312 11.082031 C 19.820312 11.707031 19.566406 12.273438 19.15625 12.683594 C 18.742188 13.09375 18.175781 13.347656 17.550781 13.347656 C 16.925781 13.347656 16.359375 13.09375 15.949219 12.683594 C 15.539062 12.273438 15.285156 11.707031 15.285156 11.082031 C 15.285156 10.453125 15.539062 9.886719 15.949219 9.476562 C 16.359375 9.066406 16.925781 8.8125 17.550781 8.8125 C 18.175781 8.8125 18.742188 9.066406 19.15625 9.476562 C 19.566406 9.886719 19.820312 10.453125 19.820312 11.082031 Z M 17.550781 13.765625 C 18.292969 13.765625 18.960938 13.464844 19.449219 12.976562 C 19.933594 12.492188 20.234375 11.820312 20.234375 11.082031 C 20.234375 10.339844 19.933594 9.667969 19.449219 9.183594 C 18.960938 8.699219 18.292969 8.398438 17.550781 8.398438 C 16.808594 8.398438 16.140625 8.699219 15.652344 9.183594 C 15.167969 9.667969 14.867188 10.339844 14.867188 11.082031 C 14.867188 11.820312 15.167969 12.492188 15.652344 12.976562 C 16.140625 13.464844 16.808594 13.765625 17.550781 13.765625 Z M 17.550781 13.765625 " fill-opacity="1" fill-rule="evenodd"/><g clip-path="url(#48b2037347)"><path fill="#ffffff" d="M 23.066406 16.898438 Z M 17.085938 18.734375 Z M 15.996094 18.054688 Z M 16.734375 17.628906 Z M 16.308594 16.886719 L 13.25 16.0625 C 13.234375 16.0625 13.214844 16.058594 13.199219 16.054688 C 13.160156 16.042969 13.121094 16.03125 13.085938 16.019531 L 13.050781 16.007812 C 12.632812 15.890625 12.234375 15.851562 11.855469 15.886719 C 11.476562 15.925781 11.113281 16.039062 10.769531 16.230469 L 10.667969 16.289062 L 10.652344 16.296875 L 10.640625 16.304688 L 9.121094 17.179688 L 10.921875 20.296875 L 11.640625 19.886719 C 11.6875 19.855469 11.746094 19.84375 11.804688 19.867188 C 12.789062 20.226562 13.503906 20.480469 14.097656 20.683594 C 14.683594 20.882812 15.148438 21.03125 15.640625 21.179688 C 16.132812 21.269531 16.589844 21.269531 17.015625 21.171875 C 17.398438 21.085938 17.753906 20.917969 18.085938 20.675781 L 18.171875 20.609375 L 18.191406 20.597656 L 18.207031 20.585938 L 23.046875 16.910156 C 23.054688 16.90625 23.058594 16.902344 23.066406 16.898438 C 23.292969 16.765625 23.359375 16.539062 23.316406 16.3125 C 23.300781 16.21875 23.265625 16.125 23.214844 16.039062 C 23.164062 15.953125 23.101562 15.875 23.027344 15.816406 C 22.847656 15.664062 22.605469 15.605469 22.359375 15.75 L 17.226562 18.714844 C 17.183594 18.742188 17.132812 18.746094 17.085938 18.734375 L 15.898438 18.414062 L 14.195312 17.960938 C 14.097656 17.933594 14.039062 17.832031 14.066406 17.730469 C 14.089844 17.632812 14.195312 17.574219 14.292969 17.597656 L 15.996094 18.054688 C 16.15625 18.097656 16.320312 18.074219 16.453125 17.996094 C 16.589844 17.917969 16.691406 17.789062 16.734375 17.628906 C 16.78125 17.46875 16.753906 17.304688 16.675781 17.167969 C 16.597656 17.035156 16.46875 16.929688 16.308594 16.886719 Z M 16.308594 16.886719 " fill-opacity="1" fill-rule="evenodd"/></g><g clip-path="url(#457e48195b)"><path fill="#76c554" d="M 6.742188 17.796875 L 8.472656 16.800781 L 10.925781 21.050781 L 9.195312 22.050781 Z M 6.742188 17.796875 " fill-opacity="1" fill-rule="evenodd"/></g></svg>