<svg xmlns="http://www.w3.org/2000/svg" xmlns:xlink="http://www.w3.org/1999/xlink" width="40" zoomAndPan="magnify" viewBox="0 0 30 30.000001" height="40" preserveAspectRatio="xMidYMid meet" version="1.0"><defs><clipPath id="d5181716c9"><path d="M 0.484375 0 L 29.515625 0 L 29.515625 29.03125 L 0.484375 29.03125 Z M 0.484375 0 " clip-rule="nonzero"/></clipPath><clipPath id="6fbe3e855f"><path d="M 4 3 L 26.832031 3 L 26.832031 26 L 4 26 Z M 4 3 " clip-rule="nonzero"/></clipPath><clipPath id="bbc6ae4c07"><path d="M 3.605469 2.902344 L 26.832031 2.902344 L 26.832031 26 L 3.605469 26 Z M 3.605469 2.902344 " clip-rule="nonzero"/></clipPath></defs><g clip-path="url(#d5181716c9)"><path fill="#ffffff" d="M 0.484375 0 L 29.515625 0 L 29.515625 29.03125 L 0.484375 29.03125 Z M 0.484375 0 " fill-opacity="1" fill-rule="nonzero"/><path fill="#ffffff" d="M 0.484375 0 L 29.515625 0 L 29.515625 29.03125 L 0.484375 29.03125 Z M 0.484375 0 " fill-opacity="1" fill-rule="nonzero"/></g><g clip-path="url(#6fbe3e855f)"><path fill="#ffffff" d="M 4.089844 3.320312 L 26.226562 3.320312 L 26.226562 25.523438 L 4.089844 25.523438 Z M 4.089844 3.320312 " fill-opacity="1" fill-rule="evenodd"/></g><path fill="#77c655" d="M 13.183594 12.667969 L 7.300781 12.667969 L 7.300781 6 L 13.183594 6 Z M 17.097656 6.523438 L 17.097656 12.710938 L 23.339844 12.710938 L 23.339844 6.523438 Z M 7.125 22.648438 L 13.445312 22.648438 L 13.445312 16.328125 L 7.125 16.328125 Z M 7.125 22.648438 " fill-opacity="1" fill-rule="nonzero"/><path fill="#539b59" d="M 16.953125 21.390625 L 18.027344 21.390625 L 18.027344 22.460938 L 16.953125 22.460938 Z M 20.992188 18.429688 L 20.992188 19.375 L 21.9375 19.375 L 21.9375 18.429688 Z M 9.304688 20.1875 L 11.152344 20.1875 L 11.152344 18.34375 L 9.304688 18.34375 Z M 9.304688 10.453125 L 11.238281 10.453125 L 11.238281 8.4375 L 9.304688 8.4375 Z M 21.078125 8.566406 L 19.101562 8.566406 L 19.101562 10.539062 L 21.078125 10.539062 Z M 21.078125 8.566406 " fill-opacity="1" fill-rule="nonzero"/><path fill="#ffffff" d="M 7.035156 6.417969 L 13.183594 6.417969 L 13.183594 7.347656 L 7.035156 7.347656 Z M 7.03125 17.457031 L 13.179688 17.457031 L 13.179688 16.527344 L 7.03125 16.527344 Z M 17.046875 6.417969 L 17.046875 7.347656 L 23.195312 7.347656 L 23.195312 6.417969 Z M 17.046875 6.417969 " fill-opacity="1" fill-rule="evenodd"/><g clip-path="url(#bbc6ae4c07)"><path fill="#36383e" d="M 6.609375 6.277344 L 6.609375 12.550781 C 6.609375 12.753906 6.773438 12.917969 6.980469 12.917969 L 13.25 12.917969 C 13.457031 12.917969 13.621094 12.753906 13.621094 12.550781 L 13.621094 6.277344 C 13.621094 6.074219 13.457031 5.90625 13.25 5.90625 L 6.980469 5.90625 C 6.773438 5.90625 6.609375 6.074219 6.609375 6.277344 Z M 7.351562 6.648438 L 12.878906 6.648438 L 12.878906 12.175781 L 7.351562 12.175781 Z M 3.605469 7.300781 L 3.605469 3.273438 C 3.605469 3.070312 3.769531 2.902344 3.976562 2.902344 L 8.003906 2.902344 C 8.207031 2.902344 8.375 3.070312 8.375 3.273438 C 8.375 3.480469 8.207031 3.644531 8.003906 3.644531 L 4.347656 3.644531 L 4.347656 7.300781 C 4.347656 7.507812 4.179688 7.671875 3.976562 7.671875 C 3.769531 7.671875 3.605469 7.507812 3.605469 7.300781 Z M 21.835938 3.273438 C 21.835938 3.070312 22 2.902344 22.207031 2.902344 L 26.234375 2.902344 C 26.4375 2.902344 26.605469 3.070312 26.605469 3.273438 L 26.605469 7.300781 C 26.605469 7.507812 26.4375 7.671875 26.234375 7.671875 C 26.027344 7.671875 25.863281 7.507812 25.863281 7.300781 L 25.863281 3.644531 L 22.207031 3.644531 C 22 3.644531 21.835938 3.480469 21.835938 3.273438 Z M 8.375 25.53125 C 8.375 25.734375 8.207031 25.902344 8.003906 25.902344 L 3.976562 25.902344 C 3.769531 25.902344 3.605469 25.734375 3.605469 25.53125 L 3.605469 21.503906 C 3.605469 21.300781 3.769531 21.132812 3.976562 21.132812 C 4.179688 21.132812 4.347656 21.300781 4.347656 21.503906 L 4.347656 25.160156 L 8.003906 25.160156 C 8.207031 25.160156 8.375 25.328125 8.375 25.53125 Z M 26.605469 21.503906 L 26.605469 25.53125 C 26.605469 25.734375 26.4375 25.902344 26.234375 25.902344 L 22.207031 25.902344 C 22 25.902344 21.835938 25.734375 21.835938 25.53125 C 21.835938 25.328125 22 25.160156 22.207031 25.160156 L 25.863281 25.160156 L 25.863281 21.503906 C 25.863281 21.300781 26.027344 21.132812 26.234375 21.132812 C 26.4375 21.132812 26.605469 21.300781 26.605469 21.503906 Z M 16.957031 12.917969 L 23.230469 12.917969 C 23.433594 12.917969 23.597656 12.753906 23.597656 12.550781 L 23.597656 6.277344 C 23.597656 6.074219 23.433594 5.90625 23.230469 5.90625 L 16.957031 5.90625 C 16.753906 5.90625 16.585938 6.074219 16.585938 6.277344 L 16.585938 12.550781 C 16.585938 12.753906 16.753906 12.917969 16.957031 12.917969 Z M 17.328125 6.648438 L 22.859375 6.648438 L 22.859375 12.175781 L 17.328125 12.175781 Z M 13.25 15.886719 L 6.980469 15.886719 C 6.773438 15.886719 6.609375 16.050781 6.609375 16.257812 L 6.609375 22.527344 C 6.609375 22.730469 6.773438 22.898438 6.980469 22.898438 L 13.25 22.898438 C 13.457031 22.898438 13.621094 22.730469 13.621094 22.527344 L 13.621094 16.257812 C 13.621094 16.050781 13.457031 15.886719 13.25 15.886719 Z M 12.878906 22.15625 L 7.351562 22.15625 L 7.351562 16.628906 L 12.878906 16.628906 Z M 18.0625 21.054688 L 16.957031 21.054688 C 16.753906 21.054688 16.585938 21.21875 16.585938 21.425781 L 16.585938 22.527344 C 16.585938 22.730469 16.753906 22.898438 16.957031 22.898438 L 18.0625 22.898438 C 18.265625 22.898438 18.433594 22.730469 18.433594 22.527344 L 18.433594 21.425781 C 18.433594 21.21875 18.265625 21.054688 18.0625 21.054688 Z M 17.691406 22.15625 L 17.328125 22.15625 L 17.328125 21.796875 L 17.691406 21.796875 Z M 15.476562 6.277344 L 15.476562 6.28125 C 15.476562 6.488281 15.308594 6.652344 15.105469 6.652344 C 14.898438 6.652344 14.734375 6.488281 14.734375 6.28125 L 14.734375 6.277344 C 14.734375 6.074219 14.898438 5.90625 15.105469 5.90625 C 15.308594 5.90625 15.476562 6.074219 15.476562 6.277344 Z M 15.476562 7.601562 L 15.476562 12.550781 C 15.476562 12.753906 15.308594 12.917969 15.105469 12.917969 C 14.898438 12.917969 14.734375 12.753906 14.734375 12.550781 L 14.734375 7.601562 C 14.734375 7.398438 14.898438 7.230469 15.105469 7.230469 C 15.308594 7.230469 15.476562 7.398438 15.476562 7.601562 Z M 15.476562 14.402344 L 15.476562 14.40625 C 15.476562 14.609375 15.308594 14.773438 15.105469 14.773438 C 14.898438 14.773438 14.734375 14.609375 14.734375 14.40625 L 14.734375 14.402344 C 14.734375 14.195312 14.898438 14.03125 15.105469 14.03125 C 15.308594 14.03125 15.476562 14.195312 15.476562 14.402344 Z M 15.476562 22.523438 L 15.476562 22.527344 C 15.476562 22.730469 15.308594 22.898438 15.105469 22.898438 C 14.898438 22.898438 14.734375 22.730469 14.734375 22.527344 L 14.734375 22.523438 C 14.734375 22.320312 14.898438 22.152344 15.105469 22.152344 C 15.308594 22.152344 15.476562 22.320312 15.476562 22.523438 Z M 15.476562 16.257812 L 15.476562 21.203125 C 15.476562 21.410156 15.308594 21.574219 15.105469 21.574219 C 14.898438 21.574219 14.734375 21.410156 14.734375 21.203125 L 14.734375 16.257812 C 14.734375 16.050781 14.898438 15.886719 15.105469 15.886719 C 15.308594 15.886719 15.476562 16.050781 15.476562 16.257812 Z M 6.984375 14.03125 C 7.1875 14.03125 7.355469 14.199219 7.355469 14.402344 C 7.355469 14.605469 7.1875 14.773438 6.984375 14.773438 L 6.980469 14.773438 C 6.773438 14.773438 6.609375 14.605469 6.609375 14.402344 C 6.609375 14.199219 6.773438 14.03125 6.980469 14.03125 Z M 13.621094 14.402344 C 13.621094 14.605469 13.457031 14.773438 13.25 14.773438 L 8.304688 14.773438 C 8.097656 14.773438 7.933594 14.605469 7.933594 14.402344 C 7.933594 14.199219 8.097656 14.03125 8.304688 14.03125 L 13.25 14.03125 C 13.457031 14.03125 13.621094 14.199219 13.621094 14.402344 Z M 23.597656 14.402344 C 23.597656 14.605469 23.433594 14.773438 23.230469 14.773438 L 23.226562 14.773438 C 23.019531 14.773438 22.855469 14.605469 22.855469 14.402344 C 22.855469 14.199219 23.019531 14.03125 23.226562 14.03125 L 23.230469 14.03125 C 23.433594 14.03125 23.597656 14.199219 23.597656 14.402344 Z M 21.90625 14.773438 L 16.957031 14.773438 C 16.753906 14.773438 16.585938 14.605469 16.585938 14.402344 C 16.585938 14.199219 16.753906 14.03125 16.957031 14.03125 L 21.90625 14.03125 C 22.109375 14.03125 22.277344 14.199219 22.277344 14.402344 C 22.277344 14.605469 22.109375 14.773438 21.90625 14.773438 Z M 11.121094 8.039062 L 9.109375 8.039062 C 8.90625 8.039062 8.738281 8.203125 8.738281 8.410156 L 8.738281 10.417969 C 8.738281 10.621094 8.90625 10.789062 9.109375 10.789062 L 11.121094 10.789062 C 11.324219 10.789062 11.492188 10.621094 11.492188 10.417969 L 11.492188 8.410156 C 11.492188 8.203125 11.324219 8.039062 11.121094 8.039062 Z M 10.75 10.046875 L 9.480469 10.046875 L 9.480469 8.78125 L 10.75 8.78125 Z M 21.097656 8.039062 L 19.089844 8.039062 C 18.882812 8.039062 18.71875 8.203125 18.71875 8.410156 L 18.71875 10.417969 C 18.71875 10.621094 18.882812 10.789062 19.089844 10.789062 L 21.097656 10.789062 C 21.304688 10.789062 21.46875 10.621094 21.46875 10.417969 L 21.46875 8.410156 C 21.46875 8.203125 21.304688 8.039062 21.097656 8.039062 Z M 20.726562 10.046875 L 19.460938 10.046875 L 19.460938 8.78125 L 20.726562 8.78125 Z M 9.109375 20.769531 L 11.121094 20.769531 C 11.324219 20.769531 11.492188 20.601562 11.492188 20.398438 L 11.492188 18.386719 C 11.492188 18.183594 11.324219 18.015625 11.121094 18.015625 L 9.109375 18.015625 C 8.90625 18.015625 8.738281 18.183594 8.738281 18.386719 L 8.738281 20.398438 C 8.738281 20.601562 8.90625 20.769531 9.109375 20.769531 Z M 9.480469 18.757812 L 10.75 18.757812 L 10.75 20.027344 L 9.480469 20.027344 Z M 16.585938 17.375 L 16.585938 16.257812 C 16.585938 16.050781 16.753906 15.886719 16.957031 15.886719 C 17.164062 15.886719 17.328125 16.050781 17.328125 16.257812 L 17.328125 17.375 C 17.328125 17.582031 17.164062 17.746094 16.957031 17.746094 C 16.753906 17.746094 16.585938 17.582031 16.585938 17.375 Z M 18.507812 16.628906 L 18.507812 17.375 C 18.507812 17.578125 18.339844 17.746094 18.136719 17.746094 C 17.933594 17.746094 17.769531 17.578125 17.769531 17.375 L 17.769531 16.257812 C 17.769531 16.050781 17.933594 15.886719 18.136719 15.886719 C 18.148438 15.886719 18.160156 15.886719 18.171875 15.890625 C 18.183594 15.886719 18.199219 15.886719 18.214844 15.886719 L 19.511719 15.886719 C 19.71875 15.886719 19.882812 16.050781 19.882812 16.257812 C 19.882812 16.460938 19.71875 16.628906 19.511719 16.628906 Z M 23.597656 16.257812 L 23.597656 22.527344 C 23.597656 22.730469 23.433594 22.898438 23.230469 22.898438 C 23.023438 22.898438 22.859375 22.730469 22.859375 22.527344 L 22.859375 16.257812 C 22.859375 16.050781 23.023438 15.886719 23.230469 15.886719 C 23.433594 15.886719 23.597656 16.050781 23.597656 16.257812 Z M 16.585938 18.4375 L 16.585938 18.433594 C 16.585938 18.230469 16.753906 18.0625 16.957031 18.0625 C 17.164062 18.0625 17.328125 18.230469 17.328125 18.433594 L 17.328125 18.4375 C 17.328125 18.644531 17.164062 18.808594 16.957031 18.808594 C 16.753906 18.808594 16.585938 18.644531 16.585938 18.4375 Z M 19.882812 17.371094 L 19.882812 17.375 C 19.882812 17.578125 19.714844 17.746094 19.511719 17.746094 C 19.308594 17.746094 19.140625 17.578125 19.140625 17.375 L 19.140625 17.371094 C 19.140625 17.167969 19.308594 17 19.511719 17 C 19.71875 17 19.882812 17.167969 19.882812 17.371094 Z M 22.429688 16.257812 C 22.429688 16.460938 22.261719 16.628906 22.058594 16.628906 L 20.769531 16.628906 C 20.566406 16.628906 20.398438 16.460938 20.398438 16.257812 C 20.398438 16.050781 20.566406 15.886719 20.769531 15.886719 L 22.058594 15.886719 C 22.261719 15.886719 22.429688 16.050781 22.429688 16.257812 Z M 16.585938 20.324219 L 16.585938 19.570312 C 16.585938 19.363281 16.753906 19.199219 16.957031 19.199219 C 17.164062 19.199219 17.328125 19.363281 17.328125 19.570312 L 17.328125 20.324219 C 17.328125 20.53125 17.164062 20.695312 16.957031 20.695312 C 16.753906 20.695312 16.585938 20.53125 16.585938 20.324219 Z M 22.058594 22.898438 L 20.769531 22.898438 C 20.566406 22.898438 20.398438 22.730469 20.398438 22.527344 C 20.398438 22.324219 20.566406 22.15625 20.769531 22.15625 L 22.058594 22.15625 C 22.261719 22.15625 22.429688 22.324219 22.429688 22.527344 C 22.429688 22.730469 22.261719 22.898438 22.058594 22.898438 Z M 20.398438 21.425781 C 20.398438 21.21875 20.566406 21.054688 20.769531 21.054688 L 22.058594 21.054688 C 22.261719 21.054688 22.429688 21.21875 22.429688 21.425781 C 22.429688 21.628906 22.261719 21.796875 22.058594 21.796875 L 20.769531 21.796875 C 20.566406 21.796875 20.398438 21.628906 20.398438 21.425781 Z M 20.3125 18.433594 C 20.3125 18.640625 20.148438 18.804688 19.941406 18.804688 L 19.09375 18.804688 C 18.890625 18.804688 18.722656 18.640625 18.722656 18.433594 C 18.722656 18.230469 18.890625 18.0625 19.09375 18.0625 L 19.941406 18.0625 C 20.148438 18.0625 20.3125 18.230469 20.3125 18.433594 Z M 19.65625 22.523438 L 19.65625 22.527344 C 19.65625 22.730469 19.488281 22.898438 19.285156 22.898438 C 19.078125 22.898438 18.914062 22.730469 18.914062 22.527344 L 18.914062 22.523438 C 18.914062 22.320312 19.078125 22.152344 19.285156 22.152344 C 19.488281 22.152344 19.65625 22.320312 19.65625 22.523438 Z M 19.65625 21.421875 L 19.65625 21.425781 C 19.65625 21.632812 19.488281 21.796875 19.285156 21.796875 C 19.078125 21.796875 18.914062 21.632812 18.914062 21.425781 L 18.914062 21.421875 C 18.914062 21.21875 19.078125 21.050781 19.285156 21.050781 C 19.488281 21.050781 19.65625 21.21875 19.65625 21.421875 Z M 18.433594 20.320312 L 18.433594 20.324219 C 18.433594 20.53125 18.265625 20.695312 18.0625 20.695312 C 17.855469 20.695312 17.691406 20.53125 17.691406 20.324219 L 17.691406 20.320312 C 17.691406 20.117188 17.855469 19.949219 18.0625 19.949219 C 18.265625 19.949219 18.433594 20.117188 18.433594 20.320312 Z M 18.433594 19.375 C 18.433594 19.582031 18.265625 19.746094 18.0625 19.746094 C 17.855469 19.746094 17.691406 19.582031 17.691406 19.375 C 17.691406 19.171875 17.855469 19.007812 18.0625 19.007812 C 18.265625 19.003906 18.433594 19.171875 18.433594 19.375 Z M 18.433594 18.4375 C 18.433594 18.644531 18.265625 18.808594 18.0625 18.808594 C 17.855469 18.808594 17.691406 18.644531 17.691406 18.4375 L 17.691406 18.433594 C 17.691406 18.230469 17.855469 18.0625 18.0625 18.0625 C 18.265625 18.0625 18.433594 18.230469 18.433594 18.433594 Z M 22.058594 17.746094 C 21.851562 17.746094 21.6875 17.582031 21.6875 17.375 L 21.6875 17.371094 C 21.6875 17.167969 21.851562 17 22.058594 17 C 22.261719 17 22.429688 17.167969 22.429688 17.371094 L 22.429688 17.375 C 22.429688 17.582031 22.261719 17.746094 22.058594 17.746094 Z M 20.101562 17.371094 C 20.101562 17.167969 20.265625 17 20.472656 17 L 21 17 C 21.203125 17 21.371094 17.167969 21.371094 17.371094 C 21.371094 17.574219 21.203125 17.742188 21 17.742188 L 20.472656 17.742188 C 20.265625 17.742188 20.101562 17.574219 20.101562 17.371094 Z M 22.429688 18.433594 C 22.429688 18.230469 22.261719 18.0625 22.058594 18.0625 L 20.953125 18.0625 C 20.75 18.0625 20.582031 18.230469 20.582031 18.433594 L 20.582031 19.539062 C 20.582031 19.742188 20.75 19.910156 20.953125 19.910156 L 22.058594 19.910156 C 22.261719 19.910156 22.429688 19.742188 22.429688 19.539062 Z M 21.6875 19.167969 L 21.324219 19.167969 L 21.324219 18.804688 L 21.6875 18.804688 Z M 20.3125 19.414062 C 20.3125 19.617188 20.148438 19.785156 19.941406 19.785156 L 19.09375 19.785156 C 18.890625 19.785156 18.722656 19.617188 18.722656 19.414062 C 18.722656 19.207031 18.890625 19.042969 19.09375 19.042969 L 19.941406 19.042969 C 20.148438 19.042969 20.3125 19.207031 20.3125 19.414062 Z M 20.3125 20.324219 C 20.3125 20.53125 20.148438 20.695312 19.941406 20.695312 L 19.09375 20.695312 C 18.890625 20.695312 18.722656 20.53125 18.722656 20.324219 C 18.722656 20.121094 18.890625 19.953125 19.09375 19.953125 L 19.941406 19.953125 C 20.148438 19.953125 20.3125 20.121094 20.3125 20.324219 Z M 20.953125 20.820312 C 20.75 20.820312 20.582031 20.652344 20.582031 20.449219 L 20.582031 20.445312 C 20.582031 20.242188 20.75 20.074219 20.953125 20.074219 C 21.160156 20.074219 21.324219 20.242188 21.324219 20.445312 L 21.324219 20.449219 C 21.324219 20.652344 21.160156 20.820312 20.953125 20.820312 Z M 22.058594 20.820312 C 21.851562 20.820312 21.6875 20.652344 21.6875 20.449219 L 21.6875 20.445312 C 21.6875 20.242188 21.851562 20.074219 22.058594 20.074219 C 22.261719 20.074219 22.429688 20.242188 22.429688 20.445312 L 22.429688 20.449219 C 22.429688 20.652344 22.261719 20.820312 22.058594 20.820312 Z M 22.058594 20.820312 " fill-opacity="1" fill-rule="nonzero"/></g></svg>