<svg xmlns="http://www.w3.org/2000/svg" xmlns:xlink="http://www.w3.org/1999/xlink" width="40" zoomAndPan="magnify" viewBox="0 0 30 30.000001" height="40" preserveAspectRatio="xMidYMid meet" version="1.0"><defs><clipPath id="3128e0cbe2"><path d="M 0.484375 0 L 29.515625 0 L 29.515625 29.03125 L 0.484375 29.03125 Z M 0.484375 0 " clip-rule="nonzero"/></clipPath><clipPath id="219e3fb500"><path d="M 11 20 L 13 20 L 13 21.84375 L 11 21.84375 Z M 11 20 " clip-rule="nonzero"/></clipPath><clipPath id="cae24c80e5"><path d="M 14 20 L 16 20 L 16 21.84375 L 14 21.84375 Z M 14 20 " clip-rule="nonzero"/></clipPath><clipPath id="a0689276ad"><path d="M 19 20 L 21 20 L 21 21.84375 L 19 21.84375 Z M 19 20 " clip-rule="nonzero"/></clipPath><clipPath id="d62814d86a"><path d="M 7.394531 11 L 18 11 L 18 19 L 7.394531 19 Z M 7.394531 11 " clip-rule="nonzero"/></clipPath><clipPath id="bed9cd4d87"><path d="M 7.394531 7.328125 L 18 7.328125 L 18 12 L 7.394531 12 Z M 7.394531 7.328125 " clip-rule="nonzero"/></clipPath><clipPath id="3e82c5b7ee"><path d="M 18 15 L 22.636719 15 L 22.636719 21 L 18 21 Z M 18 15 " clip-rule="nonzero"/></clipPath><clipPath id="94cd95140a"><path d="M 19 19 L 22 19 L 22 21.84375 L 19 21.84375 Z M 19 19 " clip-rule="nonzero"/></clipPath><clipPath id="bbbe44d69a"><path d="M 13 19 L 17 19 L 17 21.84375 L 13 21.84375 Z M 13 19 " clip-rule="nonzero"/></clipPath><clipPath id="1e9006a946"><path d="M 11 19 L 14 19 L 14 21.84375 L 11 21.84375 Z M 11 19 " clip-rule="nonzero"/></clipPath></defs><g clip-path="url(#3128e0cbe2)"><path fill="#ffffff" d="M 0.484375 0 L 29.515625 0 L 29.515625 29.03125 L 0.484375 29.03125 Z M 0.484375 0 " fill-opacity="1" fill-rule="nonzero"/><path fill="#ffffff" d="M 0.484375 0 L 29.515625 0 L 29.515625 29.03125 L 0.484375 29.03125 Z M 0.484375 0 " fill-opacity="1" fill-rule="nonzero"/></g><path fill="#76c554" d="M 12.445312 11.019531 C 11.925781 11.019531 11.503906 10.597656 11.503906 10.082031 C 11.503906 9.5625 11.925781 9.140625 12.445312 9.140625 C 12.964844 9.140625 13.382812 9.5625 13.382812 10.082031 C 13.382812 10.597656 12.964844 11.019531 12.445312 11.019531 Z M 12.445312 9.472656 C 12.109375 9.472656 11.835938 9.746094 11.835938 10.082031 C 11.835938 10.417969 12.109375 10.6875 12.445312 10.6875 C 12.78125 10.6875 13.054688 10.417969 13.054688 10.082031 C 13.054688 9.746094 12.78125 9.472656 12.445312 9.472656 Z M 12.445312 9.472656 " fill-opacity="1" fill-rule="nonzero"/><path fill="#76c554" d="M 15.742188 13.679688 L 9.152344 13.679688 C 9.058594 13.679688 8.984375 13.605469 8.984375 13.511719 C 8.984375 13.417969 9.0625 13.347656 9.152344 13.347656 L 15.742188 13.347656 C 15.832031 13.347656 15.90625 13.417969 15.90625 13.511719 C 15.90625 13.605469 15.832031 13.679688 15.742188 13.679688 Z M 15.742188 13.679688 " fill-opacity="1" fill-rule="nonzero"/><path fill="#76c554" d="M 15.742188 12.738281 L 9.152344 12.738281 C 9.058594 12.738281 8.984375 12.667969 8.984375 12.574219 C 8.984375 12.480469 9.0625 12.40625 9.152344 12.40625 L 15.742188 12.40625 C 15.832031 12.40625 15.90625 12.480469 15.90625 12.574219 C 15.90625 12.667969 15.832031 12.738281 15.742188 12.738281 Z M 15.742188 12.738281 " fill-opacity="1" fill-rule="nonzero"/><path fill="#76c554" d="M 13.796875 18.011719 L 12.917969 18.011719 C 12.828125 18.011719 12.753906 17.941406 12.753906 17.847656 C 12.753906 17.753906 12.824219 17.679688 12.917969 17.679688 L 13.796875 17.679688 C 13.886719 17.679688 13.960938 17.753906 13.960938 17.847656 C 13.960938 17.941406 13.890625 18.011719 13.796875 18.011719 Z M 13.796875 18.011719 " fill-opacity="1" fill-rule="nonzero"/><path fill="#76c554" d="M 13.714844 16.804688 C 13.683594 16.804688 13.660156 16.796875 13.632812 16.78125 C 13.578125 16.753906 13.542969 16.695312 13.542969 16.636719 L 13.542969 15.199219 C 13.542969 15.109375 13.617188 15.035156 13.710938 15.035156 L 14.621094 15.035156 C 14.710938 15.035156 14.789062 15.105469 14.789062 15.199219 L 14.789062 16.636719 C 14.789062 16.699219 14.753906 16.753906 14.703125 16.78125 C 14.644531 16.8125 14.582031 16.808594 14.53125 16.777344 L 14.164062 16.53125 L 13.804688 16.777344 C 13.777344 16.792969 13.746094 16.804688 13.714844 16.804688 Z M 14.164062 16.164062 C 14.195312 16.164062 14.230469 16.175781 14.257812 16.191406 L 14.464844 16.328125 L 14.464844 15.363281 L 13.882812 15.363281 L 13.882812 16.324219 L 14.074219 16.191406 C 14.101562 16.175781 14.136719 16.164062 14.164062 16.164062 Z M 14.164062 16.164062 " fill-opacity="1" fill-rule="nonzero"/><path fill="#76c554" d="M 13.796875 17.398438 L 12.917969 17.398438 C 12.828125 17.398438 12.753906 17.324219 12.753906 17.230469 C 12.753906 17.140625 12.824219 17.066406 12.917969 17.066406 L 13.796875 17.066406 C 13.886719 17.066406 13.960938 17.140625 13.960938 17.230469 C 13.960938 17.324219 13.890625 17.398438 13.796875 17.398438 Z M 13.796875 17.398438 " fill-opacity="1" fill-rule="nonzero"/><path fill="#76c554" d="M 15.421875 17.398438 L 14.542969 17.398438 C 14.453125 17.398438 14.375 17.324219 14.375 17.230469 C 14.375 17.140625 14.449219 17.066406 14.542969 17.066406 L 15.421875 17.066406 C 15.511719 17.066406 15.585938 17.140625 15.585938 17.230469 C 15.585938 17.324219 15.511719 17.398438 15.421875 17.398438 Z M 15.421875 17.398438 " fill-opacity="1" fill-rule="nonzero"/><path fill="#76c554" d="M 15.421875 18.011719 L 14.542969 18.011719 C 14.453125 18.011719 14.375 17.941406 14.375 17.847656 C 14.375 17.753906 14.449219 17.679688 14.542969 17.679688 L 15.421875 17.679688 C 15.511719 17.679688 15.585938 17.753906 15.585938 17.847656 C 15.585938 17.941406 15.511719 18.011719 15.421875 18.011719 Z M 15.421875 18.011719 " fill-opacity="1" fill-rule="nonzero"/><g clip-path="url(#219e3fb500)"><path fill="#76c554" d="M 12.289062 21.070312 C 12.027344 21.070312 11.816406 20.859375 11.816406 20.59375 C 11.816406 20.332031 12.027344 20.121094 12.289062 20.121094 C 12.550781 20.121094 12.761719 20.332031 12.761719 20.59375 C 12.761719 20.859375 12.550781 21.070312 12.289062 21.070312 Z M 12.289062 20.453125 C 12.210938 20.453125 12.148438 20.515625 12.148438 20.59375 C 12.148438 20.675781 12.210938 20.738281 12.289062 20.738281 C 12.367188 20.738281 12.429688 20.675781 12.429688 20.59375 C 12.429688 20.515625 12.367188 20.453125 12.289062 20.453125 Z M 12.289062 20.453125 " fill-opacity="1" fill-rule="nonzero"/></g><g clip-path="url(#cae24c80e5)"><path fill="#76c554" d="M 15.097656 21.070312 C 14.832031 21.070312 14.621094 20.859375 14.621094 20.59375 C 14.621094 20.332031 14.832031 20.121094 15.097656 20.121094 C 15.359375 20.121094 15.570312 20.332031 15.570312 20.59375 C 15.570312 20.859375 15.355469 21.070312 15.097656 21.070312 Z M 15.097656 20.453125 C 15.015625 20.453125 14.953125 20.515625 14.953125 20.59375 C 14.953125 20.675781 15.015625 20.738281 15.097656 20.738281 C 15.175781 20.738281 15.238281 20.675781 15.238281 20.59375 C 15.238281 20.515625 15.175781 20.453125 15.097656 20.453125 Z M 15.097656 20.453125 " fill-opacity="1" fill-rule="nonzero"/></g><path fill="#76c554" d="M 19.570312 18.882812 L 19.074219 18.882812 C 18.984375 18.882812 18.910156 18.808594 18.910156 18.714844 C 18.910156 18.621094 18.980469 18.550781 19.074219 18.550781 L 19.570312 18.550781 C 19.660156 18.550781 19.738281 18.621094 19.738281 18.714844 C 19.738281 18.808594 19.660156 18.882812 19.570312 18.882812 Z M 19.570312 18.882812 " fill-opacity="1" fill-rule="nonzero"/><g clip-path="url(#a0689276ad)"><path fill="#76c554" d="M 20.339844 21.070312 C 20.078125 21.070312 19.867188 20.859375 19.867188 20.59375 C 19.867188 20.332031 20.078125 20.121094 20.339844 20.121094 C 20.601562 20.121094 20.8125 20.332031 20.8125 20.59375 C 20.8125 20.859375 20.597656 21.070312 20.339844 21.070312 Z M 20.339844 20.453125 C 20.257812 20.453125 20.199219 20.515625 20.199219 20.59375 C 20.199219 20.675781 20.257812 20.738281 20.339844 20.738281 C 20.417969 20.738281 20.480469 20.675781 20.480469 20.59375 C 20.480469 20.515625 20.414062 20.453125 20.339844 20.453125 Z M 20.339844 20.453125 " fill-opacity="1" fill-rule="nonzero"/></g><path fill="#76c554" d="M 21.605469 18.320312 L 19.070312 18.320312 C 18.980469 18.320312 18.90625 18.25 18.90625 18.15625 L 18.90625 16.25 C 18.90625 16.160156 18.976562 16.085938 19.070312 16.085938 L 20.828125 16.085938 C 20.898438 16.085938 20.957031 16.125 20.984375 16.1875 L 21.757812 18.097656 C 21.777344 18.148438 21.769531 18.207031 21.738281 18.25 C 21.710938 18.292969 21.660156 18.320312 21.605469 18.320312 Z M 19.238281 17.988281 L 21.355469 17.988281 L 20.71875 16.414062 L 19.238281 16.414062 Z M 19.238281 17.988281 " fill-opacity="1" fill-rule="nonzero"/><g clip-path="url(#d62814d86a)"><path fill="#000000" d="M 9.152344 18.242188 L 7.960938 18.242188 C 7.867188 18.242188 7.796875 18.167969 7.796875 18.074219 L 7.796875 11.257812 C 7.796875 11.167969 7.871094 11.09375 7.960938 11.09375 C 8.050781 11.09375 8.128906 11.167969 8.128906 11.257812 L 8.128906 17.910156 L 8.984375 17.910156 L 8.984375 11.632812 C 8.984375 11.542969 9.0625 11.46875 9.152344 11.46875 L 15.742188 11.46875 C 15.832031 11.46875 15.90625 11.539062 15.90625 11.632812 L 15.90625 14.488281 C 15.90625 14.578125 15.835938 14.652344 15.742188 14.652344 C 15.648438 14.652344 15.574219 14.582031 15.574219 14.488281 L 15.574219 11.796875 L 9.316406 11.796875 L 9.316406 18.074219 C 9.316406 18.167969 9.242188 18.242188 9.152344 18.242188 Z M 16.925781 14.65625 C 16.835938 14.65625 16.761719 14.585938 16.761719 14.492188 L 16.761719 11.261719 C 16.761719 11.171875 16.835938 11.097656 16.925781 11.097656 C 17.019531 11.097656 17.09375 11.167969 17.09375 11.261719 L 17.09375 14.492188 C 17.09375 14.582031 17.019531 14.65625 16.925781 14.65625 Z M 16.925781 14.65625 " fill-opacity="1" fill-rule="nonzero"/></g><path fill="#000000" d="M 10.09375 18.242188 L 9.152344 18.242188 C 9.058594 18.242188 8.984375 18.167969 8.984375 18.074219 C 8.984375 17.980469 9.0625 17.910156 9.152344 17.910156 L 10.09375 17.910156 C 10.1875 17.910156 10.261719 17.980469 10.261719 18.074219 C 10.261719 18.167969 10.183594 18.242188 10.09375 18.242188 Z M 10.09375 18.242188 " fill-opacity="1" fill-rule="nonzero"/><g clip-path="url(#bed9cd4d87)"><path fill="#000000" d="M 7.960938 11.429688 C 7.921875 11.429688 7.886719 11.425781 7.847656 11.417969 C 7.699219 11.386719 7.574219 11.304688 7.492188 11.175781 C 7.320312 10.917969 7.390625 10.566406 7.648438 10.394531 L 12.121094 7.433594 C 12.125 7.429688 12.128906 7.425781 12.132812 7.421875 C 12.332031 7.292969 12.59375 7.296875 12.785156 7.441406 L 17.238281 10.390625 C 17.363281 10.476562 17.449219 10.601562 17.480469 10.746094 C 17.511719 10.894531 17.480469 11.046875 17.398438 11.167969 C 17.226562 11.429688 16.875 11.5 16.617188 11.328125 L 12.445312 8.5625 L 8.273438 11.328125 C 8.179688 11.394531 8.070312 11.429688 7.960938 11.429688 Z M 12.328125 7.691406 C 12.324219 7.695312 12.320312 7.699219 12.316406 7.699219 L 7.832031 10.671875 C 7.726562 10.742188 7.699219 10.886719 7.769531 10.992188 C 7.800781 11.046875 7.855469 11.078125 7.914062 11.09375 C 7.976562 11.105469 8.035156 11.09375 8.085938 11.058594 L 12.351562 8.230469 C 12.40625 8.195312 12.480469 8.195312 12.535156 8.230469 L 16.800781 11.058594 C 16.90625 11.128906 17.046875 11.101562 17.121094 10.992188 C 17.15625 10.941406 17.167969 10.878906 17.15625 10.820312 C 17.140625 10.757812 17.105469 10.707031 17.054688 10.675781 L 12.597656 7.714844 C 12.59375 7.714844 12.589844 7.714844 12.585938 7.710938 C 12.511719 7.652344 12.410156 7.644531 12.328125 7.691406 Z M 7.742188 10.535156 Z M 7.742188 10.535156 " fill-opacity="1" fill-rule="nonzero"/></g><g clip-path="url(#3e82c5b7ee)"><path fill="#000000" d="M 22.429688 20.761719 L 21.277344 20.761719 C 21.1875 20.761719 21.109375 20.6875 21.109375 20.59375 C 21.109375 20.503906 21.183594 20.429688 21.277344 20.429688 L 22.265625 20.429688 L 22.265625 18.027344 L 21.28125 15.589844 L 18.410156 15.589844 L 18.410156 20.429688 L 19.398438 20.429688 C 19.488281 20.429688 19.566406 20.503906 19.566406 20.59375 C 19.566406 20.6875 19.492188 20.761719 19.398438 20.761719 L 18.246094 20.761719 C 18.15625 20.761719 18.078125 20.6875 18.078125 20.59375 L 18.078125 15.425781 C 18.078125 15.335938 18.152344 15.257812 18.246094 15.257812 L 21.390625 15.257812 C 21.460938 15.257812 21.519531 15.300781 21.546875 15.363281 L 22.585938 17.933594 C 22.59375 17.953125 22.601562 17.976562 22.601562 17.996094 L 22.601562 20.59375 C 22.597656 20.683594 22.523438 20.761719 22.429688 20.761719 Z M 22.429688 20.761719 " fill-opacity="1" fill-rule="nonzero"/></g><path fill="#000000" d="M 18.246094 20.761719 L 16.03125 20.761719 C 15.941406 20.761719 15.867188 20.6875 15.867188 20.59375 C 15.867188 20.503906 15.9375 20.429688 16.03125 20.429688 L 18.246094 20.429688 C 18.335938 20.429688 18.410156 20.503906 18.410156 20.59375 C 18.410156 20.6875 18.339844 20.761719 18.246094 20.761719 Z M 14.15625 20.761719 L 13.226562 20.761719 C 13.136719 20.761719 13.058594 20.6875 13.058594 20.59375 C 13.058594 20.503906 13.132812 20.429688 13.226562 20.429688 L 14.15625 20.429688 C 14.246094 20.429688 14.320312 20.503906 14.320312 20.59375 C 14.320312 20.6875 14.25 20.761719 14.15625 20.761719 Z M 11.351562 20.761719 L 10.09375 20.761719 C 10 20.761719 9.929688 20.6875 9.929688 20.59375 L 9.929688 19.152344 C 9.929688 19.0625 10.003906 18.984375 10.09375 18.984375 C 10.183594 18.984375 10.261719 19.058594 10.261719 19.152344 L 10.261719 20.429688 L 11.351562 20.429688 C 11.441406 20.429688 11.519531 20.503906 11.519531 20.59375 C 11.519531 20.6875 11.441406 20.761719 11.351562 20.761719 Z M 11.351562 20.761719 " fill-opacity="1" fill-rule="nonzero"/><g clip-path="url(#94cd95140a)"><path fill="#000000" d="M 20.339844 21.699219 C 19.730469 21.699219 19.238281 21.203125 19.238281 20.59375 C 19.238281 19.988281 19.730469 19.492188 20.339844 19.492188 C 20.949219 19.492188 21.441406 19.988281 21.441406 20.59375 C 21.441406 21.203125 20.949219 21.699219 20.339844 21.699219 Z M 20.339844 19.820312 C 19.914062 19.820312 19.570312 20.167969 19.570312 20.59375 C 19.570312 21.015625 19.914062 21.363281 20.339844 21.363281 C 20.765625 21.363281 21.109375 21.015625 21.109375 20.59375 C 21.109375 20.171875 20.765625 19.820312 20.339844 19.820312 Z M 20.339844 19.820312 " fill-opacity="1" fill-rule="nonzero"/></g><g clip-path="url(#bbbe44d69a)"><path fill="#000000" d="M 15.097656 21.699219 C 14.488281 21.699219 13.992188 21.203125 13.992188 20.59375 C 13.992188 19.988281 14.488281 19.492188 15.097656 19.492188 C 15.703125 19.492188 16.199219 19.984375 16.199219 20.59375 C 16.199219 21.207031 15.703125 21.699219 15.097656 21.699219 Z M 15.097656 19.820312 C 14.671875 19.820312 14.324219 20.167969 14.324219 20.59375 C 14.324219 21.015625 14.671875 21.363281 15.097656 21.363281 C 15.519531 21.363281 15.867188 21.015625 15.867188 20.59375 C 15.867188 20.171875 15.519531 19.820312 15.097656 19.820312 Z M 15.097656 19.820312 " fill-opacity="1" fill-rule="nonzero"/></g><g clip-path="url(#1e9006a946)"><path fill="#000000" d="M 12.289062 21.699219 C 11.679688 21.699219 11.1875 21.203125 11.1875 20.59375 C 11.1875 19.988281 11.679688 19.492188 12.289062 19.492188 C 12.898438 19.492188 13.390625 19.988281 13.390625 20.59375 C 13.390625 21.203125 12.898438 21.699219 12.289062 21.699219 Z M 12.289062 19.820312 C 11.863281 19.820312 11.519531 20.167969 11.519531 20.59375 C 11.519531 21.015625 11.863281 21.363281 12.289062 21.363281 C 12.714844 21.363281 13.058594 21.015625 13.058594 20.59375 C 13.0625 20.171875 12.714844 19.820312 12.289062 19.820312 Z M 12.289062 19.820312 " fill-opacity="1" fill-rule="nonzero"/></g><path fill="#000000" d="M 18.246094 19.316406 L 10.09375 19.316406 C 10 19.316406 9.929688 19.242188 9.929688 19.152344 L 9.929688 14.492188 C 9.929688 14.402344 10.003906 14.324219 10.09375 14.324219 L 18.246094 14.324219 C 18.339844 14.324219 18.414062 14.398438 18.414062 14.492188 L 18.414062 15.425781 C 18.414062 15.515625 18.339844 15.589844 18.246094 15.589844 C 18.15625 15.589844 18.082031 15.519531 18.082031 15.425781 L 18.082031 14.65625 L 10.261719 14.65625 L 10.261719 18.984375 L 18.246094 18.984375 C 18.339844 18.984375 18.414062 19.058594 18.414062 19.152344 C 18.414062 19.242188 18.339844 19.316406 18.246094 19.316406 Z M 18.246094 19.316406 " fill-opacity="1" fill-rule="nonzero"/><path fill="#000000" d="M 15.679688 18.609375 L 12.660156 18.609375 C 12.347656 18.609375 12.09375 18.355469 12.09375 18.042969 L 12.09375 15.59375 C 12.09375 15.28125 12.347656 15.03125 12.660156 15.03125 L 15.679688 15.03125 C 15.992188 15.03125 16.242188 15.28125 16.242188 15.59375 L 16.242188 18.042969 C 16.242188 18.355469 15.992188 18.609375 15.679688 18.609375 Z M 12.660156 15.367188 C 12.53125 15.367188 12.425781 15.46875 12.425781 15.597656 L 12.425781 18.046875 C 12.425781 18.175781 12.53125 18.28125 12.660156 18.28125 L 15.679688 18.28125 C 15.808594 18.28125 15.910156 18.175781 15.910156 18.046875 L 15.910156 15.59375 C 15.910156 15.464844 15.808594 15.363281 15.679688 15.363281 Z M 12.660156 15.367188 " fill-opacity="1" fill-rule="nonzero"/></svg>