<svg xmlns="http://www.w3.org/2000/svg" xmlns:xlink="http://www.w3.org/1999/xlink" width="40" zoomAndPan="magnify" viewBox="0 0 30 30.000001" height="40" preserveAspectRatio="xMidYMid meet" version="1.0"><defs><clipPath id="4dbda20029"><path d="M 0.484375 0 L 29.515625 0 L 29.515625 29.03125 L 0.484375 29.03125 Z M 0.484375 0 " clip-rule="nonzero"/></clipPath><clipPath id="aa20334e63"><path d="M 10 7.308594 L 20 7.308594 L 20 17 L 10 17 Z M 10 7.308594 " clip-rule="nonzero"/></clipPath><clipPath id="aa1d8fdbf5"><path d="M 7.976562 9 L 21.765625 9 L 21.765625 21.824219 L 7.976562 21.824219 Z M 7.976562 9 " clip-rule="nonzero"/></clipPath></defs><g clip-path="url(#4dbda20029)"><path fill="#ffffff" d="M 0.484375 0 L 29.515625 0 L 29.515625 29.03125 L 0.484375 29.03125 Z M 0.484375 0 " fill-opacity="1" fill-rule="nonzero"/><path fill="#ffffff" d="M 0.484375 0 L 29.515625 0 L 29.515625 29.03125 L 0.484375 29.03125 Z M 0.484375 0 " fill-opacity="1" fill-rule="nonzero"/></g><g clip-path="url(#aa20334e63)"><path fill="#76c554" d="M 19.339844 11.667969 C 19.339844 14.066406 17.394531 16.011719 14.996094 16.011719 C 12.59375 16.011719 10.648438 14.066406 10.648438 11.667969 C 10.648438 9.265625 12.59375 7.320312 14.996094 7.320312 C 17.394531 7.320312 19.339844 9.265625 19.339844 11.667969 Z M 19.339844 11.667969 " fill-opacity="1" fill-rule="nonzero"/></g><g clip-path="url(#aa1d8fdbf5)"><path fill="#333333" d="M 21.890625 21.464844 L 19.722656 21.464844 L 19.722656 16.074219 C 19.722656 16.039062 19.707031 16.003906 19.683594 15.980469 C 19.65625 15.960938 19.621094 15.949219 19.589844 15.953125 L 16.585938 16.308594 L 16.585938 11.4375 C 16.585938 11.390625 16.558594 11.347656 16.519531 11.328125 L 12.417969 9.292969 C 12.382812 9.273438 12.335938 9.277344 12.300781 9.296875 C 12.265625 9.320312 12.242188 9.359375 12.242188 9.402344 L 12.242188 12.390625 L 10.320312 13.683594 C 10.285156 13.703125 10.265625 13.742188 10.265625 13.78125 L 10.265625 21.464844 L 8.097656 21.464844 C 8.027344 21.464844 7.976562 21.519531 7.976562 21.585938 C 7.976562 21.652344 8.027344 21.707031 8.097656 21.707031 L 10.386719 21.707031 C 10.453125 21.707031 10.507812 21.652344 10.507812 21.585938 L 10.507812 13.847656 L 12.242188 12.683594 L 12.242188 21.585938 C 12.242188 21.652344 12.296875 21.707031 12.363281 21.707031 L 13.042969 21.707031 C 13.109375 21.707031 13.164062 21.652344 13.164062 21.585938 L 13.164062 12 C 13.164062 11.957031 13.140625 11.914062 13.101562 11.894531 C 13.0625 11.875 13.011719 11.875 12.976562 11.902344 L 12.484375 12.230469 L 12.484375 9.59375 L 16.34375 11.511719 L 16.34375 16.335938 L 15.777344 16.40625 C 15.714844 16.410156 15.671875 16.464844 15.671875 16.523438 L 15.671875 21.585938 C 15.671875 21.652344 15.722656 21.707031 15.789062 21.707031 L 16.464844 21.707031 C 16.53125 21.707031 16.585938 21.652344 16.585938 21.585938 L 16.585938 16.550781 L 19.480469 16.207031 L 19.480469 21.585938 C 19.480469 21.652344 19.535156 21.707031 19.601562 21.707031 L 21.890625 21.707031 C 21.960938 21.707031 22.011719 21.652344 22.011719 21.585938 C 22.011719 21.519531 21.960938 21.464844 21.890625 21.464844 Z M 12.921875 21.464844 L 12.484375 21.464844 L 12.484375 12.519531 L 12.921875 12.226562 Z M 16.34375 16.582031 L 16.34375 21.464844 L 15.910156 21.464844 L 15.910156 16.632812 Z M 16.34375 16.582031 " fill-opacity="1" fill-rule="nonzero"/></g></svg>