<svg xmlns="http://www.w3.org/2000/svg" xmlns:xlink="http://www.w3.org/1999/xlink" width="40" zoomAndPan="magnify" viewBox="0 0 30 30.000001" height="40" preserveAspectRatio="xMidYMid meet" version="1.0"><defs><clipPath id="6b76fb1197"><path d="M 0.484375 0 L 29.515625 0 L 29.515625 29.03125 L 0.484375 29.03125 Z M 0.484375 0 " clip-rule="nonzero"/></clipPath><clipPath id="f13393c2aa"><path d="M 19 13 L 23.710938 13 L 23.710938 19 L 19 19 Z M 19 13 " clip-rule="nonzero"/></clipPath><clipPath id="837fcb7c8a"><path d="M 23.683594 15.925781 C 23.683594 16.199219 23.628906 16.464844 23.523438 16.722656 C 23.417969 16.976562 23.269531 17.203125 23.074219 17.398438 C 22.878906 17.59375 22.652344 17.742188 22.398438 17.847656 C 22.140625 17.953125 21.875 18.007812 21.601562 18.007812 C 21.324219 18.007812 21.058594 17.953125 20.804688 17.847656 C 20.546875 17.742188 20.324219 17.59375 20.128906 17.398438 C 19.933594 17.203125 19.78125 16.976562 19.675781 16.722656 C 19.570312 16.464844 19.519531 16.199219 19.519531 15.925781 C 19.519531 15.648438 19.570312 15.382812 19.675781 15.128906 C 19.78125 14.871094 19.933594 14.648438 20.128906 14.453125 C 20.324219 14.257812 20.546875 14.105469 20.804688 14 C 21.058594 13.894531 21.324219 13.84375 21.601562 13.84375 C 21.875 13.84375 22.140625 13.894531 22.398438 14 C 22.652344 14.105469 22.878906 14.257812 23.074219 14.453125 C 23.269531 14.648438 23.417969 14.871094 23.523438 15.128906 C 23.628906 15.382812 23.683594 15.648438 23.683594 15.925781 Z M 23.683594 15.925781 " clip-rule="nonzero"/></clipPath><linearGradient x1="298.48999" gradientTransform="matrix(0.0757459, 0, 0, 0.0757459, -1.008896, -1.682136)" y1="204.953001" x2="298.48999" gradientUnits="userSpaceOnUse" y2="259.945009" id="dcc1d773f4"><stop stop-opacity="1" stop-color="rgb(46.59729%, 77.578735%, 33.259583%)" offset="0"/><stop stop-opacity="1" stop-color="rgb(46.549988%, 77.531433%, 33.213806%)" offset="0.5"/><stop stop-opacity="1" stop-color="rgb(46.456909%, 77.436829%, 33.122253%)" offset="1"/></linearGradient><clipPath id="e28cc17799"><path d="M 7 6.390625 L 18 6.390625 L 18 17 L 7 17 Z M 7 6.390625 " clip-rule="nonzero"/></clipPath><clipPath id="6e6507d509"><path d="M 6.289062 6.390625 L 10 6.390625 L 10 13 L 6.289062 13 Z M 6.289062 6.390625 " clip-rule="nonzero"/></clipPath><clipPath id="b8fec7ff09"><path d="M 9 6.390625 L 11 6.390625 L 11 8 L 9 8 Z M 9 6.390625 " clip-rule="nonzero"/></clipPath><clipPath id="2a29bbc2f5"><path d="M 10.234375 6.882812 C 10.234375 7.015625 10.1875 7.128906 10.089844 7.226562 C 9.996094 7.320312 9.882812 7.367188 9.75 7.367188 C 9.613281 7.367188 9.5 7.320312 9.40625 7.226562 C 9.308594 7.128906 9.261719 7.015625 9.261719 6.882812 C 9.261719 6.746094 9.308594 6.632812 9.40625 6.539062 C 9.5 6.441406 9.613281 6.394531 9.75 6.394531 C 9.882812 6.394531 9.996094 6.441406 10.089844 6.539062 C 10.1875 6.632812 10.234375 6.746094 10.234375 6.882812 Z M 10.234375 6.882812 " clip-rule="nonzero"/></clipPath><linearGradient x1="142.014999" gradientTransform="matrix(0.0757459, 0, 0, 0.0757459, -1.008896, -1.682136)" y1="106.643003" x2="142.014999" gradientUnits="userSpaceOnUse" y2="119.471006" id="f99ac9ae54"><stop stop-opacity="1" stop-color="rgb(46.669006%, 77.648926%, 33.329773%)" offset="0"/><stop stop-opacity="1" stop-color="rgb(46.568298%, 77.548218%, 33.232117%)" offset="0.5"/><stop stop-opacity="1" stop-color="rgb(46.368408%, 77.348328%, 33.036804%)" offset="1"/></linearGradient><clipPath id="7e09554fc5"><path d="M 13 6.390625 L 15 6.390625 L 15 8 L 13 8 Z M 13 6.390625 " clip-rule="nonzero"/></clipPath><clipPath id="4072e39187"><path d="M 14.558594 6.882812 C 14.558594 7.015625 14.511719 7.128906 14.417969 7.226562 C 14.320312 7.320312 14.207031 7.367188 14.074219 7.367188 C 13.9375 7.367188 13.824219 7.320312 13.730469 7.226562 C 13.632812 7.128906 13.585938 7.015625 13.585938 6.882812 C 13.585938 6.746094 13.632812 6.632812 13.730469 6.539062 C 13.824219 6.441406 13.9375 6.394531 14.074219 6.394531 C 14.207031 6.394531 14.320312 6.441406 14.417969 6.539062 C 14.511719 6.632812 14.558594 6.746094 14.558594 6.882812 Z M 14.558594 6.882812 " clip-rule="nonzero"/></clipPath><linearGradient x1="199.11099" gradientTransform="matrix(0.0757459, 0, 0, 0.0757459, -1.008896, -1.682136)" y1="106.643003" x2="199.11099" gradientUnits="userSpaceOnUse" y2="119.471006" id="8924ce2e76"><stop stop-opacity="1" stop-color="rgb(46.669006%, 77.648926%, 33.329773%)" offset="0"/><stop stop-opacity="1" stop-color="rgb(46.568298%, 77.548218%, 33.232117%)" offset="0.5"/><stop stop-opacity="1" stop-color="rgb(46.368408%, 77.348328%, 33.036804%)" offset="1"/></linearGradient><clipPath id="9c7dd08984"><path d="M 11 16 L 22 16 L 22 22.359375 L 11 22.359375 Z M 11 16 " clip-rule="nonzero"/></clipPath><clipPath id="bf224001cb"><path d="M 6.289062 11 L 14 11 L 14 15 L 6.289062 15 Z M 6.289062 11 " clip-rule="nonzero"/></clipPath></defs><g clip-path="url(#6b76fb1197)"><path fill="#ffffff" d="M 0.484375 0 L 29.515625 0 L 29.515625 29.03125 L 0.484375 29.03125 Z M 0.484375 0 " fill-opacity="1" fill-rule="nonzero"/><path fill="#ffffff" d="M 0.484375 0 L 29.515625 0 L 29.515625 29.03125 L 0.484375 29.03125 Z M 0.484375 0 " fill-opacity="1" fill-rule="nonzero"/></g><g clip-path="url(#f13393c2aa)"><g clip-path="url(#837fcb7c8a)"><path fill="url(#dcc1d773f4)" d="M 19.519531 13.84375 L 19.519531 18.007812 L 23.683594 18.007812 L 23.683594 13.84375 Z M 19.519531 13.84375 " fill-rule="nonzero"/></g></g><g clip-path="url(#e28cc17799)"><path fill="#050607" d="M 11.925781 16.742188 C 11.890625 16.742188 11.859375 16.734375 11.828125 16.714844 C 11.742188 16.664062 9.628906 15.4375 8.035156 13.507812 C 7.96875 13.429688 7.980469 13.308594 8.058594 13.242188 C 8.140625 13.175781 8.257812 13.1875 8.328125 13.265625 C 9.691406 14.917969 11.496094 16.070312 11.925781 16.332031 C 12.601562 15.917969 16.6875 13.289062 17.117188 9.96875 C 17.140625 9.824219 17.152344 9.683594 17.152344 9.546875 C 17.152344 8.15625 16.023438 7.027344 14.632812 7.027344 C 14.527344 7.027344 14.445312 6.941406 14.445312 6.835938 C 14.445312 6.734375 14.527344 6.648438 14.632812 6.648438 C 16.230469 6.648438 17.53125 7.949219 17.53125 9.546875 C 17.53125 9.703125 17.519531 9.863281 17.492188 10.023438 C 17.003906 13.804688 12.222656 16.597656 12.019531 16.714844 C 11.988281 16.734375 11.957031 16.742188 11.925781 16.742188 Z M 11.925781 16.742188 " fill-opacity="1" fill-rule="nonzero"/></g><g clip-path="url(#6e6507d509)"><path fill="#050607" d="M 7.636719 12.855469 C 7.578125 12.855469 7.515625 12.828125 7.480469 12.773438 C 6.851562 11.851562 6.472656 10.921875 6.355469 10.015625 C 6.328125 9.863281 6.316406 9.703125 6.316406 9.546875 C 6.316406 7.949219 7.617188 6.648438 9.214844 6.648438 C 9.320312 6.648438 9.40625 6.734375 9.40625 6.839844 C 9.40625 6.941406 9.320312 7.027344 9.214844 7.027344 C 7.824219 7.027344 6.695312 8.15625 6.695312 9.546875 C 6.695312 9.683594 6.707031 9.824219 6.730469 9.960938 C 6.839844 10.816406 7.199219 11.6875 7.792969 12.5625 C 7.851562 12.648438 7.832031 12.765625 7.742188 12.824219 C 7.710938 12.847656 7.675781 12.855469 7.636719 12.855469 Z M 7.636719 12.855469 " fill-opacity="1" fill-rule="nonzero"/></g><g clip-path="url(#b8fec7ff09)"><g clip-path="url(#2a29bbc2f5)"><path fill="url(#f99ac9ae54)" d="M 9.261719 6.394531 L 9.261719 7.367188 L 10.234375 7.367188 L 10.234375 6.394531 Z M 9.261719 6.394531 " fill-rule="nonzero"/></g></g><g clip-path="url(#7e09554fc5)"><g clip-path="url(#4072e39187)"><path fill="url(#8924ce2e76)" d="M 13.585938 6.394531 L 13.585938 7.367188 L 14.558594 7.367188 L 14.558594 6.394531 Z M 13.585938 6.394531 " fill-rule="nonzero"/></g></g><g clip-path="url(#9c7dd08984)"><path fill="#050607" d="M 16.789062 22.636719 C 14.003906 22.636719 11.734375 20.367188 11.734375 17.582031 L 11.734375 16.570312 C 11.734375 16.464844 11.820312 16.378906 11.925781 16.378906 C 12.03125 16.378906 12.113281 16.464844 12.113281 16.570312 L 12.113281 17.582031 C 12.113281 20.160156 14.210938 22.257812 16.789062 22.257812 C 19.367188 22.257812 21.464844 20.160156 21.464844 17.582031 L 21.464844 16.570312 C 21.464844 16.464844 21.550781 16.378906 21.65625 16.378906 C 21.761719 16.378906 21.84375 16.464844 21.84375 16.570312 L 21.84375 17.582031 C 21.84375 20.367188 19.578125 22.636719 16.789062 22.636719 Z M 16.789062 22.636719 " fill-opacity="1" fill-rule="nonzero"/></g><path fill="#050607" d="M 21.554688 16.757812 C 21.082031 16.757812 20.699219 16.375 20.699219 15.90625 C 20.699219 15.433594 21.082031 15.050781 21.554688 15.050781 C 22.023438 15.050781 22.40625 15.433594 22.40625 15.90625 C 22.40625 16.375 22.023438 16.757812 21.554688 16.757812 Z M 21.554688 15.429688 C 21.289062 15.429688 21.078125 15.640625 21.078125 15.90625 C 21.078125 16.167969 21.289062 16.378906 21.554688 16.378906 C 21.816406 16.378906 22.027344 16.167969 22.027344 15.90625 C 22.027344 15.640625 21.816406 15.429688 21.554688 15.429688 Z M 21.554688 15.429688 " fill-opacity="1" fill-rule="nonzero"/><g clip-path="url(#bf224001cb)"><path fill="#050607" d="M 10.160156 14.03125 C 10.082031 14.03125 10.011719 13.984375 9.984375 13.910156 L 9.300781 12.160156 L 8.96875 12.8125 C 8.9375 12.878906 8.871094 12.917969 8.800781 12.917969 L 6.507812 12.917969 C 6.402344 12.917969 6.316406 12.832031 6.316406 12.730469 C 6.316406 12.625 6.402344 12.539062 6.507812 12.539062 L 8.683594 12.539062 L 9.152344 11.609375 C 9.1875 11.542969 9.257812 11.503906 9.332031 11.507812 C 9.40625 11.507812 9.472656 11.558594 9.5 11.625 L 10.160156 13.324219 L 11.035156 11.125 C 11.066406 11.050781 11.136719 11.003906 11.214844 11.003906 C 11.292969 11.003906 11.363281 11.054688 11.390625 11.125 L 11.945312 12.59375 L 13.59375 12.59375 C 13.699219 12.59375 13.78125 12.679688 13.78125 12.785156 C 13.78125 12.886719 13.699219 12.972656 13.59375 12.972656 L 11.816406 12.972656 C 11.738281 12.972656 11.667969 12.925781 11.640625 12.851562 L 11.207031 11.71875 L 10.335938 13.910156 C 10.304688 13.984375 10.238281 14.03125 10.160156 14.03125 Z M 10.160156 14.03125 " fill-opacity="1" fill-rule="nonzero"/></g></svg>