<svg xmlns="http://www.w3.org/2000/svg" xmlns:xlink="http://www.w3.org/1999/xlink" width="40" zoomAndPan="magnify" viewBox="0 0 30 30.000001" height="40" preserveAspectRatio="xMidYMid meet" version="1.0"><defs><clipPath id="090f63082b"><path d="M 0.484375 0 L 29.515625 0 L 29.515625 29.03125 L 0.484375 29.03125 Z M 0.484375 0 " clip-rule="nonzero"/></clipPath><clipPath id="adf956cc88"><path d="M 0.292969 1.023438 L 15.714844 1.023438 L 15.714844 17.964844 L 0.292969 17.964844 Z M 0.292969 1.023438 " clip-rule="nonzero"/></clipPath><clipPath id="87bbc634a1"><path d="M 8.539062 5.003906 L 12.015625 5.003906 L 12.015625 7.828125 L 8.539062 7.828125 Z M 8.539062 5.003906 " clip-rule="nonzero"/></clipPath><clipPath id="e846ef7905"><rect x="0" width="16" y="0" height="19"/></clipPath></defs><g clip-path="url(#090f63082b)"><path fill="#ffffff" d="M 0.484375 0 L 29.515625 0 L 29.515625 29.03125 L 0.484375 29.03125 Z M 0.484375 0 " fill-opacity="1" fill-rule="nonzero"/><path fill="#ffffff" d="M 0.484375 0 L 29.515625 0 L 29.515625 29.03125 L 0.484375 29.03125 Z M 0.484375 0 " fill-opacity="1" fill-rule="nonzero"/></g><g transform="matrix(1, 0, 0, 1, 7, 5)"><g clip-path="url(#e846ef7905)"><g clip-path="url(#adf956cc88)"><path fill="#000000" d="M 8.429688 6.820312 C 8.328125 6.695312 8.285156 6.539062 8.300781 6.386719 C 8.316406 6.242188 8.382812 6.105469 8.5 6.003906 C 8.511719 5.992188 8.523438 5.984375 8.535156 5.976562 C 8.65625 5.882812 8.808594 5.84375 8.953125 5.859375 C 9.097656 5.875 9.234375 5.941406 9.339844 6.058594 C 9.347656 6.066406 9.355469 6.078125 9.363281 6.089844 L 9.800781 6.625 L 10.023438 6.355469 L 10.257812 6.066406 L 10.265625 6.058594 L 10.933594 5.238281 C 11.035156 5.113281 11.179688 5.039062 11.332031 5.023438 C 11.480469 5.007812 11.640625 5.050781 11.765625 5.152344 C 11.894531 5.257812 11.964844 5.402344 11.980469 5.550781 C 11.996094 5.703125 11.957031 5.859375 11.851562 5.984375 L 11.179688 6.8125 L 10.957031 7.085938 C 10.949219 7.097656 10.941406 7.105469 10.933594 7.113281 L 10.273438 7.925781 C 10.257812 7.945312 10.238281 7.960938 10.222656 7.980469 C 10.207031 7.996094 10.1875 8.011719 10.167969 8.023438 C 10.042969 8.125 9.886719 8.164062 9.738281 8.148438 C 9.585938 8.132812 9.441406 8.0625 9.339844 7.933594 Z M 10.140625 3.425781 C 9.273438 3.425781 8.484375 3.777344 7.914062 4.339844 C 7.910156 4.34375 7.90625 4.347656 7.902344 4.351562 C 7.328125 4.925781 6.972656 5.714844 6.972656 6.585938 C 6.972656 7.460938 7.328125 8.25 7.902344 8.820312 C 8.472656 9.394531 9.265625 9.746094 10.140625 9.746094 C 11.015625 9.746094 11.808594 9.394531 12.382812 8.820312 C 12.957031 8.25 13.3125 7.460938 13.3125 6.585938 C 13.3125 5.714844 12.957031 4.925781 12.382812 4.351562 C 11.808594 3.78125 11.015625 3.425781 10.140625 3.425781 Z M 12.082031 4.652344 C 11.585938 4.15625 10.898438 3.851562 10.140625 3.851562 C 9.390625 3.851562 8.707031 4.152344 8.210938 4.640625 C 8.207031 4.644531 8.203125 4.648438 8.199219 4.652344 C 7.703125 5.148438 7.394531 5.832031 7.394531 6.585938 C 7.394531 7.34375 7.703125 8.027344 8.199219 8.523438 C 8.695312 9.019531 9.382812 9.324219 10.140625 9.324219 C 10.898438 9.324219 11.585938 9.019531 12.082031 8.523438 C 12.578125 8.027344 12.886719 7.34375 12.886719 6.585938 C 12.886719 5.832031 12.578125 5.148438 12.082031 4.652344 Z M 10.140625 12.144531 C 10.210938 12.144531 10.292969 12.140625 10.378906 12.136719 C 10.46875 12.132812 10.546875 12.128906 10.617188 12.121094 C 10.757812 12.109375 10.886719 12.050781 10.988281 11.960938 C 11.089844 11.871094 11.160156 11.746094 11.1875 11.605469 L 11.273438 11.144531 C 11.28125 11.101562 11.300781 11.066406 11.324219 11.039062 C 11.351562 11.011719 11.386719 10.988281 11.425781 10.980469 C 11.625 10.925781 11.816406 10.863281 12 10.785156 C 12.1875 10.707031 12.371094 10.617188 12.542969 10.515625 C 12.582031 10.496094 12.621094 10.484375 12.660156 10.488281 C 12.699219 10.488281 12.738281 10.5 12.773438 10.523438 L 13.101562 10.75 C 13.226562 10.835938 13.367188 10.871094 13.503906 10.863281 C 13.644531 10.851562 13.78125 10.796875 13.890625 10.699219 C 13.972656 10.621094 14.058594 10.539062 14.148438 10.449219 C 14.230469 10.363281 14.3125 10.273438 14.386719 10.183594 C 14.484375 10.074219 14.535156 9.941406 14.539062 9.804688 C 14.546875 9.671875 14.511719 9.53125 14.429688 9.414062 L 14.214844 9.105469 C 14.214844 9.101562 14.210938 9.097656 14.207031 9.09375 C 14.183594 9.058594 14.171875 9.019531 14.167969 8.984375 C 14.167969 8.945312 14.179688 8.90625 14.199219 8.867188 C 14.300781 8.691406 14.390625 8.511719 14.46875 8.324219 C 14.546875 8.140625 14.609375 7.949219 14.664062 7.753906 C 14.671875 7.710938 14.695312 7.675781 14.722656 7.652344 C 14.75 7.625 14.785156 7.605469 14.828125 7.597656 L 15.183594 7.535156 C 15.320312 7.507812 15.441406 7.441406 15.53125 7.347656 C 15.535156 7.339844 15.539062 7.335938 15.542969 7.332031 C 15.636719 7.230469 15.691406 7.097656 15.703125 6.953125 C 15.707031 6.898438 15.707031 6.835938 15.710938 6.769531 C 15.714844 6.695312 15.714844 6.632812 15.714844 6.585938 C 15.714844 6.542969 15.714844 6.480469 15.710938 6.40625 C 15.707031 6.335938 15.707031 6.277344 15.703125 6.222656 C 15.691406 6.082031 15.640625 5.957031 15.554688 5.855469 C 15.550781 5.851562 15.546875 5.847656 15.542969 5.84375 C 15.453125 5.738281 15.328125 5.667969 15.183594 5.640625 L 14.828125 5.574219 C 14.789062 5.570312 14.757812 5.554688 14.730469 5.53125 L 14.722656 5.523438 C 14.695312 5.496094 14.671875 5.460938 14.664062 5.421875 C 14.609375 5.226562 14.546875 5.035156 14.46875 4.851562 C 14.390625 4.664062 14.300781 4.480469 14.199219 4.308594 C 14.179688 4.269531 14.167969 4.230469 14.167969 4.191406 C 14.171875 4.15625 14.183594 4.117188 14.207031 4.082031 L 14.421875 3.773438 L 14.429688 3.761719 C 14.511719 3.640625 14.546875 3.503906 14.539062 3.371094 C 14.535156 3.242188 14.488281 3.113281 14.402344 3.007812 C 14.398438 3 14.394531 2.996094 14.390625 2.992188 C 14.3125 2.902344 14.230469 2.8125 14.148438 2.726562 C 14.0625 2.640625 13.976562 2.554688 13.890625 2.476562 C 13.78125 2.378906 13.644531 2.320312 13.503906 2.3125 C 13.367188 2.304688 13.226562 2.339844 13.101562 2.425781 L 12.773438 2.648438 C 12.738281 2.675781 12.699219 2.6875 12.660156 2.6875 C 12.621094 2.691406 12.582031 2.679688 12.542969 2.65625 C 12.371094 2.558594 12.1875 2.46875 12 2.390625 C 11.816406 2.3125 11.625 2.25 11.425781 2.195312 C 11.386719 2.183594 11.351562 2.164062 11.324219 2.136719 C 11.296875 2.109375 11.28125 2.074219 11.273438 2.03125 L 11.1875 1.566406 C 11.160156 1.425781 11.089844 1.304688 10.988281 1.214844 C 10.886719 1.121094 10.757812 1.0625 10.617188 1.050781 C 10.546875 1.046875 10.46875 1.039062 10.378906 1.039062 C 10.289062 1.035156 10.210938 1.03125 10.140625 1.03125 C 10.074219 1.03125 9.992188 1.035156 9.90625 1.039062 C 9.816406 1.039062 9.738281 1.046875 9.667969 1.050781 C 9.523438 1.0625 9.394531 1.121094 9.292969 1.214844 C 9.195312 1.304688 9.121094 1.425781 9.097656 1.570312 L 9.011719 2.03125 C 9.003906 2.070312 8.988281 2.101562 8.964844 2.128906 L 8.957031 2.136719 C 8.933594 2.164062 8.898438 2.183594 8.855469 2.195312 C 8.660156 2.25 8.46875 2.3125 8.28125 2.390625 C 8.09375 2.46875 7.914062 2.558594 7.738281 2.65625 C 7.703125 2.679688 7.660156 2.691406 7.625 2.6875 C 7.585938 2.6875 7.550781 2.675781 7.519531 2.65625 L 7.511719 2.648438 L 7.183594 2.421875 L 7.179688 2.425781 L 7.179688 2.421875 C 7.058594 2.339844 6.917969 2.304688 6.777344 2.3125 C 6.640625 2.320312 6.503906 2.375 6.394531 2.476562 C 6.304688 2.554688 6.21875 2.640625 6.136719 2.726562 C 6.050781 2.8125 5.972656 2.902344 5.894531 2.992188 C 5.800781 3.101562 5.75 3.234375 5.742188 3.371094 C 5.734375 3.503906 5.773438 3.640625 5.855469 3.761719 L 6.074219 4.082031 L 6.078125 4.082031 C 6.101562 4.117188 6.113281 4.152344 6.113281 4.191406 C 6.117188 4.230469 6.105469 4.269531 6.085938 4.308594 C 5.984375 4.480469 5.890625 4.664062 5.816406 4.851562 C 5.738281 5.035156 5.671875 5.226562 5.621094 5.421875 C 5.609375 5.460938 5.59375 5.492188 5.570312 5.515625 L 5.5625 5.523438 C 5.53125 5.550781 5.496094 5.566406 5.453125 5.574219 L 5.101562 5.640625 C 4.960938 5.667969 4.84375 5.734375 4.753906 5.828125 C 4.746094 5.832031 4.742188 5.835938 4.738281 5.84375 C 4.648438 5.945312 4.589844 6.078125 4.582031 6.222656 C 4.578125 6.277344 4.574219 6.335938 4.574219 6.40625 C 4.570312 6.480469 4.570312 6.542969 4.570312 6.585938 C 4.570312 6.632812 4.570312 6.695312 4.574219 6.769531 C 4.574219 6.835938 4.578125 6.898438 4.582031 6.953125 C 4.589844 7.089844 4.644531 7.21875 4.726562 7.320312 C 4.730469 7.324219 4.734375 7.328125 4.738281 7.332031 C 4.832031 7.433594 4.957031 7.507812 5.101562 7.535156 L 5.453125 7.597656 C 5.496094 7.605469 5.53125 7.625 5.5625 7.652344 C 5.589844 7.675781 5.609375 7.710938 5.621094 7.753906 C 5.671875 7.949219 5.738281 8.140625 5.816406 8.324219 C 5.890625 8.511719 5.984375 8.691406 6.085938 8.867188 C 6.105469 8.90625 6.117188 8.945312 6.113281 8.984375 C 6.113281 9.019531 6.101562 9.054688 6.082031 9.085938 L 6.074219 9.09375 L 5.855469 9.414062 C 5.773438 9.535156 5.734375 9.671875 5.742188 9.804688 C 5.75 9.933594 5.796875 10.0625 5.882812 10.167969 C 5.886719 10.171875 5.890625 10.179688 5.894531 10.183594 C 5.96875 10.269531 6.046875 10.355469 6.136719 10.449219 C 6.226562 10.539062 6.3125 10.621094 6.394531 10.699219 C 6.503906 10.796875 6.640625 10.851562 6.777344 10.863281 C 6.917969 10.871094 7.058594 10.835938 7.183594 10.75 L 7.511719 10.523438 C 7.546875 10.5 7.585938 10.488281 7.625 10.488281 C 7.660156 10.484375 7.703125 10.496094 7.738281 10.515625 C 7.914062 10.617188 8.09375 10.707031 8.28125 10.785156 C 8.46875 10.863281 8.660156 10.925781 8.855469 10.980469 C 8.898438 10.988281 8.933594 11.011719 8.957031 11.039062 C 8.984375 11.066406 9.003906 11.101562 9.011719 11.144531 L 9.097656 11.605469 C 9.121094 11.746094 9.191406 11.871094 9.292969 11.960938 C 9.394531 12.050781 9.523438 12.109375 9.667969 12.121094 C 9.738281 12.128906 9.816406 12.132812 9.902344 12.136719 C 9.992188 12.140625 10.070312 12.144531 10.140625 12.144531 Z M 9.921875 11.714844 C 9.984375 11.71875 10.058594 11.722656 10.140625 11.722656 C 10.226562 11.722656 10.300781 11.71875 10.363281 11.714844 C 10.425781 11.714844 10.5 11.707031 10.582031 11.703125 C 10.628906 11.699219 10.675781 11.679688 10.707031 11.648438 C 10.738281 11.621094 10.761719 11.578125 10.773438 11.53125 L 10.859375 11.070312 C 10.878906 10.945312 10.933594 10.839844 11.015625 10.753906 C 11.09375 10.667969 11.199219 10.601562 11.320312 10.570312 C 11.496094 10.523438 11.671875 10.464844 11.839844 10.394531 C 12.011719 10.324219 12.175781 10.242188 12.332031 10.152344 C 12.441406 10.089844 12.558594 10.0625 12.675781 10.066406 C 12.792969 10.070312 12.910156 10.109375 13.011719 10.179688 L 13.34375 10.40625 C 13.382812 10.433594 13.429688 10.445312 13.476562 10.441406 C 13.523438 10.4375 13.566406 10.421875 13.605469 10.386719 C 13.691406 10.304688 13.773438 10.230469 13.84375 10.15625 C 13.921875 10.078125 13.996094 9.996094 14.066406 9.910156 C 14.097656 9.875 14.117188 9.828125 14.117188 9.785156 C 14.121094 9.738281 14.109375 9.691406 14.082031 9.652344 L 13.867188 9.34375 L 13.859375 9.332031 C 13.789062 9.230469 13.75 9.113281 13.746094 8.996094 C 13.742188 8.878906 13.769531 8.761719 13.832031 8.65625 C 13.925781 8.5 14.007812 8.332031 14.078125 8.164062 C 14.148438 7.996094 14.207031 7.824219 14.253906 7.644531 C 14.285156 7.527344 14.347656 7.421875 14.4375 7.34375 C 14.523438 7.261719 14.628906 7.207031 14.753906 7.183594 L 15.105469 7.121094 C 15.152344 7.109375 15.191406 7.089844 15.222656 7.0625 L 15.226562 7.050781 C 15.257812 7.019531 15.277344 6.972656 15.28125 6.925781 C 15.285156 6.863281 15.289062 6.804688 15.289062 6.757812 C 15.289062 6.714844 15.289062 6.660156 15.289062 6.585938 C 15.289062 6.515625 15.289062 6.460938 15.289062 6.417969 C 15.289062 6.367188 15.285156 6.3125 15.28125 6.25 C 15.277344 6.203125 15.261719 6.164062 15.234375 6.128906 L 15.226562 6.121094 C 15.199219 6.089844 15.15625 6.0625 15.105469 6.054688 L 14.753906 5.988281 C 14.636719 5.96875 14.535156 5.917969 14.449219 5.84375 C 14.445312 5.839844 14.441406 5.835938 14.433594 5.832031 C 14.347656 5.753906 14.285156 5.648438 14.253906 5.527344 C 14.207031 5.351562 14.148438 5.179688 14.078125 5.011719 C 14.007812 4.839844 13.925781 4.675781 13.832031 4.519531 C 13.769531 4.410156 13.742188 4.292969 13.746094 4.175781 C 13.75 4.058594 13.789062 3.945312 13.859375 3.84375 L 14.074219 3.535156 C 14.074219 3.53125 14.078125 3.527344 14.082031 3.523438 C 14.109375 3.480469 14.121094 3.4375 14.117188 3.390625 C 14.117188 3.347656 14.101562 3.308594 14.074219 3.273438 L 14.066406 3.265625 C 13.996094 3.179688 13.921875 3.097656 13.84375 3.019531 C 13.769531 2.941406 13.6875 2.863281 13.605469 2.789062 C 13.566406 2.753906 13.523438 2.734375 13.476562 2.734375 C 13.429688 2.730469 13.382812 2.742188 13.34375 2.769531 L 13.011719 2.996094 C 12.910156 3.066406 12.792969 3.105469 12.675781 3.109375 C 12.558594 3.113281 12.441406 3.085938 12.332031 3.023438 C 12.175781 2.929688 12.011719 2.851562 11.839844 2.777344 C 11.671875 2.710938 11.496094 2.652344 11.320312 2.605469 C 11.199219 2.570312 11.09375 2.507812 11.015625 2.421875 C 10.933594 2.335938 10.878906 2.226562 10.859375 2.105469 L 10.773438 1.644531 C 10.761719 1.597656 10.738281 1.554688 10.707031 1.523438 C 10.671875 1.496094 10.628906 1.476562 10.582031 1.472656 C 10.5 1.464844 10.425781 1.460938 10.363281 1.457031 C 10.300781 1.457031 10.226562 1.453125 10.140625 1.453125 C 10.058594 1.453125 9.984375 1.457031 9.921875 1.457031 C 9.855469 1.460938 9.785156 1.464844 9.703125 1.472656 C 9.652344 1.476562 9.609375 1.496094 9.578125 1.523438 C 9.542969 1.554688 9.519531 1.597656 9.511719 1.644531 L 9.425781 2.105469 C 9.40625 2.222656 9.355469 2.324219 9.28125 2.410156 C 9.277344 2.414062 9.273438 2.417969 9.269531 2.421875 C 9.1875 2.507812 9.085938 2.570312 8.964844 2.605469 C 8.785156 2.652344 8.613281 2.710938 8.445312 2.777344 C 8.273438 2.847656 8.109375 2.929688 7.949219 3.023438 C 7.84375 3.085938 7.726562 3.113281 7.609375 3.109375 C 7.496094 3.105469 7.386719 3.070312 7.285156 3.003906 C 7.28125 3.003906 7.277344 3 7.273438 2.996094 L 6.941406 2.769531 C 6.902344 2.742188 6.851562 2.730469 6.808594 2.734375 C 6.761719 2.734375 6.714844 2.753906 6.679688 2.789062 C 6.59375 2.863281 6.515625 2.941406 6.4375 3.019531 C 6.363281 3.097656 6.289062 3.179688 6.21875 3.265625 L 6.214844 3.265625 C 6.183594 3.300781 6.167969 3.34375 6.164062 3.390625 C 6.164062 3.433594 6.175781 3.480469 6.203125 3.523438 L 6.421875 3.84375 C 6.496094 3.945312 6.53125 4.0625 6.535156 4.175781 C 6.542969 4.292969 6.511719 4.410156 6.449219 4.519531 C 6.359375 4.675781 6.277344 4.839844 6.207031 5.011719 C 6.136719 5.179688 6.078125 5.351562 6.03125 5.527344 C 6 5.640625 5.941406 5.742188 5.863281 5.820312 C 5.859375 5.824219 5.855469 5.828125 5.847656 5.832031 C 5.761719 5.914062 5.652344 5.96875 5.53125 5.988281 L 5.175781 6.054688 C 5.132812 6.0625 5.089844 6.085938 5.0625 6.113281 L 5.054688 6.121094 C 5.027344 6.15625 5.007812 6.199219 5.003906 6.25 C 5 6.3125 4.996094 6.367188 4.996094 6.417969 C 4.992188 6.460938 4.992188 6.515625 4.992188 6.585938 C 4.992188 6.660156 4.992188 6.714844 4.996094 6.757812 C 4.996094 6.804688 5 6.863281 5.003906 6.925781 C 5.007812 6.972656 5.023438 7.011719 5.046875 7.046875 L 5.054688 7.050781 C 5.085938 7.085938 5.128906 7.109375 5.175781 7.121094 L 5.53125 7.183594 C 5.652344 7.207031 5.761719 7.261719 5.847656 7.34375 C 5.933594 7.421875 6 7.527344 6.03125 7.644531 C 6.078125 7.824219 6.136719 7.996094 6.207031 8.164062 C 6.277344 8.335938 6.359375 8.5 6.449219 8.65625 C 6.511719 8.761719 6.542969 8.878906 6.535156 8.996094 C 6.53125 9.109375 6.496094 9.21875 6.433594 9.320312 C 6.429688 9.324219 6.425781 9.328125 6.421875 9.332031 L 6.203125 9.652344 C 6.175781 9.691406 6.164062 9.738281 6.164062 9.785156 C 6.167969 9.824219 6.183594 9.867188 6.207031 9.902344 L 6.21875 9.910156 C 6.292969 10 6.367188 10.082031 6.4375 10.15625 C 6.511719 10.230469 6.589844 10.304688 6.679688 10.386719 C 6.714844 10.421875 6.761719 10.4375 6.808594 10.441406 C 6.851562 10.445312 6.902344 10.433594 6.941406 10.40625 L 7.273438 10.179688 C 7.375 10.109375 7.492188 10.070312 7.609375 10.066406 C 7.726562 10.0625 7.84375 10.089844 7.949219 10.152344 C 8.109375 10.242188 8.273438 10.324219 8.445312 10.394531 C 8.613281 10.464844 8.785156 10.523438 8.964844 10.570312 C 9.085938 10.601562 9.1875 10.667969 9.269531 10.753906 C 9.347656 10.839844 9.402344 10.945312 9.425781 11.070312 L 9.511719 11.53125 C 9.519531 11.578125 9.542969 11.621094 9.578125 11.648438 C 9.609375 11.679688 9.652344 11.699219 9.703125 11.703125 C 9.785156 11.707031 9.855469 11.714844 9.921875 11.714844 Z M 8.320312 17.296875 C 8.3125 17.292969 8.300781 17.292969 8.289062 17.289062 C 7.851562 17.160156 7.4375 17.027344 6.914062 16.851562 C 6.417969 16.679688 5.8125 16.464844 4.976562 16.160156 L 4.445312 16.464844 C 4.484375 16.601562 4.484375 16.742188 4.449219 16.871094 C 4.398438 17.058594 4.277344 17.226562 4.097656 17.332031 L 3.234375 17.828125 C 3.226562 17.832031 3.222656 17.832031 3.21875 17.835938 C 3.042969 17.933594 2.839844 17.953125 2.660156 17.902344 C 2.472656 17.855469 2.304688 17.734375 2.199219 17.550781 L 0.417969 14.476562 C 0.414062 14.472656 0.414062 14.46875 0.410156 14.460938 C 0.3125 14.285156 0.292969 14.085938 0.34375 13.90625 C 0.394531 13.71875 0.515625 13.550781 0.695312 13.445312 L 1.558594 12.949219 C 1.5625 12.945312 1.570312 12.945312 1.574219 12.941406 C 1.75 12.84375 1.953125 12.824219 2.132812 12.875 C 2.265625 12.910156 2.386719 12.980469 2.484375 13.082031 L 3.796875 12.324219 L 3.804688 12.320312 C 4.1875 12.085938 4.59375 11.949219 5.023438 11.910156 C 5.402344 11.875 5.796875 11.914062 6.210938 12.027344 L 6.21875 12.03125 L 9.078125 12.796875 C 9.320312 12.863281 9.511719 13.019531 9.628906 13.222656 C 9.742188 13.417969 9.785156 13.65625 9.722656 13.894531 C 9.722656 13.902344 9.71875 13.914062 9.714844 13.921875 C 9.667969 14.085938 9.578125 14.230469 9.457031 14.339844 L 9.679688 14.398438 L 14.125 11.835938 C 14.503906 11.617188 14.871094 11.707031 15.140625 11.929688 C 15.242188 12.015625 15.324219 12.117188 15.390625 12.226562 C 15.453125 12.339844 15.5 12.464844 15.523438 12.589844 C 15.585938 12.929688 15.484375 13.28125 15.132812 13.488281 L 10.882812 16.703125 L 10.875 16.710938 C 10.511719 16.996094 10.117188 17.191406 9.6875 17.289062 C 9.261719 17.382812 8.808594 17.386719 8.320312 17.296875 Z M 4.253906 16.09375 L 2.714844 13.433594 L 4.007812 12.6875 C 4.011719 12.6875 4.019531 12.683594 4.023438 12.679688 L 4.039062 12.671875 L 4.121094 12.625 C 4.417969 12.460938 4.734375 12.359375 5.0625 12.328125 C 5.390625 12.296875 5.734375 12.332031 6.09375 12.433594 L 6.125 12.441406 C 6.160156 12.453125 6.195312 12.460938 6.226562 12.472656 C 6.246094 12.476562 6.261719 12.480469 6.277344 12.484375 L 8.96875 13.207031 C 9.097656 13.242188 9.203125 13.324219 9.261719 13.429688 L 9.261719 13.433594 C 9.324219 13.539062 9.347656 13.667969 9.3125 13.796875 L 9.3125 13.800781 C 9.277344 13.925781 9.191406 14.03125 9.085938 14.089844 L 9.078125 14.097656 C 8.972656 14.152344 8.847656 14.171875 8.722656 14.140625 L 8.714844 14.140625 L 7.21875 13.738281 C 7.105469 13.710938 6.988281 13.777344 6.957031 13.890625 C 6.929688 14 6.996094 14.117188 7.109375 14.148438 L 8.59375 14.542969 C 8.601562 14.546875 8.613281 14.550781 8.621094 14.550781 L 9.652344 14.828125 C 9.707031 14.84375 9.761719 14.835938 9.8125 14.808594 L 14.335938 12.199219 C 14.535156 12.085938 14.726562 12.132812 14.871094 12.253906 C 14.929688 12.304688 14.984375 12.367188 15.023438 12.4375 C 15.066406 12.511719 15.09375 12.585938 15.109375 12.664062 C 15.140625 12.84375 15.089844 13.023438 14.910156 13.128906 C 14.902344 13.132812 14.894531 13.136719 14.890625 13.144531 L 10.628906 16.367188 C 10.621094 16.371094 10.617188 16.375 10.609375 16.382812 L 10.585938 16.402344 L 10.527344 16.441406 C 10.242188 16.65625 9.929688 16.800781 9.59375 16.875 C 9.226562 16.960938 8.828125 16.960938 8.402344 16.882812 C 7.96875 16.753906 7.5625 16.625 7.050781 16.449219 C 6.523438 16.273438 5.894531 16.046875 5.027344 15.730469 C 4.964844 15.707031 4.894531 15.71875 4.839844 15.753906 Z M 2.242188 13.464844 L 2.242188 13.460938 L 2.234375 13.445312 L 2.226562 13.4375 C 2.179688 13.355469 2.105469 13.304688 2.023438 13.28125 C 1.945312 13.261719 1.855469 13.265625 1.777344 13.308594 L 1.769531 13.3125 L 0.90625 13.8125 C 0.828125 13.855469 0.773438 13.929688 0.75 14.011719 C 0.730469 14.09375 0.738281 14.179688 0.777344 14.257812 L 0.785156 14.265625 L 2.566406 17.339844 L 2.566406 17.34375 C 2.609375 17.421875 2.683594 17.472656 2.769531 17.496094 C 2.847656 17.515625 2.9375 17.511719 3.011719 17.46875 L 3.019531 17.464844 L 3.886719 16.964844 C 3.964844 16.921875 4.019531 16.847656 4.039062 16.765625 C 4.0625 16.679688 4.054688 16.589844 4.007812 16.511719 Z M 8.722656 6.429688 C 8.71875 6.472656 8.730469 6.519531 8.757812 6.554688 L 9.667969 7.667969 C 9.695312 7.707031 9.738281 7.726562 9.78125 7.730469 C 9.824219 7.734375 9.867188 7.722656 9.90625 7.695312 L 9.914062 7.6875 C 9.917969 7.683594 9.925781 7.679688 9.929688 7.675781 C 9.933594 7.671875 9.9375 7.667969 9.941406 7.660156 L 9.945312 7.660156 L 10.617188 6.835938 L 10.851562 6.546875 L 11.523438 5.71875 C 11.554688 5.683594 11.566406 5.640625 11.5625 5.59375 C 11.558594 5.550781 11.535156 5.507812 11.5 5.480469 C 11.464844 5.453125 11.417969 5.441406 11.375 5.445312 C 11.332031 5.449219 11.289062 5.46875 11.257812 5.503906 L 10.59375 6.324219 L 10.585938 6.332031 L 10.351562 6.621094 L 9.96875 7.089844 C 9.957031 7.101562 9.949219 7.113281 9.933594 7.125 C 9.84375 7.195312 9.710938 7.183594 9.636719 7.09375 L 9.023438 6.34375 L 9.023438 6.339844 C 8.996094 6.304688 8.953125 6.285156 8.910156 6.277344 C 8.867188 6.273438 8.820312 6.285156 8.785156 6.3125 L 8.785156 6.316406 C 8.746094 6.34375 8.726562 6.386719 8.722656 6.429688 Z M 9.90625 7.695312 Z M 9.90625 7.695312 " fill-opacity="1" fill-rule="evenodd"/></g><g clip-path="url(#87bbc634a1)"><path fill="#77c655" d="M 9.738281 7.742188 L 8.550781 6.554688 L 9.023438 6.082031 L 9.738281 6.796875 L 11.53125 5.003906 L 12.003906 5.476562 Z M 9.738281 7.742188 " fill-opacity="1" fill-rule="nonzero"/></g></g></g></svg>