<svg xmlns="http://www.w3.org/2000/svg" xmlns:xlink="http://www.w3.org/1999/xlink" width="40" zoomAndPan="magnify" viewBox="0 0 30 30.000001" height="40" preserveAspectRatio="xMidYMid meet" version="1.0"><defs><clipPath id="04743c3818"><path d="M 0.484375 0 L 29.515625 0 L 29.515625 29.03125 L 0.484375 29.03125 Z M 0.484375 0 " clip-rule="nonzero"/></clipPath><clipPath id="db90ae5e9c"><path d="M 8 6 L 23.925781 6 L 23.925781 23.445312 L 8 23.445312 Z M 8 6 " clip-rule="nonzero"/></clipPath><clipPath id="0c435a8cb8"><path d="M 5.78125 5.296875 L 15 5.296875 L 15 15 L 5.78125 15 Z M 5.78125 5.296875 " clip-rule="nonzero"/></clipPath></defs><g clip-path="url(#04743c3818)"><path fill="#ffffff" d="M 0.484375 0 L 29.515625 0 L 29.515625 29.03125 L 0.484375 29.03125 Z M 0.484375 0 " fill-opacity="1" fill-rule="nonzero"/><path fill="#ffffff" d="M 0.484375 0 L 29.515625 0 L 29.515625 29.03125 L 0.484375 29.03125 Z M 0.484375 0 " fill-opacity="1" fill-rule="nonzero"/></g><g clip-path="url(#db90ae5e9c)"><path fill="#000000" d="M 20.914062 11.773438 L 22.992188 11.773438 C 23.167969 11.773438 23.3125 11.917969 23.3125 12.09375 L 23.3125 22.308594 L 20.589844 22.308594 L 20.589844 12.09375 C 20.589844 11.917969 20.734375 11.773438 20.914062 11.773438 Z M 21.085938 8.828125 L 21.738281 9.160156 C 21.859375 9.21875 21.996094 9.207031 22.105469 9.125 C 22.210938 9.039062 22.257812 8.910156 22.226562 8.78125 L 21.980469 7.695312 L 21.664062 6.300781 C 21.640625 6.199219 21.578125 6.121094 21.484375 6.074219 C 21.390625 6.027344 21.292969 6.023438 21.195312 6.0625 L 19.882812 6.628906 L 18.859375 7.066406 C 18.738281 7.121094 18.660156 7.234375 18.65625 7.367188 C 18.652344 7.503906 18.722656 7.621094 18.839844 7.683594 L 19.5625 8.050781 C 17.3125 11.710938 13.542969 14.339844 8.253906 15.933594 C 12.109375 15.753906 18.359375 12.992188 21.085938 8.828125 Z M 8.769531 23.726562 L 23.726562 23.726562 C 23.992188 23.726562 24.207031 23.511719 24.207031 23.246094 C 24.207031 22.984375 23.992188 22.765625 23.726562 22.765625 L 8.769531 22.765625 C 8.503906 22.765625 8.289062 22.984375 8.289062 23.246094 C 8.289062 23.511719 8.503906 23.726562 8.769531 23.726562 Z M 9.503906 19.367188 L 11.585938 19.367188 C 11.761719 19.367188 11.90625 19.511719 11.90625 19.691406 L 11.90625 22.308594 L 9.183594 22.308594 L 9.183594 19.691406 C 9.183594 19.511719 9.328125 19.367188 9.503906 19.367188 Z M 12.984375 22.308594 L 12.984375 17.15625 C 12.984375 16.980469 13.128906 16.835938 13.308594 16.835938 L 15.386719 16.835938 C 15.5625 16.835938 15.707031 16.980469 15.707031 17.15625 L 15.707031 22.308594 Z M 16.789062 22.308594 L 16.789062 14.625 C 16.789062 14.449219 16.933594 14.304688 17.109375 14.304688 L 19.191406 14.304688 C 19.367188 14.304688 19.511719 14.449219 19.511719 14.625 L 19.511719 22.308594 Z M 16.789062 22.308594 " fill-opacity="1" fill-rule="evenodd"/></g><g clip-path="url(#0c435a8cb8)"><path fill="#77c655" d="M 10.007812 8.703125 C 10.007812 8.582031 10.109375 8.480469 10.230469 8.480469 C 10.355469 8.480469 10.453125 8.582031 10.453125 8.703125 L 10.453125 8.859375 C 10.472656 8.863281 10.488281 8.871094 10.507812 8.875 L 10.519531 8.878906 C 10.613281 8.917969 10.699219 8.96875 10.769531 9.035156 C 10.859375 9.121094 10.859375 9.261719 10.773438 9.351562 C 10.6875 9.4375 10.546875 9.441406 10.460938 9.355469 C 10.433594 9.332031 10.398438 9.308594 10.359375 9.292969 L 10.351562 9.289062 C 10.316406 9.277344 10.277344 9.269531 10.242188 9.269531 L 10.230469 9.269531 C 10.226562 9.269531 10.222656 9.269531 10.214844 9.269531 C 10.207031 9.269531 10.199219 9.269531 10.191406 9.269531 C 10.148438 9.273438 10.113281 9.289062 10.089844 9.3125 C 10.078125 9.324219 10.070312 9.335938 10.0625 9.355469 C 10.054688 9.375 10.054688 9.390625 10.0625 9.40625 C 10.070312 9.429688 10.097656 9.453125 10.144531 9.476562 C 10.199219 9.503906 10.273438 9.523438 10.351562 9.542969 C 10.429688 9.5625 10.503906 9.582031 10.574219 9.609375 C 10.800781 9.703125 10.902344 9.871094 10.910156 10.054688 C 10.914062 10.164062 10.878906 10.269531 10.8125 10.367188 C 10.753906 10.453125 10.667969 10.527344 10.5625 10.582031 C 10.527344 10.597656 10.492188 10.609375 10.453125 10.621094 L 10.453125 10.773438 C 10.453125 10.894531 10.355469 10.996094 10.230469 10.996094 C 10.109375 10.996094 10.007812 10.894531 10.007812 10.773438 L 10.007812 10.621094 C 9.890625 10.589844 9.765625 10.53125 9.640625 10.4375 C 9.542969 10.363281 9.523438 10.222656 9.597656 10.125 C 9.671875 10.027344 9.808594 10.007812 9.90625 10.082031 C 10.027344 10.171875 10.132812 10.207031 10.222656 10.210938 L 10.230469 10.207031 L 10.238281 10.210938 C 10.289062 10.207031 10.332031 10.199219 10.367188 10.179688 C 10.402344 10.164062 10.429688 10.140625 10.449219 10.113281 C 10.460938 10.097656 10.464844 10.078125 10.464844 10.066406 C 10.464844 10.054688 10.449219 10.039062 10.40625 10.023438 C 10.359375 10.003906 10.300781 9.988281 10.238281 9.972656 C 10.140625 9.945312 10.039062 9.917969 9.941406 9.871094 C 9.804688 9.800781 9.710938 9.707031 9.660156 9.59375 C 9.597656 9.46875 9.59375 9.332031 9.648438 9.195312 C 9.679688 9.117188 9.71875 9.054688 9.769531 9.003906 C 9.839844 8.933594 9.921875 8.882812 10.007812 8.855469 Z M 11.90625 9.738281 C 11.90625 8.8125 11.15625 8.0625 10.230469 8.0625 C 9.308594 8.0625 8.558594 8.8125 8.558594 9.738281 C 8.558594 10.664062 9.308594 11.414062 10.230469 11.414062 C 11.15625 11.414062 11.90625 10.664062 11.90625 9.738281 Z M 7.328125 9.507812 L 7.808594 9.507812 C 7.933594 9.507812 8.039062 9.613281 8.039062 9.738281 C 8.039062 9.867188 7.933594 9.96875 7.808594 9.96875 L 7.328125 9.96875 C 7.382812 10.679688 7.695312 11.324219 8.171875 11.800781 C 8.648438 12.277344 9.289062 12.589844 10 12.644531 L 10 12.160156 C 10 12.035156 10.105469 11.933594 10.230469 11.933594 C 10.359375 11.933594 10.460938 12.035156 10.460938 12.160156 L 10.460938 12.644531 C 11.175781 12.589844 11.816406 12.277344 12.292969 11.800781 C 12.769531 11.324219 13.082031 10.679688 13.136719 9.96875 L 12.65625 9.96875 C 12.527344 9.96875 12.425781 9.867188 12.425781 9.738281 C 12.425781 9.613281 12.527344 9.507812 12.65625 9.507812 L 13.136719 9.507812 C 13.082031 8.796875 12.769531 8.15625 12.292969 7.679688 C 11.816406 7.203125 11.175781 6.890625 10.460938 6.832031 L 10.460938 7.316406 C 10.460938 7.441406 10.359375 7.546875 10.230469 7.546875 C 10.105469 7.546875 10 7.441406 10 7.316406 L 10 6.832031 C 9.289062 6.890625 8.648438 7.203125 8.171875 7.679688 C 7.695312 8.15625 7.382812 8.796875 7.328125 9.507812 Z M 6.019531 9.96875 L 6.867188 9.96875 C 6.921875 10.808594 7.285156 11.5625 7.847656 12.125 C 8.40625 12.683594 9.160156 13.046875 10 13.105469 L 10 13.949219 C 10 14.078125 10.105469 14.179688 10.230469 14.179688 C 10.359375 14.179688 10.460938 14.078125 10.460938 13.949219 L 10.460938 13.105469 C 11.300781 13.046875 12.054688 12.683594 12.617188 12.125 C 13.175781 11.5625 13.539062 10.808594 13.597656 9.96875 L 14.441406 9.96875 C 14.570312 9.96875 14.671875 9.867188 14.671875 9.738281 C 14.671875 9.613281 14.570312 9.507812 14.441406 9.507812 L 13.597656 9.507812 C 13.539062 8.667969 13.175781 7.914062 12.617188 7.355469 C 12.054688 6.792969 11.300781 6.429688 10.460938 6.375 L 10.460938 5.527344 C 10.460938 5.398438 10.359375 5.296875 10.230469 5.296875 C 10.105469 5.296875 10 5.398438 10 5.527344 L 10 6.375 C 9.160156 6.429688 8.40625 6.792969 7.847656 7.355469 C 7.285156 7.914062 6.921875 8.667969 6.867188 9.507812 L 6.019531 9.507812 C 5.894531 9.507812 5.789062 9.613281 5.789062 9.738281 C 5.789062 9.867188 5.894531 9.96875 6.019531 9.96875 Z M 6.019531 9.96875 " fill-opacity="1" fill-rule="evenodd"/></g></svg>