<svg xmlns="http://www.w3.org/2000/svg" xmlns:xlink="http://www.w3.org/1999/xlink" width="40" zoomAndPan="magnify" viewBox="0 0 30 30.000001" height="40" preserveAspectRatio="xMidYMid meet" version="1.0"><defs><clipPath id="b39aa880e9"><path d="M 0.484375 0 L 29.515625 0 L 29.515625 29.03125 L 0.484375 29.03125 Z M 0.484375 0 " clip-rule="nonzero"/></clipPath><clipPath id="e2a639c5d2"><path d="M 7 18 L 11 18 L 11 22.71875 L 7 22.71875 Z M 7 18 " clip-rule="nonzero"/></clipPath><clipPath id="0efb7c134c"><path d="M 5.449219 15 L 11 15 L 11 21 L 5.449219 21 Z M 5.449219 15 " clip-rule="nonzero"/></clipPath><clipPath id="63ebe08264"><path d="M 14 6.023438 L 21 6.023438 L 21 12 L 14 12 Z M 14 6.023438 " clip-rule="nonzero"/></clipPath><clipPath id="5ee7f7cd9c"><path d="M 17 16 L 24.320312 16 L 24.320312 18 L 17 18 Z M 17 16 " clip-rule="nonzero"/></clipPath></defs><g clip-path="url(#b39aa880e9)"><path fill="#ffffff" d="M 0.484375 0 L 29.515625 0 L 29.515625 29.03125 L 0.484375 29.03125 Z M 0.484375 0 " fill-opacity="1" fill-rule="nonzero"/><path fill="#ffffff" d="M 0.484375 0 L 29.515625 0 L 29.515625 29.03125 L 0.484375 29.03125 Z M 0.484375 0 " fill-opacity="1" fill-rule="nonzero"/></g><g clip-path="url(#e2a639c5d2)"><path fill="#ffffff" d="M 10.46875 22.570312 L 9.800781 22.914062 C 9.726562 22.949219 9.648438 22.957031 9.566406 22.929688 C 9.488281 22.902344 9.429688 22.851562 9.390625 22.777344 L 7.761719 19.5625 C 7.722656 19.484375 7.714844 19.40625 7.742188 19.328125 C 7.769531 19.246094 7.820312 19.1875 7.894531 19.148438 L 8.5625 18.808594 C 8.640625 18.773438 8.71875 18.765625 8.796875 18.792969 C 8.878906 18.816406 8.9375 18.867188 8.976562 18.945312 L 10.605469 22.160156 C 10.644531 22.234375 10.648438 22.3125 10.621094 22.394531 C 10.597656 22.472656 10.546875 22.535156 10.46875 22.570312 Z M 10.46875 22.570312 " fill-opacity="1" fill-rule="nonzero"/><path fill="#000000" d="M 10.617188 22.121094 C 10.574219 22.035156 10.527344 21.945312 10.484375 21.855469 C 10.296875 21.492188 10.113281 21.125 9.925781 20.757812 L 9.304688 19.535156 C 9.203125 19.332031 9.105469 19.128906 9 18.929688 C 8.9375 18.808594 8.835938 18.75 8.699219 18.75 C 8.621094 18.753906 8.546875 18.78125 8.480469 18.820312 L 7.921875 19.105469 C 7.835938 19.140625 7.773438 19.199219 7.730469 19.28125 C 7.683594 19.382812 7.683594 19.480469 7.734375 19.578125 C 7.769531 19.644531 7.800781 19.710938 7.835938 19.777344 L 8.359375 20.804688 L 8.992188 22.054688 C 9.113281 22.296875 9.234375 22.535156 9.355469 22.773438 C 9.394531 22.859375 9.460938 22.917969 9.550781 22.949219 C 9.644531 22.980469 9.730469 22.976562 9.816406 22.933594 C 9.988281 22.851562 10.15625 22.761719 10.328125 22.671875 L 10.484375 22.59375 C 10.664062 22.5 10.703125 22.296875 10.617188 22.121094 Z M 10.457031 22.546875 L 10.011719 22.773438 C 9.941406 22.8125 9.871094 22.847656 9.800781 22.882812 C 9.652344 22.957031 9.53125 22.929688 9.4375 22.796875 C 9.402344 22.742188 9.375 22.683594 9.347656 22.628906 L 9.160156 22.253906 L 8.011719 19.996094 C 7.953125 19.882812 7.894531 19.765625 7.835938 19.648438 C 7.792969 19.5625 7.738281 19.476562 7.761719 19.371094 C 7.796875 19.179688 8.050781 19.101562 8.207031 19.023438 L 8.488281 18.878906 C 8.554688 18.835938 8.628906 18.8125 8.707031 18.804688 C 8.855469 18.808594 8.925781 18.917969 8.988281 19.03125 L 9.152344 19.355469 C 9.339844 19.722656 9.527344 20.089844 9.710938 20.457031 L 10.292969 21.605469 C 10.386719 21.792969 10.488281 21.980469 10.582031 22.171875 C 10.613281 22.242188 10.617188 22.3125 10.59375 22.382812 C 10.570312 22.457031 10.527344 22.511719 10.457031 22.546875 Z M 10.457031 22.546875 " fill-opacity="1" fill-rule="nonzero"/></g><g clip-path="url(#0efb7c134c)"><path fill="#77c655" d="M 10.375 18.75 L 7.433594 20.238281 C 7.285156 20.316406 7.132812 20.324219 6.976562 20.273438 C 6.816406 20.222656 6.699219 20.121094 6.625 19.972656 L 5.609375 17.972656 C 5.535156 17.824219 5.523438 17.671875 5.578125 17.511719 C 5.628906 17.355469 5.726562 17.238281 5.875 17.164062 L 8.816406 15.671875 C 8.964844 15.597656 9.121094 15.585938 9.277344 15.640625 C 9.433594 15.691406 9.550781 15.789062 9.628906 15.9375 L 10.640625 17.941406 C 10.714844 18.089844 10.726562 18.242188 10.675781 18.398438 C 10.625 18.558594 10.523438 18.671875 10.375 18.75 Z M 10.375 18.75 " fill-opacity="1" fill-rule="nonzero"/><path fill="#000000" d="M 10.65625 17.90625 C 10.574219 17.738281 10.484375 17.566406 10.398438 17.394531 L 9.675781 15.96875 C 9.632812 15.878906 9.578125 15.800781 9.503906 15.738281 C 9.34375 15.597656 9.160156 15.550781 8.953125 15.59375 C 8.820312 15.621094 8.695312 15.703125 8.574219 15.765625 L 7.0625 16.53125 C 6.667969 16.730469 6.273438 16.929688 5.882812 17.128906 C 5.734375 17.203125 5.628906 17.3125 5.566406 17.464844 C 5.507812 17.617188 5.503906 17.769531 5.558594 17.925781 C 5.617188 18.066406 5.699219 18.203125 5.765625 18.339844 C 6.023438 18.847656 6.277344 19.351562 6.53125 19.855469 C 6.554688 19.898438 6.578125 19.945312 6.601562 19.988281 C 6.679688 20.144531 6.804688 20.25 6.96875 20.300781 C 7.136719 20.355469 7.300781 20.34375 7.453125 20.261719 L 7.570312 20.203125 L 8.976562 19.492188 L 10.316406 18.8125 L 10.390625 18.773438 C 10.546875 18.691406 10.652344 18.566406 10.703125 18.394531 C 10.757812 18.226562 10.742188 18.0625 10.65625 17.90625 Z M 10.363281 18.722656 L 9.417969 19.199219 L 7.859375 19.992188 L 7.449219 20.203125 C 7.304688 20.277344 7.15625 20.292969 7 20.246094 C 6.84375 20.199219 6.730469 20.101562 6.652344 19.960938 C 6.449219 19.566406 6.253906 19.164062 6.050781 18.769531 L 5.710938 18.09375 C 5.6875 18.050781 5.664062 18.007812 5.644531 17.960938 C 5.550781 17.773438 5.554688 17.589844 5.660156 17.410156 C 5.753906 17.25 5.90625 17.183594 6.058594 17.105469 L 6.652344 16.804688 L 8.234375 16.003906 L 8.75 15.742188 C 8.78125 15.726562 8.808594 15.710938 8.835938 15.699219 C 9.039062 15.597656 9.238281 15.613281 9.425781 15.742188 C 9.578125 15.847656 9.652344 16.035156 9.730469 16.195312 L 10.105469 16.941406 L 10.484375 17.691406 C 10.5625 17.851562 10.675781 18.019531 10.679688 18.199219 C 10.679688 18.4375 10.574219 18.613281 10.363281 18.726562 Z M 10.363281 18.722656 " fill-opacity="1" fill-rule="nonzero"/></g><path fill="#ffffff" d="M 16.0625 18.582031 L 10.027344 18.894531 L 8.476562 15.832031 L 12.214844 10.996094 C 12.265625 10.929688 12.332031 10.898438 12.417969 10.898438 C 12.5 10.894531 12.566406 10.929688 12.621094 10.992188 C 13.492188 12.078125 14.242188 13.246094 14.867188 14.492188 C 15.472656 15.695312 15.949219 16.953125 16.296875 18.257812 C 16.320312 18.335938 16.304688 18.410156 16.257812 18.476562 C 16.210938 18.539062 16.144531 18.578125 16.0625 18.582031 Z M 16.0625 18.582031 " fill-opacity="1" fill-rule="nonzero"/><path fill="#000000" d="M 16.332031 18.277344 C 16.308594 18.175781 16.285156 18.074219 16.25 17.976562 C 16.222656 17.875 16.191406 17.773438 16.160156 17.671875 C 16.027344 17.21875 15.875 16.773438 15.707031 16.332031 C 15.324219 15.328125 14.867188 14.359375 14.324219 13.429688 C 13.859375 12.628906 13.339844 11.863281 12.769531 11.132812 C 12.664062 11 12.558594 10.832031 12.359375 10.875 C 12.257812 10.894531 12.203125 10.96875 12.144531 11.046875 L 11.886719 11.382812 L 10.828125 12.746094 L 8.71875 15.476562 L 8.457031 15.8125 C 8.449219 15.824219 8.445312 15.835938 8.453125 15.847656 C 8.628906 16.195312 8.804688 16.539062 8.980469 16.882812 L 9.8125 18.527344 L 10.007812 18.90625 C 10.011719 18.914062 10.019531 18.921875 10.03125 18.921875 L 14.734375 18.675781 L 16.066406 18.609375 C 16.148438 18.601562 16.21875 18.566406 16.269531 18.5 C 16.324219 18.433594 16.34375 18.359375 16.332031 18.277344 Z M 16.273438 18.347656 C 16.261719 18.476562 16.191406 18.542969 16.0625 18.550781 L 12.886719 18.714844 L 11.285156 18.800781 L 10.492188 18.839844 L 10.09375 18.859375 C 10.078125 18.863281 10.0625 18.867188 10.046875 18.875 C 10.046875 18.871094 10.046875 18.871094 10.046875 18.867188 C 10.023438 18.839844 10.007812 18.808594 9.996094 18.773438 L 9.90625 18.59375 L 9.628906 18.046875 C 9.394531 17.585938 9.164062 17.128906 8.929688 16.667969 C 8.839844 16.484375 8.746094 16.300781 8.652344 16.117188 L 8.558594 15.933594 C 8.542969 15.898438 8.527344 15.867188 8.507812 15.835938 L 10.503906 13.257812 L 11.507812 11.957031 L 12.011719 11.308594 C 12.085938 11.199219 12.167969 11.09375 12.253906 10.996094 C 12.339844 10.90625 12.433594 10.894531 12.539062 10.957031 C 12.617188 11.003906 12.671875 11.101562 12.730469 11.175781 C 12.792969 11.253906 12.855469 11.335938 12.917969 11.417969 C 13.042969 11.582031 13.164062 11.75 13.285156 11.917969 C 13.550781 12.289062 13.800781 12.667969 14.039062 13.054688 C 14.578125 13.941406 15.046875 14.859375 15.445312 15.816406 C 15.625 16.253906 15.789062 16.695312 15.9375 17.144531 C 16.003906 17.347656 16.070312 17.550781 16.128906 17.757812 C 16.160156 17.855469 16.1875 17.953125 16.214844 18.050781 C 16.242188 18.148438 16.285156 18.25 16.277344 18.347656 Z M 16.273438 18.347656 " fill-opacity="1" fill-rule="nonzero"/><g clip-path="url(#63ebe08264)"><path fill="#77c655" d="M 20.148438 6.804688 L 14.976562 11.878906 L 19.210938 6.066406 Z M 20.148438 6.804688 " fill-opacity="1" fill-rule="nonzero"/><path fill="#000000" d="M 20.167969 6.785156 L 19.234375 6.046875 C 19.214844 6.03125 19.199219 6.03125 19.1875 6.050781 L 15.886719 10.582031 L 14.953125 11.863281 L 14.953125 11.867188 C 14.945312 11.878906 14.949219 11.886719 14.957031 11.894531 L 14.960938 11.894531 C 14.972656 11.90625 14.984375 11.90625 14.996094 11.894531 L 19.035156 7.933594 L 20.167969 6.824219 C 20.183594 6.8125 20.183594 6.796875 20.167969 6.785156 Z M 16.085938 10.75 L 15.199219 11.621094 L 18.304688 7.359375 L 19.21875 6.105469 L 20.105469 6.808594 Z M 16.085938 10.75 " fill-opacity="1" fill-rule="nonzero"/></g><path fill="#77c655" d="M 23.746094 11.816406 L 16.863281 14.082031 L 23.234375 10.742188 Z M 23.746094 11.816406 " fill-opacity="1" fill-rule="nonzero"/><path fill="#000000" d="M 23.773438 11.804688 L 23.261719 10.722656 C 23.25 10.707031 23.238281 10.703125 23.222656 10.714844 L 18.257812 13.320312 L 16.851562 14.058594 C 16.835938 14.0625 16.832031 14.074219 16.839844 14.089844 C 16.84375 14.101562 16.855469 14.105469 16.867188 14.105469 L 16.871094 14.105469 L 22.25 12.339844 L 23.753906 11.847656 C 23.78125 11.839844 23.785156 11.824219 23.773438 11.804688 Z M 18.363281 13.558594 L 17.183594 13.949219 L 21.84375 11.503906 L 23.222656 10.78125 C 23.382812 11.121094 23.546875 11.460938 23.707031 11.800781 Z M 18.363281 13.558594 " fill-opacity="1" fill-rule="nonzero"/><g clip-path="url(#5ee7f7cd9c)"><path fill="#77c655" d="M 24.519531 17.738281 L 17.308594 17.074219 L 24.480469 16.546875 Z M 24.519531 17.738281 " fill-opacity="1" fill-rule="nonzero"/><path fill="#000000" d="M 24.507812 16.546875 C 24.507812 16.53125 24.496094 16.519531 24.476562 16.519531 L 18.886719 16.929688 L 17.304688 17.042969 C 17.28125 17.039062 17.273438 17.046875 17.277344 17.070312 C 17.273438 17.089844 17.285156 17.101562 17.304688 17.097656 L 22.941406 17.621094 L 24.519531 17.769531 C 24.539062 17.769531 24.546875 17.757812 24.546875 17.742188 Z M 18.886719 17.191406 L 17.648438 17.078125 L 22.894531 16.691406 L 24.449219 16.578125 L 24.488281 17.710938 Z M 18.886719 17.191406 " fill-opacity="1" fill-rule="nonzero"/></g></svg>