<svg xmlns="http://www.w3.org/2000/svg" xmlns:xlink="http://www.w3.org/1999/xlink" width="40" zoomAndPan="magnify" viewBox="0 0 30 30.000001" height="40" preserveAspectRatio="xMidYMid meet" version="1.0"><defs><clipPath id="1e4c9d2647"><path d="M 0.484375 0 L 29.515625 0 L 29.515625 29.03125 L 0.484375 29.03125 Z M 0.484375 0 " clip-rule="nonzero"/></clipPath><clipPath id="e2dd17daf0"><path d="M 2.316406 0.917969 L 18.496094 0.917969 L 18.496094 16.714844 L 2.316406 16.714844 Z M 2.316406 0.917969 " clip-rule="nonzero"/></clipPath><clipPath id="25c1177db5"><path d="M 1 4 L 11 4 L 11 17 L 1 17 Z M 1 4 " clip-rule="nonzero"/></clipPath><clipPath id="ba00a07c51"><path d="M 1.929688 4.277344 L 13.3125 6.835938 L 10.75 18.214844 L -0.628906 15.65625 Z M 1.929688 4.277344 " clip-rule="nonzero"/></clipPath><clipPath id="0def7f8436"><path d="M 1.929688 4.277344 L 13.3125 6.835938 L 10.75 18.214844 L -0.628906 15.65625 Z M 1.929688 4.277344 " clip-rule="nonzero"/></clipPath><clipPath id="4cfaf30579"><rect x="0" width="19" y="0" height="18"/></clipPath></defs><g clip-path="url(#1e4c9d2647)"><path fill="#ffffff" d="M 0.484375 0 L 29.515625 0 L 29.515625 29.03125 L 0.484375 29.03125 Z M 0.484375 0 " fill-opacity="1" fill-rule="nonzero"/><path fill="#ffffff" d="M 0.484375 0 L 29.515625 0 L 29.515625 29.03125 L 0.484375 29.03125 Z M 0.484375 0 " fill-opacity="1" fill-rule="nonzero"/></g><g transform="matrix(1, 0, 0, 1, 4, 5)"><g clip-path="url(#4cfaf30579)"><g clip-path="url(#e2dd17daf0)"><path fill="#000000" d="M 9.664062 9.066406 L 9.996094 9.066406 L 10.035156 9.117188 C 10.296875 9.441406 10.742188 9.652344 11.242188 9.652344 C 11.746094 9.652344 12.191406 9.441406 12.453125 9.117188 L 12.492188 9.066406 L 12.824219 9.066406 C 14.046875 9.066406 15.039062 10.054688 15.039062 11.269531 L 15.039062 11.566406 L 7.449219 11.566406 L 7.449219 11.269531 C 7.449219 10.054688 8.441406 9.066406 9.664062 9.066406 Z M 4.554688 5.695312 C 4.828125 5.707031 5.09375 5.835938 5.273438 6.066406 L 5.339844 6.152344 L 5.535156 6.492188 C 5.660156 6.734375 5.746094 6.96875 5.800781 7.199219 L 5.820312 7.25 L 5.832031 7.300781 L 5.933594 7.707031 L 5.945312 7.738281 L 5.957031 7.800781 C 6 7.972656 5.992188 8.152344 5.9375 8.320312 C 5.894531 8.453125 5.820312 8.578125 5.722656 8.683594 L 5.648438 8.761719 L 5.582031 8.820312 L 4.808594 9.417969 C 4.648438 9.539062 4.5625 9.625 4.707031 9.914062 C 4.707031 9.914062 4.757812 10.011719 4.757812 10.011719 C 4.839844 10.191406 4.828125 10.152344 4.875 10.257812 C 5.09375 10.707031 5.3125 11.144531 5.589844 11.59375 C 6.082031 12.378906 6.628906 13.070312 7.191406 13.640625 L 7.222656 13.667969 L 7.238281 13.671875 C 7.296875 13.664062 7.351562 13.636719 7.421875 13.605469 L 8.300781 13.179688 L 8.386719 13.148438 L 8.488281 13.117188 C 8.628906 13.074219 8.773438 13.066406 8.914062 13.085938 C 9.085938 13.113281 9.253906 13.1875 9.390625 13.296875 L 9.441406 13.339844 L 9.464844 13.363281 L 9.785156 13.632812 L 9.863281 13.703125 C 10.042969 13.859375 10.21875 14.035156 10.378906 14.257812 L 10.601562 14.582031 L 10.648438 14.679688 C 10.792969 14.980469 10.769531 15.320312 10.609375 15.585938 C 10.539062 15.707031 10.441406 15.816406 10.320312 15.898438 C 10.28125 15.925781 10.238281 15.949219 10.191406 15.972656 L 9.792969 16.160156 L 9.789062 16.179688 L 9.785156 16.167969 L 8.839844 16.617188 L 8.8125 16.632812 L 8.789062 16.640625 L 8.765625 16.652344 L 8.722656 16.667969 C 8.566406 16.722656 8.398438 16.726562 8.234375 16.691406 L 8.195312 16.679688 L 8.191406 16.683594 L 8.101562 16.660156 C 6.832031 16.257812 5.292969 14.898438 4.097656 12.980469 L 4.074219 12.941406 L 4.078125 12.9375 L 4.058594 12.914062 C 4.003906 12.828125 3.949219 12.742188 3.894531 12.65625 C 2.699219 10.738281 2.15625 8.761719 2.359375 7.457031 L 2.375 7.363281 L 2.378906 7.359375 L 2.386719 7.320312 C 2.425781 7.160156 2.507812 7.011719 2.625 6.898438 L 2.660156 6.867188 L 2.699219 6.835938 L 2.722656 6.816406 L 3.550781 6.175781 L 3.539062 6.164062 L 3.558594 6.167969 L 3.90625 5.898438 C 3.945312 5.867188 3.988281 5.839844 4.03125 5.816406 C 4.15625 5.746094 4.296875 5.707031 4.4375 5.695312 C 4.476562 5.695312 4.515625 5.691406 4.554688 5.695312 Z M 11.242188 4.070312 C 12.4375 4.070312 13.40625 5.136719 13.40625 6.457031 C 13.40625 7.777344 12.4375 8.84375 11.242188 8.84375 C 10.050781 8.84375 9.082031 7.777344 9.082031 6.457031 C 9.082031 5.136719 10.050781 4.070312 11.242188 4.070312 Z M 11.246094 3.59375 C 12.355469 3.59375 13.300781 4.398438 13.683594 5.539062 L 13.734375 5.710938 L 13.949219 5.695312 C 14.257812 5.679688 14.523438 5.910156 14.542969 6.21875 L 14.574219 6.726562 C 14.59375 7.035156 14.359375 7.300781 14.046875 7.320312 L 13.707031 7.339844 C 13.636719 7.59375 13.539062 7.828125 13.414062 8.046875 L 13.265625 8.273438 L 13.300781 8.328125 C 13.332031 8.40625 13.316406 8.496094 13.253906 8.558594 L 12.945312 8.863281 C 12.859375 8.945312 12.726562 8.945312 12.644531 8.863281 L 12.554688 8.773438 C 12.472656 8.691406 12.472656 8.554688 12.554688 8.472656 L 12.863281 8.167969 C 12.90625 8.128906 12.960938 8.109375 13.015625 8.109375 L 13.070312 8.121094 L 13.152344 8.007812 C 13.25 7.855469 13.332031 7.691406 13.402344 7.515625 L 13.464844 7.328125 L 13.457031 7.324219 L 13.464844 7.300781 C 13.566406 6.980469 13.609375 6.632812 13.585938 6.273438 C 13.574219 6.09375 13.546875 5.917969 13.507812 5.75 L 13.5 5.726562 L 13.472656 5.632812 C 13.125 4.59375 12.257812 3.859375 11.246094 3.859375 C 10.234375 3.859375 9.367188 4.59375 9.019531 5.632812 L 8.976562 5.777344 L 8.929688 6.007812 C 8.917969 6.09375 8.90625 6.183594 8.902344 6.273438 C 8.878906 6.632812 8.921875 6.980469 9.023438 7.300781 L 9.03125 7.324219 L 8.972656 7.339844 C 8.9375 7.34375 8.898438 7.347656 8.859375 7.34375 L 8.441406 7.320312 C 8.128906 7.300781 7.894531 7.035156 7.914062 6.726562 L 7.945312 6.21875 C 7.964844 5.910156 8.230469 5.679688 8.539062 5.695312 L 8.757812 5.710938 L 8.808594 5.539062 C 9.191406 4.398438 10.136719 3.59375 11.246094 3.59375 Z M 11.101562 0.921875 C 15.183594 0.921875 18.496094 4.210938 18.496094 8.273438 C 18.496094 12.207031 15.390625 15.417969 11.480469 15.613281 L 11.148438 15.625 L 11.175781 15.585938 C 11.253906 15.453125 11.300781 15.300781 11.308594 15.144531 L 11.292969 14.921875 L 11.445312 14.921875 C 14.984375 14.742188 17.796875 11.832031 17.796875 8.273438 C 17.796875 4.597656 14.796875 1.617188 11.101562 1.617188 C 8.558594 1.617188 6.347656 3.023438 5.214844 5.097656 L 5.074219 5.390625 L 4.898438 5.289062 C 4.753906 5.226562 4.597656 5.199219 4.441406 5.210938 L 4.378906 5.222656 L 4.597656 4.769531 C 5.851562 2.476562 8.292969 0.921875 11.101562 0.921875 Z M 11.101562 0.921875 " fill-opacity="1" fill-rule="evenodd"/></g><g clip-path="url(#25c1177db5)"><g clip-path="url(#ba00a07c51)"><g clip-path="url(#0def7f8436)"><path fill="#77c655" d="M 10.21875 13.9375 L 10.8125 14.875 C 11.226562 15.53125 10.90625 16.410156 10.160156 16.628906 C 7.554688 17.410156 5.328125 15.6875 3.609375 12.964844 C 1.894531 10.253906 1.226562 7.421875 3.003906 5.371094 C 3.523438 4.773438 4.46875 4.847656 4.890625 5.511719 L 5.628906 6.679688 C 5.976562 7.226562 5.8125 7.957031 5.261719 8.304688 L 4.707031 8.65625 C 4.203125 8.972656 4.054688 9.636719 4.371094 10.136719 L 6.558594 13.589844 C 6.875 14.09375 7.539062 14.242188 8.039062 13.925781 L 8.59375 13.574219 C 9.144531 13.226562 9.871094 13.390625 10.21875 13.9375 Z M 10.21875 13.9375 " fill-opacity="1" fill-rule="nonzero"/></g></g></g></g></g></svg>