<svg xmlns="http://www.w3.org/2000/svg" xmlns:xlink="http://www.w3.org/1999/xlink" width="40" zoomAndPan="magnify" viewBox="0 0 30 30.000001" height="40" preserveAspectRatio="xMidYMid meet" version="1.0"><defs><clipPath id="60bff3bb7a"><path d="M 0.484375 0 L 29.515625 0 L 29.515625 29.03125 L 0.484375 29.03125 Z M 0.484375 0 " clip-rule="nonzero"/></clipPath><clipPath id="32e492735e"><path d="M 6.648438 7.441406 L 23.339844 7.441406 L 23.339844 18 L 6.648438 18 Z M 6.648438 7.441406 " clip-rule="nonzero"/></clipPath><clipPath id="80a7c3ac5e"><path d="M 9 19 L 21 19 L 21 24.136719 L 9 24.136719 Z M 9 19 " clip-rule="nonzero"/></clipPath></defs><g clip-path="url(#60bff3bb7a)"><path fill="#ffffff" d="M 0.484375 0 L 29.515625 0 L 29.515625 29.03125 L 0.484375 29.03125 Z M 0.484375 0 " fill-opacity="1" fill-rule="nonzero"/><path fill="#ffffff" d="M 0.484375 0 L 29.515625 0 L 29.515625 29.03125 L 0.484375 29.03125 Z M 0.484375 0 " fill-opacity="1" fill-rule="nonzero"/></g><g clip-path="url(#32e492735e)"><path fill="#011839" d="M 22.871094 9.6875 L 15.140625 7.480469 C 15.042969 7.453125 14.9375 7.453125 14.835938 7.480469 L 7.113281 9.6875 C 6.820312 9.769531 6.648438 10.082031 6.730469 10.371094 C 6.8125 10.664062 7.121094 10.835938 7.414062 10.753906 L 7.8125 10.636719 L 7.8125 12.707031 C 7.8125 13.132812 7.980469 13.519531 8.242188 13.8125 C 7.980469 14.105469 7.8125 14.492188 7.8125 14.917969 L 7.8125 16.296875 C 7.8125 17.210938 8.558594 17.953125 9.46875 17.953125 L 20.515625 17.953125 C 21.425781 17.953125 22.171875 17.210938 22.171875 16.296875 L 22.171875 14.917969 C 22.171875 14.492188 22.003906 14.105469 21.738281 13.8125 C 22.003906 13.519531 22.171875 13.132812 22.171875 12.707031 L 22.171875 10.636719 L 22.574219 10.753906 C 22.625 10.769531 22.671875 10.777344 22.726562 10.777344 C 22.964844 10.777344 23.1875 10.617188 23.257812 10.371094 C 23.339844 10.082031 23.171875 9.777344 22.878906 9.6875 Z M 14.992188 8.582031 L 17.753906 9.375 L 17.753906 13.253906 L 9.46875 13.253906 C 9.164062 13.253906 8.917969 13.007812 8.917969 12.703125 L 8.917969 10.316406 Z M 8.917969 16.292969 L 8.917969 14.914062 C 8.917969 14.609375 9.164062 14.359375 9.46875 14.359375 L 17.753906 14.359375 L 17.753906 16.84375 L 9.46875 16.84375 C 9.164062 16.84375 8.917969 16.597656 8.917969 16.292969 Z M 21.066406 16.292969 C 21.066406 16.597656 20.816406 16.84375 20.515625 16.84375 L 18.855469 16.84375 L 18.855469 14.359375 L 20.515625 14.359375 C 20.816406 14.359375 21.066406 14.609375 21.066406 14.914062 Z M 21.066406 12.703125 C 21.066406 13.007812 20.816406 13.253906 20.515625 13.253906 L 18.855469 13.253906 L 18.855469 9.6875 L 21.066406 10.316406 Z M 21.066406 12.703125 " fill-opacity="1" fill-rule="nonzero"/></g><path fill="#011839" d="M 10.574219 12.566406 L 10.851562 12.566406 C 11.152344 12.566406 11.402344 12.316406 11.402344 12.011719 C 11.402344 11.710938 11.152344 11.460938 10.851562 11.460938 L 10.574219 11.460938 C 10.269531 11.460938 10.023438 11.710938 10.023438 12.011719 C 10.023438 12.316406 10.269531 12.566406 10.574219 12.566406 Z M 10.574219 12.566406 " fill-opacity="1" fill-rule="nonzero"/><path fill="#011839" d="M 12.78125 12.566406 L 13.058594 12.566406 C 13.363281 12.566406 13.609375 12.316406 13.609375 12.011719 C 13.609375 11.710938 13.363281 11.460938 13.058594 11.460938 L 12.78125 11.460938 C 12.480469 11.460938 12.230469 11.710938 12.230469 12.011719 C 12.230469 12.316406 12.480469 12.566406 12.78125 12.566406 Z M 12.78125 12.566406 " fill-opacity="1" fill-rule="nonzero"/><path fill="#011839" d="M 14.992188 12.566406 L 15.269531 12.566406 C 15.570312 12.566406 15.820312 12.316406 15.820312 12.011719 C 15.820312 11.710938 15.570312 11.460938 15.269531 11.460938 L 14.992188 11.460938 C 14.6875 11.460938 14.441406 11.710938 14.441406 12.011719 C 14.441406 12.316406 14.6875 12.566406 14.992188 12.566406 Z M 14.992188 12.566406 " fill-opacity="1" fill-rule="nonzero"/><path fill="#011839" d="M 10.851562 15.050781 L 10.574219 15.050781 C 10.269531 15.050781 10.023438 15.296875 10.023438 15.601562 C 10.023438 15.90625 10.269531 16.15625 10.574219 16.15625 L 10.851562 16.15625 C 11.152344 16.15625 11.402344 15.90625 11.402344 15.601562 C 11.402344 15.296875 11.152344 15.050781 10.851562 15.050781 Z M 10.851562 15.050781 " fill-opacity="1" fill-rule="nonzero"/><path fill="#011839" d="M 13.058594 15.050781 L 12.78125 15.050781 C 12.480469 15.050781 12.230469 15.296875 12.230469 15.601562 C 12.230469 15.90625 12.480469 16.15625 12.78125 16.15625 L 13.058594 16.15625 C 13.363281 16.15625 13.609375 15.90625 13.609375 15.601562 C 13.609375 15.296875 13.363281 15.050781 13.058594 15.050781 Z M 13.058594 15.050781 " fill-opacity="1" fill-rule="nonzero"/><path fill="#011839" d="M 15.269531 15.050781 L 14.992188 15.050781 C 14.6875 15.050781 14.441406 15.296875 14.441406 15.601562 C 14.441406 15.90625 14.6875 16.15625 14.992188 16.15625 L 15.269531 16.15625 C 15.570312 16.15625 15.820312 15.90625 15.820312 15.601562 C 15.820312 15.296875 15.570312 15.050781 15.269531 15.050781 Z M 15.269531 15.050781 " fill-opacity="1" fill-rule="nonzero"/><g clip-path="url(#80a7c3ac5e)"><path fill="#77c655" d="M 19.960938 21.539062 L 18.582031 21.539062 L 18.582031 21.261719 C 18.582031 20.65625 18.085938 20.15625 17.476562 20.15625 L 16.511719 20.15625 L 16.511719 19.054688 L 13.472656 19.054688 L 13.472656 20.15625 L 12.507812 20.15625 C 11.898438 20.15625 11.402344 20.65625 11.402344 21.261719 L 11.402344 21.539062 L 10.023438 21.539062 C 9.71875 21.539062 9.46875 21.789062 9.46875 22.089844 C 9.46875 22.394531 9.71875 22.644531 10.023438 22.644531 L 11.402344 22.644531 L 11.402344 22.917969 C 11.402344 23.527344 11.898438 24.023438 12.507812 24.023438 L 17.476562 24.023438 C 18.085938 24.023438 18.582031 23.527344 18.582031 22.917969 L 18.582031 22.644531 L 19.960938 22.644531 C 20.265625 22.644531 20.515625 22.394531 20.515625 22.089844 C 20.515625 21.789062 20.265625 21.539062 19.960938 21.539062 Z M 14.714844 22.230469 C 14.714844 22.53125 14.46875 22.78125 14.164062 22.78125 C 13.859375 22.78125 13.609375 22.53125 13.609375 22.230469 L 13.609375 21.953125 C 13.609375 21.648438 13.859375 21.402344 14.164062 21.402344 C 14.46875 21.402344 14.714844 21.648438 14.714844 21.953125 Z M 16.371094 22.230469 C 16.371094 22.53125 16.125 22.78125 15.820312 22.78125 C 15.515625 22.78125 15.269531 22.53125 15.269531 22.230469 L 15.269531 21.953125 C 15.269531 21.648438 15.515625 21.402344 15.820312 21.402344 C 16.125 21.402344 16.371094 21.648438 16.371094 21.953125 Z M 16.371094 22.230469 " fill-opacity="1" fill-rule="nonzero"/></g><path fill="#77c655" d="M 22.171875 21.539062 L 21.894531 21.539062 C 21.589844 21.539062 21.34375 21.789062 21.34375 22.089844 C 21.34375 22.394531 21.589844 22.644531 21.894531 22.644531 L 22.171875 22.644531 C 22.472656 22.644531 22.722656 22.394531 22.722656 22.089844 C 22.722656 21.789062 22.472656 21.539062 22.171875 21.539062 Z M 22.171875 21.539062 " fill-opacity="1" fill-rule="nonzero"/><path fill="#77c655" d="M 8.089844 21.539062 L 7.8125 21.539062 C 7.507812 21.539062 7.261719 21.789062 7.261719 22.089844 C 7.261719 22.394531 7.507812 22.644531 7.8125 22.644531 L 8.089844 22.644531 C 8.394531 22.644531 8.640625 22.394531 8.640625 22.089844 C 8.640625 21.789062 8.394531 21.539062 8.089844 21.539062 Z M 8.089844 21.539062 " fill-opacity="1" fill-rule="nonzero"/></svg>