<svg xmlns="http://www.w3.org/2000/svg" xmlns:xlink="http://www.w3.org/1999/xlink" width="40" zoomAndPan="magnify" viewBox="0 0 30 30.000001" height="40" preserveAspectRatio="xMidYMid meet" version="1.0"><defs><clipPath id="8d8db1285f"><path d="M 0.484375 0 L 29.515625 0 L 29.515625 29.03125 L 0.484375 29.03125 Z M 0.484375 0 " clip-rule="nonzero"/></clipPath><clipPath id="03fdf420a4"><path d="M 0.597656 0.851562 L 19.46875 0.851562 L 19.46875 21.175781 L 0.597656 21.175781 Z M 0.597656 0.851562 " clip-rule="nonzero"/></clipPath><clipPath id="68b2f92795"><rect x="0" width="20" y="0" height="22"/></clipPath></defs><g clip-path="url(#8d8db1285f)"><path fill="#ffffff" d="M 0.484375 0 L 29.515625 0 L 29.515625 29.03125 L 0.484375 29.03125 Z M 0.484375 0 " fill-opacity="1" fill-rule="nonzero"/><path fill="#ffffff" d="M 0.484375 0 L 29.515625 0 L 29.515625 29.03125 L 0.484375 29.03125 Z M 0.484375 0 " fill-opacity="1" fill-rule="nonzero"/></g><g transform="matrix(1, 0, 0, 1, 5, 5)"><g clip-path="url(#68b2f92795)"><g clip-path="url(#03fdf420a4)"><path fill="#000000" d="M 6 15.625 C 6.011719 15.632812 6.027344 15.636719 6.039062 15.644531 C 6.207031 15.75 6.335938 15.898438 6.414062 16.070312 C 6.503906 16.011719 6.601562 15.96875 6.703125 15.941406 C 6.953125 15.875 7.226562 15.902344 7.472656 16.035156 C 7.488281 16.042969 7.5 16.050781 7.515625 16.058594 C 7.75 16.203125 7.90625 16.425781 7.972656 16.675781 C 8 16.777344 8.011719 16.882812 8.007812 16.988281 C 8.195312 16.96875 8.386719 17.007812 8.5625 17.101562 C 8.574219 17.109375 8.585938 17.117188 8.597656 17.125 C 8.820312 17.257812 8.96875 17.46875 9.03125 17.699219 C 9.050781 17.777344 9.0625 17.855469 9.066406 17.933594 C 9.265625 17.910156 9.476562 17.945312 9.664062 18.054688 L 9.683594 18.066406 C 9.902344 18.199219 10.054688 18.410156 10.117188 18.644531 C 10.179688 18.882812 10.152344 19.148438 10.019531 19.378906 L 9.664062 19.988281 C 10.007812 20.195312 10.367188 20.40625 10.710938 20.585938 C 10.824219 20.652344 10.957031 20.667969 11.078125 20.636719 C 11.199219 20.601562 11.304688 20.523438 11.371094 20.410156 C 11.4375 20.296875 11.453125 20.164062 11.417969 20.042969 C 11.386719 19.921875 11.308594 19.816406 11.195312 19.75 L 10.46875 19.328125 C 10.34375 19.257812 10.300781 19.097656 10.371094 18.96875 C 10.445312 18.84375 10.605469 18.800781 10.734375 18.875 L 11.457031 19.292969 L 11.484375 19.308594 L 12.085938 19.65625 C 12.199219 19.71875 12.332031 19.734375 12.453125 19.703125 C 12.566406 19.671875 12.671875 19.597656 12.738281 19.492188 C 12.742188 19.480469 12.75 19.472656 12.757812 19.460938 C 12.816406 19.347656 12.824219 19.222656 12.796875 19.109375 C 12.765625 18.996094 12.691406 18.890625 12.585938 18.824219 C 12.578125 18.820312 12.566406 18.8125 12.554688 18.804688 L 11.710938 18.320312 C 11.585938 18.246094 11.542969 18.085938 11.617188 17.960938 C 11.6875 17.835938 11.851562 17.792969 11.976562 17.863281 L 12.835938 18.359375 L 12.84375 18.367188 L 13.507812 18.75 C 13.625 18.816406 13.757812 18.828125 13.878906 18.796875 C 13.996094 18.761719 14.105469 18.6875 14.171875 18.570312 C 14.238281 18.457031 14.253906 18.324219 14.21875 18.203125 C 14.1875 18.085938 14.113281 17.980469 14.007812 17.914062 L 14 17.914062 L 13.996094 17.910156 L 12.96875 17.316406 C 12.84375 17.246094 12.800781 17.085938 12.875 16.957031 C 12.945312 16.832031 13.109375 16.789062 13.234375 16.863281 L 14.773438 17.75 C 14.886719 17.8125 15.015625 17.824219 15.128906 17.792969 C 15.25 17.757812 15.359375 17.679688 15.425781 17.566406 C 15.492188 17.453125 15.503906 17.320312 15.472656 17.199219 C 15.441406 17.078125 15.363281 16.972656 15.246094 16.90625 L 9.488281 13.582031 C 9.347656 13.664062 9.21875 13.734375 9.105469 13.789062 C 8.949219 13.867188 8.808594 13.925781 8.6875 13.964844 C 8.132812 14.164062 7.621094 14.207031 7.15625 14.101562 C 7.136719 14.097656 7.121094 14.089844 7.101562 14.085938 C 6.859375 13.980469 6.691406 13.851562 6.605469 13.695312 C 6.496094 13.503906 6.5 13.296875 6.617188 13.078125 C 6.632812 13.046875 6.65625 13.015625 6.683594 12.996094 L 8.628906 11.328125 L 8.351562 11.253906 C 8.3125 11.257812 8.261719 11.273438 8.203125 11.296875 C 8.117188 11.335938 8.019531 11.398438 7.910156 11.480469 C 7.453125 11.945312 7.003906 12.117188 6.539062 12.105469 C 6.167969 12.09375 5.800781 11.964844 5.414062 11.777344 L 3.609375 15.355469 C 4.054688 15.597656 4.375 15.792969 4.5625 16.21875 C 4.605469 16.144531 4.652344 16.066406 4.695312 15.988281 C 4.828125 15.757812 5.046875 15.605469 5.285156 15.539062 C 5.515625 15.476562 5.773438 15.5 6 15.625 Z M 4.707031 7.902344 C 4.726562 7.921875 4.746094 7.945312 4.765625 7.964844 C 5.011719 8.207031 5.347656 8.359375 5.714844 8.359375 C 6.085938 8.359375 6.421875 8.207031 6.664062 7.964844 C 6.710938 7.917969 6.753906 7.867188 6.792969 7.8125 C 6.835938 7.867188 6.878906 7.917969 6.925781 7.964844 C 7.167969 8.207031 7.503906 8.359375 7.871094 8.359375 C 8.242188 8.359375 8.578125 8.207031 8.820312 7.964844 C 8.867188 7.917969 8.910156 7.867188 8.953125 7.8125 C 8.992188 7.867188 9.035156 7.917969 9.082031 7.964844 C 9.324219 8.207031 9.660156 8.359375 10.03125 8.359375 C 10.398438 8.359375 10.734375 8.207031 10.980469 7.964844 C 11.027344 7.917969 11.070312 7.867188 11.109375 7.8125 C 11.148438 7.867188 11.191406 7.917969 11.238281 7.964844 C 11.480469 8.207031 11.816406 8.359375 12.1875 8.359375 C 12.554688 8.359375 12.890625 8.207031 13.136719 7.964844 C 13.183594 7.917969 13.226562 7.867188 13.265625 7.8125 C 13.304688 7.867188 13.347656 7.917969 13.394531 7.964844 C 13.640625 8.207031 13.972656 8.359375 14.34375 8.359375 C 14.714844 8.359375 15.050781 8.207031 15.292969 7.964844 C 15.3125 7.945312 15.332031 7.921875 15.351562 7.902344 L 15.351562 10.320312 L 14.433594 10.78125 C 14.304688 10.847656 14.253906 11.003906 14.320312 11.136719 L 14.421875 11.339844 L 13.421875 11.566406 C 13.351562 11.574219 13.28125 11.570312 13.21875 11.558594 C 13.15625 11.542969 13.097656 11.519531 13.039062 11.484375 L 12.25 10.945312 C 12.140625 10.855469 12.03125 10.785156 11.917969 10.738281 C 11.796875 10.683594 11.675781 10.652344 11.550781 10.648438 C 11 10.640625 10.4375 10.632812 9.886719 10.632812 C 9.757812 10.632812 9.636719 10.648438 9.523438 10.679688 C 9.40625 10.714844 9.300781 10.765625 9.203125 10.835938 L 9.1875 10.851562 L 9.113281 10.914062 L 8.457031 10.734375 C 8.425781 10.726562 8.398438 10.722656 8.367188 10.726562 C 8.25 10.726562 8.121094 10.757812 7.988281 10.816406 C 7.859375 10.875 7.722656 10.960938 7.574219 11.074219 C 7.5625 11.082031 7.550781 11.09375 7.539062 11.105469 C 7.199219 11.457031 6.875 11.585938 6.554688 11.578125 C 6.273438 11.570312 5.972656 11.464844 5.652344 11.308594 L 5.742188 11.128906 C 5.808594 11 5.753906 10.839844 5.625 10.773438 L 4.707031 10.3125 Z M 4.179688 10.046875 L 4.179688 8.195312 C 3.988281 8.300781 3.769531 8.359375 3.539062 8.359375 C 3.167969 8.359375 2.832031 8.207031 2.589844 7.964844 L 2.574219 7.949219 C 2.339844 7.707031 2.195312 7.378906 2.195312 7.015625 L 2.195312 5.871094 C 2.195312 5.789062 2.230469 5.714844 2.289062 5.667969 L 4.179688 3.851562 L 4.179688 3.3125 C 4.179688 3.144531 4.25 2.988281 4.359375 2.878906 C 4.472656 2.765625 4.625 2.695312 4.796875 2.695312 L 6.398438 2.695312 C 6.441406 2.164062 6.871094 1.699219 7.546875 1.367188 C 8.199219 1.050781 9.09375 0.855469 10.078125 0.855469 C 11.0625 0.855469 11.957031 1.050781 12.613281 1.367188 C 13.285156 1.699219 13.714844 2.164062 13.757812 2.695312 L 15.261719 2.695312 C 15.433594 2.695312 15.585938 2.765625 15.699219 2.878906 C 15.8125 2.988281 15.878906 3.144531 15.878906 3.3125 L 15.878906 3.851562 L 17.769531 5.667969 C 17.828125 5.714844 17.863281 5.789062 17.863281 5.871094 L 17.863281 7.015625 C 17.863281 7.386719 17.714844 7.722656 17.46875 7.964844 C 17.226562 8.207031 16.890625 8.359375 16.523438 8.359375 C 16.289062 8.359375 16.070312 8.300781 15.878906 8.195312 L 15.878906 10.054688 L 16.652344 9.667969 C 16.78125 9.601562 16.941406 9.652344 17.007812 9.78125 L 19.429688 14.589844 C 19.496094 14.722656 19.445312 14.878906 19.3125 14.945312 L 17.097656 16.058594 C 16.964844 16.125 16.808594 16.074219 16.742188 15.945312 L 16.671875 15.808594 C 16.449219 15.914062 16.257812 16.039062 16.09375 16.179688 C 15.945312 16.308594 15.820312 16.453125 15.71875 16.609375 C 15.847656 16.734375 15.9375 16.894531 15.984375 17.0625 C 16.050781 17.3125 16.019531 17.589844 15.882812 17.828125 C 15.742188 18.070312 15.515625 18.234375 15.265625 18.300781 C 15.105469 18.34375 14.933594 18.347656 14.765625 18.304688 C 14.769531 18.484375 14.726562 18.667969 14.628906 18.835938 C 14.488281 19.074219 14.265625 19.238281 14.015625 19.304688 C 13.796875 19.363281 13.558594 19.347656 13.339844 19.25 C 13.335938 19.410156 13.296875 19.566406 13.21875 19.714844 C 13.210938 19.730469 13.199219 19.75 13.191406 19.765625 C 13.050781 19.992188 12.832031 20.144531 12.589844 20.210938 C 12.386719 20.265625 12.167969 20.257812 11.964844 20.175781 C 11.960938 20.335938 11.921875 20.5 11.84375 20.648438 C 11.835938 20.664062 11.828125 20.679688 11.816406 20.691406 C 11.679688 20.921875 11.457031 21.078125 11.214844 21.144531 C 10.96875 21.210938 10.703125 21.183594 10.464844 21.054688 C 10.449219 21.046875 10.4375 21.039062 10.425781 21.03125 C 10.089844 20.839844 9.742188 20.625 9.398438 20.433594 C 9.265625 20.605469 9.082031 20.722656 8.882812 20.773438 C 8.652344 20.835938 8.394531 20.8125 8.167969 20.6875 C 8.15625 20.683594 8.144531 20.675781 8.128906 20.667969 C 7.910156 20.535156 7.761719 20.324219 7.699219 20.089844 L 7.691406 20.0625 L 7.664062 20.070312 C 7.421875 20.132812 7.160156 20.105469 6.925781 19.972656 L 6.910156 19.960938 C 6.6875 19.828125 6.539062 19.617188 6.476562 19.386719 C 6.472656 19.367188 6.46875 19.347656 6.464844 19.328125 L 6.433594 19.339844 C 6.175781 19.40625 5.894531 19.378906 5.648438 19.234375 L 5.640625 19.230469 C 5.398438 19.085938 5.230469 18.859375 5.164062 18.605469 L 5.15625 18.578125 C 5.136719 18.582031 5.121094 18.585938 5.101562 18.59375 C 4.867188 18.65625 4.613281 18.632812 4.386719 18.507812 C 4.371094 18.5 4.359375 18.492188 4.347656 18.484375 C 4.128906 18.351562 3.976562 18.140625 3.914062 17.910156 C 3.851562 17.667969 3.878906 17.40625 4.011719 17.175781 C 4.074219 17.074219 4.132812 16.976562 4.1875 16.875 C 4.101562 16.265625 3.824219 16.074219 3.371094 15.828125 L 3.316406 15.9375 C 3.25 16.066406 3.09375 16.121094 2.964844 16.054688 L 0.746094 14.9375 C 0.617188 14.875 0.5625 14.714844 0.628906 14.585938 L 3.054688 9.777344 C 3.121094 9.648438 3.277344 9.59375 3.40625 9.660156 Z M 17.335938 6.132812 L 15.707031 6.132812 L 15.707031 7.015625 C 15.707031 7.242188 15.800781 7.445312 15.945312 7.59375 C 16.09375 7.738281 16.296875 7.832031 16.523438 7.832031 C 16.746094 7.832031 16.949219 7.738281 17.097656 7.589844 C 17.246094 7.445312 17.335938 7.242188 17.335938 7.015625 Z M 15.558594 5.605469 L 16.945312 5.605469 L 15.511719 4.226562 L 14.554688 4.226562 Z M 15.160156 6.132812 L 13.53125 6.132812 L 13.53125 7.015625 C 13.53125 7.242188 13.621094 7.445312 13.769531 7.589844 C 13.917969 7.738281 14.121094 7.832031 14.34375 7.832031 C 14.566406 7.832031 14.769531 7.738281 14.917969 7.589844 C 15.066406 7.445312 15.160156 7.242188 15.160156 7.015625 Z M 13.4375 5.605469 L 14.90625 5.605469 L 13.902344 4.226562 L 12.828125 4.226562 Z M 13 6.132812 L 11.371094 6.132812 L 11.371094 7.015625 C 11.371094 7.242188 11.464844 7.445312 11.613281 7.589844 C 11.761719 7.738281 11.964844 7.832031 12.1875 7.832031 C 12.410156 7.832031 12.613281 7.738281 12.761719 7.589844 C 12.910156 7.445312 13 7.242188 13 7.015625 Z M 11.335938 5.605469 L 12.859375 5.605469 L 12.25 4.226562 L 11.144531 4.226562 Z M 3.113281 5.605469 L 4.503906 5.605469 L 5.503906 4.226562 L 4.550781 4.226562 Z M 4.351562 6.132812 L 2.722656 6.132812 L 2.722656 7.015625 C 2.722656 7.234375 2.808594 7.433594 2.949219 7.582031 L 2.964844 7.589844 C 3.109375 7.738281 3.3125 7.832031 3.539062 7.832031 C 3.761719 7.832031 3.964844 7.738281 4.113281 7.589844 C 4.261719 7.445312 4.351562 7.242188 4.351562 7.015625 Z M 5.15625 5.605469 L 6.621094 5.605469 L 7.234375 4.226562 L 6.15625 4.226562 Z M 6.53125 6.132812 L 4.902344 6.132812 L 4.902344 7.015625 C 4.902344 7.242188 4.992188 7.445312 5.140625 7.589844 C 5.289062 7.738281 5.492188 7.832031 5.714844 7.832031 C 5.941406 7.832031 6.144531 7.738281 6.289062 7.589844 C 6.4375 7.445312 6.53125 7.242188 6.53125 7.015625 Z M 7.199219 5.605469 L 8.722656 5.605469 L 8.914062 4.226562 L 7.8125 4.226562 Z M 8.6875 6.132812 L 7.058594 6.132812 L 7.058594 7.015625 C 7.058594 7.242188 7.152344 7.445312 7.296875 7.589844 C 7.445312 7.738281 7.648438 7.832031 7.871094 7.832031 C 8.097656 7.832031 8.300781 7.738281 8.449219 7.589844 C 8.59375 7.445312 8.6875 7.242188 8.6875 7.015625 Z M 9.253906 5.605469 L 10.804688 5.605469 L 10.613281 4.226562 L 9.445312 4.226562 Z M 10.84375 6.132812 L 9.214844 6.132812 L 9.214844 7.015625 C 9.214844 7.242188 9.308594 7.445312 9.457031 7.589844 C 9.601562 7.738281 9.804688 7.832031 10.03125 7.832031 C 10.253906 7.832031 10.457031 7.738281 10.605469 7.589844 C 10.753906 7.445312 10.84375 7.242188 10.84375 7.015625 Z M 13.226562 2.695312 C 13.175781 2.378906 12.863281 2.078125 12.378906 1.84375 C 11.796875 1.558594 10.980469 1.382812 10.078125 1.382812 C 9.175781 1.382812 8.359375 1.558594 7.777344 1.84375 C 7.292969 2.078125 6.980469 2.378906 6.929688 2.695312 Z M 4.707031 3.699219 L 15.351562 3.699219 L 15.351562 3.3125 C 15.351562 3.289062 15.339844 3.265625 15.324219 3.25 C 15.308594 3.234375 15.289062 3.226562 15.261719 3.226562 L 4.796875 3.226562 C 4.773438 3.226562 4.75 3.234375 4.734375 3.25 C 4.71875 3.265625 4.707031 3.289062 4.707031 3.3125 Z M 2.964844 15.464844 L 1.21875 14.585938 L 3.40625 10.25 L 5.152344 11.125 L 5.085938 11.257812 C 5.078125 11.269531 5.066406 11.285156 5.058594 11.300781 C 3.886719 13.601562 3.171875 15.050781 3.042969 15.308594 Z M 14.90625 11.132812 L 16.652344 10.253906 L 18.839844 14.59375 L 17.09375 15.472656 L 17.035156 15.351562 L 17.03125 15.347656 L 15.777344 12.855469 Z M 16.4375 15.335938 C 16.175781 15.464844 15.949219 15.613281 15.753906 15.78125 C 15.5625 15.941406 15.40625 16.121094 15.28125 16.316406 L 9.617188 13.050781 C 9.527344 13 9.421875 13.003906 9.339844 13.054688 C 9.167969 13.160156 9.011719 13.246094 8.871094 13.316406 C 8.734375 13.382812 8.617188 13.433594 8.519531 13.464844 L 8.511719 13.46875 C 8.058594 13.628906 7.652344 13.667969 7.292969 13.59375 C 7.167969 13.539062 7.09375 13.488281 7.066406 13.4375 C 7.054688 13.417969 7.054688 13.394531 7.066406 13.363281 L 9.335938 11.414062 C 9.347656 11.410156 9.355469 11.402344 9.363281 11.390625 L 9.519531 11.261719 C 9.566406 11.226562 9.617188 11.199219 9.671875 11.183594 C 9.734375 11.167969 9.804688 11.160156 9.875 11.160156 L 11.539062 11.175781 C 11.589844 11.175781 11.644531 11.191406 11.707031 11.21875 C 11.773438 11.246094 11.84375 11.296875 11.921875 11.359375 C 11.933594 11.367188 11.941406 11.375 11.953125 11.378906 L 12.753906 11.925781 C 12.863281 11.996094 12.984375 12.046875 13.109375 12.074219 C 13.234375 12.097656 13.367188 12.101562 13.503906 12.085938 L 13.527344 12.082031 L 14.664062 11.824219 Z M 9.074219 19.957031 L 9.015625 20.058594 C 8.957031 20.164062 8.855469 20.234375 8.746094 20.265625 C 8.636719 20.292969 8.515625 20.28125 8.414062 20.222656 L 8.410156 20.222656 C 8.308594 20.160156 8.238281 20.0625 8.207031 19.953125 C 8.179688 19.84375 8.191406 19.722656 8.25 19.621094 L 8.808594 18.65625 C 8.867188 18.5625 8.960938 18.496094 9.066406 18.46875 C 9.171875 18.441406 9.289062 18.449219 9.390625 18.503906 L 9.417969 18.519531 C 9.511719 18.582031 9.578125 18.675781 9.605469 18.78125 C 9.636719 18.890625 9.625 19.007812 9.5625 19.113281 L 9.082031 19.941406 L 9.082031 19.949219 Z M 7.410156 18.253906 L 7.714844 17.730469 C 7.773438 17.625 7.871094 17.554688 7.980469 17.527344 C 8.085938 17.496094 8.203125 17.507812 8.304688 17.5625 L 8.328125 17.578125 C 8.425781 17.636719 8.492188 17.730469 8.523438 17.835938 C 8.550781 17.945312 8.539062 18.066406 8.480469 18.171875 C 8.25 18.566406 8.003906 18.96875 7.789062 19.367188 C 7.726562 19.464844 7.632812 19.53125 7.527344 19.558594 C 7.421875 19.589844 7.304688 19.578125 7.203125 19.523438 C 7.195312 19.519531 7.183594 19.511719 7.175781 19.507812 C 7.078125 19.445312 7.015625 19.351562 6.984375 19.25 C 6.957031 19.144531 6.96875 19.03125 7.019531 18.929688 C 7.027344 18.917969 7.035156 18.90625 7.039062 18.894531 L 7.046875 18.882812 L 7.0625 18.855469 Z M 6.945312 18.003906 L 6.605469 18.59375 C 6.535156 18.714844 6.421875 18.792969 6.296875 18.828125 C 6.175781 18.859375 6.042969 18.851562 5.925781 18.789062 C 5.917969 18.78125 5.90625 18.773438 5.894531 18.769531 C 5.78125 18.699219 5.707031 18.589844 5.675781 18.46875 C 5.640625 18.351562 5.652344 18.222656 5.710938 18.105469 L 5.71875 18.09375 L 5.71875 18.089844 L 5.722656 18.089844 L 5.726562 18.082031 L 5.726562 18.078125 C 5.800781 17.953125 5.871094 17.832031 5.941406 17.707031 L 6.371094 16.960938 L 6.375 16.957031 L 6.382812 16.945312 L 6.53125 16.6875 C 6.601562 16.566406 6.714844 16.484375 6.839844 16.453125 C 6.96875 16.417969 7.105469 16.429688 7.226562 16.5 L 7.238281 16.507812 C 7.351562 16.578125 7.429688 16.6875 7.464844 16.808594 C 7.496094 16.9375 7.484375 17.074219 7.414062 17.195312 L 7.238281 17.496094 C 7.140625 17.664062 7.042969 17.835938 6.945312 18.003906 Z M 5.960938 16.359375 C 5.992188 16.46875 5.976562 16.589844 5.917969 16.695312 L 5.234375 17.878906 C 5.171875 17.984375 5.074219 18.054688 4.964844 18.082031 C 4.855469 18.113281 4.734375 18.101562 4.628906 18.039062 C 4.523438 17.980469 4.453125 17.882812 4.425781 17.773438 C 4.394531 17.664062 4.40625 17.542969 4.46875 17.4375 L 4.6875 17.058594 L 4.691406 17.050781 L 5.152344 16.253906 C 5.214844 16.148438 5.3125 16.078125 5.421875 16.050781 C 5.53125 16.019531 5.652344 16.03125 5.757812 16.089844 L 5.757812 16.09375 C 5.863281 16.152344 5.933594 16.25 5.960938 16.359375 Z M 5.960938 16.359375 " fill-opacity="1" fill-rule="evenodd"/></g><path stroke-linecap="butt" transform="matrix(0.362903, 0.00000000000000002, -0.00000000000000002, 0.362903, 4.193548, 3.030434)" fill="none" stroke-linejoin="miter" d="M 0.00486264 1.003291 L 31.995141 1.003291 " stroke="#77c655" stroke-width="2" stroke-opacity="1" stroke-miterlimit="4"/></g></g></svg>