<svg xmlns="http://www.w3.org/2000/svg" xmlns:xlink="http://www.w3.org/1999/xlink" width="40" zoomAndPan="magnify" viewBox="0 0 30 30.000001" height="40" preserveAspectRatio="xMidYMid meet" version="1.0"><defs><clipPath id="adfdb87250"><path d="M 0.484375 0 L 29.515625 0 L 29.515625 29.03125 L 0.484375 29.03125 Z M 0.484375 0 " clip-rule="nonzero"/></clipPath><clipPath id="7304273f72"><path d="M 5.09375 12 L 17 12 L 17 24.207031 L 5.09375 24.207031 Z M 5.09375 12 " clip-rule="nonzero"/></clipPath><clipPath id="31d7ae62cd"><path d="M 10 4.609375 L 24.691406 4.609375 L 24.691406 19 L 10 19 Z M 10 4.609375 " clip-rule="nonzero"/></clipPath></defs><g clip-path="url(#adfdb87250)"><path fill="#ffffff" d="M 0.484375 0 L 29.515625 0 L 29.515625 29.03125 L 0.484375 29.03125 Z M 0.484375 0 " fill-opacity="1" fill-rule="nonzero"/><path fill="#ffffff" d="M 0.484375 0 L 29.515625 0 L 29.515625 29.03125 L 0.484375 29.03125 Z M 0.484375 0 " fill-opacity="1" fill-rule="nonzero"/></g><g clip-path="url(#7304273f72)"><path fill="#77c655" d="M 14.625 19.066406 L 11.605469 22.082031 C 11.019531 22.667969 10.25 22.960938 9.480469 22.960938 C 8.742188 22.960938 8.007812 22.691406 7.441406 22.140625 C 6.871094 21.585938 6.554688 20.84375 6.550781 20.046875 C 6.546875 19.25 6.851562 18.503906 7.414062 17.941406 L 10.457031 14.898438 C 10.429688 14.675781 10.414062 14.445312 10.414062 14.21875 C 10.414062 13.667969 10.503906 13.121094 10.679688 12.613281 L 6.378906 16.914062 C 5.550781 17.746094 5.09375 18.851562 5.09375 20.027344 C 5.09375 21.191406 5.542969 22.289062 6.359375 23.117188 C 7.175781 23.949219 8.273438 24.40625 9.460938 24.410156 L 9.476562 24.410156 C 10.675781 24.410156 11.804688 23.949219 12.648438 23.101562 L 16.910156 18.84375 C 16.402344 19.019531 15.863281 19.109375 15.304688 19.109375 C 15.074219 19.109375 14.847656 19.09375 14.625 19.066406 Z M 14.625 19.066406 " fill-opacity="1" fill-rule="nonzero"/></g><g clip-path="url(#31d7ae62cd)"><path fill="#36383e" d="M 23.617188 5.90625 C 22.757812 5.046875 21.632812 4.621094 20.503906 4.621094 C 19.378906 4.621094 18.25 5.046875 17.394531 5.90625 L 12.191406 11.109375 C 12.101562 11.199219 12.015625 11.292969 11.933594 11.386719 L 11.929688 11.390625 C 11.917969 11.402344 11.910156 11.414062 11.902344 11.421875 C 11.902344 11.421875 11.902344 11.421875 11.898438 11.425781 C 11.25 12.210938 10.898438 13.1875 10.898438 14.21875 C 10.898438 14.460938 10.921875 14.695312 10.957031 14.929688 C 10.960938 14.941406 10.960938 14.953125 10.960938 14.960938 C 11.109375 15.859375 11.535156 16.679688 12.1875 17.332031 C 12.839844 17.984375 13.664062 18.410156 14.558594 18.558594 C 14.570312 18.558594 14.582031 18.5625 14.589844 18.5625 C 14.820312 18.597656 15.0625 18.621094 15.300781 18.621094 C 16.332031 18.621094 17.308594 18.269531 18.09375 17.621094 C 18.09375 17.621094 18.09375 17.621094 18.097656 17.617188 C 18.105469 17.609375 18.121094 17.601562 18.128906 17.59375 L 18.132812 17.589844 C 18.230469 17.503906 18.320312 17.417969 18.414062 17.328125 L 23.613281 12.128906 C 25.335938 10.414062 25.335938 7.625 23.617188 5.90625 Z M 22.585938 11.105469 L 17.382812 16.304688 C 17.109375 16.582031 16.78125 16.800781 16.429688 16.945312 C 16.082031 17.089844 15.695312 17.167969 15.304688 17.167969 L 15.285156 17.167969 C 14.488281 17.164062 13.742188 16.84375 13.191406 16.277344 C 12.207031 15.265625 12.113281 13.695312 12.890625 12.550781 C 12.902344 12.523438 12.917969 12.496094 12.941406 12.472656 C 12.949219 12.46875 12.953125 12.464844 12.957031 12.464844 C 13.046875 12.347656 13.144531 12.226562 13.253906 12.117188 L 18.390625 6.96875 C 19.539062 5.820312 21.410156 5.792969 22.554688 6.90625 C 23.125 7.457031 23.445312 8.203125 23.449219 9 C 23.453125 9.796875 23.148438 10.542969 22.585938 11.105469 Z M 22.585938 11.105469 " fill-opacity="1" fill-rule="nonzero"/></g><path fill="#77c655" d="M 15.542969 10.503906 L 14.105469 11.941406 C 14.371094 11.886719 14.648438 11.867188 14.921875 11.886719 C 15.621094 11.941406 16.28125 12.242188 16.78125 12.742188 C 17.28125 13.242188 17.582031 13.902344 17.636719 14.605469 C 17.65625 14.875 17.640625 15.152344 17.582031 15.417969 L 19.019531 13.980469 C 18.855469 13.117188 18.4375 12.335938 17.808594 11.714844 C 17.1875 11.085938 16.402344 10.671875 15.542969 10.503906 Z M 15.542969 10.503906 " fill-opacity="1" fill-rule="nonzero"/><path fill="#36383e" d="M 7.433594 11.070312 L 9.632812 11.660156 C 9.652344 11.664062 9.675781 11.667969 9.695312 11.667969 C 9.800781 11.667969 9.902344 11.597656 9.929688 11.488281 C 9.964844 11.359375 9.890625 11.222656 9.757812 11.191406 L 7.558594 10.601562 C 7.429688 10.566406 7.292969 10.640625 7.257812 10.773438 C 7.226562 10.902344 7.304688 11.035156 7.433594 11.070312 Z M 7.433594 11.070312 " fill-opacity="1" fill-rule="nonzero"/><path fill="#36383e" d="M 10.628906 10.492188 C 10.675781 10.542969 10.738281 10.5625 10.800781 10.5625 C 10.863281 10.5625 10.925781 10.539062 10.972656 10.492188 C 11.070312 10.398438 11.070312 10.246094 10.972656 10.144531 L 8.527344 7.699219 C 8.433594 7.601562 8.277344 7.601562 8.183594 7.699219 C 8.089844 7.792969 8.089844 7.945312 8.183594 8.046875 Z M 10.628906 10.492188 " fill-opacity="1" fill-rule="nonzero"/><path fill="#36383e" d="M 11.664062 9.285156 C 11.691406 9.390625 11.792969 9.464844 11.898438 9.464844 C 11.917969 9.464844 11.941406 9.460938 11.960938 9.457031 C 12.089844 9.421875 12.167969 9.289062 12.132812 9.160156 L 11.542969 6.960938 C 11.511719 6.832031 11.375 6.753906 11.246094 6.785156 C 11.117188 6.820312 11.039062 6.957031 11.074219 7.082031 Z M 11.664062 9.285156 " fill-opacity="1" fill-rule="nonzero"/><path fill="#36383e" d="M 18.332031 19.761719 C 18.300781 19.636719 18.164062 19.558594 18.035156 19.589844 C 17.90625 19.621094 17.832031 19.757812 17.863281 19.886719 L 18.453125 22.085938 C 18.484375 22.195312 18.582031 22.269531 18.6875 22.269531 C 18.710938 22.269531 18.730469 22.265625 18.75 22.261719 C 18.878906 22.226562 18.957031 22.089844 18.925781 21.964844 Z M 18.332031 19.761719 " fill-opacity="1" fill-rule="nonzero"/><path fill="#36383e" d="M 19.375 18.554688 C 19.277344 18.457031 19.125 18.457031 19.027344 18.554688 C 18.933594 18.648438 18.933594 18.800781 19.027344 18.894531 L 21.476562 21.34375 C 21.523438 21.394531 21.585938 21.414062 21.648438 21.414062 C 21.710938 21.414062 21.773438 21.390625 21.820312 21.34375 C 21.917969 21.25 21.917969 21.097656 21.820312 21 Z M 19.375 18.554688 " fill-opacity="1" fill-rule="nonzero"/><path fill="#36383e" d="M 22.566406 17.976562 L 20.363281 17.390625 C 20.238281 17.355469 20.101562 17.429688 20.066406 17.5625 C 20.035156 17.691406 20.109375 17.828125 20.242188 17.859375 L 22.441406 18.449219 C 22.460938 18.453125 22.480469 18.457031 22.503906 18.457031 C 22.609375 18.457031 22.710938 18.390625 22.738281 18.277344 C 22.773438 18.144531 22.695312 18.011719 22.566406 17.976562 Z M 22.566406 17.976562 " fill-opacity="1" fill-rule="nonzero"/></svg>