<svg xmlns="http://www.w3.org/2000/svg" xmlns:xlink="http://www.w3.org/1999/xlink" width="40" zoomAndPan="magnify" viewBox="0 0 30 30.000001" height="40" preserveAspectRatio="xMidYMid meet" version="1.0"><defs><clipPath id="cdb7ae8869"><path d="M 0.484375 0 L 29.515625 0 L 29.515625 29.03125 L 0.484375 29.03125 Z M 0.484375 0 " clip-rule="nonzero"/></clipPath><clipPath id="7f731b41a2"><path d="M 5.429688 7.136719 L 24.300781 7.136719 L 24.300781 23.832031 L 5.429688 23.832031 Z M 5.429688 7.136719 " clip-rule="nonzero"/></clipPath><clipPath id="95ca33bbab"><path d="M 9.195312 13 L 12 13 L 12 15 L 9.195312 15 Z M 9.195312 13 " clip-rule="nonzero"/></clipPath><clipPath id="05e025b7ed"><path d="M 15 13 L 16.453125 13 L 16.453125 15 L 15 15 Z M 15 13 " clip-rule="nonzero"/></clipPath></defs><g clip-path="url(#cdb7ae8869)"><path fill="#ffffff" d="M 0.484375 0 L 29.515625 0 L 29.515625 29.03125 L 0.484375 29.03125 Z M 0.484375 0 " fill-opacity="1" fill-rule="nonzero"/><path fill="#ffffff" d="M 0.484375 0 L 29.515625 0 L 29.515625 29.03125 L 0.484375 29.03125 Z M 0.484375 0 " fill-opacity="1" fill-rule="nonzero"/></g><g clip-path="url(#7f731b41a2)"><path fill="#000000" d="M 22.265625 21.53125 C 22.574219 21.238281 22.855469 20.910156 23.101562 20.5625 C 23.878906 19.480469 24.285156 18.21875 24.285156 16.921875 C 24.285156 13.90625 22.09375 11.292969 18.9375 10.527344 C 17.664062 8.433594 15.265625 7.136719 12.648438 7.136719 C 8.675781 7.136719 5.445312 10.113281 5.445312 13.769531 C 5.445312 15.066406 5.851562 16.324219 6.625 17.40625 C 6.863281 17.746094 7.148438 18.070312 7.464844 18.375 L 6.347656 20.015625 C 6.308594 20.074219 6.292969 20.148438 6.3125 20.21875 C 6.328125 20.289062 6.375 20.347656 6.441406 20.378906 C 6.820312 20.574219 7.253906 20.675781 7.691406 20.675781 C 8.5 20.675781 9.234375 20.34375 9.664062 19.800781 C 10.03125 19.953125 10.410156 20.078125 10.789062 20.167969 C 12.0625 22.257812 14.460938 23.554688 17.078125 23.554688 C 18.125 23.554688 19.128906 23.355469 20.066406 22.960938 C 20.488281 23.5 21.226562 23.832031 22.039062 23.832031 C 22.484375 23.832031 22.917969 23.730469 23.289062 23.539062 C 23.355469 23.507812 23.402344 23.449219 23.417969 23.378906 C 23.4375 23.308594 23.421875 23.234375 23.382812 23.175781 Z M 9.371094 19.359375 C 9.0625 19.855469 8.40625 20.175781 7.691406 20.175781 C 7.425781 20.175781 7.167969 20.132812 6.921875 20.046875 L 7.992188 18.476562 C 8.0625 18.375 8.046875 18.230469 7.953125 18.148438 C 7.59375 17.828125 7.28125 17.480469 7.023438 17.113281 C 6.3125 16.117188 5.933594 14.960938 5.933594 13.769531 C 5.933594 10.386719 8.945312 7.636719 12.648438 7.636719 C 15.132812 7.636719 17.402344 8.875 18.574219 10.871094 C 19.097656 11.75 19.371094 12.753906 19.371094 13.769531 C 19.371094 17.152344 16.355469 19.902344 12.648438 19.902344 C 12.078125 19.902344 11.523438 19.835938 10.992188 19.707031 C 10.546875 19.605469 10.101562 19.457031 9.679688 19.261719 C 9.566406 19.210938 9.433594 19.253906 9.371094 19.359375 Z M 22.039062 23.332031 C 21.320312 23.332031 20.660156 23.011719 20.363281 22.519531 C 20.316406 22.445312 20.234375 22.402344 20.152344 22.402344 C 20.117188 22.402344 20.085938 22.410156 20.050781 22.421875 C 19.125 22.84375 18.125 23.058594 17.078125 23.058594 C 14.804688 23.058594 12.707031 22.019531 11.46875 20.308594 C 11.503906 20.316406 11.535156 20.316406 11.566406 20.320312 C 11.695312 20.339844 11.824219 20.355469 11.953125 20.367188 C 12.003906 20.371094 12.058594 20.375 12.113281 20.378906 C 12.289062 20.390625 12.46875 20.402344 12.648438 20.402344 C 16.628906 20.402344 19.863281 17.425781 19.863281 13.769531 C 19.863281 13.640625 19.859375 13.515625 19.851562 13.386719 C 19.847656 13.347656 19.84375 13.304688 19.839844 13.265625 C 19.832031 13.179688 19.824219 13.089844 19.8125 13.003906 C 19.808594 12.957031 19.800781 12.914062 19.792969 12.867188 C 19.78125 12.785156 19.765625 12.703125 19.75 12.621094 C 19.742188 12.574219 19.734375 12.53125 19.726562 12.484375 C 19.707031 12.394531 19.683594 12.308594 19.660156 12.21875 C 19.652344 12.183594 19.644531 12.148438 19.636719 12.113281 C 19.601562 11.992188 19.5625 11.871094 19.523438 11.75 C 19.515625 11.726562 19.503906 11.707031 19.496094 11.683594 C 19.460938 11.585938 19.425781 11.488281 19.386719 11.394531 C 19.367188 11.355469 19.347656 11.3125 19.332031 11.273438 C 19.3125 11.226562 19.292969 11.175781 19.269531 11.128906 C 21.960938 11.96875 23.796875 14.28125 23.796875 16.921875 C 23.796875 18.113281 23.417969 19.269531 22.707031 20.269531 C 22.4375 20.652344 22.125 20.996094 21.78125 21.300781 C 21.683594 21.386719 21.667969 21.527344 21.738281 21.632812 L 22.808594 23.207031 C 22.566406 23.289062 22.308594 23.332031 22.039062 23.332031 Z M 22.039062 23.332031 " fill-opacity="1" fill-rule="nonzero"/></g><path fill="#000000" d="M 9.929688 13.0625 C 9.46875 13.0625 9.140625 13.410156 9.140625 13.90625 C 9.140625 14.386719 9.457031 14.75 9.917969 14.75 C 10.40625 14.75 10.707031 14.386719 10.707031 13.90625 C 10.707031 13.410156 10.390625 13.0625 9.929688 13.0625 Z M 9.929688 13.0625 " fill-opacity="1" fill-rule="nonzero"/><path fill="#000000" d="M 12.644531 14.75 C 13.132812 14.75 13.4375 14.386719 13.4375 13.90625 C 13.4375 13.410156 13.121094 13.0625 12.660156 13.0625 C 12.199219 13.0625 11.867188 13.410156 11.867188 13.90625 C 11.867188 14.386719 12.1875 14.75 12.644531 14.75 Z M 12.644531 14.75 " fill-opacity="1" fill-rule="nonzero"/><path fill="#000000" d="M 15.375 14.75 C 15.863281 14.75 16.167969 14.386719 16.167969 13.90625 C 16.167969 13.410156 15.851562 13.0625 15.390625 13.0625 C 14.925781 13.0625 14.597656 13.410156 14.597656 13.90625 C 14.597656 14.386719 14.914062 14.75 15.375 14.75 Z M 15.375 14.75 " fill-opacity="1" fill-rule="nonzero"/><g clip-path="url(#95ca33bbab)"><path fill="#77c655" d="M 10.714844 13.292969 C 10.894531 13.414062 11 13.578125 11.042969 13.789062 C 11.082031 13.996094 11.042969 14.191406 10.921875 14.367188 C 10.804688 14.542969 10.640625 14.652344 10.429688 14.691406 C 10.21875 14.730469 10.027344 14.691406 9.851562 14.574219 C 9.675781 14.453125 9.566406 14.289062 9.527344 14.078125 C 9.484375 13.871094 9.523438 13.675781 9.644531 13.5 C 9.765625 13.324219 9.929688 13.214844 10.136719 13.175781 C 10.347656 13.136719 10.539062 13.175781 10.714844 13.292969 Z M 10.714844 13.292969 " fill-opacity="1" fill-rule="nonzero"/></g><path fill="#77c655" d="M 13.460938 13.292969 C 13.636719 13.414062 13.746094 13.578125 13.785156 13.789062 C 13.828125 13.996094 13.789062 14.191406 13.667969 14.367188 C 13.546875 14.542969 13.382812 14.652344 13.175781 14.691406 C 12.964844 14.730469 12.773438 14.691406 12.597656 14.574219 C 12.421875 14.453125 12.3125 14.289062 12.273438 14.078125 C 12.230469 13.871094 12.269531 13.675781 12.390625 13.5 C 12.507812 13.324219 12.675781 13.214844 12.882812 13.175781 C 13.09375 13.136719 13.285156 13.175781 13.460938 13.292969 Z M 13.460938 13.292969 " fill-opacity="1" fill-rule="nonzero"/><g clip-path="url(#05e025b7ed)"><path fill="#77c655" d="M 16.523438 13.742188 C 16.574219 13.945312 16.546875 14.140625 16.441406 14.324219 C 16.332031 14.507812 16.175781 14.628906 15.96875 14.679688 C 15.761719 14.734375 15.566406 14.707031 15.382812 14.597656 C 15.199219 14.492188 15.082031 14.335938 15.027344 14.128906 C 14.972656 13.921875 15 13.726562 15.109375 13.542969 C 15.21875 13.359375 15.375 13.242188 15.582031 13.1875 C 15.789062 13.132812 15.984375 13.160156 16.167969 13.269531 C 16.351562 13.378906 16.46875 13.535156 16.523438 13.742188 Z M 16.523438 13.742188 " fill-opacity="1" fill-rule="nonzero"/></g></svg>