<svg xmlns="http://www.w3.org/2000/svg" xmlns:xlink="http://www.w3.org/1999/xlink" width="40" zoomAndPan="magnify" viewBox="0 0 30 30.000001" height="40" preserveAspectRatio="xMidYMid meet" version="1.0"><defs><clipPath id="29e23f5ece"><path d="M 0.484375 0 L 29.515625 0 L 29.515625 29.03125 L 0.484375 29.03125 Z M 0.484375 0 " clip-rule="nonzero"/></clipPath><clipPath id="006d626982"><path d="M 21 13 L 25.160156 13 L 25.160156 20 L 21 20 Z M 21 13 " clip-rule="nonzero"/></clipPath><clipPath id="e865357c14"><path d="M 4.839844 13 L 9 13 L 9 20 L 4.839844 20 Z M 4.839844 13 " clip-rule="nonzero"/></clipPath><clipPath id="f941ec4cbf"><path d="M 6 9 L 24 9 L 24 24.675781 L 6 24.675781 Z M 6 9 " clip-rule="nonzero"/></clipPath><clipPath id="3b720359d1"><path d="M 15 4.355469 L 25.160156 4.355469 L 25.160156 11 L 15 11 Z M 15 4.355469 " clip-rule="nonzero"/></clipPath></defs><g clip-path="url(#29e23f5ece)"><path fill="#ffffff" d="M 0.484375 0 L 29.515625 0 L 29.515625 29.03125 L 0.484375 29.03125 Z M 0.484375 0 " fill-opacity="1" fill-rule="nonzero"/><path fill="#ffffff" d="M 0.484375 0 L 29.515625 0 L 29.515625 29.03125 L 0.484375 29.03125 Z M 0.484375 0 " fill-opacity="1" fill-rule="nonzero"/></g><path fill="#77c655" d="M 15.003906 14.167969 C 14.425781 14.167969 13.84375 14.003906 13.339844 13.6875 C 12.328125 13.042969 11.773438 11.867188 11.917969 10.675781 C 11.933594 10.558594 12.042969 10.46875 12.167969 10.484375 C 12.289062 10.496094 12.378906 10.609375 12.363281 10.734375 C 12.234375 11.75 12.714844 12.761719 13.578125 13.3125 C 14.441406 13.863281 15.566406 13.863281 16.429688 13.3125 C 17.292969 12.761719 17.777344 11.75 17.644531 10.734375 C 17.632812 10.613281 17.714844 10.503906 17.839844 10.484375 C 17.960938 10.46875 18.070312 10.554688 18.089844 10.675781 C 18.238281 11.867188 17.683594 13.046875 16.671875 13.6875 C 16.15625 14.003906 15.578125 14.167969 15.003906 14.167969 Z M 15.003906 14.167969 " fill-opacity="1" fill-rule="evenodd"/><g clip-path="url(#006d626982)"><path fill="#77c655" d="M 24.164062 19.523438 L 23.070312 19.523438 C 22.949219 19.523438 22.851562 19.425781 22.851562 19.300781 C 22.851562 19.175781 22.949219 19.082031 23.070312 19.082031 L 24.164062 19.082031 C 24.46875 19.082031 24.71875 18.832031 24.71875 18.527344 L 24.71875 14.585938 C 24.71875 14.28125 24.46875 14.03125 24.164062 14.03125 L 21.777344 14.03125 C 21.65625 14.03125 21.554688 13.9375 21.554688 13.8125 C 21.554688 13.6875 21.65625 13.589844 21.777344 13.589844 L 24.164062 13.589844 C 24.714844 13.589844 25.160156 14.039062 25.160156 14.585938 L 25.160156 18.527344 C 25.160156 19.074219 24.714844 19.523438 24.164062 19.523438 Z M 24.164062 19.523438 " fill-opacity="1" fill-rule="evenodd"/></g><path fill="#000000" d="M 7.03125 14.03125 C 6.90625 14.03125 6.808594 13.9375 6.808594 13.8125 L 6.808594 8.039062 C 6.808594 7.914062 6.90625 7.816406 7.03125 7.816406 C 7.152344 7.816406 7.25 7.914062 7.25 8.039062 L 7.25 13.8125 C 7.25 13.929688 7.148438 14.03125 7.03125 14.03125 Z M 7.03125 14.03125 " fill-opacity="1" fill-rule="evenodd"/><g clip-path="url(#e865357c14)"><path fill="#77c655" d="M 6.929688 19.523438 L 5.835938 19.523438 C 5.285156 19.523438 4.839844 19.074219 4.839844 18.527344 L 4.839844 14.585938 C 4.839844 14.039062 5.285156 13.589844 5.835938 13.589844 L 8.222656 13.589844 C 8.34375 13.589844 8.445312 13.691406 8.445312 13.8125 C 8.445312 13.929688 8.347656 14.03125 8.222656 14.03125 L 5.835938 14.03125 C 5.53125 14.03125 5.28125 14.28125 5.28125 14.585938 L 5.28125 18.527344 C 5.28125 18.832031 5.53125 19.082031 5.835938 19.082031 L 6.929688 19.082031 C 7.046875 19.082031 7.148438 19.183594 7.148438 19.300781 C 7.148438 19.421875 7.050781 19.523438 6.929688 19.523438 Z M 6.929688 19.523438 " fill-opacity="1" fill-rule="evenodd"/></g><g clip-path="url(#f941ec4cbf)"><path fill="#000000" d="M 15.003906 10.410156 C 10.628906 10.410156 7.070312 13.96875 7.070312 18.339844 C 7.070312 20.15625 7.917969 21.679688 9.511719 22.746094 C 10.949219 23.707031 12.890625 24.234375 14.980469 24.234375 C 17.078125 24.234375 19.027344 23.703125 20.476562 22.742188 C 22.082031 21.671875 22.933594 20.148438 22.933594 18.339844 C 22.933594 13.96875 19.375 10.410156 15.003906 10.410156 Z M 14.980469 24.675781 C 12.800781 24.675781 10.773438 24.121094 9.261719 23.113281 C 7.539062 21.960938 6.621094 20.308594 6.621094 18.339844 C 6.621094 13.722656 10.378906 9.964844 14.996094 9.964844 C 19.613281 9.964844 23.371094 13.722656 23.371094 18.339844 C 23.371094 20.304688 22.453125 21.957031 20.71875 23.109375 C 19.199219 24.121094 17.160156 24.675781 14.980469 24.675781 Z M 14.980469 24.675781 " fill-opacity="1" fill-rule="evenodd"/></g><path fill="#77c655" d="M 10.613281 15.695312 C 9.820312 15.695312 9.394531 17.214844 9.394531 18.636719 C 9.394531 20.058594 9.820312 21.574219 10.613281 21.574219 L 19.386719 21.574219 C 19.824219 21.574219 20.105469 21.113281 20.257812 20.726562 C 20.476562 20.183594 20.597656 19.421875 20.597656 18.636719 C 20.597656 17.214844 20.175781 15.695312 19.382812 15.695312 Z M 19.386719 22.019531 L 10.613281 22.019531 C 9.464844 22.019531 8.953125 20.320312 8.953125 18.636719 C 8.953125 17.78125 9.085938 16.976562 9.328125 16.382812 C 9.699219 15.449219 10.234375 15.253906 10.613281 15.253906 L 19.386719 15.253906 C 20.535156 15.253906 21.046875 16.953125 21.046875 18.636719 C 21.046875 20.320312 20.535156 22.019531 19.386719 22.019531 Z M 19.386719 22.019531 " fill-opacity="1" fill-rule="evenodd"/><path fill="#000000" d="M 11.886719 17.222656 C 11.453125 17.222656 11.097656 17.578125 11.097656 18.011719 C 11.097656 18.445312 11.453125 18.804688 11.886719 18.804688 C 12.320312 18.804688 12.675781 18.445312 12.675781 18.011719 C 12.675781 17.574219 12.320312 17.222656 11.886719 17.222656 Z M 11.886719 19.246094 C 11.207031 19.246094 10.652344 18.691406 10.652344 18.011719 C 10.652344 17.332031 11.207031 16.777344 11.886719 16.777344 C 12.566406 16.777344 13.121094 17.332031 13.121094 18.011719 C 13.121094 18.691406 12.566406 19.246094 11.886719 19.246094 Z M 11.886719 19.246094 " fill-opacity="1" fill-rule="evenodd"/><path fill="#000000" d="M 18.113281 17.222656 C 17.679688 17.222656 17.324219 17.578125 17.324219 18.011719 C 17.324219 18.445312 17.679688 18.804688 18.113281 18.804688 C 18.546875 18.804688 18.902344 18.445312 18.902344 18.011719 C 18.902344 17.574219 18.550781 17.222656 18.113281 17.222656 Z M 18.113281 19.246094 C 17.433594 19.246094 16.878906 18.691406 16.878906 18.011719 C 16.878906 17.332031 17.433594 16.777344 18.113281 16.777344 C 18.792969 16.777344 19.347656 17.332031 19.347656 18.011719 C 19.347656 18.691406 18.792969 19.246094 18.113281 19.246094 Z M 18.113281 19.246094 " fill-opacity="1" fill-rule="evenodd"/><path fill="#000000" d="M 15.003906 20.953125 C 14.359375 20.953125 13.769531 20.628906 13.425781 20.082031 C 13.363281 19.980469 13.394531 19.84375 13.496094 19.777344 C 13.601562 19.714844 13.734375 19.746094 13.800781 19.847656 C 14.0625 20.261719 14.507812 20.507812 14.996094 20.507812 C 15.488281 20.507812 15.9375 20.257812 16.195312 19.847656 C 16.257812 19.746094 16.398438 19.714844 16.5 19.777344 C 16.605469 19.84375 16.632812 19.980469 16.570312 20.082031 C 16.230469 20.628906 15.644531 20.953125 15.003906 20.953125 Z M 15.003906 20.953125 " fill-opacity="1" fill-rule="evenodd"/><path fill="#77c655" d="M 7.03125 6.265625 C 6.601562 6.265625 6.253906 6.609375 6.253906 7.039062 C 6.253906 7.46875 6.601562 7.816406 7.03125 7.816406 C 7.460938 7.816406 7.804688 7.46875 7.804688 7.039062 C 7.804688 6.609375 7.460938 6.265625 7.03125 6.265625 Z M 7.03125 8.261719 C 6.355469 8.261719 5.808594 7.714844 5.808594 7.039062 C 5.808594 6.367188 6.355469 5.820312 7.03125 5.820312 C 7.703125 5.820312 8.25 6.367188 8.25 7.039062 C 8.25 7.710938 7.703125 8.261719 7.03125 8.261719 Z M 7.03125 8.261719 " fill-opacity="1" fill-rule="evenodd"/><g clip-path="url(#3b720359d1)"><path fill="#77c655" d="M 16.902344 4.796875 C 16.566406 4.796875 16.292969 5.070312 16.292969 5.410156 L 16.292969 8.113281 C 16.292969 8.449219 16.566406 8.722656 16.902344 8.722656 L 19.605469 8.722656 C 19.679688 8.722656 19.75 8.757812 19.789062 8.824219 L 20.507812 9.914062 L 21.222656 8.824219 C 21.265625 8.757812 21.335938 8.722656 21.410156 8.722656 L 24.113281 8.722656 C 24.449219 8.722656 24.722656 8.449219 24.722656 8.113281 L 24.722656 5.410156 C 24.722656 5.070312 24.449219 4.796875 24.113281 4.796875 Z M 20.503906 10.542969 C 20.429688 10.542969 20.359375 10.507812 20.316406 10.441406 L 19.484375 9.167969 L 16.902344 9.167969 C 16.320312 9.167969 15.847656 8.695312 15.847656 8.113281 L 15.847656 5.410156 C 15.847656 4.828125 16.320312 4.355469 16.902344 4.355469 L 24.109375 4.355469 C 24.691406 4.355469 25.160156 4.828125 25.160156 5.410156 L 25.160156 8.113281 C 25.160156 8.695312 24.691406 9.167969 24.109375 9.167969 L 21.523438 9.167969 L 20.6875 10.441406 C 20.648438 10.507812 20.582031 10.542969 20.503906 10.542969 Z M 20.503906 10.542969 " fill-opacity="1" fill-rule="evenodd"/></g><path fill="#77c655" d="M 18.5625 6.304688 L 17.742188 6.304688 C 17.621094 6.304688 17.519531 6.207031 17.519531 6.082031 C 17.519531 5.957031 17.617188 5.863281 17.742188 5.863281 L 18.5625 5.863281 C 18.6875 5.863281 18.78125 5.964844 18.78125 6.082031 C 18.78125 6.203125 18.6875 6.304688 18.5625 6.304688 Z M 23.261719 6.304688 L 19.726562 6.304688 C 19.601562 6.304688 19.503906 6.207031 19.503906 6.082031 C 19.503906 5.957031 19.601562 5.863281 19.726562 5.863281 L 23.261719 5.863281 C 23.386719 5.863281 23.484375 5.964844 23.484375 6.082031 C 23.484375 6.203125 23.386719 6.304688 23.261719 6.304688 Z M 23.261719 6.304688 " fill-opacity="1" fill-rule="evenodd"/><path fill="#77c655" d="M 21.277344 7.664062 L 17.742188 7.664062 C 17.621094 7.664062 17.519531 7.566406 17.519531 7.441406 C 17.519531 7.316406 17.617188 7.21875 17.742188 7.21875 L 21.277344 7.21875 C 21.402344 7.21875 21.5 7.320312 21.5 7.441406 C 21.5 7.5625 21.402344 7.664062 21.277344 7.664062 Z M 23.261719 7.664062 L 22.445312 7.664062 C 22.320312 7.664062 22.222656 7.566406 22.222656 7.441406 C 22.222656 7.316406 22.320312 7.21875 22.445312 7.21875 L 23.261719 7.21875 C 23.386719 7.21875 23.484375 7.320312 23.484375 7.441406 C 23.484375 7.5625 23.386719 7.664062 23.261719 7.664062 Z M 23.261719 7.664062 " fill-opacity="1" fill-rule="evenodd"/></svg>