<svg xmlns="http://www.w3.org/2000/svg" xmlns:xlink="http://www.w3.org/1999/xlink" width="40" zoomAndPan="magnify" viewBox="0 0 30 30.000001" height="40" preserveAspectRatio="xMidYMid meet" version="1.0"><defs><clipPath id="0729305165"><path d="M 0.484375 0 L 29.515625 0 L 29.515625 29.03125 L 0.484375 29.03125 Z M 0.484375 0 " clip-rule="nonzero"/></clipPath><clipPath id="23c49e5549"><path d="M 5.164062 4.679688 L 10 4.679688 L 10 9 L 5.164062 9 Z M 5.164062 4.679688 " clip-rule="nonzero"/></clipPath><clipPath id="e954d030bc"><path d="M 20 15 L 24.761719 15 L 24.761719 20 L 20 20 Z M 20 15 " clip-rule="nonzero"/></clipPath><clipPath id="2cc75de99f"><path d="M 20 20 L 24.761719 20 L 24.761719 24.277344 L 20 24.277344 Z M 20 20 " clip-rule="nonzero"/></clipPath><clipPath id="742ed03ed3"><path d="M 17 6 L 24.761719 6 L 24.761719 14 L 17 14 Z M 17 6 " clip-rule="nonzero"/></clipPath><clipPath id="abdfc8606d"><path d="M 5.164062 11 L 21 11 L 21 24 L 5.164062 24 Z M 5.164062 11 " clip-rule="nonzero"/></clipPath></defs><g clip-path="url(#0729305165)"><path fill="#ffffff" d="M 0.484375 0 L 29.515625 0 L 29.515625 29.03125 L 0.484375 29.03125 Z M 0.484375 0 " fill-opacity="1" fill-rule="nonzero"/><path fill="#ffffff" d="M 0.484375 0 L 29.515625 0 L 29.515625 29.03125 L 0.484375 29.03125 Z M 0.484375 0 " fill-opacity="1" fill-rule="nonzero"/></g><g clip-path="url(#23c49e5549)"><path fill="#000000" d="M 7.125 8.601562 C 8.207031 8.601562 9.085938 7.722656 9.085938 6.640625 C 9.085938 5.558594 8.207031 4.679688 7.125 4.679688 C 6.042969 4.679688 5.164062 5.558594 5.164062 6.640625 C 5.164062 7.722656 6.042969 8.601562 7.125 8.601562 Z M 7.125 5.335938 C 7.84375 5.335938 8.429688 5.921875 8.429688 6.640625 C 8.429688 7.363281 7.84375 7.949219 7.125 7.949219 C 6.40625 7.949219 5.820312 7.363281 5.820312 6.640625 C 5.820312 5.921875 6.40625 5.335938 7.125 5.335938 Z M 7.125 5.335938 " fill-opacity="1" fill-rule="nonzero"/></g><g clip-path="url(#e954d030bc)"><path fill="#000000" d="M 22.800781 15.785156 C 21.722656 15.785156 20.84375 16.664062 20.84375 17.746094 C 20.84375 18.828125 21.722656 19.707031 22.800781 19.707031 C 23.882812 19.707031 24.761719 18.828125 24.761719 17.746094 C 24.761719 16.664062 23.882812 15.785156 22.800781 15.785156 Z M 22.800781 19.050781 C 22.082031 19.050781 21.496094 18.464844 21.496094 17.746094 C 21.496094 17.027344 22.082031 16.441406 22.800781 16.441406 C 23.523438 16.441406 24.109375 17.027344 24.109375 17.746094 C 24.109375 18.464844 23.523438 19.050781 22.800781 19.050781 Z M 22.800781 19.050781 " fill-opacity="1" fill-rule="nonzero"/></g><g clip-path="url(#2cc75de99f)"><path fill="#000000" d="M 22.800781 20.359375 C 21.722656 20.359375 20.84375 21.238281 20.84375 22.320312 C 20.84375 23.398438 21.722656 24.277344 22.800781 24.277344 C 23.882812 24.277344 24.761719 23.398438 24.761719 22.320312 C 24.761719 21.238281 23.882812 20.359375 22.800781 20.359375 Z M 22.800781 23.625 C 22.082031 23.625 21.496094 23.039062 21.496094 22.320312 C 21.496094 21.597656 22.082031 21.011719 22.800781 21.011719 C 23.523438 21.011719 24.109375 21.597656 24.109375 22.320312 C 24.109375 23.039062 23.523438 23.625 22.800781 23.625 Z M 22.800781 23.625 " fill-opacity="1" fill-rule="nonzero"/></g><path fill="#000000" d="M 15.058594 7.390625 L 15.519531 7.851562 L 16.5 6.871094 C 16.628906 6.746094 16.628906 6.539062 16.5 6.410156 L 15.519531 5.429688 L 15.058594 5.890625 L 15.480469 6.316406 L 9.738281 6.316406 L 9.738281 6.96875 L 15.480469 6.96875 Z M 15.058594 7.390625 " fill-opacity="1" fill-rule="nonzero"/><path fill="#000000" d="M 13.886719 11.445312 L 13.425781 10.984375 L 12.445312 11.960938 C 12.320312 12.089844 12.320312 12.296875 12.445312 12.425781 L 13.425781 13.40625 L 13.886719 12.941406 L 13.464844 12.519531 L 19.210938 12.519531 L 19.210938 11.867188 L 13.464844 11.867188 Z M 13.886719 11.445312 " fill-opacity="1" fill-rule="nonzero"/><g clip-path="url(#742ed03ed3)"><path fill="#000000" d="M 21.660156 6.316406 L 17.25 6.316406 L 17.25 6.96875 L 21.660156 6.96875 C 23.011719 6.96875 24.109375 8.066406 24.109375 9.417969 C 24.109375 10.769531 23.011719 11.867188 21.660156 11.867188 L 20.976562 11.867188 L 21.398438 11.445312 L 20.9375 10.984375 L 19.957031 11.960938 C 19.832031 12.089844 19.832031 12.296875 19.957031 12.425781 L 20.9375 13.40625 L 21.398438 12.941406 L 20.976562 12.519531 L 21.660156 12.519531 C 23.371094 12.519531 24.761719 11.128906 24.761719 9.417969 C 24.761719 7.707031 23.371094 6.316406 21.660156 6.316406 Z M 21.660156 6.316406 " fill-opacity="1" fill-rule="nonzero"/></g><path fill="#000000" d="M 19.113281 18.957031 L 20.09375 17.976562 C 20.222656 17.847656 20.222656 17.644531 20.09375 17.515625 L 19.113281 16.535156 L 18.652344 16.996094 L 19.074219 17.417969 L 14.964844 17.417969 L 14.964844 18.074219 L 19.074219 18.074219 L 18.652344 18.496094 Z M 19.113281 18.957031 " fill-opacity="1" fill-rule="nonzero"/><g clip-path="url(#abdfc8606d)"><path fill="#000000" d="M 8.269531 18.074219 L 9.085938 18.074219 C 10.164062 18.074219 11.042969 18.953125 11.042969 20.03125 C 11.042969 21.472656 12.214844 22.644531 13.65625 22.644531 L 19.074219 22.644531 L 18.652344 23.066406 L 19.113281 23.53125 L 20.09375 22.550781 C 20.222656 22.421875 20.222656 22.214844 20.09375 22.085938 L 19.113281 21.109375 L 18.652344 21.570312 L 19.074219 21.992188 L 13.65625 21.992188 C 12.578125 21.992188 11.699219 21.113281 11.699219 20.03125 C 11.699219 19.25 11.351562 18.550781 10.808594 18.074219 L 13.195312 18.074219 L 12.773438 18.496094 L 13.234375 18.957031 L 14.214844 17.976562 C 14.34375 17.847656 14.34375 17.644531 14.214844 17.515625 L 13.234375 16.535156 L 12.773438 16.996094 L 13.195312 17.417969 L 8.269531 17.417969 C 6.917969 17.417969 5.820312 16.320312 5.820312 14.96875 C 5.820312 13.617188 6.917969 12.519531 8.269531 12.519531 L 11.699219 12.519531 L 11.699219 11.867188 L 8.269531 11.867188 C 6.558594 11.867188 5.164062 13.257812 5.164062 14.96875 C 5.164062 16.679688 6.558594 18.074219 8.269531 18.074219 Z M 8.269531 18.074219 " fill-opacity="1" fill-rule="nonzero"/></g><path fill="#000000" d="M 9.410156 20.359375 L 10.066406 20.359375 L 10.066406 21.011719 L 9.410156 21.011719 Z M 9.410156 20.359375 " fill-opacity="1" fill-rule="nonzero"/><path fill="#000000" d="M 8.105469 20.359375 L 8.757812 20.359375 L 8.757812 21.011719 L 8.105469 21.011719 Z M 8.105469 20.359375 " fill-opacity="1" fill-rule="nonzero"/><path fill="#000000" d="M 6.796875 20.359375 L 7.453125 20.359375 L 7.453125 21.011719 L 6.796875 21.011719 Z M 6.796875 20.359375 " fill-opacity="1" fill-rule="nonzero"/></svg>