<?xml version="1.0" encoding="iso-8859-1"?>
<!-- Generator: Adobe Illustrator 27.2.0, SVG Export Plug-In . SVG Version: 6.00 Build 0)  -->
<svg version="1.1" id="Capa_1" xmlns="http://www.w3.org/2000/svg" xmlns:xlink="http://www.w3.org/1999/xlink" x="0px" y="0px"
	 viewBox="0 0 510 510" style="enable-background:new 0 0 510 510;" xml:space="preserve">
<g>
	<g id="Book_1_">
		<path style="fill:#FFFFFF;" d="M499.995,109.66v332.203c0,0-37.373-41.525-120.424-41.525
			c-83.051,0-124.576,41.525-124.576,41.525s-41.525-41.525-124.576-41.525S9.995,441.864,9.995,441.864V109.66
			c0,0,37.373-41.526,120.424-41.526s124.576,41.526,124.576,41.526s41.525-41.526,124.576-41.526
			C462.622,68.135,499.995,109.66,499.995,109.66z"/>
		<g id="Book_00000044136351952653416190000003768415391243555476_">
			<path style="fill:#D2DCFD;" d="M185.98,407.095c-15.81-4.05-34.33-6.76-55.56-6.76c-83.05,0-120.42,41.53-120.42,41.53v-332.2
				c0,0,37.37-41.53,120.42-41.53c10.8,0,20.9,0.7,30.29,1.93c-34.69,42.26-55.51,96.34-55.51,155.27
				C105.2,297.455,136.37,362.285,185.98,407.095z"/>
			<path style="fill:#FFFFFF;" d="M500,418.985v22.88c0,0-4.82-5.36-14.85-12.22C490.24,426.275,495.19,422.725,500,418.985z"/>
		</g>
	</g>
	<g id="Book_00000082326781704755868270000007473579567785898920_">
		<g>
			<path style="fill:#1C2E72;" d="M507.43,102.975c-1.65-1.84-41.35-44.84-127.86-44.84c-67.53,0-108.94,26.17-124.57,38.38
				c-15.64-12.21-57.05-38.38-124.58-38.38c-86.51,0-126.21,43-127.86,44.84c-1.65,1.83-2.56,4.22-2.56,6.69v332.2
				c0,4.12,2.54,7.81,6.38,9.3c3.85,1.5,8.23,0.46,11.02-2.58c0.35-0.38,35.97-38.25,113.02-38.25c77.44,0,117.14,38.24,117.5,38.6
				c3.89,3.89,10.21,3.88,14.12,0.03c0.39-0.39,40.09-38.63,117.53-38.63c77.05,0,112.67,37.87,112.99,38.22
				c1.94,2.15,4.66,3.31,7.44,3.31c1.2,0,2.41-0.22,3.58-0.66c3.86-1.49,6.42-5.2,6.42-9.34v-332.2
				C510,107.195,509.08,104.805,507.43,102.975z M20,420.815v-306.91c9.46-8.49,45.02-35.77,110.42-35.77
				c65.6,0,104.12,27.44,114.58,36.05v307.43c-20.2-13.12-58.33-31.28-114.58-31.28C75.48,390.335,39.42,407.685,20,420.815z
				 M490,420.815c-19.43-13.13-55.49-30.48-110.43-30.48c-56.25,0-94.37,18.15-114.57,31.28v-307.47
				c10.42-8.66,48.57-36.01,114.57-36.01c65.4,0,100.96,27.28,110.43,35.77V420.815z"/>
		</g>
		<g>
			<path style="fill:#1C2E72;" d="M421.097,327.287h-83.051c-5.523,0-10-4.477-10-10s4.477-10,10-10h83.051c5.523,0,10,4.477,10,10
				S426.62,327.287,421.097,327.287z"/>
		</g>
		<g>
			<path style="fill:#1C2E72;" d="M421.097,244.237h-83.051c-5.523,0-10-4.477-10-10s4.477-10,10-10h83.051c5.523,0,10,4.477,10,10
				S426.62,244.237,421.097,244.237z"/>
		</g>
		<g>
			<path style="fill:#1C2E72;" d="M421.097,161.186h-83.051c-5.523,0-10-4.477-10-10s4.477-10,10-10h83.051c5.523,0,10,4.477,10,10
				S426.62,161.186,421.097,161.186z"/>
		</g>
		<g>
			<path style="fill:#1C2E72;" d="M171.944,161.186H88.893c-5.523,0-10-4.477-10-10s4.477-10,10-10h83.051c5.523,0,10,4.477,10,10
				S177.467,161.186,171.944,161.186z"/>
		</g>
		<g>
			<path style="fill:#1C2E72;" d="M171.944,244.237H88.893c-5.523,0-10-4.477-10-10s4.477-10,10-10h83.051c5.523,0,10,4.477,10,10
				S177.467,244.237,171.944,244.237z"/>
		</g>
		<g>
			<path style="fill:#1C2E72;" d="M171.944,327.287H88.893c-5.523,0-10-4.477-10-10s4.477-10,10-10h83.051c5.523,0,10,4.477,10,10
				S177.467,327.287,171.944,327.287z"/>
		</g>
	</g>
</g>
<g>
</g>
<g>
</g>
<g>
</g>
<g>
</g>
<g>
</g>
<g>
</g>
<g>
</g>
<g>
</g>
<g>
</g>
<g>
</g>
<g>
</g>
<g>
</g>
<g>
</g>
<g>
</g>
<g>
</g>
</svg>
